<svg width="202" height="44" viewBox="0 0 202 44" fill="none" xmlns="http://www.w3.org/2000/svg">
<path d="M32.4 18.5C32.4 19.2 31.9 19.7 31.2 19.7C30.5 19.7 30 19.2 30 18.5C30 17.8 30.5 17.3 31.2 17.3C31.9 17.3 32.4 17.9 32.4 18.5ZM27.4 21C27.4 21.1 27.4 21.3 27.4 21.3C27.4 21.3 26.8 20.5 25.6 20.5C23.6 20.5 22 22.1 22 24.2C22 26.3 23.6 27.9 25.6 27.9C26.9 27.9 27.4 27.1 27.4 27.1V27.4C27.4 27.6 27.5 27.7 27.7 27.7H29.2V20.6C29.2 20.6 27.8 20.6 27.7 20.6C27.5 20.7 27.4 20.9 27.4 21ZM27.4 25.5C27.1 25.9 26.6 26.3 25.9 26.3C24.7 26.3 23.8 25.5 23.8 24.3C23.8 23.1 24.7 22.3 25.9 22.3C26.6 22.3 27.2 22.7 27.4 23.1V25.5ZM30.3 20.7H32.1V27.8H30.3V20.7ZM57.3 20.6C56.1 20.6 55.5 21.4 55.5 21.4V17.4H53.7V27.9C53.7 27.9 55.1 27.9 55.2 27.9C55.4 27.9 55.5 27.8 55.5 27.6V27.3C55.5 27.3 56.1 28.1 57.3 28.1C59.3 28.1 60.9 26.5 60.9 24.4C60.9 22.1 59.3 20.6 57.3 20.6ZM57 26.3C56.3 26.3 55.8 25.9 55.5 25.5V23C55.8 22.6 56.4 22.2 57 22.2C58.2 22.2 59.1 23 59.1 24.2C59.1 25.4 58.2 26.3 57 26.3ZM52.7 23.6V27.8H50.9V23.8C50.9 22.6 50.5 22.2 49.5 22.2C49 22.2 48.4 22.5 48 22.9V27.8H46.2V20.7H47.6C47.8 20.7 47.9 20.8 47.9 21V21.3C48.4 20.8 49.1 20.5 49.8 20.5C50.6 20.5 51.2 20.7 51.8 21.2C52.4 21.8 52.7 22.4 52.7 23.6ZM41.8 20.6C40.6 20.6 40 21.4 40 21.4V17.4H38.2V27.9C38.2 27.9 39.6 27.9 39.7 27.9C39.9 27.9 40 27.8 40 27.6V27.3C40 27.3 40.6 28.1 41.8 28.1C43.8 28.1 45.4 26.5 45.4 24.4C45.5 22.1 43.9 20.6 41.8 20.6ZM41.5 26.3C40.8 26.3 40.3 25.9 40 25.5V23C40.3 22.6 40.9 22.2 41.5 22.2C42.7 22.2 43.6 23 43.6 24.2C43.6 25.4 42.7 26.3 41.5 26.3ZM36.7 20.6C37.2 20.6 37.5 20.7 37.5 20.7V22.4C37.5 22.4 36 21.9 35.1 23V27.9H33.3V20.8C33.3 20.8 34.7 20.8 34.8 20.8C35 20.8 35.1 20.9 35.1 21.1V21.4C35.4 20.9 36.1 20.6 36.7 20.6ZM17.9 27.2C17.8 27 17.7 26.7 17.6 26.5C17.4 26.2 17.3 25.8 17.2 25.5C15.9 22.7 14.5 19.8 13 17L12.9 16.9C12.7 16.6 12.6 16.3 12.4 16C12.2 15.7 12 15.3 11.7 15C11.1 14.2 10.2 13.8 9.3 13.8C8.4 13.8 7.50001 14.2 6.90001 14.9C6.60001 15.2 6.40003 15.6 6.20003 15.9C6.00003 16.2 5.90003 16.5 5.70003 16.8L5.60002 16.9C4.20002 19.7 2.70001 22.6 1.40001 25.4C1.30001 25.7 1.10001 26 1.00001 26.4C0.900013 26.6 0.800025 26.8 0.700025 27.1C0.500025 27.8 0.400013 28.5 0.500013 29.1C0.700013 30.5 1.60001 31.7 2.90001 32.2C3.40001 32.4 3.90001 32.5 4.40001 32.5C4.60001 32.5 4.70001 32.5 4.90001 32.5C5.50001 32.4 6.2 32.2 6.8 31.9C7.6 31.5 8.30002 30.8 9.10002 29.9C9.90002 30.8 10.7 31.4 11.4 31.9C12 32.3 12.7 32.5 13.3 32.5C13.5 32.5 13.6 32.5 13.8 32.5C14.3 32.5 14.9 32.4 15.3 32.2C16.6 31.7 17.5 30.5 17.7 29.1C18.2 28.5 18.1 27.9 17.9 27.2ZM9.40001 28.2C8.40001 26.9 7.70001 25.7 7.50001 24.7C7.40001 24.3 7.40001 23.9 7.40001 23.6C7.40001 23.3 7.60003 23 7.70003 22.8C8.10003 22.3 8.70001 22 9.40001 22C10.1 22 10.7 22.3 11.1 22.8C11.3 23 11.4 23.3 11.4 23.6C11.5 23.9 11.4 24.3 11.3 24.7C11.1 25.7 10.4 26.9 9.40001 28.2ZM16.9 29C16.8 30 16.1 30.8 15.2 31.2C14.7 31.4 14.3 31.4 13.8 31.4C13.3 31.3 12.9 31.2 12.4 30.9C11.7 30.5 11 29.9 10.3 29.1C11.5 27.6 12.3 26.2 12.6 24.9C12.7 24.3 12.8 23.8 12.7 23.3C12.6 22.8 12.5 22.4 12.2 22C11.6 21.2 10.6 20.7 9.50001 20.7C8.40001 20.7 7.4 21.2 6.8 22C6.5 22.4 6.4 22.8 6.3 23.3C6.2 23.8 6.20001 24.3 6.40001 24.9C6.70001 26.1 7.50003 27.6 8.70003 29.1C7.90003 30 7.20002 30.5 6.60002 30.9C6.10002 31.2 5.60003 31.3 5.20003 31.4C4.70003 31.5 4.2 31.4 3.8 31.2C2.9 30.8 2.20002 30 2.10002 29C2.00002 28.5 2.1 28.1 2.3 27.5C2.4 27.3 2.50001 27.1 2.50001 26.9C2.60001 26.6 2.80001 26.3 2.90001 26C4.20001 23.2 5.60001 20.3 7.00001 17.6L7.10002 17.5C7.30002 17.2 7.40002 16.9 7.60002 16.6C7.80002 16.3 7.90002 16 8.10002 15.8C8.50002 15.3 9.00002 15.1 9.60002 15.1C10.2 15.1 10.7 15.3 11.1 15.8C11.3 16 11.5 16.3 11.6 16.6C11.8 16.9 11.9 17.2 12.1 17.5L12.2 17.6C13.6 20.4 15 23.3 16.3 26.1C16.5 26.4 16.6 26.7 16.7 27C16.8 27.2 16.9 27.4 16.9 27.6C16.9 28.1 17 28.5 16.9 29Z" fill="#F05C61"/>
<path d="M153.7 25.2C153.7 31.7 148.5 36.9 142 36.9C135.5 36.9 130.3 31.7 130.3 25.2C130.3 18.7 135.5 13.5 142 13.5C148.4 13.5 153.7 18.7 153.7 25.2Z" fill="white"/>
<path d="M141.9 37.2C135.3 37.2 129.9 31.8 129.9 25.2C129.9 18.6 135.3 13.2 141.9 13.2C148.5 13.2 153.9 18.6 153.9 25.2C153.9 31.8 148.5 37.2 141.9 37.2ZM141.9 13.7C135.6 13.7 130.4 18.9 130.4 25.2C130.4 31.5 135.6 36.7 141.9 36.7C148.2 36.7 153.4 31.5 153.4 25.2C153.4 18.9 148.3 13.7 141.9 13.7Z" fill="#023768"/>
<mask id="mask0_151_3" style="mask-type:luminance" maskUnits="userSpaceOnUse" x="130" y="13" width="24" height="24">
<path d="M141.9 36.5C135.7 36.5 130.6 31.4 130.6 25.2C130.6 19 135.7 13.9 141.9 13.9C148.1 13.9 153.2 19 153.2 25.2C153.2 31.4 148.2 36.5 141.9 36.5Z" fill="white"/>
</mask>
<g mask="url(#mask0_151_3)">
<path d="M130 31.3C130 31.3 144.3 34.3 150.5 10.5L127.6 8.60004L123.4 22.1L130 31.3Z" fill="#EE3E42"/>
</g>
<mask id="mask1_151_3" style="mask-type:luminance" maskUnits="userSpaceOnUse" x="130" y="13" width="24" height="24">
<path d="M141.9 36.5C135.7 36.5 130.6 31.4 130.6 25.2C130.6 19 135.7 13.9 141.9 13.9C148.1 13.9 153.2 19 153.2 25.2C153.2 31.4 148.2 36.5 141.9 36.5Z" fill="white"/>
</mask>
<g mask="url(#mask1_151_3)">
<path d="M132.3 33.5C132.4 32.1 138.5 31.1 139.5 30.9C143 30.2 147.5 29.6 149.5 26.4C151.4 23.4 151.1 19.2 150.9 15.9L152.7 15.8L157 29.8L152.9 41.1C152.9 41.1 142.5 45.2 142.3 45.2C142 45.2 132 38.7 132 38.7L132.3 33.5Z" fill="#0069AA"/>
</g>
<path d="M173.3 29C171.1 29 169.3 27.5 169.1 25.5C172.3 24.8 174.1 26.8 177.3 26C177.3 26 177.8 25.9 178.3 25.9C178.3 25.8 178.4 25.4 178.4 25.3C178.4 22.6 176.1 20.5 173.2 20.5C170.3 20.5 168 22.7 168 25.3C168 28 170.3 30.1 173.2 30.1C175.4 30.1 177.5 28.6 178.1 26.7H177C176.5 28 175.4 29 173.3 29ZM173.3 21.7C175.4 21.7 177.1 23 177.4 24.8C174.3 25.6 172.4 23.7 169.3 24.3C169.9 22.8 171.5 21.7 173.3 21.7Z" fill="#023768"/>
<path d="M161.8 20.5C159.1 20.5 156.5 22.2 156.6 25L156.9 23.8L157.9 23.9V24.1C158.5 22.7 160 21.6 161.8 21.6C164.1 21.6 166 23.2 166 25.3C166 27.3 164.1 29 161.8 29C160 29 158.4 28 157.9 26.5V28.4C158.8 29.5 160.2 30.2 161.8 30.2C164.7 30.2 167 28 167 25.4C167 22.7 164.6 20.5 161.8 20.5Z" fill="#023768"/>
<path d="M156.6 25.1V32.8H157.9V28.5C157.2 27.7 156.8 26.7 156.6 25.6C156.6 25.4 156.6 25.2 156.6 25.1Z" fill="#023768"/>
<path d="M157.6 25.3C157.6 24.9 157.7 24.5 157.8 24.1V24L156.8 23.9L156.5 25.1C156.5 25.2 156.5 25.4 156.5 25.5C156.6 26.6 157.1 27.6 157.8 28.4V26.5C157.7 26.2 157.6 25.8 157.6 25.3Z" fill="#023768"/>
<path d="M185 20.5C182.3 20.5 179.7 22.2 179.8 25L180.1 23.8L181.1 23.9V24.1C181.7 22.7 183.2 21.6 185 21.6C187.3 21.6 189.2 23.2 189.2 25.3C189.2 27.3 187.3 29 185 29C183.2 29 181.6 28 181.1 26.5V28.4C182 29.5 183.4 30.2 185 30.2C187.9 30.2 190.2 28 190.2 25.4C190.1 22.7 187.8 20.5 185 20.5Z" fill="#023768"/>
<path d="M179.7 25.1V32.8H181V28.5C180.3 27.7 179.9 26.7 179.7 25.6C179.7 25.4 179.7 25.2 179.7 25.1Z" fill="#023768"/>
<path d="M180.8 25.3C180.8 24.9 180.9 24.5 181 24.1V24L180 23.9L179.7 25.1C179.7 25.2 179.7 25.4 179.7 25.5C179.8 26.6 180.3 27.6 181 28.4V26.5C180.9 26.2 180.8 25.8 180.8 25.3Z" fill="#023768"/>
<path d="M200.7 20.6H199.4V29.9H200.7V20.6Z" fill="#023768"/>
<path d="M201.1 18.7C201.1 19.3 200.6 19.7 200.1 19.7C199.5 19.7 199.1 19.2 199.1 18.7C199.1 18.1 199.6 17.7 200.1 17.7C200.6 17.6 201.1 18.1 201.1 18.7Z" fill="#023768"/>
<path d="M191.6 28C192.4 28.6 193.2 29 194.4 29C195.7 29 196.8 28.4 196.8 27.3C196.8 25 191 26.4 191 23.2C191 21.6 192.8 20.6 194.6 20.6C195.9 20.6 196.8 21 197.9 21.7L197.2 22.5C196.4 22 195.6 21.7 194.6 21.7C193.3 21.7 192.3 22.2 192.3 23.2C192.3 25.5 198.1 24 198.1 27.3C198.1 29.2 196.3 30.1 194.2 30.1C192.8 30.1 191.6 29.6 190.8 28.7L191.6 28Z" fill="#023768"/>
<path fill-rule="evenodd" clip-rule="evenodd" d="M114.4 11.1V11V10.9V10.8V10.7L114.3 10.6V10.5V10.4V10.3H114.2V10.2V10.1V9.99999L114.1 9.89999V9.8V9.69999L114 9.59999V9.49999L113.9 9.39999V9.3V9.19999L113.8 9.09999L113.7 8.99999V8.89999L113.6 8.8V8.69999L113.5 8.59999V8.49999L113.4 8.39999L113.3 8.3V8.19999H113.2V8.09999L113.1 7.99999H113V7.89999L112.9 7.8L112.8 7.69999L112.7 7.59999L112.6 7.49999L112.5 7.39999L112.4 7.3L112.3 7.19999H112.2V7.09999L112.1 6.99999H112L111.9 6.89999H111.8V6.8H111.7L111.6 6.69999L111.5 6.59999H111.4H111.3V6.49999H111.2H111.1L111 6.39999H110.9L110.8 6.3H110.7L110.6 6.19999H110.5H110.4L110.3 6.09999H110.2H110.1H110L109.9 5.99999H109.8H109.7H109.6H109.5L109.3 5.89999H109.2H109H108.9H108.7H108.6H108.5H108.3H108.2L106.7 5.99999L106.4 4.69999L106.3 4.59999V4.49999V4.39999V4.3L106.2 4.19999V4.09999L106.1 3.99999V3.8L106 3.69999V3.59999L105.9 3.49999L105.8 3.3V3.19999L105.7 3.09999L105.6 2.99999L105.5 2.89999L105.4 2.69999V2.59999L105.3 2.49999L105.2 2.39999L105.1 2.3L105 2.19999L104.9 2.09999L104.8 1.99999L104.7 1.89999L104.6 1.8L104.5 1.69999H104.4L104.3 1.59999L104.2 1.49999L104 1.39999L103.9 1.3H103.8L103.7 1.19999L103.5 1.09999H103.4L103.3 0.999992L103.2 0.899994H103.1H103L102.9 0.799995H102.8H102.7L102.6 0.699989H102.5H102.4H102.3V0.599991H102.2H102.1H102L101.9 0.499992H101.8H101.7H101.6H101.5H101.4H101.3L101.2 0.399994H101.1H101H100.9H100.8H100.7H100.6H100.5H100.4H100.3L100.2 0.499992H100.1H100H99.9H99.8H99.7L99.6 0.599991H99.5H99.4H99.3H99.2V0.699989H99.1H99H98.9L98.8 0.799995H98.6L98.5 0.899994H98.4L98.2 0.999992L98.1 1.09999H98L97.8 1.19999L97.7 1.3L97.6 1.39999H97.5L97.4 1.49999L97.3 1.59999L97.1 1.69999L96.2 2.49999L95.2 1.69999L95.1 1.59999L95 1.49999L94.9 1.39999H94.7L94.6 1.3L94.5 1.19999L94.4 1.09999H94.2L94.1 0.999992L94 0.899994H93.9L93.7 0.799995H93.5L93.4 0.699989H93.3H93.2L93.1 0.599991H93H92.9H92.8L92.7 0.499992H92.6H92.5H92.4H92.3H92.2H92.1V0.399994H91.9H91.8H91.7H91.6H91.5H91.4H91.3H91.2H91.1L91 0.499992H90.9H90.8H90.7H90.6H90.5L90.4 0.599991H90.3H90.2H90.1L90 0.699989H89.9H89.8H89.7V0.799995H89.6H89.5H89.4V0.899994H89.3H89.2L89 0.999992L88.9 1.09999H88.8L88.7 1.19999L88.5 1.3L88.4 1.39999H88.3L88.2 1.49999L88.1 1.59999L88 1.69999L87.9 1.8H87.7L87.6 1.89999L87.5 1.99999L87.4 2.09999L87.3 2.19999L87.2 2.3V2.39999L87.1 2.49999L87 2.59999L86.9 2.8L86.8 2.89999L86.7 2.99999V3.09999L86.6 3.19999L86.5 3.3V3.49999L86.4 3.59999L86.3 3.69999V3.8L86.2 3.99999V4.09999H86.1V4.19999V4.3L86 4.39999V4.49999V4.59999L85.9 4.69999L85.6 5.99999L84.2 5.89999H84H83.9H83.8H83.6H83.5H83.3H83.2H83L82.9 5.99999H82.8H82.6H82.5H82.4L82.3 6.09999H82.2H82.1L82 6.19999H81.9H81.8L81.7 6.3H81.6H81.5V6.39999H81.4H81.3L81.2 6.49999H81.1L81 6.59999H80.9V6.69999H80.8H80.7L80.6 6.8L80.5 6.89999H80.4V6.99999H80.3L80.2 7.09999L80.1 7.19999H80V7.3H79.9V7.39999H79.8V7.49999H79.7V7.59999H79.6V7.69999H79.5V7.8H79.4V7.89999H79.3V7.99999H79.2V8.09999V8.19999H79.1V8.3H79V8.39999L78.9 8.49999V8.59999H78.8V8.69999L78.7 8.8V8.89999L78.6 8.99999V9.09999L78.5 9.19999V9.3H78.4V9.39999V9.49999L78.3 9.59999V9.69999V9.8H78.2V9.89999V9.99999V10.1H78.1V10.2V10.3V10.4V10.5L78 10.6V10.7V10.8V10.9V11V11.1V11.2H77.9V11.3V11.4V11.5V11.6V11.7V11.8V11.9L78 12V12.1V12.2V12.3V12.4V12.5V12.6V12.7L78.1 12.8V12.9V13V13.1V13.2H78.2V13.3V13.4V13.5L78.7 14.8L77.5 15.5H77.4L77.3 15.6H77.2L77.1 15.7H77V15.8H76.9V15.9H76.8H76.7V16H76.6L76.5 16.1L76.4 16.2L76.3 16.3L76.2 16.4L76.1 16.5L76 16.6L75.9 16.7L75.8 16.8L75.7 16.9V17L75.6 17.1L75.5 17.2L75.4 17.3L75.3 17.4V17.5L75.2 17.7L75.1 17.8L75 17.9V18L74.9 18.2V18.3L74.8 18.4V18.5L74.7 18.7V18.8L74.6 19V19.1V19.2V19.4L74.5 19.5V19.6V19.8V19.9V20L74.4 20.2V20.3V20.5V20.6V20.8V20.9V21L74.5 21.2V21.3V21.5V21.6V21.7L74.6 21.9V22V22.1V22.3L74.7 22.4V22.5L74.8 22.7V22.8L74.9 22.9V23L75 23.2V23.3L75.1 23.4L75.2 23.5L75.3 23.7V23.8L75.4 23.9L75.5 24L75.6 24.1L75.7 24.2V24.3L75.8 24.4L75.9 24.6L76.1 24.7L76.2 24.8L76.3 24.9V25H76.4L76.5 25.1H76.6V25.2H76.7L76.8 25.3H76.9V25.4H77V25.5H77.1L77.2 25.6H77.3L77.4 25.7H77.5V25.8H77.6L77.7 25.9H77.8H77.9V26H78H78.1L78.2 26.1H78.3H78.4L78.5 26.2H78.6H78.7H78.8L78.9 26.3H79H79.1H79.2H79.3L79.4 26.4H79.5H79.6H79.7H79.8H79.9H80H80.1H112.2H112.3H112.5H112.6H112.7H112.8H112.9H113L113.1 26.3H113.2H113.3H113.4H113.5L113.6 26.2H113.7H113.8L113.9 26.1H114.1H114.2L114.3 26H114.4V25.9H114.5H114.6L114.7 25.8H114.8L114.9 25.7L115 25.6H115.1L115.2 25.5H115.3L115.4 25.4L115.5 25.3H115.6V25.2H115.7L115.8 25.1H115.9V25H116V24.9H116.1V24.8H116.2V24.7H116.3L116.4 24.5H116.5L116.6 24.4V24.3H116.7V24.2L116.8 24.1L116.9 24V23.9L117 23.8L117.1 23.7V23.6H117.2V23.5V23.4L117.3 23.3L117.4 23.2V23.1V23L117.5 22.9V22.8L117.6 22.7V22.6L117.7 22.5V22.4V22.3V22.2L117.8 22.1V22V21.9V21.8L117.9 21.7V21.6V21.5V21.4V21.3V21.2V21.1V21V20.9V20.8V20.7V20.6V20.5V20.4V20.3V20.2V20V19.9V19.8V19.7V19.6L117.8 19.5V19.4V19.2V19.1L117.7 19V18.9V18.8L117.6 18.7V18.6V18.5L117.5 18.4V18.3L117.4 18.2V18.1L117.3 18V17.9L117.2 17.8V17.7L117.1 17.6L117 17.5V17.4L116.9 17.3V17.2H116.8V17.1L116.7 17V16.9H116.6V16.8H116.5V16.7H116.4V16.6H116.3V16.5H116.2V16.4H116.1V16.3H116L115.9 16.2V16.1H115.8L115.7 16H115.6L115.5 15.9L115.4 15.8L115.3 15.7H115.2V15.6H115.1L115 15.5H114.9L114.8 15.4L113.7 14.8L114.1 13.5L114.2 13.4V13.3V13.2V13.1V13H114.3V12.9V12.8V12.7V12.6V12.5L114.4 12.4V12.3V12.2V12.1V12V11.9V11.8V11.7V11.6V11.5V11.4V11.3V11.2V11.1Z" fill="white"/>
<path fill-rule="evenodd" clip-rule="evenodd" d="M81.7 16.6C81.2 16.4 80.7 16.3 80.1 16.3C79.3 16.3 78.6 16.5 77.9 17C77.6 17.2 77.4 17.4 77.2 17.6C76.4 18.4 76 19.4 76 20.6C76 21.7 76.4 22.7 77.2 23.5C77.6 23.9 77.9 24.1 78.3 24.3C78.9 24.6 79.5 24.8 80.1 24.8H94.1L83.2 17.5C82.9 17.3 82.7 17.2 82.5 17C82.2 16.8 82 16.7 81.7 16.6Z" fill="#F1C218"/>
<path fill-rule="evenodd" clip-rule="evenodd" d="M86.4 8.29999C86.3 8.19999 86.2 8.19999 86.1 8.09999C85.2 7.49999 84.2 7.29999 82.9 7.49999C82.2 7.59999 81.7 7.89999 81.2 8.29999C81 8.49999 80.8 8.59999 80.6 8.79999C80.5 8.89999 80.4 9.09999 80.3 9.19999C80 9.59999 79.8 9.89999 79.7 10.4C79.5 11 79.5 11.7 79.6 12.4C79.7 13 79.9 13.5 80.2 14C80.5 14.5 80.9 14.8 81.3 15.1L93.6 23.5L88.1 10.8C88 10.7 88 10.5 87.9 10.4C87.7 9.89999 87.5 9.39999 87.3 9.19999C87.2 9.09999 87.1 8.99999 87 8.89999C86.8 8.69999 86.6 8.49999 86.4 8.29999Z" fill="#E87224"/>
<path fill-rule="evenodd" clip-rule="evenodd" d="M93 2.29999C92.9 2.19999 92.8 2.19999 92.6 2.19999C91.9 1.99999 91.2 1.99999 90.5 2.19999C90.3 2.29999 90 2.39999 89.8 2.49999C88.7 2.99999 88 3.69999 87.6 4.79999C87.6 4.89999 87.5 4.89999 87.5 4.99999C87.1 6.09999 87.2 7.09999 87.6 8.09999L93.6 21.9L95.6 7.99999C95.7 7.19999 95.8 6.59999 95.8 6.19999C95.8 5.79999 95.7 5.49999 95.6 4.99999C95.6 4.89999 95.5 4.69999 95.4 4.59999C95 3.39999 94.2 2.69999 93 2.29999Z" fill="#BF1F46"/>
<path fill-rule="evenodd" clip-rule="evenodd" d="M109.8 17C109.6 17.1 109.3 17.3 109.1 17.5L98.2 24.8H112.2C113 24.8 113.8 24.5 114.6 24C114.8 23.9 115 23.7 115.2 23.5L115.3 23.4C115.8 22.9 116.1 22.3 116.2 21.7C116.3 21.5 116.3 21.3 116.3 21.1C116.3 20.9 116.3 20.7 116.3 20.6C116.3 19.6 116 18.8 115.5 18.1C115.4 17.9 115.2 17.8 115.1 17.6C114.9 17.4 114.6 17.2 114.4 17C114.1 16.8 113.8 16.6 113.5 16.5C113.1 16.4 112.7 16.3 112.2 16.3C111.6 16.3 111 16.4 110.6 16.6C110.4 16.7 110.1 16.8 109.8 17Z" fill="#06AB4B"/>
<path fill-rule="evenodd" clip-rule="evenodd" d="M104.8 4.79998C104.8 4.69998 104.7 4.69997 104.7 4.59997C104.3 3.49997 103.6 2.79998 102.5 2.29998C102.3 2.19998 102 2.09998 101.8 1.99998C101.1 1.79998 100.4 1.79998 99.7 1.99998C99.6 1.99998 99.4 2.09997 99.3 2.09997C98.1 2.49997 97.3 3.29998 96.9 4.29998C96.8 4.49998 96.8 4.59997 96.7 4.69997C96.5 5.29997 96.4 5.89998 96.5 6.49998V6.59997H97.6C97.9 6.59997 98.2 6.69998 98.2 6.79998C98.3 6.89998 98.1 6.99997 97.7 7.19997L97.4 7.39998L97 7.69997C96.8 7.79997 96.8 7.99998 96.7 8.29998C96.7 8.49998 96.6 8.59998 96.7 8.79998C96.7 8.89998 96.7 8.99997 96.7 9.09997L98.5 21.6L104.5 7.79998C105.1 6.99998 105.2 5.89998 104.8 4.79998Z" fill="#70569D"/>
<path fill-rule="evenodd" clip-rule="evenodd" d="M112.8 11.5C112.8 10.8 112.5 10 112.1 9.3C112 9.2 111.9 9 111.8 8.9C111.6 8.7 111.4 8.5 111.2 8.4C110.7 8 110.1 7.69999 109.4 7.59999C108.2 7.39999 107.1 7.59999 106.2 8.19999C106.1 8.29999 106 8.4 105.9 8.4C105.7 8.6 105.5 8.8 105.3 8.9C105.2 9 105.1 9.09999 105 9.19999C104.8 9.49999 104.5 10.1 104.2 10.8L98.7 23.5L111 15.1C111.5 14.8 111.8 14.4 112.1 14L112.2 13.9C112.4 13.6 112.5 13.4 112.6 13C112.7 12.8 112.7 12.6 112.8 12.4C112.8 12.1 112.9 11.8 112.8 11.5Z" fill="#0389CA"/>
<path fill-rule="evenodd" clip-rule="evenodd" d="M95.3 30.8V34H96.9C97.3 34 97.7 33.8 98 33.5C98.3 33.1 98.4 32.8 98.4 32.3C98.4 31.9 98.2 31.6 97.9 31.3C97.6 31 97.2 30.9 96.8 30.9H95.3V30.8ZM95.3 36.5V40H97.1C97.7 40 98.2 39.9 98.6 39.6C99 39.3 99.3 38.9 99.3 38.4C99.3 37.2 98.6 36.6 97.1 36.5H95.3ZM113.9 28.3V31.5C113 31 112.2 30.8 111.5 30.8C111.3 30.8 111 30.8 110.5 30.9C109.3 31.1 108.3 31.6 107.5 32.4C106.7 33.2 106.3 34.3 106.3 35.5C106.3 36.6 106.7 37.6 107.4 38.4C108.1 39.2 109 39.8 110.2 40C110.5 40.1 110.9 40.1 111.4 40.1C112.3 40 113.2 39.8 113.9 39.3V42.8C113 43.1 112.1 43.3 111.2 43.3C110.8 43.3 110.5 43.3 110.2 43.3C108.8 43.2 107.4 42.7 106.3 42C105.1 41.3 104.2 40.3 103.5 39.1C102.8 37.9 102.4 36.6 102.4 35.1C102.5 33.7 102.8 32.5 103.6 31.3C104.3 30.2 105.3 29.3 106.5 28.6C107.7 27.9 109 27.6 110.4 27.5C111.7 27.6 112.9 27.8 113.9 28.3ZM81.9 42.9H78.8V27.7L87.5 35.5V28.3H90.7V43.4L81.9 35.2V42.9ZM92.2 42.9V28.3H98.5C99.4 28.4 100.1 28.7 100.7 29.3C101.3 29.9 101.6 30.6 101.7 31.5C101.7 33 101.1 34.1 100 34.8C101.6 35.5 102.4 36.7 102.5 38.4C102.5 39.6 102.1 40.6 101.4 41.4C100.7 42.3 99.7 42.7 98.6 42.8H92.2V42.9Z" fill="#231F20"/>
</svg>
