<svg width="201" height="41" viewBox="0 0 201 41" fill="none" xmlns="http://www.w3.org/2000/svg">
<path d="M112.4 38.1C109.4 39.8 104.2 40.3 97 40.3C89.8 40.3 84.6 39.8 81.6 38.1C79.8 37.1 78.9 35.7 78.9 34.7C78.9 34.1 79.2 33.8 79.9 33.8H114.3C115 33.8 115.3 34.1 115.3 34.7C115.1 35.7 114.2 37.1 112.4 38.1ZM114.1 11.6H79.7C79 11.6 78.7 11.3 78.7 10.6C78.7 6.89998 84.3 0.299988 96.9 0.299988C109.3 0.299988 115.1 6.89998 115.1 10.6C115.1 11.2 114.8 11.6 114.1 11.6Z" fill="#FF8732"/>
<path d="M86.1 26.9C86 26.7 86 26.6 86 26.6C86 26.5 86.1 26.4 86.2 26.3C86.5 26 87.3 25.2 87.8 24.6C88.1 24.1 88.3 23.6 88.3 23.2C88.3 22.2 87.4 21.4 86.4 21.4C85.8 21.4 85.2 21.8 84.7 22.4C84.2 23.3 83.5 24.3 83.1 24.7C83 24.8 82.9 24.8 82.9 24.8C82.8 24.8 82.7 24.7 82.7 24.6V23.4C82.7 22.3 82 21.3 80.8 21.3C79.6 21.3 78.9 22.2 78.9 23.4V30.6C78.9 31.7 79.6 32.7 80.8 32.7C82 32.7 82.7 31.8 82.7 30.6V28.9C82.7 28.8 82.8 28.7 82.9 28.7C83.1 28.7 83.1 28.9 83.2 29C83.5 29.6 84.2 31 85 31.8C85.5 32.3 86.1 32.7 86.7 32.7C87.8 32.7 88.7 31.8 88.7 30.7C88.7 30.1 88.4 29.6 87.9 29C87.2 28.3 86.4 27.4 86.1 26.9Z" fill="#D62300"/>
<path d="M100.7 20.7C102.5 20.7 103.7 19.5 103.7 17.8C103.7 16.7 103 16 101.7 16H101.3C100.6 16 100.1 16.3 100.1 17.1C100.1 17.8 100.7 18.1 101.1 18.1C101.3 18.1 101.5 18.2 101.5 18.3C101.5 18.5 101.3 18.6 101 18.6C100.1 18.6 99.5 18 99.5 16.8C99.5 15.5 100.3 15.1 100.9 15.1C101.7 15.1 101.8 15.5 102.3 15.5C102.9 15.5 103.3 15 103.3 14.5C103.3 14.1 103.1 13.8 102.9 13.6C102.4 13.2 101.7 13 100.7 13C98.9 13 97.1 14.2 97.1 16.9C97.2 19.4 98.9 20.7 100.7 20.7Z" fill="#D62300"/>
<path d="M80.2 20.6H81.8C83.4 20.6 84.3 19.6 84.3 18.3C84.3 17.3 83.7 16.8 83.5 16.7C83.4 16.7 83.4 16.6 83.4 16.6C83.4 16.5 83.4 16.5 83.5 16.4C83.7 16.1 83.9 15.7 83.9 15.1C83.9 13.7 83 13 81.5 13H80.1C79.2 13 78.7 13.5 78.7 14.3V19.4C78.8 20 79.3 20.6 80.2 20.6ZM80.9 14.9C80.9 14.7 81 14.6 81.2 14.6H81.4C81.9 14.6 82.1 14.9 82.1 15.3C82.1 15.6 81.9 16 81.4 16H81.2C81 16 80.9 15.9 80.9 15.7V14.9ZM80.9 17.7C80.9 17.5 81 17.4 81.2 17.4H81.4C82 17.4 82.1 17.8 82.1 18.1C82.1 18.4 81.9 18.8 81.4 18.8H81.2C81 18.8 80.9 18.7 80.9 18.5V17.7Z" fill="#D62300"/>
<path d="M110.6 20.6C111.3 20.6 111.8 20 111.8 19.3V18.1C111.8 17.9 111.9 17.9 112 17.9C112.1 17.9 112.2 18 112.2 18.1C112.3 18.7 112.6 19.5 112.9 19.9C113.3 20.4 113.7 20.6 114 20.6C114.6 20.6 115.1 20.1 115.1 19.5C115.1 19.1 114.9 18.8 114.7 18.5C114.3 18 114.1 17.7 113.9 17.3C113.9 17.2 113.9 17.1 114 17C114.4 16.7 114.8 16.1 114.8 15.1C114.8 13.6 113.6 12.8 112.1 12.8H110.8C109.9 12.8 109.4 13.3 109.4 14.1V19.3C109.4 20.1 109.9 20.6 110.6 20.6ZM111.6 15.1C111.6 14.9 111.7 14.8 111.9 14.8H112.1C112.6 14.8 112.7 15.1 112.7 15.5C112.7 15.8 112.5 16.2 112.1 16.2H111.9C111.7 16.2 111.6 16.1 111.6 15.9V15.1Z" fill="#D62300"/>
<path d="M91.4 21.3C90.1 21.3 89.4 22.3 89.4 23.5V30.4C89.4 31.6 90.1 32.6 91.4 32.6C92.7 32.6 93.4 31.6 93.4 30.4V23.5C93.5 22.3 92.7 21.3 91.4 21.3Z" fill="#D62300"/>
<path d="M112.2 25.8H111.6C110.6 25.8 109.8 26.3 109.8 27.3C109.8 28.3 110.7 28.7 111.3 28.7C111.6 28.7 111.8 28.8 111.8 29C111.8 29.3 111.4 29.5 111 29.5C109.7 29.5 108.8 28.6 108.8 26.9C108.8 25 110 24.4 111 24.4C112.2 24.4 112.3 25 113.1 25C114 25 114.7 24.2 114.7 23.5C114.7 22.9 114.4 22.5 114 22.2C113.3 21.7 112.2 21.3 110.7 21.3C108 21.3 105.3 23 105.3 27C105.3 30.8 107.9 32.6 110.6 32.6C113.3 32.6 115.1 30.9 115.1 28.4C115.1 26.9 114.1 25.8 112.2 25.8Z" fill="#D62300"/>
<path d="M107.8 20.6C108.5 20.6 109 20.2 109 19.5C109 18.8 108.5 18.4 107.8 18.4H106.8C106.6 18.4 106.5 18.3 106.5 18.1V17.9C106.5 17.7 106.6 17.6 106.8 17.6H107.6C108.2 17.6 108.6 17.3 108.6 16.7C108.6 16.1 108.2 15.8 107.6 15.8H106.8C106.6 15.8 106.5 15.7 106.5 15.5V15.3C106.5 15.1 106.6 15 106.8 15H107.8C108.5 15 109 14.6 109 13.9C109 13.2 108.5 12.8 107.8 12.8H105.6C104.7 12.8 104.2 13.3 104.2 14.1V19.2C104.2 19.9 104.6 20.5 105.6 20.5L107.8 20.6Z" fill="#D62300"/>
<path d="M87.7 20.6C89.6 20.6 90.6 19.5 90.6 18.1V14.2C90.6 13.5 90.2 12.9 89.4 12.9C88.7 12.9 88.2 13.5 88.2 14.2V18C88.2 18.3 88 18.6 87.6 18.6C87.2 18.6 87 18.3 87 18V14.2C87 13.5 86.6 12.9 85.8 12.9C85.1 12.9 84.6 13.5 84.6 14.2V18.1C84.9 19.5 85.8 20.6 87.7 20.6Z" fill="#D62300"/>
<path d="M95.9 20.6C96.5 20.6 97 20.1 97 19.5C97 19.1 96.8 18.8 96.6 18.5C96.3 18.1 96 17.7 95.8 17.3C95.8 17.2 95.8 17.1 95.9 17C96.3 16.7 96.7 16.1 96.7 15.1C96.7 13.6 95.5 12.8 94 12.8H92.7C91.8 12.8 91.3 13.3 91.3 14.1V19.3C91.3 20 91.7 20.6 92.5 20.6C93.2 20.6 93.7 20 93.7 19.3V18.1C93.7 17.9 93.8 17.9 93.9 17.9C94 17.9 94.1 18 94.1 18.1C94.2 18.7 94.5 19.5 94.8 19.9C95.2 20.5 95.5 20.6 95.9 20.6ZM94 16.2H93.8C93.6 16.2 93.5 16.1 93.5 15.9V15.1C93.5 14.9 93.6 14.8 93.8 14.8H94C94.5 14.8 94.6 15.1 94.6 15.5C94.6 15.8 94.5 16.2 94 16.2Z" fill="#D62300"/>
<path d="M102.6 21.3C101.4 21.3 100.7 22.2 100.7 23.3V25.8C100.7 26 100.6 26.1 100.5 26.1C100.4 26.1 100.3 26 100.3 25.9L98.7 22.8C98.1 21.6 97.4 21.3 96.7 21.3C95.5 21.3 94.8 22.2 94.8 23.4V30.6C94.8 31.7 95.5 32.6 96.7 32.6C97.9 32.6 98.6 31.7 98.6 30.6V28.1C98.6 27.9 98.7 27.8 98.8 27.8C98.9 27.8 99 27.9 99 28L100.6 31.1C101.2 32.3 101.9 32.6 102.6 32.6C103.8 32.6 104.5 31.7 104.5 30.5V23.3C104.5 22.2 103.8 21.3 102.6 21.3Z" fill="#D62300"/>
<path d="M113.5 39.3C113.5 39 113.7 38.7 114.1 38.7C114.4 38.7 114.7 39 114.7 39.3C114.7 39.6 114.5 39.9 114.1 39.9C113.7 39.9 113.5 39.6 113.5 39.3ZM114.5 39.3C114.5 39 114.3 38.8 114 38.8C113.8 38.8 113.5 39 113.5 39.3C113.5 39.6 113.7 39.8 114 39.8C114.3 39.8 114.5 39.6 114.5 39.3ZM113.8 39.5V39C113.8 39 113.8 38.9 113.9 38.9H114.1C114.2 38.9 114.3 39 114.3 39.1C114.3 39.2 114.2 39.3 114.1 39.3L114.2 39.4C114.2 39.4 114.2 39.5 114.1 39.5C114.1 39.5 114.1 39.5 114 39.5L113.8 39.3V39.5C114 39.6 113.9 39.6 113.8 39.5C113.9 39.6 113.8 39.6 113.8 39.5ZM114.1 39.3C114.2 39.3 114.2 39.3 114.2 39.2C114.2 39.1 114.2 39.1 114.1 39.1H114L114.1 39.3Z" fill="#D62300"/>
<path d="M65.2 28.6V36.2H61.3V34.7C62.5 34.7 63 34.5 63 33.5V33C63 32.1 62.6 31.8 61.5 31.8H61.3V30V28.6H65.2Z" fill="#336CD1"/>
<path d="M65.1 14.1V25.2H62.9V18.2H62.8L61.7 25.2H60L58.9 18.2L60.2 18L60.9 21.9L62.3 14.1H65.1Z" fill="#336CD1"/>
<path d="M56.7 25.2V14.1H59.5L60.2 18L58.9 18.2V25.2H56.7Z" fill="#336CD1"/>
<path d="M53.9 30.1V28.6H61.3V30.1H60.2V34.8H61.3V36.3H52V34.8H53.1V30.9H53.9V30.1Z" fill="#336CD1"/>
<path d="M53.2 23.4V15.8C53.2 15.6 53.1 15.4 52.9 15.4C52.8 15.4 52.6 15.5 52.6 15.8V23.4C52.6 23.7 52.8 23.8 52.9 23.8C53 23.7 53.2 23.6 53.2 23.4ZM53.7 14.1C55.2 14.1 55.3 15.3 55.3 16.1V23.2C55.3 24 55.2 25.2 53.7 25.2H51.9C50.4 25.2 50.3 24 50.3 23.2V16.1C50.3 15.3 50.4 14.1 51.9 14.1H53.7Z" fill="#336CD1"/>
<path d="M44 14.1H47.4C48.9 14.1 49 15.3 49 16.1V19.5C49 20.3 48.9 21.5 47.4 21.5H46.2V25.3H44V14.1ZM46.8 16C46.8 15.7 46.6 15.4 46.4 15.4H46.1V20.1H46.4C46.6 20.1 46.8 19.9 46.8 19.5V16Z" fill="#336CD1"/>
<path d="M43.4 34.4C44.5 34.4 45 34.1 45 33.2V31.7C45 30.7 44.5 30.5 43.4 30.5V30.1V28.7H53.9V30.1H51.3V30.9H52V34.8V36.3H42.3V34.8H43.4V34.4Z" fill="#336CD1"/>
<path d="M42.6 14.1V25.2H40.4V15.5V14.1H42.6Z" fill="#336CD1"/>
<path d="M37.6 25.2V14.1H40.4V15.5H39.8V25.2H37.6Z" fill="#336CD1"/>
<path d="M42.3 36.3H32.1V34.8H34.3V34H33.2V32.8H34.1V32H33.2V31H34.2V30.2V28.8H43.4V30.2H42.3V30.6C41.2 30.6 40.7 30.8 40.7 31.8V33.3C40.7 34.3 41.2 34.5 42.3 34.5V35V36.3Z" fill="#336CD1"/>
<path d="M33.2 20.1H32.3V18.9H33.2C33.8 18.9 34 18.8 34 18.1V15.9C34 15.7 33.9 15.5 33.7 15.5C33.6 15.5 33.4 15.6 33.4 15.9V17.7H31.3V16.1C31.3 15.3 31.4 14.1 32.9 14.1H34.7C36.2 14.1 36.3 15.3 36.3 16.1V17.9C36.3 19.1 35.5 19.4 34.8 19.4V19.5C36.2 19.5 36.3 20.6 36.3 21V23.2C36.3 24 36.2 25.2 34.7 25.2H32.9C31.4 25.2 31.3 24 31.3 23.2V21.3H33.4V23.4C33.4 23.7 33.6 23.8 33.7 23.8C33.9 23.8 34 23.6 34 23.4V20.8C34.1 20.4 34 20.1 33.2 20.1Z" fill="#336CD1"/>
<path d="M28 21L27.6 15.4H27.5L27.1 21H28ZM29.2 14.1L30.3 25.2H28.2L28 22.2H27L26.8 25.2H24.7L25.8 14.1H29.2Z" fill="#336CD1"/>
<path d="M22.8 15.5V25.2H20.6V14.5V14.1H24.7V15.5H22.8Z" fill="#336CD1"/>
<path d="M22.6 34.8H23.7V32.7H24.3V34.8H25.4V30.1H24.3V31.9H23.7V30.1H22.6V34.8ZM20.6 28.6H34.2V30H32.1V34.7V36.2H20.6V28.6Z" fill="#336CD1"/>
<path d="M16 20C15.9 18.2 15.3 16.8 15.1 16.5C14.9 16.8 14.2 18.4 14.2 20.1C14.3 21.9 14.8 23.1 15.1 23.8C15.5 23.1 16.1 21.7 16 20ZM15.2 24.5C14.7 23.8 13.9 22.5 13.4 21.3C13.4 21.3 12.4 18.9 12.2 16.6C12.1 15.9 12.1 15.1 12.1 14.4C12.1 12.8 12.3 11.1 12.8 9.30002C13.5 6.90002 14.8 4.80001 15.2 4.20001C15.4 4.60001 17.1 7.00002 17.8 10C18.2 11.8 18.4 13.2 18.4 14.4C18.4 15.2 18.3 16.1 18.2 16.9C17.6 20.7 15.9 23.6 15.2 24.5ZM15.1 5.90002C14.9 6.10002 14.1 7.70001 13.3 10.1C13.1 10.8 12.7 12.4 12.7 14C12.6 15.9 12.9 17.7 13 18.3C13 17.7 13 15.6 13.4 13.9C13.8 12.2 14.5 10.2 15.1 9.20001C15.7 10.2 16.5 12.5 16.8 13.9C17.1 15.3 17.2 17 17.2 18.2C17.4 17.5 17.5 16.3 17.5 15.2C17.5 14.1 17.4 12.1 16.9 10.1C16.4 8.00001 15.3 6.10002 15.1 5.90002Z" fill="#336CD1"/>
<path d="M19.2 32.8C17.2 35 14.3 36.3 11.1 36.3V34.9C12.7 34.9 14.3 34.3 15.5 33.1C16.7 31.9 16.7 29.9 15.5 28.7C14.3 27.5 12.3 27.5 11.1 28.7V25.2H15.1H16.2H19.1V32.8H19.2Z" fill="#336CD1"/>
<path d="M0.100006 25.2C0.100006 19.1 5.1 14.1 11.2 14.1V14.4V22.5C9.6 22.5 8.00001 23.1 6.80001 24.3C6.50001 24.6 6.30001 24.9 6.00001 25.2C4.40001 27.6 4.60001 30.9 6.80001 33.1C8.00001 34.3 9.6 34.9 11.2 34.9V36.3C5 36.3 0.100006 31.3 0.100006 25.2Z" fill="#336CD1"/>
<path d="M61.6 32.8H61.4V34H61.6C61.8 34 61.9 33.9 61.9 33.7V33.1C61.9 32.8 61.9 32.8 61.6 32.8Z" fill="#336CD1"/>
<path d="M43.9 31.7V33.2C43.9 33.5 43.8 33.6 43.6 33.6H43.4V31.4H43.6C43.8 31.4 43.9 31.4 43.9 31.7Z" fill="white"/>
<path d="M42.3 31.4V33.6H42.1C41.8 33.6 41.8 33.5 41.8 33.3V31.8C41.8 31.5 41.9 31.4 42.1 31.4H42.3Z" fill="white"/>
<path d="M43.9 31.7V33.2C43.9 33.5 43.8 33.6 43.6 33.6H43.4V31.4H43.6C43.8 31.4 43.9 31.4 43.9 31.7Z" fill="#336CD1"/>
<path d="M41.8 31.7C41.8 31.4 41.9 31.3 42.1 31.3H42.3V33.5H42.1C41.8 33.5 41.8 33.4 41.8 33.2V31.7Z" fill="#336CD1"/>
<path d="M163.6 23.4C163.6 24.8 163.1 25.9 162.2 26.9C161.3 27.9 160.1 28.4 158.8 28.5C157.4 28.5 156.2 28.1 155.1 27C154.1 26 153.6 24.8 153.6 23.4V23.3V15.1H154.9V20C155.9 18.9 157 18.3 158.5 18.3C159.9 18.2 161.1 18.7 162.1 19.8C163.1 20.8 163.6 22 163.6 23.4ZM162.5 23.4C162.5 22.3 162.1 21.4 161.4 20.7C160.7 19.9 159.8 19.6 158.7 19.6C157.7 19.6 156.8 20 156.1 20.7C155.4 21.4 155 22.3 155 23.4C155 24.5 155.3 25.5 156.1 26.3C156.9 27.1 157.8 27.5 158.9 27.4C159.9 27.4 160.8 26.9 161.5 26.2C162.1 25.4 162.5 24.5 162.5 23.4Z" fill="#E6321F"/>
<path d="M174.9 23.9H166C166.1 24.9 166.5 25.7 167.3 26.4C168 27 168.9 27.4 169.9 27.4C171.5 27.4 172.6 26.7 173.2 25.2H174.6C174.2 26.3 173.6 27.1 172.7 27.7C171.8 28.3 170.8 28.6 169.8 28.7C168.4 28.7 167.3 28.2 166.2 27.2C165.2 26.2 164.6 25 164.6 23.6C164.6 22.1 165.1 20.8 166.2 19.8C167.3 18.7 168.6 18.2 170 18.3C171.3 18.4 172.5 18.9 173.4 19.9C174.3 20.9 174.8 22 174.8 23.2V23.9H174.9ZM173.6 22.7C173.4 21.8 173 21 172.3 20.5C171.6 19.9 170.8 19.6 169.9 19.6C169 19.6 168.1 19.9 167.4 20.4C166.7 21 166.2 21.7 166.1 22.7H173.6Z" fill="#E6321F"/>
<path d="M186.1 23.4V28.4H184.8V26.8C183.7 28 182.4 28.6 180.8 28.6C179.4 28.6 178.3 28 177.3 27C176.3 26 175.8 24.8 175.8 23.4C175.8 21.9 176.3 20.7 177.4 19.6C178.4 18.6 179.7 18.1 181.1 18.1C182.5 18.1 183.7 18.7 184.7 19.7C185.7 20.8 186.2 22 186.1 23.4ZM184.8 23.3C184.8 22.2 184.4 21.3 183.7 20.6C183 19.9 182.1 19.5 181.1 19.5C180 19.5 179.1 19.9 178.4 20.6C177.6 21.4 177.3 22.3 177.3 23.3C177.3 24.4 177.6 25.3 178.3 26.1C179 26.9 179.9 27.3 180.9 27.4C182 27.4 182.9 27.1 183.7 26.2C184.4 25.4 184.8 24.4 184.8 23.3Z" fill="#E6321F"/>
<path d="M191.1 28.6C188.6 28.6 187.4 27.5 187.4 25.4V15.2H188.8V18.5H191.2V19.5H188.8V25.3C188.8 26.8 189.6 27.6 191.2 27.6V28.6H191.1Z" fill="#E6321F"/>
<path d="M198.6 25.5C198.7 26.4 198.4 27.1 197.7 27.8C197 28.4 196 28.7 195.1 28.7C194.3 28.6 193.6 28.3 193 27.7C192.4 27.1 192.2 26.4 192.2 25.5H193.6V25.8C193.6 26.1 193.8 26.5 194.2 26.8C194.6 27.2 195.2 27.3 195.6 27.3C196.2 27.3 196.6 27.1 196.9 26.8C197.2 26.5 197.3 26.1 197.3 25.6C197.3 24.8 196.8 24.2 195.9 23.9L194.5 23.5C193.3 23.1 192.7 22.3 192.6 21C192.6 20.2 192.8 19.6 193.4 19.1C193.9 18.6 194.6 18.3 195.4 18.2C196.1 18.2 196.7 18.4 197.3 18.8C197.9 19.3 198.2 19.8 198.2 20.5V20.8H196.8V20.6C196.8 20.3 196.7 20 196.4 19.8C196.1 19.6 195.8 19.5 195.4 19.5C195 19.5 194.7 19.6 194.4 19.9C194.1 20.2 194 20.5 194 20.9C194 21.6 194.4 22.1 195.3 22.4L196.4 22.8C197.6 23.3 198.5 24.2 198.6 25.5Z" fill="#E6321F"/>
<path d="M137.3 25.3C138.9 25.3 140.3 24 140.3 22.3C140.3 20.6 139 19.3 137.3 19.3C135.7 19.3 134.3 20.6 134.3 22.3C134.3 24 135.6 25.3 137.3 25.3Z" fill="#E6321F"/>
<path d="M137.3 12.4C136.3 12.4 135.3 12.6 134.4 12.8V18C135.2 17.5 136.2 17.1 137.2 17.1C140.1 17.1 142.4 19.4 142.4 22.3C142.4 25.2 140.1 27.5 137.2 27.5C134.3 27.5 132 25.2 132 22.3C132 22.2 132 22 132 22V13.9C129.2 15.6 127.3 18.8 127.3 22.3C127.3 27.8 131.7 32.2 137.2 32.2C142.7 32.2 147.1 27.8 147.1 22.3C147.2 16.8 142.7 12.4 137.3 12.4Z" fill="#E6321F"/>
<path d="M198.8 28.6V27.6H198.4V27.5H199.4V27.6H199V28.6H198.8Z" fill="#E6321F"/>
<path d="M199.6 28.6V27.5H199.9L200.2 28.4L200.5 27.5H200.7V28.6H200.6V27.6L200.3 28.6H200.1L199.8 27.6V28.6H199.6Z" fill="#E6321F"/>
</svg>
