<svg width="53" height="52" viewBox="0 0 53 111" fill="none" xmlns="http://www.w3.org/2000/svg">
<path fill-rule="evenodd" clip-rule="evenodd" d="M27.8 5.5C31.3 0.9 36.1 0.899994 36.1 0.899994C36.1 0.899994 36.8 5.19999 33.4 9.39999C29.7 13.8 25.5 13.1 25.5 13.1C25.5 13.1 24.7 9.6 27.8 5.5Z" fill="#999999"/>
<path fill-rule="evenodd" clip-rule="evenodd" d="M25.9 16.1C27.7 16.1 31 13.6 35.3 13.6C42.7 13.6 45.7 18.9 45.7 18.9C45.7 18.9 40 21.8 40 28.9C40 36.9 47.1 39.7 47.1 39.7C47.1 39.7 42.1 53.7 35.4 53.7C32.3 53.7 29.9 51.6 26.6 51.6C23.3 51.6 20 53.8 17.8 53.8C11.6 53.8 3.89999 40.5 3.89999 29.8C3.89999 19.3 10.5 13.7 16.6 13.7C20.7 13.8 23.9 16.1 25.9 16.1Z" fill="#999999"/>
<path d="M52.1 73.2C50.2 74.1 48.1 74.6 46 74.9C48.2 73.6 49.9 71.5 50.7 69C48.6 70.2 46.3 71.1 43.9 71.6C41.9 69.5 39.2 68.2 36.1 68.2C30.2 68.2 25.4 73 25.4 78.9C25.4 79.7 25.5 80.6 25.7 81.3C16.8 80.9 8.90001 76.6 3.60001 70.1C2.70001 71.7 2.20001 73.5 2.20001 75.5C2.20001 79.2 4.1 82.5 7 84.4C5.2 84.3 3.60001 83.9 2.20001 83.1V83.2C2.20001 88.4 5.89999 92.7 10.8 93.7C9.89999 93.9 9 94.1 8 94.1C7.3 94.1 6.6 94 6 93.9C7.4 98.2 11.3 101.2 16 101.3C12.3 104.2 7.70001 105.9 2.70001 105.9C1.80001 105.9 1.00001 105.8 0.100006 105.8C4.80001 108.8 10.5 110.6 16.5 110.6C36.2 110.6 47 94.3 47 80.1C47 79.6 47 79.2 47 78.7C48.9 77.2 50.7 75.3 52.1 73.2Z" fill="#2AA9E0"/>
</svg>
