<svg width="84" height="82" viewBox="0 0 84 82" fill="none" xmlns="http://www.w3.org/2000/svg">
<path d="M2.7 12.2C5.1 7.79999 9.3 2.9 14.2 1.3C15.2 0.999995 16.5 0.799992 17.4 1.49999C18.2 2.09999 18.3 3.09999 18.1 3.99999C17.9 5.09999 17.1 6.4 15.9 6.6C15.7 6.6 15.5 6.49999 15.3 6.39999C15 6.09999 15 5.59999 15.1 5.19999C15.3 4.39999 16.1 3.4 17 3.3C17.2 3.2 17.1 2.99999 17 2.89999C16.9 2.69999 16.7 2.59999 16.5 2.49999C15.5 2.39999 14.8 2.99999 14 3.49999C11.1 5.79999 9.09997 8.79999 7.29997 11.7C5.89997 14.3 4.69997 17.1 4.29997 20.2C4.09997 22.4 4.79997 24.6 6.79997 25.7C8.99997 26.8 11.8 26.1 13.9 25.5L15.9 24.9L19.7 23.8C23.3 22.7 27.9 22.5 31.4 23.9C33.5 24.8 35.7 26 37.1 28.1C37.1 28.2 37.1 28.2 37 28.2C34 27.4 30 26.6 27 28H26.9C26 26.5 24.4 25.7 22.9 25.4C17.8 24.9 13.6 27.3 8.79997 27.9C6.39997 28.1 3.79999 28 2.09999 26.2C-0.600008 23.5 -0.300014 18.8 0.999986 15.6C1.59999 14.3 2.1 13.2 2.7 12.2Z" fill="#EC1A3B"/>
<path d="M9.7 13.7C11 11.4 12.9 8.5 15.6 7.7C16.3 7.5 17.1 7.60001 17.6 8.10001C18.8 9.30001 18.3 11.2 17.9 12.6C17.9 12.7 18 12.8 18 12.8C19 12.8 19.9 12.3 20.6 11.6C22.2 9.80001 23.9 7.5 26.5 7.8C27 7.9 27.5 8.20001 27.7 8.60001C28.4 9.90001 27.7 11.4 26.8 12.4C26.5 12.7 26 13 25.5 12.8C25.3 12.7 25.1 12.5 25.1 12.3C24.9 11.4 25.4 10.5 26.2 10C26.4 9.8 27.1 9.9 26.9 9.5C26.8 9.3 26.6 9.3 26.4 9.3C25.1 9.8 24.3 11.1 23.6 12.2C22.7 13.6 21.9 15.2 21.4 16.8C21.3 17.4 21.1 18.1 21.4 18.7C21.7 19 22.1 19.2 22.5 19.1C23.8 18.6 24.8 17.6 25.8 16.6C28 14 29.1 10.7 32.1 8.60001C33 8.00001 34.3 7.50001 35.4 8.10001C35.6 8.20001 35.7 8.4 35.9 8.3C36.1 8.1 36.2 7.7 36.6 7.8C37.4 7.8 38.3 7.79999 39.2 7.89999L39.3 8L39.1 8.60001L34.6 17.8C34.6 17.9 34.5 18 34.6 18.1C34.7 18.2 34.8 18.2 35 18.2C35.7 17.8 36.2 17.1 36.6 16.5C37 15.9 37.4 15.4 37.6 14.8C37.7 14.6 37.9 14.4 38.1 14.4C38.4 14.4 38.7 14.3 38.9 14.5C38.6 15.3 38.2 16 37.8 16.7C36.6 18.6 35 20.8 32.7 21.4C32.3 21.4 31.9 21.5 31.6 21.2C31.2 20.9 31.1 20.3 31 19.9C31 19.8 30.9 19.8 30.8 19.9C29.8 20.8 28.8 21.6 27.5 21.5C27.1 21.4 26.7 21.1 26.5 20.7C26.1 20 26.3 19.2 26.3 18.4C26.3 18.3 26.2 18.3 26.1 18.4C24.6 19.9 23 21.2 21.1 21.5C20.2 21.6 19.4 21.3 18.8 20.7C17.3 18.8 18.5 16.3 19.3 14.4C19.3 14.3 19.3 14.2 19.2 14.2C18.7 14.2 18.2 14.3 17.7 14.4L17.5 14.6C16.3 16.8 15 19.1 12.9 20.8C12 21.4 10.7 21.9 9.7 21.3C8.6 20.6 8.5 19.2 8.7 18C8.6 16.3 9.1 15 9.7 13.7ZM13.1 13.6C12.5 14.9 11.8 16.1 11.8 17.6C11.9 17.9 12 18.2 12.3 18.3C12.6 18.4 12.9 18.2 13.2 18C14.4 17 15.3 15.6 16 14.2C16.1 14.1 16.2 13.9 16.1 13.8C15.4 13.5 14.7 13 14.1 12.4H14C13.9 12.4 13.8 12.5 13.8 12.6L13.1 13.6ZM15 11.1C15 11.8 15.7 12.3 16.2 12.6C16.3 12.6 16.6 12.8 16.7 12.6C16.9 12.2 17.1 11.7 17.2 11.3C17.3 10.7 17.4 9.9 16.8 9.5C16.6 9.4 16.3 9.4 16.1 9.5C15.5 9.7 15 10.3 15 11.1ZM30 16.2C29.8 16.8 29.6 17.3 29.8 18C29.9 18.1 30 18.2 30.1 18.2C30.6 18.2 30.9 17.8 31.3 17.4C32.8 15.4 33.9 13.2 34.9 11C35.1 10.5 35.3 10.1 35.3 9.60001C35.3 9.50001 35.2 9.39999 35.1 9.39999C34.9 9.29999 34.7 9.5 34.5 9.5C32.5 11 31.5 13.2 30.5 15.2L30 16.2Z" fill="#EC1A3B"/>
<path d="M39.4 10.6C39.8 9.70001 40.2001 8.8 40.7001 8C40.9001 7.8 41.3 7.8 41.6 7.7H43.8L43.9 7.8C43.5 8.7 43.1001 9.49999 42.7001 10.4C42.6001 10.6 42.4 10.8 42.1 10.9C41.2 10.9 40.3 11 39.4 10.9C39.3 10.8 39.4 10.7 39.4 10.6Z" fill="#EC1A3B"/>
<path d="M41.6 15C43.1 11.9 44.9 8.8 47.5 6.2C50 3.7 52.7 1.70001 56 1.10001C56.9 1.00001 57.9 1.1 58.6 1.7C58.7 1.8 58.9 1.89999 59.1 1.89999C61.5 0.999993 64.7 0.600002 67.1 1.8C68.5 2.5 69.8 3.30001 71.1 4.10001C71.3 4.20001 71.2 4.4 71.1 4.5C70.3 5.3 69.7 6.20001 69 7.10001C68.9 7.20001 68.8 7.10001 68.7 7.10001L65.2 4.7C63.6 3.6 61.7 2.8 59.6 3.2C59.4 3.3 59.5 3.6 59.4 3.8C59.4 6 58.7 7.90001 57.6 9.60001C56.8 10.8 55.8 12.1 54.4 12.5C53.8 12.6 53.2 12.4 52.8 11.9C51.8 10.3 52.7 8.4 53.4 7C54.3 5.5 55.6 3.99999 57.1 2.89999C57.1 2.79999 57.2 2.8 57.2 2.7C57.1 2.6 56.8 2.6 56.6 2.7C54.2 3.5 52.4 5.6 50.6 7.5C47.5 11.3 45.1 15.5 43.8 20C43.4 21.7 42.8 24.3 44.6 25.5C46.1 26.3 47.6 25.3 48.8 24.3C50.6 22.5 51.7 20.5 52.2 18.1C52.3 17.4 52.5 16.5 51.8 16C51.2 15.7 50.7 16.2 50.4 16.6C49.5 17.7 49.1 19 49 20.4C48.6 20.7 48.1 20.9 47.7 21.3C46.9 21.8 46.1 22.6 45.5 23.3C45.4 23.3 45.4 23.2 45.4 23.2C45.3 20.6 46.2 18.4 47.6 16.5C48.7 15.2 50.2 14.1 51.9 14.5C52.7 14.7 53.2 15.5 53.3 16.2C53.6 18.6 52.6 20.7 51.5 22.7C49.7 25.5 47 28.2 43.5 27.9C42.2 27.8 40.9 26.9 40.3 25.6C39 23 39.9 19.6 40.8 17L41.6 15ZM53.6 10.4C53.6 10.7 53.8 11 54.1 11.1C54.7 11.3 55.2 10.8 55.6 10.5C57.2 8.8 58.2 6.90001 58.4 4.60001C58.4 4.30001 58.5 3.80001 58.3 3.60001C58.2 3.60001 58 3.6 57.9 3.7C56.8 4.4 55.8 5.5 55.1 6.5C54.3 7.7 53.6 8.89999 53.6 10.4Z" fill="#EC1A3B"/>
<path d="M55.8 17.9C57.1 16.2 58.8 14.4 60.9 14.2C61.4 14.2 61.9 14.4 62.2 14.9C63.1 16.3 62.3 18 62 19.4C62 19.5 62.1 19.6 62.1 19.6C62.5 19.7 63.1 19.6 63.4 19.4L63.6 19.2C65.1 14.8 67.4 10.7 70.2 6.80001C71.9 4.60001 74.1 2.20001 76.6 1.10001C77.2 0.900013 78.1 0.600013 78.6 1.10001C79.2 1.60001 79.1 2.5 78.9 3.2C78.8 3.8 78.1 3.90001 77.7 4.00001C77.7 4.00001 77.7 4.00001 77.6 4.00001C77.6 3.60001 77.8 3.2 77.9 2.9C77.9 2.7 78 2.50001 77.9 2.30001C77.8 2.10001 77.5 2.2 77.4 2.2C76.5 2.6 75.9 3.40001 75.2 4.10001C72.8 6.90001 71 10.1 69.4 13.3C68.9 14.4 68.3 15.5 67.9 16.6C67.9 16.7 67.9 16.7 68 16.8C68.4 16.8 68.6 16.4 68.9 16.2C71.1 14.3 72.8 12 74.4 9.7C74.7 9.5 75.1 9.50001 75.5 9.50001H75.6C75.6 9.80001 75.3 10.1 75.2 10.3C73.4 12.9 71.4 15.4 68.9 17.6L67.1 19.1C66.7 19.4 66.7 19.9 66.5 20.4C66.2 21.5 65.8 22.7 65.8 23.9C65.8 24.1 65.9 24.3 66.1 24.4C66.6 24.6 67 24.2 67.3 23.9C69.7 21.1 70.8 17.6 73.8 15.1C74.8 14.3 76.1 13.7 77.3 14.3C77.5 14.4 77.7 14.7 78 14.5C78.2 14.4 78.2 14.1 78.5 14.1C79.4 14.1 80.3 14.1 81.1 14.1C81.2 14.2 81.1 14.3 81.1 14.4L80.5 15.6L76.8 23.1C76.6 23.4 76.4 23.8 76.4 24.2C76.5 24.4 76.6 24.4 76.8 24.3C77.5 23.9 78 23.3 78.5 22.6C79 22 79.3 21.3 79.8 20.6C80 20.5 80.4 20.5 80.6 20.6C80.8 20.7 80.6 20.9 80.5 21.1C79.4 23.4 77.9 25.8 75.5 27.1C74.9 27.4 74.2 27.6 73.6 27.3C73.1 27 73.2 26.4 72.9 25.9C72.9 25.8 72.7 25.8 72.7 25.9C71.7 26.8 70.6 27.8 69.3 27.4C68.4 27 68.3 26 68.3 25.2C68.3 25.2 68.3 25.1 68.2 25.1H68.1C67.1 26.3 65.9 27.7 64.3 27.6C63.7 27.6 63.1 27 63 26.4C62.4 24.6 63 22.6 63.4 20.9C63.4 20.8 63.3 20.7 63.2 20.7H61.8L61.6 21C60.6 23 59.5 24.9 57.8 26.5C56.9 27.3 55.8 28 54.5 27.6C53.5 27.2 53.2 26 53.2 25C53.1 22.3 54.3 20.1 55.8 17.9ZM56.1 23.9C56.1 24.3 56.3 24.7 56.7 24.8C57 24.9 57.2 24.8 57.5 24.7C58.8 23.8 59.5 22.3 60.2 21C60.3 20.9 60.3 20.7 60.1 20.6C59.4 20.3 58.8 19.7 58.3 19.2C58.2 19.1 58.1 19.1 58 19.2C57.5 19.8 57.2 20.5 56.9 21.3C56.6 22 56.1 22.8 56.1 23.9ZM59.4 17.7C59.4 18.4 60 19 60.6 19.2C60.7 19.2 60.9 19.3 61 19.1C61.4 18.2 61.7 17.3 61.5 16.3C61.4 16.1 61.2 15.8 61 15.8C60.8 15.7 60.5 15.8 60.3 15.9C59.7 16.3 59.4 17 59.4 17.7ZM71.5 23.6C71.5 23.9 71.4 24.3 71.6 24.6C71.7 24.7 71.9 24.7 72.1 24.7C72.8 24.4 73.2 23.7 73.6 23.1C74.9 21 75.9 18.8 76.8 16.6C76.8 16.4 76.9 16.1 76.7 16C76.2 15.7 75.7 16.3 75.3 16.6C73.5 18.4 72.6 20.5 71.7 22.6L71.5 23.6Z" fill="#EC1A3B"/>
<path d="M74.1 7.10001L75.3 5.60001L75.5 5.39999C78.9 5.29999 81.6 3.29999 84 0.899994C84 1.19999 83.8 1.5 83.7 1.8C82.1 5.5 78.3 8.7 74.2 8.8H73.2C73 8.8 73.1 8.6 73.2 8.5L74.1 7.10001Z" fill="#EC1A3B"/>
<path d="M78.4 26.6C78.4 26.1 78.7 25.8 79.2 25.8C79.6 25.8 80 26.1 80 26.6C80 27.1 79.7 27.4 79.2 27.4C78.7 27.5 78.4 27.1 78.4 26.6ZM79.2 27.6C79.7 27.6 80.2 27.2 80.2 26.6C80.2 26 79.7 25.6 79.2 25.6C78.7 25.6 78.2 26 78.2 26.6C78.2 27.2 78.7 27.6 79.2 27.6ZM79 26.7H79.2L79.5 27.2H79.7L79.4 26.7C79.6 26.7 79.7 26.6 79.7 26.4C79.7 26.2 79.6 26.1 79.3 26.1H78.9V27.2H79.1V26.7H79ZM79 26.6V26.3H79.2C79.3 26.3 79.4 26.3 79.4 26.5C79.4 26.7 79.3 26.7 79.1 26.7H79V26.6Z" fill="#EC1A3B"/>
<path fill-rule="evenodd" clip-rule="evenodd" d="M48.4 77.1C44.2 80.2 38.1 81.9 32.8 81.9C25.4 81.9 18.8 79.2 13.7 74.6C13.3 74.2 13.7 73.8 14.1 74C19.5 77.2 26.2 79.1 33.2 79.1C37.9 79.1 43 78.1 47.8 76.1C48.5 75.8 49.1 76.6 48.4 77.1Z" fill="#FF9900"/>
<path fill-rule="evenodd" clip-rule="evenodd" d="M50.1 75.1C49.6 74.4 46.5 74.8 45.2 74.9C44.8 74.9 44.7 74.6 45.1 74.3C47.5 72.6 51.5 73.1 51.9 73.7C52.4 74.3 51.8 78.2 49.5 80.1C49.2 80.4 48.8 80.2 49 79.9C49.5 78.6 50.7 75.8 50.1 75.1Z" fill="#FF9900"/>
<path fill-rule="evenodd" clip-rule="evenodd" d="M45.3 62.3V60.7C45.3 60.4 45.5 60.3 45.7 60.3H53.1C53.3 60.3 53.5 60.5 53.5 60.7V62.1C53.5 62.3 53.3 62.6 52.9 63.1L49.1 68.6C50.5 68.6 52 68.8 53.3 69.5C53.6 69.7 53.7 69.9 53.7 70.1V71.9C53.7 72.1 53.4 72.4 53.2 72.3C50.9 71.1 47.9 71 45.4 72.3C45.1 72.4 44.9 72.2 44.9 71.9V70.2C44.9 69.9 44.9 69.5 45.2 69.1L49.6 62.7H45.7C45.5 62.8 45.3 62.6 45.3 62.3Z" fill="black"/>
<path fill-rule="evenodd" clip-rule="evenodd" d="M18.3 72.6H16.1C15.9 72.6 15.7 72.4 15.7 72.2V60.7C15.7 60.5 15.9 60.3 16.1 60.3H18.2C18.4 60.3 18.6 60.5 18.6 60.7V62.2C19.1 60.7 20.2 60.1 21.6 60.1C23 60.1 23.9 60.8 24.5 62.2C25 60.7 26.3 60.1 27.6 60.1C28.5 60.1 29.6 60.5 30.2 61.4C30.9 62.4 30.8 63.8 30.8 65V72.3C30.8 72.5 30.6 72.7 30.4 72.7H28.2C28 72.7 27.8 72.5 27.8 72.3V66.2C27.8 65.7 27.8 64.5 27.7 64C27.5 63.2 27 63 26.4 63C25.9 63 25.3 63.4 25.1 63.9C24.9 64.5 24.9 65.5 24.9 66.1V72.2C24.9 72.4 24.7 72.6 24.5 72.6H22.3C22.1 72.6 21.9 72.4 21.9 72.2V66.1C21.9 64.8 22.1 62.9 20.5 62.9C18.9 62.9 18.9 64.7 18.9 66.1V72.2C18.8 72.5 18.6 72.6 18.3 72.6Z" fill="black"/>
<path fill-rule="evenodd" clip-rule="evenodd" d="M59.9 60.1C63.2 60.1 65 63 65 66.6C65 70.1 63 72.9 59.9 72.9C56.6 72.9 54.8 70 54.8 66.5C54.8 62.8 56.6 60.1 59.9 60.1ZM59.9 62.4C58.2 62.4 58.1 64.7 58.1 66.1C58.1 67.5 58.1 70.5 59.8 70.5C61.5 70.5 61.6 68.1 61.6 66.6C61.6 65.6 61.6 64.5 61.3 63.5C61.1 62.7 60.6 62.4 59.9 62.4Z" fill="black"/>
<path fill-rule="evenodd" clip-rule="evenodd" d="M69.4 72.6H67.2C67 72.6 66.8 72.4 66.8 72.2V60.7C66.8 60.5 67 60.3 67.2 60.3H69.3C69.5 60.3 69.7 60.4 69.7 60.6V62.4C70.3 60.8 71.2 60.1 72.8 60.1C73.8 60.1 74.8 60.5 75.4 61.5C76 62.4 76 64 76 65.1V72.4C76 72.6 75.8 72.8 75.6 72.8H73.3C73.1 72.8 72.9 72.6 72.9 72.4V66C72.9 64.7 73 62.9 71.5 62.9C71 62.9 70.5 63.3 70.2 63.8C69.9 64.5 69.8 65.2 69.8 66V72.2C69.8 72.5 69.6 72.6 69.4 72.6Z" fill="black"/>
<path fill-rule="evenodd" clip-rule="evenodd" d="M39.4 67.1C39.4 68 39.4 68.7 39 69.5C38.6 70.1 38.1 70.5 37.4 70.5C36.5 70.5 36 69.8 36 68.9C36 67 37.7 66.6 39.3 66.6V67.1H39.4ZM41.7 72.6C41.6 72.7 41.3 72.7 41.2 72.7C40.5 72.1 40.3 71.8 39.9 71.2C38.7 72.5 37.8 72.8 36.2 72.8C34.3 72.8 32.8 71.6 32.8 69.3C32.8 67.5 33.8 66.2 35.2 65.6C36.4 65.1 38.1 65 39.4 64.8V64.5C39.4 64 39.4 63.3 39.1 62.9C38.8 62.5 38.3 62.3 37.8 62.3C36.9 62.3 36.2 62.7 36 63.7C36 63.9 35.8 64.1 35.6 64.1L33.4 63.9C33.2 63.9 33 63.7 33.1 63.4C33.6 60.8 36 60 38.1 60C39.2 60 40.6 60.3 41.5 61.1C42.6 62.1 42.5 63.5 42.5 65V68.5C42.5 69.6 42.9 70 43.3 70.6C43.4 70.8 43.5 71 43.3 71.2C42.9 71.5 42.1 72.2 41.7 72.6Z" fill="black"/>
<path fill-rule="evenodd" clip-rule="evenodd" d="M9.89999 67.1C9.89999 68 9.9 68.7 9.5 69.5C9.1 70.1 8.59999 70.5 7.89999 70.5C6.99999 70.5 6.5 69.8 6.5 68.9C6.5 67 8.19999 66.6 9.79999 66.6V67.1H9.89999ZM12.2 72.6C12.1 72.7 11.8 72.7 11.7 72.7C11 72.1 10.8 71.8 10.4 71.2C9.19999 72.5 8.30001 72.8 6.70001 72.8C4.80001 72.8 3.29999 71.6 3.29999 69.3C3.29999 67.5 4.30001 66.2 5.70001 65.6C6.90001 65.1 8.59999 65 9.89999 64.8V64.5C9.89999 64 9.90001 63.3 9.60001 62.9C9.30001 62.5 8.79999 62.3 8.29999 62.3C7.39999 62.3 6.7 62.7 6.5 63.7C6.5 63.9 6.30001 64.1 6.10001 64.1L3.89999 63.9C3.69999 63.9 3.50001 63.7 3.60001 63.4C4.10001 60.8 6.50001 60 8.60001 60C9.70001 60 11.1 60.3 12 61.1C13.1 62.1 13 63.5 13 65V68.5C13 69.6 13.4 70 13.8 70.6C13.9 70.8 14 71 13.8 71.2C13.5 71.5 12.6 72.2 12.2 72.6Z" fill="black"/>
</svg>
