<svg width="105" height="94" viewBox="0 0 105 94" fill="none" xmlns="http://www.w3.org/2000/svg">
<path d="M0.400024 0.799988C6.10002 0.799988 11.9 0.799988 17.6 0.799988C17.6 2.99999 17.6 5.19999 17.6 7.29999C14.5 7.29999 11.3 7.29999 8.20002 7.29999C8.20002 8.69999 8.20002 10 8.20002 11.4C11.1 11.4 14 11.4 16.9 11.4C16.9 12.6 16.9 13.8 16.9 15C17.6 14 18.4 13.1 19.3 12.4C20.8 11.3 22.6 10.6 24.5 10.4C26.4 10.3 28.3 10.3 30.1 10.9C32.4 11.6 34.2 13.3 35.3 15.4C35.6 16 35.8 16.6 36.1 17.2C36.9 14.7 38.6 12.5 40.9 11.3C43 10.3 45.5 10 47.8 10.7C48.9 11.1 49.9 11.8 50.7 12.6C50.7 8.69998 50.7 4.69999 50.7 0.799988C53 0.799988 55.3 0.799988 57.6 0.799988C57.5 6.39999 57.6 12.1 57.6 17.7C57.6 21.7 57.6 25.7 57.6 29.8C55.3 29.9 53.1 29.8 50.8 29.8C50.8 29.2 50.8 28.5 50.8 27.9L50.7 28C49.7 29.4 48.2 30.4 46.5 30.8C44.4 31.2 42.1 30.7 40.3 29.6C37.7 28 36 25.1 35.6 22C31.3 22 27.1 22 22.8 22C22.6 22 22.3 22 22.1 22.1C22.2 23.3 22.9 24.6 23.9 25.2C25.1 26 26.7 26.1 28 25.5C28.6 25.2 29 24.7 29.4 24.2C31.6 24.2 33.8 24.2 36 24.2C35.1 26.5 33.4 28.6 31.2 29.7C29.1 30.7 26.6 31 24.3 30.7C21.6 30.3 19 28.9 17.4 26.6C16.1 24.8 15.4 22.7 15.5 20.5C15.5 19.5 15.6 18.6 15.8 17.7C13.3 17.7 10.8 17.7 8.30003 17.7C8.30003 21.8 8.30003 25.8 8.30003 29.9C5.70003 29.9 3.10002 29.9 0.500023 29.9C0.400023 20.2 0.400024 10.5 0.400024 0.799988ZM23.9 15.4C23.1 15.9 22.6 16.8 22.4 17.7C24.8 17.7 27.3 17.8 29.7 17.7C29.5 17 29.2 16.2 28.6 15.7C27.4 14.5 25.3 14.4 23.9 15.4ZM45.7 15.7C44 16.1 42.9 17.8 42.7 19.5C42.3 21.3 42.8 23.4 44.3 24.6C45.7 25.8 47.9 25.7 49.2 24.5C50.4 23.2 50.7 21.3 50.4 19.6C50.2 18.4 49.8 17.2 48.8 16.4C48 15.6 46.8 15.4 45.7 15.7Z" fill="#312280"/>
<path d="M57.5 0.799988C62.9 0.799988 68.3 0.799988 73.7 0.799988C73.7 2.99999 73.7 5.09999 73.7 7.29999C70.6 7.39999 67.5 7.29999 64.4 7.29999C64.4 8.69999 64.3 10 64.5 11.4C67.6 11.4 70.7 11.4 73.8 11.4C73.7 13.5 73.8 15.6 73.8 17.6C70.7 17.6 67.7 17.6 64.6 17.6C64.4 18.7 64.5 19.8 64.5 20.9C64.5 21.7 64.5 22.5 64.6 23.3C67.6 23.3 70.7 23.3 73.7 23.3C73.9 23.9 73.7 24.6 73.8 25.3C73.9 26.7 73.7 28.1 74 29.5C75.1 28.4 76.1 27.2 77.1 26.1C78 24.9 79.1 23.9 80 22.8C80.6 22.1 81.4 21.5 81.9 20.7C81.8 20.5 81.7 20.4 81.6 20.3C80.1 18.6 78.5 16.8 77 15.1C76 13.9 74.8 12.8 73.9 11.5C75.9 11.4 78 11.5 80 11.5C80.8 11.5 81.7 11.5 82.5 11.5C84 12.9 85.1 14.5 86.7 15.8C87.8 14.5 88.9 13.3 89.9 12.1C90.2 11.8 90.4 11.4 90.9 11.5C93.5 11.5 96.2 11.5 98.8 11.5C98.5 12 98.1 12.5 97.6 13C95.3 15.6 93 18.1 90.8 20.7C91.6 21.9 92.8 22.9 93.7 24.1C95 25.5 96.2 26.9 97.5 28.3C98 28.9 98.6 29.4 99 30.1C96.4 30.1 93.7 30.1 91.1 30.1C90.8 30.1 90.4 30.2 90.2 29.9C88.9 28.5 87.6 27 86.3 25.6C85.1 26.9 83.9 28.2 82.8 29.6C82.6 29.9 82.3 30.2 81.9 30.2C71.6 30.2 61.2 30.2 50.9 30.2C50.9 29.6 50.9 29 50.9 28.3L51 28.2C51 28.8 51 29.5 51 30.1C53.3 30.1 55.5 30.1 57.8 30.1C57.8 26.1 57.8 22.1 57.8 18C57.5 12.1 57.5 6.49999 57.5 0.799988Z" fill="#EA6214"/>
<path d="M102.1 26.1C103.2 25.8 104.5 26.8 104.3 28C104.5 29.4 102.6 30.3 101.5 29.6C100.1 28.9 100.5 26.4 102.1 26.1ZM102.1 26.5C101.5 26.7 100.9 27.3 101 28C100.9 29.1 102.3 29.8 103.2 29.3C104.2 28.9 104.3 27.3 103.4 26.7C103.1 26.5 102.6 26.5 102.1 26.5Z" fill="#EA6214"/>
<path d="M101.8 26.8C102.3 26.8 102.8 26.7 103.3 26.9C103.3 27.6 103.3 28.2 103.4 28.8C103.4 28.9 103.3 29.1 103.2 29.1C102.9 28.6 102.8 28.1 102.4 27.8C102.3 28.2 102.2 28.6 102.1 29C101.6 28.5 101.9 27.6 101.8 26.8ZM102.2 27.2C102.2 27.4 102.2 27.6 102.2 27.7C102.4 27.7 102.5 27.7 102.7 27.7C102.7 27.5 102.7 27.4 102.8 27.2C102.6 27.2 102.4 27.2 102.2 27.2Z" fill="#EA6214"/>
<path d="M78.1 63C76 61 73.2 59.9 70.3 59.8C67.4 59.7 64.5 60.5 62.1 62.2C60 63.7 58.4 65.7 57.3 68C55.9 66.8 54.6 65.6 52.9 65C51.3 64.4 49.4 64.1 47.8 64.8C47.1 65.1 46.5 65.7 46.1 66.3C45.7 67 45.5 67.7999 45.6 68.5999C45.7 69.3999 46 70.0999 46.6 70.5999C47.2 71.1999 47.9 71.5 48.7 71.9C49.6 72.3 50.5 72.5 51.4 72.8C52.3 73.1 53.1 73.2999 53.9 73.5999C55.5 74.1999 57.1 75 58.3 76.2C60.8 78.6 61.6 82.3 61.2 85.7C61.1 86.7 60.9 87.6 60.5 88.5C60.4 88.7 60.3 88.8999 60.2 89.0999C60.2 89.1999 60.1 89.3 60.1 89.3C60.1 89.3 60.3 89.4999 60.4 89.5999C60.7 89.8999 61 90.2 61.3 90.4C62.4 91.3 63.7 92.0999 65.1 92.5999C67.9 93.5999 71 93.8 73.8 92.8C75.4 92.3 76.8 91.4 78 90.2C78 90.7 78 93 78 93H87.6V60.2H78C78.1 60.2 78.1 62.2 78.1 63ZM71.7 84.8C70.2 84.8 68.8 84.2 67.7 83.2C66.5 82.2 65.7 80.7 65.2 79.2C64.3 76.1 65 72.5 67.4 70.2C68.5 69.1 69.9 68.4 71.5 68.4C73 68.4 74.6 68.9 75.8 69.9C77.8 71.6 78.8 74.4999 78.7 77.0999C78.6 79.6999 77.3 82.4 75 83.9C73.9 84.5 72.8 84.8 71.7 84.8ZM42.5 79.5C42.1 79.3 41.6 79.1 41.2 78.9C40.4 78.5 39.6 78 38.9 77.4C37.6 76.3 36.7 74.9 36.1 73.4C35.5 71.8 35.3 70 35.4 68.3C35.5 66.5 36 64.6999 36.9 63.0999C37.6 61.8999 38.5 60.7 39.6 59.8C37.6 59.8 30 59.8 30 59.8C30 59.8 30 70 30 74C30 75 30 76 30 77C30 77.9 30 78.9 29.9 79.8C29.7 81.5 29.2 83.4 27.6 84.3C26.8 84.7 26 84.9 25.1 84.8C24.2 84.8 23.4 84.5 22.7 84C21.3 82.9 20.9 81.1 20.7 79.4C20.6 78.5 20.6 77.6 20.6 76.7C20.6 75.7 20.6 74.7 20.6 73.7C20.6 71.7 20.6 59.8 20.6 59.8H10.7C10.7 59.8 10.7 73.3 10.7 77.4C10.7 79.4 10.7 81.4 11.1 83.3C11.5 85 12.1 86.6999 13.1 88.0999C14.1 89.4999 15.3 90.6 16.8 91.5C18.4 92.4 20.2 92.9 21.9 93.2C23.7 93.5 25.6 93.5 27.4 93.3C29.1 93.2 30.9 92.7999 32.5 92.0999C34 91.4999 35.4 90.5 36.5 89.3C37.6 88.1 38.4 86.8 38.9 85.3C38.9 85.2 39 85.1 39 84.9C40.2 86.1 41.5 87.1 43 87.9C44.5 88.6 46.2 89.1 47.8 88.8C48.6 88.7 49.4 88.3 50 87.7C50.6 87.2 50.9 86.4 51.1 85.7C51.2 85 51.2 84.2 50.8 83.5C50.5 82.9 50 82.4 49.4 82C48.6 81.4 47.6 81.1 46.7 80.8C45.7 80.5 44.1 80 43.7 79.9C43.4 79.9 42.7 79.6 42.5 79.5Z" fill="black"/>
<path d="M89.6 91.7H89.1V91.4H90.5V91.7H90V93.1H89.7V91.7H89.6ZM90.9 91.4H91.2L91.7 92.2L92.2 91.4H92.5V93.1H92.2V91.9L91.7 92.7L91.2 91.9V93.1H90.9V91.4Z" fill="#231F20"/>
</svg>
