<svg width="94" height="102" viewBox="0 0 94 102" fill="none" xmlns="http://www.w3.org/2000/svg">
<path fill-rule="evenodd" clip-rule="evenodd" d="M66.2 44.9H66.7V49.5L63.3999 46V49.3H62.8V44.7L66.1 48.2V44.9H66.2ZM50.7 44.9V47.7C50.7 48.2 50.6 48.6 50.3 48.9C50 49.2 49.6 49.4 49.1 49.4C48.6 49.4 48.2 49.2 47.9 48.9C47.6 48.6 47.5 48.2 47.5 47.7V44.9H48.1V47.5C48.1 48.4 48.4 48.9 49.1 48.9C49.8 48.9 50.2 48.4 50.2 47.5V44.9H50.7ZM52.4 44.9H55V45.4H54V49.3H53.5V45.4H52.4V44.9ZM51.4 44.9H52V49.3H51.4V44.9ZM46.6 44.9H47.2L45.3 49.5L43.4 44.9H44L45.3 48.2L46.6 44.9ZM61.8999 47.1C61.8999 47.6 61.6999 48 61.3999 48.4C61.0999 48.7 60.7 48.9 60.2 48.9C59.7 48.9 59.3 48.7 59 48.4C58.6 48 58.5 47.6 58.5 47.1C58.5 46.6 58.7 46.2 59 45.9C59.3 45.5 59.8 45.4 60.3 45.4C60.8 45.4 61.2 45.6 61.5 45.9C61.7 46.2 61.8999 46.6 61.8999 47.1ZM61.8 45.5C61.3 45.1 60.7999 44.8 60.2 44.8C59.6 44.8 59 45 58.6 45.5C58.2 45.9 57.8999 46.5 57.8999 47.1C57.8999 47.7 58.1 48.3 58.6 48.7C59 49.1 59.6 49.3 60.2 49.3C60.7999 49.3 61.4 49.1 61.8 48.7C62.2 48.3 62.5 47.7 62.5 47.1C62.4 46.5 62.2 45.9 61.8 45.5ZM57.7 44.9V45.4H56.7V49.3H56.1V45.4H55.1V44.9H57.7ZM32.2 45.9C32.5 46.2 32.7 46.7 32.7 47.1C32.7 47.6 32.5 48 32.2 48.4C31.9 48.7 31.4 48.9 31 48.9C30.6 48.9 30.1 48.7 29.8 48.4C29.5 48 29.3 47.6 29.3 47.1C29.3 46.6 29.5 46.2 29.8 45.9C30.1 45.5 30.6 45.4 31.1 45.4C31.5 45.3 31.9 45.5 32.2 45.9ZM32.6 45.5C32.1 45.1 31.6 44.8 31 44.8C30.4 44.8 29.8 45 29.4 45.5C28.9 45.9 28.7 46.5 28.7 47.1C28.7 47.7 28.9 48.3 29.4 48.7C29.8 49.1 30.4 49.3 31 49.3C31.6 49.3 32.2 49.1 32.6 48.7C33.1 48.3 33.3 47.7 33.3 47.1C33.3 46.5 33 45.9 32.6 45.5ZM34.3 47.5C34.3 48.4 34.7 48.9 35.4 48.9C36.1 48.9 36.5 48.4 36.5 47.5V44.9H37V47.7C37 48.2 36.9 48.6 36.6 48.9C36.3 49.2 35.9 49.4 35.4 49.4C34.9 49.4 34.5 49.2 34.2 48.9C33.9 48.6 33.8 48.2 33.8 47.7V44.9H34.4V47.5H34.3ZM27.3 44.9V48.8H28.6V49.3H26.7V44.9H27.3ZM40.5 46.7C41.2 47 41.6 47.4 41.6 48C41.6 48.4 41.5 48.7 41.2 49C40.9 49.3 40.6 49.4 40.2 49.4C39.8 49.4 39.5 49.3 39.3 49C39.1 48.8 38.9 48.5 38.9 48.1L39.5 48C39.5 48.2 39.6 48.4 39.7 48.6C39.9 48.8 40.1 48.8 40.3 48.8C40.5 48.8 40.7 48.7 40.9 48.5C41 48.3 41.1 48.1 41.1 47.9C41.1 47.6 40.9 47.3 40.3 47.1L40 47C39.4 46.7 39.1 46.3 39.1 45.9C39.1 45.6 39.2 45.3 39.5 45.1C39.8 44.9 40.1 44.8 40.4 44.8C40.9 44.8 41.3 45 41.5 45.5L41.1 45.7C40.9 45.4 40.7 45.3 40.4 45.3C40.2 45.3 40 45.3 39.9 45.5C39.7 45.6 39.7 45.8 39.7 46C39.7 46.3 39.9 46.5 40.3 46.6L40.5 46.7ZM37.7 44.9H38.3V49.3H37.7V44.9Z" fill="#231F20"/>
<path fill-rule="evenodd" clip-rule="evenodd" d="M59.3 5.20001L48.7 30.3L45.8 23.9L51.2 9.20001C51.6 8.10001 53 7.5 55.4 7.5L56.3 5.29999H43.7L42.9 7.5C44.7 7.5 45.4 8.00001 45.1 9.20001L42.4 16.7L37.1 5.29999C36.1 4.09999 36.6 3.5 38.5 3.5V0.899994H26.3V3.5C28.6 3.5 30 4.09999 30.6 5.29999L39.6 24.3L35.4 35.5C35.3 37 33 37.7 28.4 37.7L27.5 39.9H62.3L67.1 29.6H64.6C62.2 34.9 59.5 37.7 56.5 37.7H40.5L42.9 31.4L44.9 35.5H49.5L62.4 5.29999C63 3.49999 64.6 2.5 67.1 2.5V0.100006H56.6V2.5C59.7 2.4 60.6 3.40001 59.3 5.20001Z" fill="#231F20"/>
<path d="M9.20001 101.5H0.700012V90.1H2.90002V99.5H9.20001V101.5Z" fill="#0E0E0E"/>
<path d="M18.6 95.1C18.2 94.4 17.7 93.9 17 93.5C16.3 93.1 15.5 92.9 14.7 92.9C13.9 92.9 13.1 93.1 12.4 93.5C11.7 93.9 11.2 94.4 10.8 95.1C10.4 95.8 10.2 96.5 10.2 97.3C10.2 98.1 10.4 98.9 10.8 99.5C11.2 100.2 11.7 100.7 12.4 101.1C13.1 101.5 13.8 101.7 14.7 101.7C15.6 101.7 16.3 101.5 17 101.1C17.7 100.7 18.2 100.2 18.6 99.5C19 98.8 19.2 98.1 19.2 97.3C19.1 96.5 18.9 95.7 18.6 95.1ZM16.7 98.6C16.5 99 16.2 99.3 15.8 99.5C15.4 99.7 15 99.8 14.6 99.8C14.2 99.8 13.7 99.7 13.4 99.5C13 99.3 12.7 99 12.5 98.6C12.3 98.2 12.2 97.8 12.2 97.3C12.2 96.8 12.3 96.4 12.5 96C12.7 95.6 13 95.3 13.4 95.1C13.8 94.9 14.2 94.8 14.6 94.8C15 94.8 15.5 94.9 15.8 95.1C16.2 95.3 16.5 95.6 16.7 96C16.9 96.4 17 96.8 17 97.3C17.1 97.8 17 98.2 16.7 98.6Z" fill="#0E0E0E"/>
<path d="M26.4 93.1V99C26.2 99.3 25.9 99.5 25.6 99.7C25.3 99.9 24.9 99.9 24.6 99.9C24 99.9 23.6 99.7 23.3 99.4C23 99.1 22.8 98.6 22.8 98V93.1H20.7V98.3C20.7 99 20.8 99.5 21.1 100C21.4 100.5 21.8 100.9 22.3 101.2C22.8 101.5 23.4 101.6 24 101.6C24.9 101.6 25.7 101.3 26.4 100.8L26.5 100.7V101.5H28.6V93.1H26.4Z" fill="#0E0E0E"/>
<path d="M32.3 89.9C32.1 89.7 31.8 89.5 31.4 89.5C31.1 89.5 30.8 89.6 30.5 89.9C30.3 90.1 30.1 90.4 30.1 90.8C30.1 91.1 30.2 91.4 30.5 91.7C30.7 91.9 31 92.1 31.4 92.1C31.7 92.1 32 92 32.3 91.7C32.5 91.5 32.7 91.2 32.7 90.8C32.7 90.4 32.5 90.1 32.3 89.9ZM30.4 101.5H32.5V93.1H30.4V101.5Z" fill="#0E0E0E"/>
<path d="M40.6 97.3C40.2 96.9 39.5 96.6 38.7 96.5L37.1 96.3C36.7 96.2 36.4 96.1 36.2 96C36 95.9 35.9 95.7 35.9 95.4C35.9 95.1 36 94.9 36.3 94.7C36.6 94.5 36.9 94.5 37.3 94.5C37.7 94.5 38.2 94.6 38.6 94.7C39 94.8 39.5 95 39.9 95.3L40.9 93.9C40.4 93.6 39.9 93.3 39.3 93.1C38.7 92.9 38.1 92.8 37.5 92.8C36.8 92.8 36.1 92.9 35.6 93.1C35.1 93.3 34.7 93.6 34.4 94C34.1 94.4 34 94.9 34 95.4C34 96.1 34.2 96.6 34.6 97C35 97.4 35.7 97.7 36.5 97.8L38.1 98C38.5 98.1 38.8 98.2 38.9 98.3C39.1 98.4 39.2 98.6 39.2 98.9C39.2 99.2 39 99.4 38.7 99.6C38.4 99.8 38 99.9 37.5 99.9C37 99.9 36.6 99.8 36.1 99.6C35.7 99.4 35.2 99.2 34.7 98.9L33.6 100.3C34.1 100.7 34.6 100.9 35.3 101.1C36 101.3 36.7 101.4 37.5 101.4C38.2 101.4 38.8 101.3 39.4 101C39.9 100.8 40.4 100.4 40.7 100C41 99.6 41.2 99.1 41.2 98.6C41.2 98.3 41 97.7 40.6 97.3Z" fill="#0E0E0E"/>
<path d="M51.4 95.2V97.2H54.8V97.3C54.7 97.8 54.5 98.2 54.2 98.6C53.9 99 53.5 99.3 53.1 99.5C52.7 99.7 52.2 99.8 51.6 99.8C51 99.8 50.6 99.7 50.1 99.5C49.7 99.3 49.3 99 48.9 98.7C48.6 98.4 48.3 98 48.1 97.5C47.9 97 47.8 96.5 47.8 96C47.8 95.5 47.9 95 48.1 94.5C48.3 94 48.5 93.6 48.9 93.3C49.2 93 49.6 92.7 50.1 92.5C50.5 92.3 51 92.2 51.6 92.2C52.2 92.2 52.8 92.3 53.3 92.6C53.8 92.8 54.3 93.2 54.7 93.7L56.3 92.2C55.8 91.6 55.1 91 54.3 90.7C53.5 90.3 52.6 90.1 51.6 90.1C50.8 90.1 50 90.3 49.2 90.5C48.5 90.8 47.8 91.2 47.3 91.8C46.8 92.3 46.3 93 46 93.7C45.7 94.4 45.5 95.2 45.5 96C45.5 96.8 45.7 97.6 46 98.3C46.3 99 46.7 99.6 47.3 100.2C47.8 100.7 48.5 101.2 49.2 101.5C49.9 101.8 50.7 101.9 51.6 101.9C52.4 101.9 53.2 101.8 53.9 101.5C54.6 101.2 55.2 100.8 55.7 100.3C56.2 99.8 56.6 99.2 56.9 98.4C57.2 97.7 57.3 96.9 57.3 96.1V95.4H51.4V95.2Z" fill="#0E0E0E"/>
<path d="M65.1 93.7C64.5 93.2 63.6 92.9 62.5 92.9C61.9 92.9 61.3 93 60.6 93.1C60 93.2 59.4 93.5 58.7 93.8L59.5 95.4C60 95.2 60.5 95 60.9 94.9C61.3 94.8 61.7 94.7 62.1 94.7C62.7 94.7 63.2 94.8 63.5 95.1C63.8 95.4 64 95.8 64 96.3V97H63.9C63.3 96.8 62.5 96.7 61.8 96.7C60.7 96.7 59.9 96.9 59.3 97.4C58.7 97.8 58.4 98.5 58.4 99.3C58.4 99.8 58.5 100.2 58.8 100.6C59.1 101 59.4 101.3 59.9 101.5C60.4 101.7 60.9 101.8 61.5 101.8C62 101.8 62.4 101.7 62.8 101.6C63.2 101.5 63.6 101.3 63.9 101L64 100.9V101.6H66.1V96C66.1 95 65.8 94.3 65.1 93.7ZM62 100.1C61.5 100.1 61.1 100 60.9 99.8C60.6 99.6 60.5 99.3 60.5 99C60.5 98.7 60.6 98.4 60.9 98.2C61.2 98 61.6 97.9 62.1 97.9C62.4 97.9 62.8 97.9 63.1 98C63.4 98.1 63.7 98.1 64 98.2V99.4C63.7 99.6 63.5 99.7 63.1 99.8C62.7 100.1 62.4 100.1 62 100.1Z" fill="#0E0E0E"/>
<path d="M76.2 95.1C75.8 94.4 75.3 93.9 74.7 93.5C74.1 93.1 73.3 92.9 72.5 92.9C71.6 92.9 70.8 93.2 70.1 93.7L70 93.8V89.7L67.9 90.1V101.5H70V100.9L70.1 101C70.4 101.2 70.8 101.4 71.2 101.5C71.6 101.6 72 101.7 72.4 101.7C73.2 101.7 73.9 101.5 74.6 101.1C75.3 100.7 75.8 100.2 76.2 99.5C76.6 98.8 76.8 98.1 76.8 97.3C76.8 96.5 76.6 95.8 76.2 95.1ZM74.3 98.6C74.1 99 73.8 99.3 73.4 99.5C73 99.7 72.6 99.8 72.1 99.8C71.7 99.8 71.3 99.7 70.9 99.6C70.5 99.5 70.2 99.3 70 99V95.6C70.3 95.3 70.6 95.1 70.9 95C71.2 94.9 71.6 94.8 72.1 94.8C72.6 94.8 73 94.9 73.4 95.1C73.8 95.3 74.1 95.6 74.3 96C74.5 96.4 74.6 96.8 74.6 97.3C74.6 97.8 74.6 98.2 74.3 98.6Z" fill="#0E0E0E"/>
<path d="M86.3 95.1C85.9 94.4 85.4 93.9 84.7 93.5C84 93.1 83.2 92.9 82.4 92.9C81.6 92.9 80.8 93.1 80.1 93.5C79.4 93.9 78.9 94.4 78.5 95.1C78.1 95.8 77.9 96.5 77.9 97.3C77.9 98.1 78.1 98.9 78.5 99.5C78.9 100.2 79.4 100.7 80.1 101.1C80.8 101.5 81.6 101.7 82.4 101.7C83.2 101.7 84 101.5 84.7 101.1C85.4 100.7 85.9 100.2 86.3 99.5C86.7 98.8 86.9 98.1 86.9 97.3C86.9 96.5 86.7 95.7 86.3 95.1ZM84.5 98.6C84.3 99 84 99.3 83.6 99.5C83.2 99.7 82.8 99.8 82.4 99.8C82 99.8 81.5 99.7 81.2 99.5C80.8 99.3 80.5 99 80.3 98.6C80.1 98.2 80 97.8 80 97.3C80 96.8 80.1 96.4 80.3 96C80.5 95.6 80.8 95.3 81.2 95.1C81.6 94.9 82 94.8 82.4 94.8C82.8 94.8 83.3 94.9 83.6 95.1C84 95.3 84.3 95.6 84.5 96C84.7 96.4 84.8 96.8 84.8 97.3C84.8 97.8 84.7 98.2 84.5 98.6Z" fill="#0E0E0E"/>
<path d="M92.8 92.9C92.3 92.9 91.9 93 91.5 93.2C91.1 93.4 90.8 93.7 90.5 94L90.4 94.1V93H88.3V101.4H90.4V95.9C90.6 95.5 90.9 95.2 91.3 94.9C91.7 94.7 92.1 94.6 92.5 94.6C92.7 94.6 92.9001 94.6 93.1001 94.7C93.3001 94.7 93.4001 94.8 93.6001 94.8V92.9C93.5001 93 93.2 92.9 92.8 92.9Z" fill="#0E0E0E"/>
<path d="M52.8 67.3H45.1V69H50.2C51.1 69 51.8 69.7 51.8 70.6V70.7H56V70.6C56 68.7 54.5 67.3 52.8 67.3Z" fill="#0E0E0E"/>
<path d="M42.6 67.3C40.3 67.3 38.4 69.2 38.4 71.4V79.9C38.4 82.2 40.3 84 42.5 84H49.3V82.3H44.2C43.3 82.3 42.6 81.6 42.6 80.7V67.3Z" fill="#0E0E0E"/>
<path d="M49.3 74.8V76.5H50.2C51.1 76.5 51.8 77.2 51.8 78.1V78.3V84C54.1 84 55.9 82.1 55.9 79.9V74.8H49.3Z" fill="#0E0E0E"/>
</svg>
