<svg width="59" height="58" viewBox="0 0 59 108" fill="none" xmlns="http://www.w3.org/2000/svg">
<path d="M21 19.8V20.2L21.1 20.5V20.9V21.2L21.2 21.6V21.9V22.3L21.3 22.7V23V23.4L21.4 23.8V24.2V24.6V24.9L21.5 25.3V25.7V25.8H28V25.7V25.3V24.9V24.6L28.1 24.2V23.8V23.4L28.2 23V22.7V22.3L28.3 21.9V21.6V21.2L28.4 20.9V20.5V20.2L28.5 19.8V19.5V19.1L28.6 18.8V18.5L28.7 18.2V17.8L28.8 17.5V17.2V16.9L28.9 16.6V16.3L29 16V15.7L29.1 15.4V15.1L29.2 14.8V14.6L29.3 14.3V14L29.4 13.8V13.5L29.5 13.2V13L29.6 12.7V12.5L29.7 12.2V12L29.8 11.7L29.9 11.5V11.3L30 11.1V10.8L30.1 10.6L30.2 10.4V10.2L30.3 10V9.79999L30.4 9.60001L30.5 9.39999V9.20001L30.6 9V8.79999L30.7 8.70001L30.8 8.5V8.29999L30.9 8.10001L31 8V7.79999L31.1 7.70001L31.2 7.5V7.39999L31.3 7.20001L31.4 7.10001V6.89999L31.5 6.79999L31.6 6.70001L31.7 6.60001V6.39999L31.8 6.29999L31.9 6.20001V6.10001L32 6L32.1 5.89999L32.2 5.79999V5.70001L32.3 5.60001L32.4 5.5V5.39999H32.5L32.6 5.29999L32.7 5.20001L32.8 5.10001L32.9 5H33V4.89999H33.1H33.2L33.3 4.79999H33.4V4.70001H33.5H33.6H33.7H33.8H33.9L34 4.60001V4.70001H34.1H34.2H34.3H34.4L34.5 4.79999L34.6 4.89999H34.7L34.8 5L34.9 5.10001H35L35.1 5.20001V5.29999L35.2 5.39999L35.3 5.5L35.4 5.60001V5.70001L35.5 5.79999L35.6 5.89999L35.7 6V6.10001L35.8 6.20001L35.9 6.29999L36 6.39999L36.1 6.60001V6.70001L36.2 6.89999L36.3 7L36.4 7.10001V7.29999L36.5 7.39999L36.6 7.60001L36.7 7.79999V7.89999L36.8 8.10001L36.9 8.29999L37 8.5V8.70001L37.1 8.79999L37.2 9L37.3 9.20001V9.39999L37.4 9.60001L37.5 9.79999L37.6 10V10.3L37.7 10.5L37.8 10.7L37.9 10.9V11.1L38 11.4L38.1 11.6L38.2 11.9V12.1L38.3 12.3L38.4 12.6V12.8L38.5 13.1L38.6 13.4L38.7 13.6V13.9L38.8 14.1L38.9 14.4V14.7L39 15L39.1 15.2V15.5L39.2 15.8L39.3 16.1V16.4L39.4 16.7V17L39.5 17.3L39.6 17.6V17.9L39.7 18.2L39.8 18.5V18.8L39.9 19.1V19.4L40 19.7V20.1L40.1 20.4L40.2 20.7V21L40.3 21.4V21.7L40.4 22V22.4L40.5 22.7V23.1L40.6 23.4V23.7L40.7 24.1V24.4L40.8 24.8V25.1L40.9 25.5V25.8H46.2V25.6L46.1 25.3V25L46 24.6L45.9 24.3V24L45.8 23.7L45.7 23.4V23L45.6 22.7L45.5 22.4V22.1L45.4 21.8L45.3 21.5L45.2 21.2V20.9L45.1 20.5L45 20.2L44.9 19.9L44.8 19.6V19.3L44.7 19L44.6 18.7L44.5 18.4L44.4 18.1V17.8L44.3 17.5L44.2 17.2L44.1 16.9L44 16.6L43.9 16.3L43.8 16.1L43.7 15.8L43.6 15.5V15.2L43.5 14.9L43.4 14.6L43.3 14.4L43.2 14.1L43.1 13.8L43 13.5L42.9 13.3L42.8 13L42.7 12.7L42.6 12.5L42.5 12.2L42.4 12L42.3 11.7L42.2 11.4L42.1 11.2L42 10.9L41.9 10.7L41.8 10.4L41.7 10.2L41.6 10L41.5 9.70001L41.4 9.5L41.3 9.20001L41.2 9L41 8.79999L40.9 8.60001L40.8 8.29999L40.7 8.10001L40.6 7.89999L40.5 7.70001L40.4 7.5L40.3 7.20001L40.2 7L40.1 6.79999L40 6.60001L39.8 6.39999L39.7 6.20001L39.6 6L39.5 5.89999L39.4 5.70001L39.3 5.5L39.2 5.29999L39 5.10001L38.9 4.89999L38.8 4.79999L38.7 4.60001L38.6 4.39999L38.5 4.29999L38.4 4.10001L38.2 4L38.1 3.79999L38 3.70001L37.9 3.5L37.8 3.39999L37.7 3.20001L37.5 3.10001L37.4 3L37.3 2.79999L37.2 2.70001L37.1 2.60001L37 2.5L36.8 2.39999L36.7 2.29999L36.6 2.20001L36.5 2.10001L36.4 2L36.3 1.89999L36.1 1.79999L36 1.70001L35.9 1.60001L35.8 1.5H35.7L35.6 1.39999L35.4 1.29999H35.3L35.2 1.20001H35.1L35 1.10001H34.9L34.7 1H34.6H34.5H34.4L34.3 0.899994H34.2H34H33.9H33.8H33.6H33.4H33.2L33.1 1H32.9L32.7 1.10001H32.5L32.3 1.20001L32.2 1.29999L32 1.39999H31.8L31.7 1.5L31.5 1.70001L31.3 1.79999L31.2 1.89999L31 2L30.8 2.20001L30.7 2.29999L30.5 2.5L30.4 2.60001L30.2 2.79999L30.1 3L29.9 3.10001L29.8 3.29999L29.7 3.5L29.5 3.70001L29.4 3.89999L29.3 4.10001L29.1 4.29999L29 4.5L28.9 4.70001L28.7 5L28.6 5.20001L28.5 5.39999L28.4 5.70001L28.2 5.89999L28.1 6.10001L28 6.39999L27.9 6.70001L27.8 6.89999L27.7 7.20001L27.6 7.39999L27.5 7.70001L27.4 7.89999L27.3 8.20001L27.2 8.5L27.1 8.79999L27 9L26.9 9.29999L26.8 9.60001L26.7 9.89999L26.6 10.1L26.5 10.4L26.4 10.7L26.3 11V11.3L26.2 11.6L26.1 11.8L26 12.1V12.4L25.9 12.7L25.8 13V13.2L25.7 13.5L25.6 13.8V14.1L25.5 14.4L25.4 14.6V14.9L25.3 15.2V15.5L25.2 15.7V16L25.1 16.2V16.5L25 16.8V17L24.9 17.3V17.5V17.8L24.8 18V18.2V18.5L24.7 18.7V18.5V18.2L24.6 18V17.8V17.5L24.5 17.3V17L24.4 16.8V16.5L24.3 16.2V16L24.2 15.7V15.5L24.1 15.2V14.9L24 14.6V14.4L23.9 14.1L23.8 13.8V13.5L23.7 13.2L23.6 13V12.7L23.5 12.4L23.4 12.1L23.3 11.8V11.6L23.2 11.3L23.1 11L23 10.7L22.9 10.4L22.8 10.1V9.89999L22.7 9.60001L22.6 9.29999L22.5 9L22.4 8.79999L22.3 8.5L22.2 8.20001L22.1 7.89999L22 7.70001L21.9 7.39999L21.8 7.20001L21.7 6.89999L21.5 6.70001L21.4 6.39999L21.3 6.10001L21.2 5.89999L21.1 5.70001L21 5.39999L20.8 5.20001L20.7 5L20.6 4.70001L20.5 4.5L20.3 4.29999L20.2 4.10001L20.1 3.89999L19.9 3.70001L19.8 3.5L19.6 3.29999L19.5 3.10001L19.4 3L19.2 2.79999L19.1 2.60001L18.9 2.5L18.8 2.29999L18.6 2.20001L18.4 2L18.3 1.89999L18.1 1.79999L18 1.70001L17.8 1.5L17.6 1.39999H17.5L17.3 1.29999L17.1 1.20001L16.9 1.10001H16.8L16.6 1H16.4L16.2 0.899994H16H15.8H15.6H15.5H15.4H15.3H15.2L15.1 1H14.9H14.8H14.7L14.6 1.10001H14.5L14.4 1.20001H14.2L14.1 1.29999H14L13.9 1.39999L13.8 1.5H13.7L13.5 1.60001L13.4 1.70001L13.3 1.79999L13.2 1.89999L13.1 2L13 2.10001L12.8 2.20001L12.7 2.29999L12.6 2.39999L12.5 2.5L12.4 2.60001L12.2 2.70001L12.1 2.79999L12 3L11.9 3.10001L11.8 3.20001L11.7 3.39999L11.5 3.5L11.4 3.70001L11.3 3.79999L11.2 4L11.1 4.10001L11 4.29999L10.9 4.39999L10.7 4.60001L10.6 4.79999L10.5 4.89999L10.4 5.10001L10.3 5.29999L10.2 5.5L10.1 5.70001L9.90002 5.89999L9.80002 6L9.70004 6.20001L9.60004 6.39999L9.50003 6.60001L9.40002 6.79999L9.30002 7L9.20004 7.20001L9.10004 7.5L8.90002 7.70001L8.80002 7.89999L8.70004 8.10001L8.60004 8.29999L8.50003 8.60001L8.40002 8.79999L8.30002 9L8.20004 9.20001L8.10004 9.5L8.00003 9.70001L7.90002 9.89999L7.80002 10.2L7.70004 10.4L7.60004 10.7L7.40002 10.9V11.2L7.30002 11.4L7.10004 11.7L7.00003 11.9L6.90002 12.2L6.80002 12.5L6.70004 12.7L6.60004 13V13.3L6.50003 13.5L6.40002 13.8L6.30002 14.1L6.20004 14.4L6.10004 14.6L6.00003 14.9L5.90002 15.2L5.80002 15.5L5.70004 15.8L5.60004 16.1L5.50003 16.3L5.40002 16.6V16.9L5.30002 17.2L5.20004 17.5L5.10004 17.8L5.00003 18.1L4.90002 18.4L4.80002 18.7V19L4.70004 19.3L4.60004 19.6L4.50003 19.9L4.40002 20.2V20.5L4.30002 20.8L4.20004 21.1L4.10004 21.5V21.8L4.00003 22.1L3.90002 22.4V22.7L3.80002 23L3.70004 23.4V23.7L3.60004 24L3.50003 24.3V24.6L3.40002 24.9L3.30002 25.3V25.6L3.20004 25.9V26.2L3.10004 26.6L3.00003 26.9V27.2L2.90002 27.5V27.9L2.80002 28.2V28.5L2.70004 28.8V29.2L2.60004 29.5V29.8V30.2L2.50003 30.5V30.8L2.40002 31.1V31.5V31.8L2.30002 32.1V32.5V32.8L2.20004 33.1V33.4V33.8L2.10004 34.1V34.4V34.8V35.1V35.4L2.00003 35.7V36.1V36.4V36.7V37V37.4L1.90002 37.7V38V38.3V38.7V39V39.3V39.6H2.00003H2.10004H2.30002H2.60004H2.90002H3.30002H3.70004H4.10004H4.60004H5.10004H5.50003H5.90002H6.40002H6.70004H7.10004H7.30002H7.60004H7.70004V39.2V38.8V38.4V38L7.80002 37.6V37.2V36.8V36.4V36V35.7V35.3V34.9V34.5L7.90002 34.1V33.7V33.3V32.9L8.00003 32.5V32.2V31.8V31.4L8.10004 31V30.6V30.3V29.9L8.20004 29.5V29.1V28.8L8.30002 28.4V28L8.40002 27.7V27.3V26.9L8.50003 26.6V26.2V25.9L8.60004 25.5V25.1L8.70004 24.8V24.4L8.80002 24.1V23.7L8.90002 23.4V23.1L9.00003 22.7V22.4L9.10004 22V21.7L9.20004 21.4V21L9.30002 20.7V20.4L9.40002 20.1L9.50003 19.8V19.4L9.60004 19.1V18.8L9.70004 18.5L9.80002 18.2V17.9L9.90002 17.6V17.3L10 17L10.1 16.7V16.4L10.2 16.1L10.3 15.8V15.5L10.4 15.2L10.5 15V14.7L10.6 14.4L10.7 14.1V13.9L10.8 13.6L10.9 13.4V13.1L11 12.8L11.1 12.6L11.2 12.3V12.1L11.3 11.9L11.4 11.6V11.4L11.5 11.1L11.6 10.9L11.7 10.7V10.5L11.8 10.3L11.9 10L12 9.79999V9.60001L12.1 9.39999L12.2 9.20001L12.3 9V8.79999L12.4 8.70001L12.5 8.5L12.6 8.29999V8.10001L12.7 7.89999L12.8 7.79999L12.9 7.60001V7.39999L13 7.29999L13.1 7.10001L13.2 7V6.89999L13.3 6.70001L13.4 6.60001L13.5 6.39999V6.29999L13.6 6.20001L13.7 6.10001L13.8 6L13.9 5.89999V5.79999L14 5.60001H14.1L14.2 5.5V5.39999L14.3 5.29999L14.4 5.20001L14.5 5.10001L14.6 5H14.7L14.8 4.89999L14.9 4.79999H15V4.70001H15.1H15.2H15.3H15.4L15.5 4.60001L15.6 4.70001H15.7H15.8H15.9H16L16.1 4.79999H16.2V4.89999H16.3H16.4L16.5 5H16.6V5.10001L16.7 5.20001H16.8L16.9 5.29999V5.39999H17L17.1 5.5V5.60001L17.2 5.70001L17.3 5.79999L17.4 5.89999V6L17.5 6.10001L17.6 6.20001L17.7 6.29999V6.39999L17.8 6.60001L17.9 6.70001V6.79999L18 6.89999L18.1 7.10001V7.20001L18.2 7.39999L18.3 7.5V7.70001L18.4 7.79999L18.5 8V8.10001L18.6 8.29999L18.7 8.5V8.70001L18.8 8.79999L18.9 9V9.20001L19 9.39999L19.1 9.60001V9.79999L19.2 10V10.2L19.3 10.4L19.4 10.6V10.8L19.5 11.1V11.3L19.6 11.5V11.7L19.7 12L19.8 12.2V12.5L19.9 12.7V13L20 13.2V13.5L20.1 13.8V14L20.2 14.3V14.6L20.3 14.8V15.1L20.4 15.4V15.7L20.5 16V16.3L20.6 16.6V16.9L20.7 17.2V17.5V17.8L20.8 18.2V18.5L20.9 18.8V19.1V19.5L21 19.8Z" fill="#F5AE26"/>
<path d="M47.5 39V38.7V38.3V38V37.7V37.4V37V36.7V36.4L47.4 36.1V35.7V35.4V35.1V34.8L47.3 34.4V34.1V33.8V33.5L47.2 33.1V32.8V32.6H41.5V32.9V33.3L41.6 33.7V34.1V34.5V34.9V35.3V35.7L41.7 36V36.4V36.8V37.2V37.6V38V38.4V38.8V39.2V39.6H41.8H41.9H42.1H42.4H42.7H43.1H43.5H43.9H44.4H44.9H45.3H45.7H46.2H46.5H46.9H47.1H47.3H47.5V39.3V39Z" fill="#F5AE26"/>
<path d="M21.8 32.6V33.1V33.6V34V34.5V35V35.4V35.9V36.4V36.9V37.4H21.9001H22.0001H22.2001H22.5001H22.8H23.2001H23.6001H24.0001H24.5001H25.0001H25.4001H25.8H26.3H26.6001H27.0001H27.2001H27.4001H27.6001V36.9V36.4V35.9V35.4V35V34.5L27.7001 34V33.6V33.1V32.6H21.8Z" fill="#F5AE26"/>
<path d="M45 26.3H46.7V31.9H45V26.3Z" fill="#C2302D"/>
<path d="M52.9001 26.3H54.0001L53.7001 27.9H52.8L52.9001 26.3Z" fill="#C2302D"/>
<path d="M56.0001 27.2H56.4001H56.7001L57.0001 27.3H57.3L57.5001 27.4L57.8 27.6L57.9001 27.8L58.1001 28L58.2001 28.2V28.5H57.9001H57.4001H56.8H56.6001L56.5001 28.2L56.3 28.1L56.0001 28H55.8L55.6001 28.2L55.5001 28.4V28.6L55.7001 28.8L55.9001 28.9H56.2001L56.5001 29H56.8L57.2001 29.1L57.5001 29.2L57.8 29.4L58.0001 29.6L58.2001 29.8L58.3 30.1L58.4001 30.4L58.3 30.7V30.9L58.2001 31.2L58.0001 31.3L57.9001 31.5L57.6001 31.7L57.4001 31.8L57.1001 31.9L56.8 32H56.4001H56.0001H55.6001H55.2001L54.9001 31.9L54.7001 31.8L54.4001 31.7L54.2001 31.5L54.1001 31.4L54.0001 31.2L53.9001 30.9L53.8 30.7V30.4H54.1001H54.6001H55.2001H55.4001L55.5001 30.8L55.7001 31H56.0001H56.4001L56.6001 30.8V30.6V30.4L56.4001 30.2L56.1001 30.1L55.8 30L55.5001 29.9H55.1001L54.8 29.8L54.6001 29.7L54.3 29.5L54.2001 29.3L54.0001 29V28.6V28.4V28.2L54.1001 28L54.2001 27.8L54.4001 27.7L54.6001 27.5L54.9001 27.4L55.2001 27.3L55.6001 27.2H56.0001Z" fill="#C2302D"/>
<path d="M21.5001 30.2L21.4001 30.5L21.3 30.8L21.1001 31L21.0001 31.2L20.8 31.4L20.5001 31.6L20.3 31.8L20.0001 31.9L19.8 32H19.5001H19.2001H18.9001H18.6001L18.3 31.9L18.1001 31.8L17.8 31.7L17.6001 31.5L17.4001 31.3L17.3 31.1L17.1001 30.9L17.0001 30.6L16.9001 30.4L16.8 30.1V29.8L16.7001 29.5L16.8 29.2V28.9L16.9001 28.6L17.0001 28.3L17.1001 28.1L17.2001 27.8L17.4001 27.6L17.6001 27.5L17.8 27.3L18.0001 27.2L18.3 27.1L18.6001 27L18.9001 26.9H19.2001H19.5001L19.8 27L20.1001 27.1L20.4001 27.2L20.6001 27.3L20.8 27.5L21.0001 27.7L21.2001 27.9L21.3 28.2L21.4001 28.5L21.5001 28.7H21.3H20.7001H20.2001H19.9001L19.8 28.4L19.5001 28.2H19.2001H18.9001L18.6001 28.4L18.5001 28.6L18.4001 28.9L18.3 29.2V29.5V29.8L18.4001 30.1L18.5001 30.4L18.6001 30.6L18.9001 30.7L19.2001 30.8L19.5001 30.7L19.8 30.5L19.9001 30.2H20.2001H20.7001H21.3H21.5001Z" fill="#C2302D"/>
<path d="M9.89999 26.3H11.9L12.8 29.6L13.6 26.3H15.7L16.5 32H14.9L14.4 28.7L13.5 32H12L11.1 28.7L10.7 32H9L9.89999 26.3Z" fill="#C2302D"/>
<path d="M35.7 29.2V29.3V29.7V30.1V30.6V31.1V31.5V31.8V31.9H34V27H35.7V27.1V27.3V27.4L36 27.2L36.2 27.1L36.5 27L36.9 26.9H37.4L37.7 27H38L38.3 27.2L38.6 27.3L38.8 27.5L38.9 27.7L39 28L39.1 28.2V28.3V28.5V28.8V29.2V29.6V30.1V30.5V30.9V31.3V31.6V31.8V31.9H37.4V31.8V31.5V31V30.6V30.1V29.6V29.3V29.2L37.3 28.9L37.1 28.7L36.9 28.5L36.6 28.4L36.1 28.6L35.8 28.9L35.7 29.2Z" fill="#C2302D"/>
<path d="M50.6001 27.5V27.2V26.6V26.3H52.3V31.8H50.6001V31.7V31.6V31.5L50.3 31.7L49.9001 31.9L49.3 32H49.1001H48.9001H48.7001L48.5001 31.9L48.3 31.8L48.1001 31.7L47.9001 31.5L47.7001 31.3L47.5001 31.1L47.4001 30.8L47.3 30.5L47.2001 30.1V29.7V29.3L47.3 28.9L47.4001 28.6L47.5001 28.3L47.6001 28.1L47.8 27.9L48.0001 27.7L48.2001 27.6L48.4001 27.5L48.6001 27.4L48.8 27.3H49.0001H49.2001H49.4001L50.0001 27.4L50.4001 27.5H50.6001ZM48.8 29.6V30L48.9001 30.3L49.1001 30.6L49.4001 30.8L49.7001 30.9H50.0001L50.3 30.7L50.5001 30.4V30.2V29.7V29.2V29L50.3 28.7L50.0001 28.5L49.6001 28.4L49.3 28.5L49.0001 28.7L48.8 29L48.7001 29.3L48.8 29.6Z" fill="#C2302D"/>
<path d="M28.4 29.5V29.2V28.9L28.5 28.6L28.6 28.3L28.7 28.1L28.8 27.9L29 27.7L29.2 27.5L29.4 27.3L29.6 27.2L29.8 27.1L30.1 27L30.4 26.9H30.7H31H31.3H31.6L31.9 27L32.2 27.1L32.4 27.2L32.6 27.3L32.8 27.5L33 27.7L33.2 27.9L33.3 28.1L33.4 28.3L33.5 28.6L33.6 28.9V29.2V29.5V29.8V30.1L33.5 30.4L33.4 30.7L33.3 30.9L33.2 31.1L33 31.3L32.8 31.5L32.6 31.7L32.4 31.8L32.2 31.9L31.9 32L31.6 32.1H31.3H31H30.7H30.4L30.1 32L29.8 31.9L29.6 31.8L29.4 31.7L29.2 31.5L29 31.3L28.8 31.1L28.7 30.9L28.6 30.7L28.5 30.4L28.4 30.1V29.8V29.5ZM31.9 29.5V29.2L31.8 28.9L31.7 28.6L31.5 28.4L31.2 28.2L30.9 28.1L30.6 28.2L30.3 28.4L30.1 28.6L30 28.9L29.9 29.2V29.5V29.8L30 30.1L30.1 30.4L30.3 30.6L30.6 30.8L30.9 30.9L31.2 30.8L31.5 30.6L31.7 30.4L31.8 30.1L31.9 29.8V29.5Z" fill="#C2302D"/>
<path d="M22.1 26.3H22.5H22.9H23.4H23.9H24.4H24.8H25.1H25.2H25.5H25.8L26.1 26.4L26.4 26.5L26.7 26.6L26.9 26.7L27.1 26.8L27.3 27L27.5 27.2L27.7 27.4L27.8 27.6L27.9 27.8L28 28L28.1 28.3L28.2 28.6V28.9V29.2V29.5V29.8L28.1 30.1L28 30.4L27.9 30.6L27.8 30.8L27.7 31L27.5 31.2L27.3 31.4L27.1 31.6L26.9 31.7L26.7 31.8L26.4 31.9L26.1 32L25.8 32.1H25.5H25.2H25.1H24.8H24.4H23.9H23.4H22.9H22.5H22.2H22.1V26.3ZM24 30.7H24.2H24.6H24.8H25.1L25.4 30.6L25.6 30.5L25.8 30.3L26 30L26.1 29.6V29.2V28.8L26 28.4L25.8 28.1L25.6 27.9L25.4 27.8L25.1 27.7H24.8H24.6H24.2H24V30.7Z" fill="#C2302D"/>
<path d="M42.1 26.9H42.5H42.8L43.1 27L43.4 27.1L43.7 27.2L43.9 27.4L44.1 27.6L44.2 27.8L44.3 28L44.4 28.3V28.4V28.6V28.9V29.3V29.8V30.3V30.8V31.2V31.5V31.7V31.8H42.7V31.7V31.5V31.4L42.4 31.6L42.1 31.8L41.8 31.9L41.5 32H41.1H40.8L40.5 31.9L40.2 31.8L40 31.6L39.8 31.4L39.7 31.2L39.6 30.9V30.6V30.4V30.2L39.7 30L39.8 29.8L39.9 29.6L40.1 29.4L40.3 29.2L40.6 29.1L40.9 29L41.3 28.9L41.7 28.8H42.2L42.6 28.7L42.8 28.5L42.9 28.3L42.8 28.1L42.6 27.9L42 28H41.7L41.5 28.1L41.4 28.3H41.2H40.7H40.2H39.9V28.1V27.9L40 27.7L40.1 27.5L40.2 27.3L40.4 27.1L40.6 27L40.9 26.9L41.2 26.8L41.6 26.7L42.1 26.9ZM42 29.7L41.6 29.8L41.3 30L41.2 30.3L41.3 30.5L41.5 30.7L41.8 30.8L42.2 30.7L42.5 30.5L42.7 30.1V30V29.8V29.7H42.5H42.3H42Z" fill="#C2302D"/>
<path d="M50.1 35.8H50.4H50.9H51.2L51.6 35.9L51.9 36.1L52 36.4L51.9 36.7L51.7 36.9L51.4 37L51.8 37.2L52 37.5V37.9H51.9H51.7H51.6L51.5 37.4L51.3 37.1L50.9 37H50.8H50.6H50.5V37.8H50.1V35.8ZM50.6 36.9H50.8H50.9H51.2L51.4 36.8L51.5 36.6V36.4L51.4 36.3H51.1H51H50.7H50.6V36.9ZM51 35.1H51.3L51.6 35.2L51.9 35.3L52.1 35.5L52.3 35.7L52.5 35.9L52.7 36.1L52.8 36.4L52.9 36.7V37V37.3L52.8 37.6L52.7 37.9L52.5 38.2L52.3 38.4L52.1 38.6L51.9 38.8L51.6 38.9L51.3 39H51H50.7L50.4 38.9L50.1 38.8L49.8 38.6L49.6 38.4L49.4 38.2L49.2 37.9L49.1 37.6L49 37.3V37V36.7L49.1 36.4L49.2 36.1L49.4 35.9L49.6 35.7L49.8 35.5L50.1 35.3L50.4 35.2L50.7 35.1H51ZM51 38.7H51.3L51.6 38.6L51.9 38.5L52.1 38.3L52.3 38.1L52.5 37.9L52.6 37.6L52.7 37.3V37V36.7L52.6 36.4L52.5 36.1L52.3 35.9L52.1 35.7L51.9 35.5L51.6 35.4L51.3 35.3H51H50.7L50.4 35.4L50.1 35.5L49.9 35.7L49.7 35.9L49.5 36.1L49.4 36.4L49.3 36.7V37V37.3L49.4 37.6L49.5 37.9L49.7 38.1L49.9 38.3L50.1 38.5L50.4 38.6L50.7 38.7H51Z" fill="#F5AE26"/>
<path d="M24.9 95.5L30.8 62.3C36.4 62.3 38.2 62.9 38.5 65.4C38.5 65.4 42.3 64 44.2 61.1C36.8 57.7 29.3 57.5 29.3 57.5L24.9 62.8L20.5 57.5C20.5 57.5 13 57.7 5.60004 61.1C7.50004 64 11.3 65.4 11.3 65.4C11.6 62.9 13.3 62.3 18.9 62.3L24.9 95.5Z" fill="black"/>
<path d="M24.9001 56C30.9001 56 37.8 56.9 44.8 60C45.7001 58.3 46.0001 57.6 46.0001 57.6C38.3001 54.6 31.1001 53.5 24.9001 53.5C18.7001 53.5 11.5 54.6 3.80005 57.6C3.80005 57.6 4.10006 58.5 5.00006 60C12.0001 56.9 18.9001 56 24.9001 56Z" fill="black"/>
<path d="M12.6 102.3H17.1C17.7 102.2 18.2 101.6 18.3 101.1H11.4C11.5 101.6 11.9 102.2 12.6 102.3Z" fill="black"/>
<path d="M12.6 104.7H17.1C17.7 104.6 18.2 104 18.3 103.5H11.4C11.5 104 11.9 104.6 12.6 104.7Z" fill="black"/>
<path d="M12.6 107.1H17.1C17.7 107 18.2 106.4 18.3 105.9H11.4C11.5 106.5 11.9 107 12.6 107.1Z" fill="black"/>
<path d="M41.5001 102.3H46.0001C46.6001 102.2 47.1001 101.6 47.2001 101.1H40.3C40.5 101.6 40.9001 102.2 41.5001 102.3Z" fill="black"/>
<path d="M0.900024 101.1C1.00002 101.6 1.50004 102.2 2.10004 102.3H4.00003H4.10004V107.1H5.30002V102.3H5.40002H7.30002C7.90002 102.1 8.40003 101.6 8.50003 101.1H0.900024Z" fill="black"/>
<path d="M37 107.1C37.6 106.8 37.9 106.4 38 105.9H32.8V101.1H31.6V107.1H37Z" fill="black"/>
<path d="M22.8 102.3H27C27.6 102.1 28.2 101.6 28.3 101.1H21.7V104.7H27.1V106H22.9C22.2 106.2 21.7 106.6 21.4 107.2H21.7H28.3V103.5H22.9V102.3H22.8Z" fill="black"/>
<path d="M40.5 103.5V107.1H41.7V104.7H45.9V107.1H47.1V103.5H40.5Z" fill="black"/>
</svg>
