<svg width="93" height="100" viewBox="0 0 93 100" fill="none" xmlns="http://www.w3.org/2000/svg">
<path d="M14.3 0.200012C6.59999 0.200012 0.399994 6.40001 0.399994 14.1C0.399994 21.8 6.59999 28 14.3 28C22 28 28.2 21.8 28.2 14.1C28.2 6.40001 22 0.200012 14.3 0.200012ZM20.7 20.2C20.5 20.6 19.9 20.7 19.5 20.5C16.2 18.5 12.1 18.1 7.29999 19.2C6.79999 19.3 6.39999 19 6.29999 18.6C6.19999 18.1 6.5 17.7 7 17.6C12.3 16.4 16.8 16.9 20.5 19.1C20.8 19.2 20.9 19.8 20.7 20.2ZM22.4 16.4C22.1 16.9 21.4 17.1 20.9 16.8C17.2 14.5 11.5 13.8 7.10001 15.2C6.50001 15.4 5.89999 15.1 5.79999 14.5C5.59999 13.9 6 13.3 6.5 13.2C11.5 11.7 17.8 12.4 22.1 15C22.5 15.2 22.7 15.9 22.4 16.4ZM22.5 12.5C18 9.8 10.7 9.59999 6.39999 10.9C5.69999 11.1 4.99999 10.7 4.79999 10C4.59999 9.3 5.00001 8.59999 5.70001 8.39999C10.6 6.89999 18.7 7.19999 23.9 10.3C24.5 10.7 24.7 11.5 24.4 12.1C23.9 12.6 23.2 12.8 22.5 12.5Z" fill="#1ED760"/>
<path d="M38.2 13C35.8 12.4 35.4 12 35.4 11.2C35.4 10.4 36.1 9.89999 37.3 9.89999C38.4 9.89999 39.5 10.3 40.6 11.1H40.7C40.7 11.1 40.8 11.1 40.8 11L42 9.39999C42 9.29999 42 9.20001 42 9.20001C40.7 8.10001 39.2 7.60001 37.4 7.60001C34.8 7.60001 33 9.19999 33 11.4C33 13.8 34.6 14.6 37.3 15.3C39.6 15.8 40 16.3 40 17.1C40 18 39.2 18.5 38 18.5C36.6 18.5 35.5 18 34.2 16.9H34.1C34.1 16.9 34 16.9 34 17L32.7 18.6C32.6 18.7 32.7 18.8 32.7 18.8C34.2 20.1 36 20.8 38 20.8C40.8 20.8 42.6 19.3 42.6 16.9C42.3 14.8 41.1 13.7 38.2 13Z" fill="#1ED760"/>
<path d="M48.6 10.6C47.4 10.6 46.4 11.1 45.6 12.1V11C45.6 10.9 45.5 10.8 45.4 10.8H43.3C43.2 10.8 43.1 10.9 43.1 11V23.2C43.1 23.3 43.2 23.4 43.3 23.4H45.4C45.5 23.4 45.6 23.3 45.6 23.2V19.4C46.4 20.3 47.4 20.8 48.6 20.8C50.8 20.8 53.1 19.1 53.1 15.8C53.1 12.3 50.9 10.6 48.6 10.6ZM50.6 15.6C50.6 17.3 49.6 18.5 48.1 18.5C46.6 18.5 45.5 17.3 45.5 15.6C45.5 14 46.6 12.7 48.1 12.7C49.6 12.8 50.6 14 50.6 15.6Z" fill="#1ED760"/>
<path d="M58.9 10.6C56 10.6 53.7 12.8 53.7 15.7C53.7 18.5 55.9 20.7 58.8 20.7C61.7 20.7 64 18.5 64 15.7C64.1 12.8 61.8 10.6 58.9 10.6ZM58.9 18.5C57.4 18.5 56.2 17.3 56.2 15.6C56.2 14 57.3 12.8 58.9 12.8C60.4 12.8 61.6 14 61.6 15.7C61.6 17.3 60.5 18.5 58.9 18.5Z" fill="#1ED760"/>
<path d="M70.3 10.8H67.9V8.39999C67.9 8.29999 67.8 8.20001 67.7 8.20001H65.6C65.5 8.20001 65.4 8.29999 65.4 8.39999V10.8H64.4C64.3 10.8 64.2 10.9 64.2 11V12.8C64.2 12.9 64.3 13 64.4 13H65.4V17.8C65.4 19.7 66.4 20.7 68.3 20.7C69.1 20.7 69.7 20.5 70.3 20.2L70.4 20.1V18.3C70.4 18.2 70.4 18.2 70.3 18.2C70.3 18.2 70.2 18.2 70.1 18.2C69.7 18.4 69.3 18.5 68.8 18.5C68.1 18.5 67.8 18.2 67.8 17.5V13H70.2C70.3 13 70.4 12.9 70.4 12.8V11C70.4 10.9 70.3 10.8 70.3 10.8Z" fill="#1ED760"/>
<path d="M78.5 10.8V10.5C78.5 9.6 78.8 9.20001 79.6 9.20001C80 9.20001 80.4 9.29999 80.8 9.39999H80.9L81 9.29999V7.5C81 7.4 81 7.39999 80.9 7.29999C80.5 7.19999 79.9 7 79.1 7C77.1 7 76.1 8.10001 76.1 10.2V10.7H75.1C75 10.7 74.9 10.8 74.9 10.9V12.8C74.9 12.9 75 13 75.1 13H76.1V20.4C76.1 20.5 76.2 20.6 76.3 20.6H78.4C78.5 20.6 78.6 20.5 78.6 20.4V13H80.6L83.7 20.4C83.4 21.2 83 21.3 82.5 21.3C82.1 21.3 81.7 21.2 81.3 21H81.2C81.2 21 81.1 21 81.1 21.1L80.4 22.7C80.4 22.8 80.4 22.9 80.5 22.9C81.3 23.3 81.9 23.5 82.8 23.5C84.4 23.5 85.3 22.8 86 20.8L89.7 11.2V11.1L89.6 11H87.4C87.3 11 87.3 11 87.3 11.1L85 17.6L82.5 11.1C82.5 11 82.4 11 82.4 11H78.5V10.8Z" fill="#1ED760"/>
<path d="M73.7 10.8H71.6C71.5 10.8 71.4 10.9 71.4 11V20.4C71.4 20.5 71.5 20.6 71.6 20.6H73.7C73.8 20.6 73.9 20.5 73.9 20.4V11C73.9 10.9 73.8 10.8 73.7 10.8Z" fill="#1ED760"/>
<path d="M72.6 6.5C71.8 6.5 71.1 7.2 71.1 8C71.1 8.8 71.8 9.5 72.6 9.5C73.4 9.5 74.1 8.8 74.1 8C74.2 7.2 73.5 6.5 72.6 6.5Z" fill="#1ED760"/>
<path d="M91.4 13.8C90.6 13.8 89.9 13.1 89.9 12.3C89.9 11.5 90.6 10.8 91.4 10.8C92.2 10.8 92.9 11.5 92.9 12.3C92.9 13.1 92.3 13.8 91.4 13.8ZM91.4 10.9C90.6 10.9 90 11.5 90 12.3C90 13.1 90.6 13.7 91.3 13.7C92.1 13.7 92.7 13.1 92.7 12.3C92.8 11.5 92.2 10.9 91.4 10.9ZM91.8 12.4L92.2 13H91.8L91.4 12.5H91.1V13H90.8V11.4H91.5C91.9 11.4 92.1 11.6 92.1 11.9C92.1 12.2 92 12.4 91.8 12.4ZM91.5 11.7H91.1V12.2H91.5C91.7 12.2 91.8 12.1 91.8 11.9C91.8 11.8 91.7 11.7 91.5 11.7Z" fill="#1ED760"/>
<path fill-rule="evenodd" clip-rule="evenodd" d="M73.6 98.5C73.6 98.5 73.6 98.6 73.6 88.5H69.5C69.5 98.6 69.5 98.5 69.5 98.5H73.6Z" fill="#231F20"/>
<path fill-rule="evenodd" clip-rule="evenodd" d="M51.7 94.4V88.7H47.7V93.1C47.7 94.4 47.6 94.7 47.6 95.1C47.3 96 46.4 96.4 45.4 96.4C44 96.4 43.4 95.9 43.1 95C43 94.7 43 94.4 43 94.1C43 93.8 43 93.4 43 93V88.7H38.9V94.4C38.9 95.7 39.3 96.7 40 97.3C41.2 98.5 43.3 98.9 45.2 98.9C47.5 98.9 49.3 98.6 50.6 97.3C51.2 96.6 51.7 95.8 51.7 94.4Z" fill="#231F20"/>
<path fill-rule="evenodd" clip-rule="evenodd" d="M31.9 93.6C31.8 93.6 31.5 93.5 31.3 93.5H26.7C26.5 93.5 26.2 93.5 26.1 93.6C26.2 93.5 26.3 93.4 26.5 93.2L28.6 89.8C28.9 89.3 29 89 29.1 88.9C29.2 89 29.3 89.3 29.6 89.8L31.7 93.2C31.7 93.4 31.8 93.6 31.9 93.6ZM39.6 98.5L30.4 84.8H25.3L26.6 86.4L26.7 86.5C26.6 86.5 26.6 86.6 26.6 86.6L18.6 98.6H23.2L24.4 96.5C24.5 96.4 24.5 96.3 24.5 96.2C24.6 96.2 24.7 96.3 24.8 96.3H33.1C33.2 96.3 33.3 96.3 33.4 96.2C33.4 96.3 33.4 96.3 33.5 96.4L34.8 98.5H39.6Z" fill="#231F20"/>
<path fill-rule="evenodd" clip-rule="evenodd" d="M68.3 93.4C68.3 92.3 67.8 91 66.4 89.2L63 84.9H58.2L60.9 88C61.4 88.5 61.9 89 61.9 89C61.2 88.6 60.4 88.5 59.7 88.5C58.1 88.5 56.5 88.8 55.1 89.6C53.6 90.4 52.6 91.8 52.6 93.7C52.6 95.1 53.2 96.2 54 97.1C55.8 98.9 59.2 99.1 60.4 99.1C62.2 99.1 65 98.7 66.6 97.2C67.7 96.1 68.3 94.9 68.3 93.4ZM64.4 93.5C64.4 94.5 63.7 95.3 62.8 95.8C62.1 96.2 61.2 96.3 60.5 96.3C59.8 96.3 58.9 96.1 58.2 95.8C57.3 95.4 56.7 94.5 56.7 93.6C56.7 92.5 57.5 91.6 58.5 91.2C59.1 90.9 59.8 90.8 60.4 90.8C61 90.8 61.8 90.9 62.4 91.1C63.6 91.6 64.4 92.5 64.4 93.5Z" fill="#231F20"/>
<path fill-rule="evenodd" clip-rule="evenodd" d="M72.3 52.1C69.2 52.1 66.4 53.2 64.1 54.9C61.8 53.1 59 52.1 55.9 52.1C52.8 52.1 50 53.2 47.7 54.9C45.4 53.1 42.6 52.1 39.5 52.1C36.4 52.1 33.6 53.2 31.3 54.9C29 53.1 26.2 52.1 23.1 52.1C15.8 52.1 9.89999 58 9.89999 65.3C9.89999 72.6 15.8 78.5 23.1 78.5C26.2 78.5 29 77.4 31.3 75.7C33.6 77.5 36.4 78.5 39.5 78.5C42.6 78.5 45.4 77.4 47.7 75.7C50 77.5 52.8 78.5 55.9 78.5C59 78.5 61.8 77.4 64.1 75.7C66.4 77.5 69.2 78.5 72.3 78.5C79.6 78.5 85.5 72.6 85.5 65.3C85.5 58 79.6 52.1 72.3 52.1ZM29.1 73.5C27.4 74.7 25.3 75.5 23.1 75.5C17.5 75.5 12.9 70.9 12.9 65.3C12.9 59.7 17.5 55.1 23.1 55.1C25.3 55.1 27.5 55.9 29.1 57.1C27.3 59.4 26.2 62.2 26.2 65.3C26.3 68.4 27.3 71.2 29.1 73.5ZM31.3 71.3C30 69.6 29.3 67.5 29.3 65.2C29.3 62.9 30 60.8 31.3 59.1C32.6 60.8 33.3 62.9 33.3 65.2C33.3 67.6 32.5 69.6 31.3 71.3ZM45.5 73.5C43.8 74.7 41.7 75.5 39.5 75.5C37.2 75.5 35.2 74.8 33.5 73.5C35.3 71.2 36.4 68.4 36.4 65.3C36.4 62.2 35.3 59.3 33.5 57.1C35.2 55.9 37.3 55.1 39.5 55.1C41.8 55.1 43.9 55.8 45.5 57.1C43.7 59.4 42.6 62.2 42.6 65.3C42.7 68.4 43.7 71.2 45.5 73.5ZM47.7 71.3C46.4 69.6 45.7 67.5 45.7 65.2C45.7 62.9 46.4 60.8 47.7 59.1C49 60.8 49.7 62.9 49.7 65.2C49.7 67.6 48.9 69.6 47.7 71.3ZM61.9 73.5C60.2 74.7 58.1 75.5 55.9 75.5C53.6 75.5 51.6 74.8 49.9 73.5C51.7 71.2 52.8 68.4 52.8 65.3C52.8 62.2 51.7 59.3 49.9 57.1C51.6 55.9 53.7 55.1 55.9 55.1C58.2 55.1 60.3 55.8 61.9 57.1C60.1 59.4 59 62.2 59 65.3C59.1 68.4 60.1 71.2 61.9 73.5ZM64.1 71.3C62.8 69.6 62.1 67.5 62.1 65.2C62.1 62.9 62.8 60.8 64.1 59.1C65.4 60.8 66.1 62.9 66.1 65.2C66.1 67.6 65.3 69.6 64.1 71.3ZM72.3 75.5C70.1 75.5 67.9 74.7 66.3 73.5C68.1 71.2 69.2 68.4 69.2 65.3C69.2 62.2 68.1 59.3 66.3 57.1C68 55.9 70.1 55.1 72.3 55.1C77.9 55.1 82.5 59.7 82.5 65.3C82.5 70.9 77.9 75.5 72.3 75.5Z" fill="#231F20"/>
</svg>
