<svg width="100" height="94" viewBox="0 0 100 94" fill="none" xmlns="http://www.w3.org/2000/svg">
<path fill-rule="evenodd" clip-rule="evenodd" d="M9.79996 72.6H3.69998L0.0999756 77.7V83.3H2.19998L9.79996 72.6ZM21.5 79.6V76H17.9L12.9 83.1H18.9L21.5 79.6ZM20.8 69H14.7L4.69998 83.2H10.7L20.8 69Z" fill="#0F0F0F"/>
<path fill-rule="evenodd" clip-rule="evenodd" d="M0.199982 40.6C2.09998 43.3 3.99996 46 5.89996 48.8H0.199982V40.6ZM21.5 40.6C19.6 43.3 17.7 46 15.8 48.8H21.5V40.6ZM21.5 38.1V34.5H17.9L10.8 44.6L3.69998 34.5H0.0999756V38.1L7.59998 48.8H7.89996H13.6H13.9L21.5 38.1Z" fill="#0F0F0F"/>
<path d="M0.799927 54.5H0.199951V51.5H0.999939L1.89993 53.8L2.89993 51.5H3.69995V54.5H3.09995V52.6L2.19995 54.5H1.59995L0.799927 52.6V54.5Z" fill="#0F0F0F"/>
<path d="M4.69998 53.6C4.79998 53.9 4.99996 54.1 5.39996 54.1C5.69996 54.1 5.89997 54 5.99997 53.8H6.59998C6.39998 54.2 5.99996 54.5 5.39996 54.5C4.69996 54.5 4.09998 54 4.09998 53.4C4.09998 52.7 4.69996 52.3 5.39996 52.3C6.09996 52.3 6.69998 52.8 6.69998 53.4V53.5H4.69998V53.6ZM5.99997 53.3C5.89997 53 5.69996 52.8 5.29996 52.8C4.99996 52.8 4.69998 53 4.59998 53.3H5.99997ZM7.09998 51.5H7.69998L7.49997 52.6H6.99997L7.09998 51.5ZM8.69998 54.5H8.09998V52.3H8.59998L8.69998 52.6C8.89998 52.3 9.19997 52.2 9.49997 52.2C9.89997 52.2 10.3 52.4 10.4 52.8C10.6 52.4 10.9 52.2 11.3 52.2C11.9 52.2 12.4 52.7 12.4 53.4V54.4H11.8V53.4C11.8 53 11.5 52.7 11.2 52.7C10.8 52.7 10.6 53 10.6 53.4V54.4H9.99997V53.4C9.99997 53 9.69996 52.7 9.39996 52.7C8.99996 52.7 8.79996 53 8.79996 53.4V54.5H8.69998ZM14.1 52.3C14.9 52.3 15.4 52.8 15.4 53.4C15.4 54.1 14.8 54.5 14.1 54.5C13.3 54.5 12.8 54 12.8 53.4C12.8 52.8 13.3 52.3 14.1 52.3ZM14.1 54C14.5 54 14.8 53.8 14.8 53.4C14.8 53.1 14.5 52.8 14.1 52.8C13.7 52.8 13.4 53 13.4 53.4C13.4 53.8 13.7 54 14.1 54ZM17.5 52.9C16.9 52.9 16.5 53.3 16.5 53.9V54.5H15.9V52.3H16.4L16.5 52.9C16.7 52.5 17.1 52.3 17.5 52.3V52.9ZM19.8 52.4H20.4V54.6H19.9L19.8 54.2C19.6 54.5 19.3 54.6 19 54.6C18.4 54.6 17.9 54.1 17.9 53.4V52.4H18.5V53.4C18.5 53.8 18.8 54.1 19.2 54.1C19.6 54.1 19.8 53.8 19.8 53.4V52.4ZM21.5 54.5H20.9V51.5H21.5V54.5Z" fill="#0F0F0F"/>
<path d="M0.699951 58.6H0.199951V55.6H0.799927V56.7C0.999927 56.5 1.29995 56.4 1.69995 56.4C2.39995 56.4 2.99994 56.9 2.99994 57.5C2.99994 58.2 2.49995 58.6 1.69995 58.6C1.29995 58.6 0.999927 58.5 0.799927 58.3L0.699951 58.6ZM2.29993 57.5C2.29993 57.1 1.99994 56.9 1.49994 56.9C0.999939 56.9 0.699951 57.2 0.699951 57.5C0.699951 57.9 0.999939 58.1 1.49994 58.1C1.99994 58.1 2.29993 57.9 2.29993 57.5ZM5.39993 58.6L5.29993 58.3C5.09993 58.5 4.79993 58.6 4.39993 58.6C3.69993 58.6 3.09995 58.1 3.09995 57.5C3.09995 56.8 3.59993 56.4 4.39993 56.4C4.79993 56.4 5.09993 56.5 5.29993 56.7L5.39993 56.4H5.89993V58.6H5.39993ZM3.79993 57.5C3.79993 57.8 4.09995 58.1 4.59995 58.1C5.09995 58.1 5.39993 57.9 5.39993 57.5C5.39993 57.1 5.09995 56.9 4.59995 56.9C4.09995 56.9 3.79993 57.1 3.79993 57.5ZM7.29993 59.4L7.59995 58.5H6.99994L6.19995 56.3H6.79993L7.39993 57.9H7.79993L8.39993 56.3H8.99994L7.89993 59.3H7.29993V59.4ZM10.2 57.6C10.2 57.9 10.3999 58.1 10.7999 58.1V58.7C9.99993 58.7 9.59995 58.3 9.59995 57.6V57H9.19995V56.8L9.99994 56H10.2V56.5H10.7999V57.1H10.2V57.6Z" fill="#0F0F0F"/>
<path d="M0.799927 89H0.199951V86H0.999939L1.89993 88.3L2.89993 86H3.69995V89H3.09995V87L2.19995 89H1.59995L0.799927 87V89Z" fill="#0F0F0F"/>
<path d="M4.69998 88C4.79998 88.3 4.99996 88.5 5.39996 88.5C5.69996 88.5 5.89997 88.4 5.99997 88.2H6.59998C6.39998 88.6 5.99996 88.9 5.39996 88.9C4.69996 88.9 4.09998 88.4 4.09998 87.8C4.09998 87.1 4.69996 86.7 5.39996 86.7C6.09996 86.7 6.69998 87.2 6.69998 87.8V87.9H4.69998V88ZM5.99997 87.7C5.89997 87.4 5.69996 87.2 5.29996 87.2C4.99996 87.2 4.69998 87.4 4.59998 87.7H5.99997ZM7.09998 86H7.69998L7.49997 87.1H6.99997L7.09998 86ZM8.69998 89H8.09998V86.8H8.59998L8.69998 87.1C8.89998 86.8 9.19997 86.7 9.49997 86.7C9.89997 86.7 10.3 86.9 10.4 87.3C10.6 86.9 10.9 86.7 11.3 86.7C11.9 86.7 12.4 87.2 12.4 87.9V88.9H11.8V87.9C11.8 87.5 11.5 87.2 11.2 87.2C10.8 87.2 10.6 87.5 10.6 87.9V88.9H9.99997V87.9C9.99997 87.5 9.69996 87.2 9.39996 87.2C8.99996 87.2 8.79996 87.5 8.79996 87.9V89H8.69998ZM14.1 86.8C14.9 86.8 15.4 87.3 15.4 87.9C15.4 88.6 14.8 89 14.1 89C13.3 89 12.8 88.5 12.8 87.9C12.8 87.2 13.3 86.8 14.1 86.8ZM14.1 88.5C14.5 88.5 14.8 88.3 14.8 87.9C14.8 87.6 14.5 87.3 14.1 87.3C13.7 87.3 13.4 87.5 13.4 87.9C13.4 88.2 13.7 88.5 14.1 88.5ZM17.5 87.4C16.9 87.4 16.5 87.8 16.5 88.4V89H15.9V86.8H16.4L16.5 87.4C16.7 87 17.1 86.8 17.5 86.8V87.4ZM19.8 86.8H20.4V89H19.9L19.8 88.6C19.6 88.9 19.3 89 19 89C18.4 89 17.9 88.5 17.9 87.8V86.8H18.5V87.8C18.5 88.2 18.8 88.5 19.2 88.5C19.6 88.5 19.8 88.2 19.8 87.8V86.8ZM21.5 89H20.9V86H21.5V89Z" fill="#0F0F0F"/>
<path d="M0.699951 93H0.199951V90H0.799927V91.1C0.999927 90.9 1.29995 90.8 1.69995 90.8C2.39995 90.8 2.99994 91.3 2.99994 91.9C2.99994 92.6 2.49995 93 1.69995 93C1.29995 93 0.999927 92.9 0.799927 92.7L0.699951 93ZM2.29993 92C2.29993 91.6 1.99994 91.4 1.49994 91.4C0.999939 91.4 0.699951 91.7 0.699951 92C0.699951 92.4 0.999939 92.6 1.49994 92.6C1.99994 92.6 2.29993 92.3 2.29993 92ZM5.39993 93L5.29993 92.7C5.09993 92.9 4.79993 93 4.39993 93C3.69993 93 3.09995 92.5 3.09995 91.9C3.09995 91.2 3.59993 90.8 4.39993 90.8C4.79993 90.8 5.09993 90.9 5.29993 91.1L5.39993 90.8H5.89993V93H5.39993ZM3.79993 92C3.79993 92.3 4.09995 92.6 4.59995 92.6C5.09995 92.6 5.39993 92.4 5.39993 92C5.39993 91.6 5.09995 91.4 4.59995 91.4C4.09995 91.4 3.79993 91.6 3.79993 92ZM7.29993 93.9L7.59995 93H6.99994L6.19995 90.8H6.79993L7.39993 92.4H7.79993L8.39993 90.8H8.99994L7.89993 93.8H7.29993V93.9ZM10.2 92C10.2 92.3 10.3999 92.5 10.7999 92.5V93.1C9.99993 93.1 9.59995 92.7 9.59995 92V91.4H9.19995V91.2L9.99994 90.4H10.2V90.9H10.7999V91.5H10.2V92Z" fill="#0F0F0F"/>
<path fill-rule="evenodd" clip-rule="evenodd" d="M50.4999 14.5H56.9999L60.5999 9.40002V0.299988L50.4999 14.5ZM40.4999 14.5C42.6999 14.5 44.7999 14.5 46.9999 14.5L56.9999 0.299988H50.5999L40.4999 14.5ZM39.2 11.6L47.0999 0.400024H40.5999L39.2 2.29999V11.6Z" fill="#0F0F0F"/>
<path fill-rule="evenodd" clip-rule="evenodd" d="M53.9999 72.6V69H50.3999L40.3999 83.2H46.3999L53.9999 72.6ZM46.2999 72.6V69H42.7L39.2 74.1V82.7L46.2999 72.6ZM55.5999 69H60.5999V83.2H55.5999V69Z" fill="#0F0F0F"/>
<path d="M39.7999 20.3H39.2V17.3H39.9999L40.8999 19.6L41.8999 17.3H42.7V20.3H42.0999V18.4L41.2 20.3H40.5999L39.7999 18.3V20.3Z" fill="#0F0F0F"/>
<path d="M43.7 19.4C43.8 19.7 44 19.9 44.4 19.9C44.7 19.9 44.9 19.8 45 19.6H45.6C45.4 20 45 20.3 44.4 20.3C43.7 20.3 43.1 19.8 43.1 19.2C43.1 18.5 43.7 18.1 44.4 18.1C45.1 18.1 45.7 18.6 45.7 19.2V19.3H43.7V19.4ZM45 19.1C44.9 18.8 44.7 18.6 44.3 18.6C44 18.6 43.7 18.8 43.6 19.1H45ZM46.1 17.3H46.7L46.5 18.4H46L46.1 17.3ZM47.7 20.3H47.1V18.1H47.6L47.7 18.4C47.9 18.1 48.2 18 48.5 18C48.9 18 49.3 18.2 49.4 18.6C49.6 18.2 49.9 18 50.3 18C50.9 18 51.4 18.5 51.4 19.2V20.2H50.8V19.2C50.8 18.8 50.5 18.5 50.2 18.5C49.8 18.5 49.6 18.8 49.6 19.2V20.2H49V19.2C49 18.8 48.7 18.5 48.4 18.5C48 18.5 47.8 18.8 47.8 19.2V20.3H47.7ZM53.1 18.1C53.9 18.1 54.4 18.6 54.4 19.2C54.4 19.9 53.8 20.3 53.1 20.3C52.3 20.3 51.8 19.8 51.8 19.2C51.8 18.6 52.4 18.1 53.1 18.1ZM53.1 19.8C53.5 19.8 53.8 19.6 53.8 19.2C53.8 18.9 53.5 18.6 53.1 18.6C52.7 18.6 52.4 18.8 52.4 19.2C52.4 19.6 52.7 19.8 53.1 19.8ZM56.5 18.7C55.9 18.7 55.5 19.1 55.5 19.7V20.3H54.9V18.1H55.4L55.5 18.7C55.7 18.3 56.1 18.1 56.5 18.1V18.7ZM58.8 18.1H59.4V20.3H58.9L58.8 19.9C58.6 20.2 58.3 20.3 58 20.3C57.4 20.3 56.9 19.8 56.9 19.1V18.1H57.5V19.1C57.5 19.5 57.8 19.8 58.2 19.8C58.6 19.8 58.8 19.5 58.8 19.1V18.1ZM60.5 20.3H59.9V17.3H60.5V20.3Z" fill="#0F0F0F"/>
<path d="M39.7 24.4H39.2V21.4H39.7999V22.5C39.9999 22.3 40.3 22.2 40.7 22.2C41.4 22.2 41.9999 22.7 41.9999 23.3C41.9999 24 41.5 24.4 40.7 24.4C40.3 24.4 39.9999 24.3 39.7999 24.1L39.7 24.4ZM41.2999 23.3C41.2999 22.9 40.9999 22.7 40.4999 22.7C39.9999 22.7 39.7 23 39.7 23.3C39.7 23.7 39.9999 23.9 40.4999 23.9C40.9999 23.9 41.2999 23.6 41.2999 23.3ZM44.4999 24.4L44.3999 24.1C44.1999 24.3 43.8999 24.4 43.4999 24.4C42.7999 24.4 42.2 23.9 42.2 23.3C42.2 22.6 42.6999 22.2 43.4999 22.2C43.8999 22.2 44.1999 22.3 44.3999 22.5L44.4999 22.2H44.9999V24.4H44.4999ZM42.7999 23.3C42.7999 23.6 43.0999 23.9 43.5999 23.9C44.0999 23.9 44.3999 23.7 44.3999 23.3C44.3999 22.9 44.0999 22.7 43.5999 22.7C43.0999 22.7 42.7999 22.9 42.7999 23.3ZM46.3999 25.2L46.7 24.3H46.0999L45.2999 22.1H45.8999L46.4999 23.7H46.8999L47.4999 22.1H48.0999L46.9999 25.1H46.3999V25.2ZM49.2999 23.4C49.2999 23.7 49.4999 23.9 49.8999 23.9V24.5C49.0999 24.5 48.7 24.1 48.7 23.4V22.8H48.2999V22.6L49.0999 21.8H49.2999V22.3H49.8999V22.9H49.2999V23.4Z" fill="#0F0F0F"/>
<path fill-rule="evenodd" clip-rule="evenodd" d="M60.4999 43.1V34.5L50.4999 48.7H56.4999L60.4999 43.1ZM46.7999 41.7V45.3H50.3999L57.8999 34.6H51.8999L46.7999 41.7ZM41.7 45.2L49.2 34.5H43.2L39.2 40.1V45.1H41.7V45.2Z" fill="#0F0F0F"/>
<path d="M39.7999 54.5H39.2V51.5H39.9999L40.8999 53.8L41.8999 51.5H42.7V54.5H42.0999V52.6L41.2 54.5H40.5999L39.7999 52.6V54.5Z" fill="#0F0F0F"/>
<path d="M43.7 53.6C43.8 53.9 44 54.1 44.4 54.1C44.7 54.1 44.9 54 45 53.8H45.6C45.4 54.2 45 54.5 44.4 54.5C43.7 54.5 43.1 54 43.1 53.4C43.1 52.7 43.7 52.3 44.4 52.3C45.1 52.3 45.7 52.8 45.7 53.4V53.5H43.7V53.6ZM45 53.3C44.9 53 44.7 52.8 44.3 52.8C44 52.8 43.7 53 43.6 53.3H45ZM46.1 51.5H46.7L46.5 52.6H46L46.1 51.5ZM47.7 54.5H47.1V52.3H47.6L47.7 52.6C47.9 52.3 48.2 52.2 48.5 52.2C48.9 52.2 49.3 52.4 49.4 52.8C49.6 52.4 49.9 52.2 50.3 52.2C50.9 52.2 51.4 52.7 51.4 53.4V54.4H50.8V53.4C50.8 53 50.5 52.7 50.2 52.7C49.8 52.7 49.6 53 49.6 53.4V54.4H49V53.4C49 53 48.7 52.7 48.4 52.7C48 52.7 47.8 53 47.8 53.4V54.5H47.7ZM53.1 52.3C53.9 52.3 54.4 52.8 54.4 53.4C54.4 54.1 53.8 54.5 53.1 54.5C52.3 54.5 51.8 54 51.8 53.4C51.8 52.8 52.4 52.3 53.1 52.3ZM53.1 54C53.5 54 53.8 53.8 53.8 53.4C53.8 53.1 53.5 52.8 53.1 52.8C52.7 52.8 52.4 53 52.4 53.4C52.4 53.8 52.7 54 53.1 54ZM56.5 52.9C55.9 52.9 55.5 53.3 55.5 53.9V54.5H54.9V52.3H55.4L55.5 52.9C55.7 52.5 56.1 52.3 56.5 52.3V52.9ZM58.8 52.4H59.4V54.6H58.9L58.8 54.2C58.6 54.5 58.3 54.6 58 54.6C57.4 54.6 56.9 54.1 56.9 53.4V52.4H57.5V53.4C57.5 53.8 57.8 54.1 58.2 54.1C58.6 54.1 58.8 53.8 58.8 53.4V52.4ZM60.5 54.5H59.9V51.5H60.5V54.5Z" fill="#0F0F0F"/>
<path d="M39.7 58.6H39.2V55.6H39.7999V56.7C39.9999 56.5 40.3 56.4 40.7 56.4C41.4 56.4 41.9999 56.9 41.9999 57.5C41.9999 58.2 41.5 58.6 40.7 58.6C40.3 58.6 39.9999 58.5 39.7999 58.3L39.7 58.6ZM41.2999 57.5C41.2999 57.1 40.9999 56.9 40.4999 56.9C39.9999 56.9 39.7 57.2 39.7 57.5C39.7 57.9 39.9999 58.1 40.4999 58.1C40.9999 58.1 41.2999 57.9 41.2999 57.5ZM44.4999 58.6L44.3999 58.3C44.1999 58.5 43.8999 58.6 43.4999 58.6C42.7999 58.6 42.2 58.1 42.2 57.5C42.2 56.8 42.6999 56.4 43.4999 56.4C43.8999 56.4 44.1999 56.5 44.3999 56.7L44.4999 56.4H44.9999V58.6H44.4999ZM42.7999 57.5C42.7999 57.8 43.0999 58.1 43.5999 58.1C44.0999 58.1 44.3999 57.9 44.3999 57.5C44.3999 57.1 44.0999 56.9 43.5999 56.9C43.0999 56.9 42.7999 57.1 42.7999 57.5ZM46.3999 59.4L46.7 58.5H46.0999L45.2999 56.3H45.8999L46.4999 57.9H46.8999L47.4999 56.3H48.0999L46.9999 59.3H46.3999V59.4ZM49.2999 57.6C49.2999 57.9 49.4999 58.1 49.8999 58.1V58.7C49.0999 58.7 48.7 58.3 48.7 57.6V57H48.2999V56.8L49.0999 56H49.2999V56.5H49.8999V57.1H49.2999V57.6Z" fill="#0F0F0F"/>
<path d="M39.7999 89H39.2V86H39.9999L40.8999 88.3L41.8999 86H42.7V89H42.0999V87L41.2 89H40.5999L39.7999 87V89Z" fill="#0F0F0F"/>
<path d="M43.7 88C43.8 88.3 44 88.5 44.4 88.5C44.7 88.5 44.9 88.4 45 88.2H45.6C45.4 88.6 45 88.9 44.4 88.9C43.7 88.9 43.1 88.4 43.1 87.8C43.1 87.1 43.7 86.7 44.4 86.7C45.1 86.7 45.7 87.2 45.7 87.8V87.9H43.7V88ZM45 87.7C44.9 87.4 44.7 87.2 44.3 87.2C44 87.2 43.7 87.4 43.6 87.7H45ZM46.1 86H46.7L46.5 87.1H46L46.1 86ZM47.7 89H47.1V86.8H47.6L47.7 87.1C47.9 86.8 48.2 86.7 48.5 86.7C48.9 86.7 49.3 86.9 49.4 87.3C49.6 86.9 49.9 86.7 50.3 86.7C50.9 86.7 51.4 87.2 51.4 87.9V88.9H50.8V87.9C50.8 87.5 50.5 87.2 50.2 87.2C49.8 87.2 49.6 87.5 49.6 87.9V88.9H49V87.9C49 87.5 48.7 87.2 48.4 87.2C48 87.2 47.8 87.5 47.8 87.9V89H47.7ZM53.1 86.8C53.9 86.8 54.4 87.3 54.4 87.9C54.4 88.6 53.8 89 53.1 89C52.3 89 51.8 88.5 51.8 87.9C51.8 87.2 52.4 86.8 53.1 86.8ZM53.1 88.5C53.5 88.5 53.8 88.3 53.8 87.9C53.8 87.6 53.5 87.3 53.1 87.3C52.7 87.3 52.4 87.5 52.4 87.9C52.4 88.2 52.7 88.5 53.1 88.5ZM56.5 87.4C55.9 87.4 55.5 87.8 55.5 88.4V89H54.9V86.8H55.4L55.5 87.4C55.7 87 56.1 86.8 56.5 86.8V87.4ZM58.8 86.8H59.4V89H58.9L58.8 88.6C58.6 88.9 58.3 89 58 89C57.4 89 56.9 88.5 56.9 87.8V86.8H57.5V87.8C57.5 88.2 57.8 88.5 58.2 88.5C58.6 88.5 58.8 88.2 58.8 87.8V86.8ZM60.5 89H59.9V86H60.5V89Z" fill="#0F0F0F"/>
<path d="M39.7 93H39.2V90H39.7999V91.1C39.9999 90.9 40.3 90.8 40.7 90.8C41.4 90.8 41.9999 91.3 41.9999 91.9C41.9999 92.6 41.5 93 40.7 93C40.3 93 39.9999 92.9 39.7999 92.7L39.7 93ZM41.2999 92C41.2999 91.6 40.9999 91.4 40.4999 91.4C39.9999 91.4 39.7 91.7 39.7 92C39.7 92.4 39.9999 92.6 40.4999 92.6C40.9999 92.6 41.2999 92.3 41.2999 92ZM44.4999 93L44.3999 92.7C44.1999 92.9 43.8999 93 43.4999 93C42.7999 93 42.2 92.5 42.2 91.9C42.2 91.2 42.6999 90.8 43.4999 90.8C43.8999 90.8 44.1999 90.9 44.3999 91.1L44.4999 90.8H44.9999V93H44.4999ZM42.7999 92C42.7999 92.3 43.0999 92.6 43.5999 92.6C44.0999 92.6 44.3999 92.4 44.3999 92C44.3999 91.6 44.0999 91.4 43.5999 91.4C43.0999 91.4 42.7999 91.6 42.7999 92ZM46.3999 93.9L46.7 93H46.0999L45.2999 90.8H45.8999L46.4999 92.4H46.8999L47.4999 90.8H48.0999L46.9999 93.8H46.3999V93.9ZM49.2999 92C49.2999 92.3 49.4999 92.5 49.8999 92.5V93.1C49.0999 93.1 48.7 92.7 48.7 92V91.4H48.2999V91.2L49.0999 90.4H49.2999V90.9H49.8999V91.5H49.2999V92Z" fill="#0F0F0F"/>
<path fill-rule="evenodd" clip-rule="evenodd" d="M78.2 4.40002C80.6 7.80002 82.9 11.2 85.3 14.6H78.2V4.40002ZM99.6 14.5H94.5V0.299988H99.6V14.5ZM92.4 10.3V14.5H88.1L78.1 0.299988H85.3L92.4 10.3Z" fill="#0F0F0F"/>
<path fill-rule="evenodd" clip-rule="evenodd" d="M82.4999 69H78.2V73C80.6 76.4 82.9999 79.8 85.2999 83.2H92.3999C89.0999 78.5 85.7999 73.7 82.4999 69ZM92.7 69H85.3999C88.6999 73.7 91.9999 78.5 95.3999 83.2H99.5999V78.8C97.2999 75.5 95 72.3 92.7 69ZM78.2 77.1L82.4999 83.2H78.2V77.1Z" fill="#0F0F0F"/>
<path fill-rule="evenodd" clip-rule="evenodd" d="M78.2 40.6L83.8999 48.8H78.2V40.6ZM86.0999 34.5H92.0999C94.5999 38.1 97.0999 41.6 99.5999 45.2V48.8H95.9999C92.6999 44 89.3999 39.3 86.0999 34.5ZM79.4999 38.1H85.5999L93.0999 48.8H87.0999L79.4999 38.1Z" fill="#0F0F0F"/>
<path d="M78.7999 20.3H78.2V17.3H78.9999L79.9999 19.6L80.8999 17.3H81.7V20.3H81.0999V18.4L80.2999 20.3H79.7L78.7999 18.3V20.3Z" fill="#0F0F0F"/>
<path d="M82.7 19.4C82.8 19.7 83 19.9 83.4 19.9C83.7 19.9 83.9 19.8 84 19.6H84.6C84.4 20 84 20.3 83.4 20.3C82.7 20.3 82.1 19.8 82.1 19.2C82.1 18.5 82.7 18.1 83.4 18.1C84.1 18.1 84.7 18.6 84.7 19.2V19.3H82.7V19.4ZM84 19.1C83.9 18.8 83.7 18.6 83.3 18.6C83 18.6 82.7 18.8 82.6 19.1H84ZM85.1 17.3H85.7L85.5 18.4H85L85.1 17.3ZM86.8 20.3H86.2V18.1H86.7L86.8 18.4C87 18.1 87.3 18 87.6 18C88 18 88.4 18.2 88.5 18.6C88.7 18.2 89 18 89.4 18C90 18 90.5 18.5 90.5 19.2V20.2H89.9V19.2C89.9 18.8 89.6 18.5 89.3 18.5C88.9 18.5 88.7 18.8 88.7 19.2V20.2H88V19.2C88 18.8 87.7 18.5 87.4 18.5C87 18.5 86.8 18.8 86.8 19.2V20.3ZM92.1 18.1C92.9 18.1 93.4 18.6 93.4 19.2C93.4 19.9 92.8 20.3 92.1 20.3C91.3 20.3 90.8 19.8 90.8 19.2C90.8 18.6 91.4 18.1 92.1 18.1ZM92.1 19.8C92.5 19.8 92.8 19.6 92.8 19.2C92.8 18.9 92.5 18.6 92.1 18.6C91.7 18.6 91.4 18.8 91.4 19.2C91.4 19.6 91.7 19.8 92.1 19.8ZM95.5 18.7C94.9 18.7 94.5 19.1 94.5 19.7V20.3H93.9V18.1H94.4L94.5 18.7C94.7 18.3 95.1 18.1 95.5 18.1V18.7ZM97.8 18.1H98.4V20.3H97.9L97.8 19.9C97.6 20.2 97.3 20.3 97 20.3C96.4 20.3 95.9 19.8 95.9 19.1V18.1H96.5V19.1C96.5 19.5 96.8 19.8 97.2 19.8C97.6 19.8 97.8 19.5 97.8 19.1V18.1ZM99.5 20.3H98.9V17.3H99.5V20.3Z" fill="#0F0F0F"/>
<path d="M78.7999 24.4H78.2999V21.4H78.8999V22.5C79.0999 22.3 79.3999 22.2 79.7999 22.2C80.4999 22.2 81.0999 22.7 81.0999 23.3C81.0999 24 80.5999 24.4 79.7999 24.4C79.3999 24.4 79.0999 24.3 78.8999 24.1L78.7999 24.4ZM80.3999 23.3C80.3999 22.9 80.0999 22.7 79.5999 22.7C79.0999 22.7 78.7999 23 78.7999 23.3C78.7999 23.7 79.0999 23.9 79.5999 23.9C80.0999 23.9 80.3999 23.6 80.3999 23.3ZM83.4999 24.4L83.3999 24.1C83.1999 24.3 82.8999 24.4 82.4999 24.4C81.7999 24.4 81.2 23.9 81.2 23.3C81.2 22.6 81.6999 22.2 82.4999 22.2C82.8999 22.2 83.1999 22.3 83.3999 22.5L83.4999 22.2H83.9999V24.4H83.4999ZM81.8999 23.3C81.8999 23.6 82.2 23.9 82.7 23.9C83.2 23.9 83.4999 23.7 83.4999 23.3C83.4999 22.9 83.2 22.7 82.7 22.7C82.2 22.7 81.8999 22.9 81.8999 23.3ZM85.3999 25.2L85.7 24.3H85.0999L84.2999 22.1H84.8999L85.4999 23.7H85.8999L86.4999 22.1H87.0999L85.9999 25.1H85.3999V25.2ZM88.2999 23.4C88.2999 23.7 88.4999 23.9 88.8999 23.9V24.5C88.0999 24.5 87.7 24.1 87.7 23.4V22.8H87.2999V22.6L88.0999 21.8H88.2999V22.3H88.8999V22.9H88.2999V23.4Z" fill="#0F0F0F"/>
<path d="M78.7999 53.4H78.2V50.4H78.9999L79.9999 52.7L80.8999 50.4H81.7V53.4H81.0999V51.4L80.2999 53.4H79.7L78.7999 51.4V53.4Z" fill="#0F0F0F"/>
<path d="M82.7 52.5C82.8 52.8 83 53 83.4 53C83.7 53 83.9 52.9 84 52.7H84.6C84.4 53.1 84 53.4 83.4 53.4C82.7 53.4 82.1 52.9 82.1 52.3C82.1 51.6 82.7 51.2 83.4 51.2C84.1 51.2 84.7 51.7 84.7 52.3V52.4H82.7V52.5ZM84 52.2C83.9 51.9 83.7 51.7 83.3 51.7C83 51.7 82.7 51.9 82.6 52.2H84ZM85.1 50.4H85.7L85.5 51.5H85L85.1 50.4ZM86.8 53.4H86.2V51.2H86.7L86.8 51.5C87 51.2 87.3 51.1 87.6 51.1C88 51.1 88.4 51.3 88.5 51.7C88.7 51.3 89 51.1 89.4 51.1C90 51.1 90.5 51.6 90.5 52.3V53.3H89.9V52.3C89.9 51.9 89.6 51.6 89.3 51.6C88.9 51.6 88.7 51.9 88.7 52.3V53.3H88V52.3C88 51.9 87.7 51.6 87.4 51.6C87 51.6 86.8 51.9 86.8 52.3V53.4ZM92.1 51.2C92.9 51.2 93.4 51.7 93.4 52.3C93.4 53 92.8 53.4 92.1 53.4C91.3 53.4 90.8 52.9 90.8 52.3C90.8 51.7 91.4 51.2 92.1 51.2ZM92.1 52.9C92.5 52.9 92.8 52.7 92.8 52.3C92.8 52 92.5 51.7 92.1 51.7C91.7 51.7 91.4 51.9 91.4 52.3C91.4 52.6 91.7 52.9 92.1 52.9ZM95.5 51.8C94.9 51.8 94.5 52.2 94.5 52.8V53.4H93.9V51.2H94.4L94.5 51.8C94.7 51.4 95.1 51.2 95.5 51.2V51.8ZM97.8 51.2H98.4V53.4H97.9L97.8 53C97.6 53.3 97.3 53.4 97 53.4C96.4 53.4 95.9 52.9 95.9 52.2V51.2H96.5V52.2C96.5 52.6 96.8 52.9 97.2 52.9C97.6 52.9 97.8 52.6 97.8 52.2V51.2ZM99.5 53.4H98.9V50.4H99.5V53.4Z" fill="#0F0F0F"/>
<path d="M78.7999 57.5H78.2999V54.5H78.8999V55.6C79.0999 55.4 79.3999 55.3 79.7999 55.3C80.4999 55.3 81.0999 55.8 81.0999 56.4C81.0999 57.1 80.5999 57.5 79.7999 57.5C79.3999 57.5 79.0999 57.4 78.8999 57.2L78.7999 57.5ZM80.3999 56.4C80.3999 56 80.0999 55.8 79.5999 55.8C79.0999 55.8 78.7999 56.1 78.7999 56.4C78.7999 56.8 79.0999 57 79.5999 57C80.0999 57 80.3999 56.7 80.3999 56.4ZM83.4999 57.5L83.3999 57.2C83.1999 57.4 82.8999 57.5 82.4999 57.5C81.7999 57.5 81.2 57 81.2 56.4C81.2 55.7 81.6999 55.3 82.4999 55.3C82.8999 55.3 83.1999 55.4 83.3999 55.6L83.4999 55.3H83.9999V57.5H83.4999ZM81.8999 56.4C81.8999 56.7 82.2 57 82.7 57C83.2 57 83.4999 56.8 83.4999 56.4C83.4999 56 83.2 55.8 82.7 55.8C82.2 55.8 81.8999 56 81.8999 56.4ZM85.3999 58.3L85.7 57.4H85.0999L84.2999 55.2H84.8999L85.4999 56.8H85.8999L86.4999 55.2H87.0999L85.9999 58.2H85.3999V58.3ZM88.2999 56.4C88.2999 56.7 88.4999 56.9 88.8999 56.9V57.5C88.0999 57.5 87.7 57.1 87.7 56.4V55.8H87.2999V55.6L88.0999 54.8H88.2999V55.3H88.8999V55.9H88.2999V56.4Z" fill="#0F0F0F"/>
<path d="M78.7999 89H78.2V86H78.9999L79.9999 88.3L80.8999 86H81.7V89H81.0999V87L80.2999 89H79.7L78.7999 87V89Z" fill="#0F0F0F"/>
<path d="M82.7 88C82.8 88.3 83 88.5 83.4 88.5C83.7 88.5 83.9 88.4 84 88.2H84.6C84.4 88.6 84 88.9 83.4 88.9C82.7 88.9 82.1 88.4 82.1 87.8C82.1 87.1 82.7 86.7 83.4 86.7C84.1 86.7 84.7 87.2 84.7 87.8V87.9H82.7V88ZM84 87.7C83.9 87.4 83.7 87.2 83.3 87.2C83 87.2 82.7 87.4 82.6 87.7H84ZM85.1 86H85.7L85.5 87.1H85L85.1 86ZM86.8 89H86.2V86.8H86.7L86.8 87.1C87 86.8 87.3 86.7 87.6 86.7C88 86.7 88.4 86.9 88.5 87.3C88.7 86.9 89 86.7 89.4 86.7C90 86.7 90.5 87.2 90.5 87.9V88.9H89.9V87.9C89.9 87.5 89.6 87.2 89.3 87.2C88.9 87.2 88.7 87.5 88.7 87.9V88.9H88V87.9C88 87.5 87.7 87.2 87.4 87.2C87 87.2 86.8 87.5 86.8 87.9V89ZM92.1 86.8C92.9 86.8 93.4 87.3 93.4 87.9C93.4 88.6 92.8 89 92.1 89C91.3 89 90.8 88.5 90.8 87.9C90.8 87.2 91.4 86.8 92.1 86.8ZM92.1 88.5C92.5 88.5 92.8 88.3 92.8 87.9C92.8 87.6 92.5 87.3 92.1 87.3C91.7 87.3 91.4 87.5 91.4 87.9C91.4 88.2 91.7 88.5 92.1 88.5ZM95.5 87.4C94.9 87.4 94.5 87.8 94.5 88.4V89H93.9V86.8H94.4L94.5 87.4C94.7 87 95.1 86.8 95.5 86.8V87.4ZM97.8 86.8H98.4V89H97.9L97.8 88.6C97.6 88.9 97.3 89 97 89C96.4 89 95.9 88.5 95.9 87.8V86.8H96.5V87.8C96.5 88.2 96.8 88.5 97.2 88.5C97.6 88.5 97.8 88.2 97.8 87.8V86.8ZM99.5 89H98.9V86H99.5V89Z" fill="#0F0F0F"/>
<path d="M78.7999 93H78.2999V90H78.8999V91.1C79.0999 90.9 79.3999 90.8 79.7999 90.8C80.4999 90.8 81.0999 91.3 81.0999 91.9C81.0999 92.6 80.5999 93 79.7999 93C79.3999 93 79.0999 92.9 78.8999 92.7L78.7999 93ZM80.3999 92C80.3999 91.6 80.0999 91.4 79.5999 91.4C79.0999 91.4 78.7999 91.7 78.7999 92C78.7999 92.4 79.0999 92.6 79.5999 92.6C80.0999 92.6 80.3999 92.3 80.3999 92ZM83.4999 93L83.3999 92.7C83.1999 92.9 82.8999 93 82.4999 93C81.7999 93 81.2 92.5 81.2 91.9C81.2 91.2 81.6999 90.8 82.4999 90.8C82.8999 90.8 83.1999 90.9 83.3999 91.1L83.4999 90.8H83.9999V93H83.4999ZM81.8999 92C81.8999 92.3 82.2 92.6 82.7 92.6C83.2 92.6 83.4999 92.4 83.4999 92C83.4999 91.6 83.2 91.4 82.7 91.4C82.2 91.4 81.8999 91.6 81.8999 92ZM85.3999 93.9L85.7 93H85.0999L84.2999 90.8H84.8999L85.4999 92.4H85.8999L86.4999 90.8H87.0999L85.9999 93.8H85.3999V93.9ZM88.2999 92C88.2999 92.3 88.4999 92.5 88.8999 92.5V93.1C88.0999 93.1 87.7 92.7 87.7 92V91.4H87.2999V91.2L88.0999 90.4H88.2999V90.9H88.8999V91.5H88.2999V92Z" fill="#0F0F0F"/>
<path d="M0.799927 20.3H0.199951V17.3H0.999939L1.89993 19.6L2.89993 17.3H3.69995V20.3H3.09995V18.4L2.19995 20.3H1.59995L0.799927 18.3V20.3Z" fill="#0F0F0F"/>
<path d="M4.69998 19.4C4.79998 19.7 4.99996 19.9 5.39996 19.9C5.69996 19.9 5.89997 19.8 5.99997 19.6H6.59998C6.39998 20 5.99996 20.3 5.39996 20.3C4.69996 20.3 4.09998 19.8 4.09998 19.2C4.09998 18.5 4.69996 18.1 5.39996 18.1C6.09996 18.1 6.69998 18.6 6.69998 19.2V19.3H4.69998V19.4ZM5.99997 19.1C5.89997 18.8 5.69996 18.6 5.29996 18.6C4.99996 18.6 4.69998 18.8 4.59998 19.1H5.99997ZM7.09998 17.3H7.69998L7.49997 18.4H6.99997L7.09998 17.3ZM8.69998 20.3H8.09998V18.1H8.59998L8.69998 18.4C8.89998 18.1 9.19997 18 9.49997 18C9.89997 18 10.3 18.2 10.4 18.6C10.6 18.2 10.9 18 11.3 18C11.9 18 12.4 18.5 12.4 19.2V20.2H11.8V19.2C11.8 18.8 11.5 18.5 11.2 18.5C10.8 18.5 10.6 18.8 10.6 19.2V20.2H9.99997V19.2C9.99997 18.8 9.69996 18.5 9.39996 18.5C8.99996 18.5 8.79996 18.8 8.79996 19.2V20.3H8.69998ZM14.1 18.1C14.9 18.1 15.4 18.6 15.4 19.2C15.4 19.9 14.8 20.3 14.1 20.3C13.3 20.3 12.8 19.8 12.8 19.2C12.8 18.6 13.3 18.1 14.1 18.1ZM14.1 19.8C14.5 19.8 14.8 19.6 14.8 19.2C14.8 18.9 14.5 18.6 14.1 18.6C13.7 18.6 13.4 18.8 13.4 19.2C13.4 19.6 13.7 19.8 14.1 19.8ZM17.5 18.7C16.9 18.7 16.5 19.1 16.5 19.7V20.3H15.9V18.1H16.4L16.5 18.7C16.7 18.3 17.1 18.1 17.5 18.1V18.7ZM19.8 18.1H20.4V20.3H19.9L19.8 19.9C19.6 20.2 19.3 20.3 19 20.3C18.4 20.3 17.9 19.8 17.9 19.1V18.1H18.5V19.1C18.5 19.5 18.8 19.8 19.2 19.8C19.6 19.8 19.8 19.5 19.8 19.1V18.1ZM21.5 20.3H20.9V17.3H21.5V20.3Z" fill="#0F0F0F"/>
<path d="M0.699951 24.4H0.199951V21.4H0.799927V22.5C0.999927 22.3 1.29995 22.2 1.69995 22.2C2.39995 22.2 2.99994 22.7 2.99994 23.3C2.99994 24 2.49995 24.4 1.69995 24.4C1.29995 24.4 0.999927 24.3 0.799927 24.1L0.699951 24.4ZM2.29993 23.3C2.29993 22.9 1.99994 22.7 1.49994 22.7C0.999939 22.7 0.699951 23 0.699951 23.3C0.699951 23.7 0.999939 23.9 1.49994 23.9C1.99994 23.9 2.29993 23.6 2.29993 23.3ZM5.39993 24.4L5.29993 24.1C5.09993 24.3 4.79993 24.4 4.39993 24.4C3.69993 24.4 3.09995 23.9 3.09995 23.3C3.09995 22.6 3.59993 22.2 4.39993 22.2C4.79993 22.2 5.09993 22.3 5.29993 22.5L5.39993 22.2H5.89993V24.4H5.39993ZM3.79993 23.3C3.79993 23.6 4.09995 23.9 4.59995 23.9C5.09995 23.9 5.39993 23.7 5.39993 23.3C5.39993 22.9 5.09995 22.7 4.59995 22.7C4.09995 22.7 3.79993 22.9 3.79993 23.3ZM7.29993 25.2L7.59995 24.3H6.99994L6.19995 22.1H6.79993L7.39993 23.7H7.79993L8.39993 22.1H8.99994L7.89993 25.1H7.29993V25.2ZM10.2 23.4C10.2 23.7 10.3999 23.9 10.7999 23.9V24.5C9.99993 24.5 9.59995 24.1 9.59995 23.4V22.8H9.19995V22.6L9.99994 21.8H10.2V22.3H10.7999V22.9H10.2V23.4Z" fill="#0F0F0F"/>
<path fill-rule="evenodd" clip-rule="evenodd" d="M7.59998 3.90002H13.6L6.09998 14.6H0.0999756L7.59998 3.90002ZM21.5 3.79999L14 14.6H7.99997L17.9 0.400024H21.5V3.79999ZM15.8 14.5H21.5V6.29999L15.8 14.5Z" fill="#0F0F0F"/>
</svg>
