<svg width="199" height="35" viewBox="0 0 199 35" fill="none" xmlns="http://www.w3.org/2000/svg">
<path fill-rule="evenodd" clip-rule="evenodd" d="M44.9 15.2C43.6 15.2 42.6 15.6 41.8 16.5C41 17.4 40.7 18.5 40.7 19.8C40.7 21 41.1 22.1 41.8 23.1C42.6 24 43.6 24.5 44.8 24.5C46 24.5 47.2 24 48 23.1C48.8 22.2 49.2 21.1 49.2 19.8C49.2 18.5 48.8 17.4 48 16.5C47.3 15.6 46.2 15.2 44.9 15.2ZM50.9 12.6H51C51.9 12.6 52.7 13.4 52.7 14.3V26C52.7 28.7 52 30.9 50.6 32.4C49.2 33.9 47.2 34.7 44.4 34.7C43.2 34.7 41.9 34.5 40.5 34.1C39.9 33.9 39.3 33.7 38.8 33.4C38.3 33.2 38 32.8 37.9 32.3C37.8 31.8 37.9 31.3 38.2 30.9C38.7 30.2 39.7 30 40.5 30.5C41.7 31.2 43 31.6 44.4 31.6C47.5 31.6 49 29.9 49 26.6V25.5C47.9 27 46.3 27.7 44.2 27.7C42.1 27.7 40.3 27 39 25.5C37.7 24 37 22.2 37 20.1C37 18 37.7 16.1 39 14.6C40.3 13.1 42 12.4 44.2 12.4C46.5 12.4 48.2 13.3 49.2 15H49.3V14.5C49.3 13.4 50 12.6 50.9 12.6ZM72.5 15.6H69.9V12.7H72.5V10C72.5 9.1 73.3 8.29999 74.2 8.29999H74.4C75.3 8.29999 76.1 9.1 76.1 10V12.6H79.8V15.5H76.1V22.3C76.1 23 76.2 23.6 76.5 24C76.8 24.4 77.3 24.6 78 24.6C78.6 24.6 79.1 24.5 79.6 24.3L79.7 27.2C79 27.5 78.2 27.6 77.3 27.6C75.5 27.6 74.3 27.1 73.6 26.2C72.9 25.3 72.6 24 72.6 22.4L72.5 15.6ZM81.8 26.8C81.3 26.4 81.1 25.8 81.1 25.1C81.1 24.4 81.3 23.9 81.8 23.4C82.3 22.9 82.9 22.7 83.5 22.7C84.1 22.7 84.7 22.9 85.2 23.4C85.7 23.8 85.9 24.4 85.9 25.1C85.9 25.8 85.7 26.3 85.2 26.8C84.7 27.3 84.1 27.5 83.5 27.5C82.9 27.5 82.3 27.3 81.8 26.8ZM69.8 20.1C69.8 20.2 69.8 20.2 69.8 20.1C69.8 20.7 69.4 21.1 68.9 21.1H58.6C58.7 22.1 59.1 23 59.9 23.7C60.7 24.4 61.7 24.7 62.7 24.7C63.9 24.7 65 24.4 65.8 23.7C66.4 23.2 67.1 23.2 67.7 23.7L67.8 23.8C68.2 24.1 68.4 24.5 68.4 25C68.4 25.5 68.2 25.9 67.8 26.2C66.5 27.3 64.8 27.8 62.8 27.8C60.5 27.8 58.6 27.1 57.1 25.7C55.6 24.3 54.9 22.4 54.9 20.1C54.9 17.8 55.6 15.9 57.1 14.4C58.6 13 60.4 12.2 62.7 12.2C64.8 12.2 66.5 12.9 67.8 14.2C69.2 15.6 69.8 17.6 69.8 20.1ZM58.6 18.5H66.1C66.1 17.5 65.8 16.6 65.2 16C64.6 15.3 63.8 15 62.6 15C61.4 15 60.6 15.3 59.8 16C59 16.7 58.7 17.5 58.6 18.5Z" fill="#9C2589"/>
<path fill-rule="evenodd" clip-rule="evenodd" d="M8.70001 13.1C8.90001 9.49999 10.4 6.09999 13.1 3.59999C14.4 2.39999 16.1 1.40001 17.9 1.00001C19.7 0.600014 21.6 0.800039 23 1.90004C25 3.50004 25.6 5.70001 24.7 8.00001C23.9 10 22 11.7 20.1 13C18.1 14.4 15.7 15.5 13.3 16.3C15.2 26.9 34.2 22.7 29.1 4.8C28.8 3.7 29.5 2.50003 30.7 2.20003C31.9 1.90003 33.1 2.60003 33.4 3.70003C40.1 27.3 12.4 33.2 9 17.4C6.9 17.8 4.79999 18.1 2.79999 18.2C1.59999 18.2 0.5 17.3 0.5 16.1C0.5 14.9 1.40001 13.9 2.60001 13.9C4.60001 13.8 6.70001 13.6 8.70001 13.1ZM13.4 11.6C14.9 11 16.3 10.3 17.6 9.40004C18.6 8.70004 20.1 7.50004 20.6 6.40004C20.8 5.80004 20.7 5.49999 20.2 5.09999C19.9 4.89999 19.3 4.90001 19 5.00001C18 5.20001 17 5.89999 16.3 6.59999C14.8 7.99999 13.9 9.69999 13.4 11.6Z" fill="url(#paint0_linear_117_35)"/>
<path fill-rule="evenodd" clip-rule="evenodd" d="M56.7 34.6C56 34.6 55.4 34.4 55 33.9L55.4 33.3C55.8 33.7 56.2 33.9 56.7 33.9C57 33.9 57.2 33.8 57.3 33.7C57.4 33.6 57.5 33.5 57.5 33.3C57.5 33.1 57.4 33 57.2 32.9C57 32.8 56.8 32.7 56.6 32.7C56.4 32.6 56.1 32.6 55.9 32.5C55.7 32.4 55.5 32.3 55.3 32.1C55.1 31.9 55 31.7 55 31.4C55 31 55.1 30.8 55.4 30.5C55.7 30.3 56.1 30.1 56.5 30.1C57.2 30.1 57.7 30.3 58.1 30.7L57.7 31.3C57.4 31 57 30.8 56.5 30.8C56.3 30.8 56.1 30.8 56 30.9C55.9 31 55.8 31.1 55.8 31.3C55.8 31.4 55.8 31.5 55.9 31.6C56 31.7 56.1 31.7 56.3 31.8C56.4 31.8 56.6 31.9 56.8 31.9C57 31.9 57.2 32 57.3 32.1C57.5 32.2 57.6 32.2 57.8 32.3C57.9 32.4 58.1 32.5 58.2 32.7C58.3 32.9 58.3 33 58.3 33.3C58.3 33.7 58.2 34 57.9 34.2C57.6 34.5 57.2 34.6 56.7 34.6ZM61.4 34.6H60.7V34.3C60.5 34.6 60.1 34.7 59.7 34.7C59.4 34.7 59.2 34.6 59 34.4C58.8 34.2 58.7 34 58.7 33.7C58.7 33.4 58.8 33.1 59 33C59.2 32.8 59.5 32.7 59.7 32.7C60.1 32.7 60.5 32.8 60.7 33.1V32.6C60.7 32.4 60.6 32.3 60.5 32.2C60.4 32.1 60.2 32 60 32C59.7 32 59.4 32.1 59.1 32.4L58.8 31.9C59.1 31.6 59.6 31.4 60.1 31.4C60.5 31.4 60.8 31.5 61 31.7C61.2 31.9 61.4 32.2 61.4 32.5V34.6ZM60 34.2C60.3 34.2 60.6 34.1 60.7 33.9V33.4C60.5 33.2 60.3 33.1 60 33.1C59.8 33.1 59.7 33.2 59.5 33.3C59.4 33.4 59.3 33.5 59.3 33.7C59.3 33.9 59.4 34 59.5 34.1C59.7 34.1 59.8 34.2 60 34.2ZM63.7 34.6H63L61.8 31.5H62.5L63.4 33.8L64.3 31.5H65L63.7 34.6ZM66.6 34.6C66.1 34.6 65.8 34.5 65.4 34.2C65.1 33.9 64.9 33.5 64.9 33C64.9 32.6 65 32.2 65.3 31.9C65.6 31.6 66 31.4 66.4 31.4C66.8 31.4 67.2 31.6 67.5 31.9C67.8 32.2 67.9 32.6 67.9 33.1V33.3H65.5C65.5 33.5 65.6 33.7 65.8 33.9C66 34.1 66.2 34.1 66.5 34.1C66.7 34.1 66.8 34.1 67 34C67.2 33.9 67.3 33.9 67.4 33.8L67.7 34.2C67.6 34.5 67.2 34.6 66.6 34.6ZM67.5 32.8C67.5 32.6 67.4 32.4 67.3 32.2C67.2 32 66.9 32 66.7 32C66.5 32 66.2 32.1 66.1 32.2C66 32.4 65.9 32.6 65.9 32.8H67.5ZM72.8 34.6H72.1V34.3C71.9 34.6 71.5 34.7 71.1 34.7C70.8 34.7 70.6 34.6 70.4 34.4C70.2 34.2 70.1 34 70.1 33.7C70.1 33.4 70.2 33.1 70.4 33C70.6 32.8 70.9 32.7 71.1 32.7C71.5 32.7 71.9 32.8 72.1 33.1V32.6C72.1 32.4 72 32.3 71.9 32.2C71.8 32.1 71.6 32 71.4 32C71.1 32 70.8 32.1 70.5 32.4L70.2 31.9C70.5 31.6 71 31.4 71.5 31.4C71.9 31.4 72.2 31.5 72.4 31.7C72.6 31.9 72.8 32.2 72.8 32.5V34.6ZM71.4 34.2C71.7 34.2 72 34.1 72.1 33.9V33.4C71.9 33.2 71.7 33.1 71.4 33.1C71.2 33.1 71.1 33.2 70.9 33.3C70.8 33.4 70.7 33.5 70.7 33.7C70.7 33.9 70.8 34 70.9 34.1C71.1 34.1 71.2 34.2 71.4 34.2ZM76.3 34.6H75.6V32.7C75.6 32.3 75.4 32.1 75 32.1C74.8 32.1 74.7 32.1 74.6 32.2C74.5 32.3 74.3 32.4 74.3 32.5V34.6H73.6V31.5H74.3V31.9C74.4 31.8 74.6 31.6 74.8 31.6C75 31.5 75.2 31.5 75.4 31.5C75.7 31.5 76 31.6 76.1 31.8C76.3 32 76.4 32.2 76.4 32.5L76.3 34.6ZM79.9 34.6H79.2V34.2C78.9 34.5 78.6 34.7 78.2 34.7C77.8 34.7 77.5 34.6 77.2 34.3C76.9 34 76.8 33.6 76.8 33.1C76.8 32.6 76.9 32.2 77.2 31.9C77.5 31.6 77.8 31.5 78.2 31.5C78.6 31.5 78.9 31.7 79.2 32V30.4H79.9V34.6ZM78.4 34.1C78.6 34.1 78.7 34.1 78.9 34C79 33.9 79.2 33.8 79.2 33.7V32.5C79.1 32.4 79 32.3 78.9 32.2C78.8 32.1 78.6 32.1 78.4 32.1C78.1 32.1 77.9 32.2 77.8 32.4C77.6 32.6 77.6 32.8 77.6 33.1C77.6 33.4 77.7 33.6 77.8 33.8C77.9 34 78.2 34.1 78.4 34.1ZM83.7 34.6C83.2 34.6 82.9 34.5 82.5 34.2C82.2 33.9 82 33.5 82 33C82 32.6 82.1 32.2 82.4 31.9C82.7 31.6 83.1 31.4 83.5 31.4C83.9 31.4 84.3 31.6 84.6 31.9C84.9 32.2 85 32.6 85 33.1V33.3H82.6C82.6 33.5 82.7 33.7 82.9 33.9C83.1 34.1 83.3 34.1 83.6 34.1C83.8 34.1 83.9 34.1 84.1 34C84.3 33.9 84.4 33.9 84.5 33.8L84.8 34.2C84.6 34.5 84.2 34.6 83.7 34.6ZM84.5 32.8C84.5 32.6 84.4 32.4 84.3 32.2C84.2 32 83.9 32 83.7 32C83.5 32 83.2 32.1 83.1 32.2C83 32.4 82.9 32.6 82.9 32.8H84.5ZM88.2 34.6H87.5V34.3C87.3 34.6 86.9 34.7 86.5 34.7C86.2 34.7 86 34.6 85.8 34.4C85.6 34.2 85.5 34 85.5 33.7C85.5 33.4 85.6 33.1 85.8 33C86 32.8 86.3 32.7 86.5 32.7C86.9 32.7 87.3 32.8 87.5 33.1V32.6C87.5 32.4 87.4 32.3 87.3 32.2C87.2 32.1 87 32 86.8 32C86.5 32 86.2 32.1 85.9 32.4L85.6 31.9C85.9 31.6 86.4 31.4 86.9 31.4C87.3 31.4 87.6 31.5 87.8 31.7C88 31.9 88.2 32.2 88.2 32.5V34.6ZM86.8 34.2C87.1 34.2 87.4 34.1 87.5 33.9V33.4C87.3 33.2 87.1 33.1 86.8 33.1C86.6 33.1 86.5 33.2 86.3 33.3C86.2 33.4 86.1 33.5 86.1 33.7C86.1 33.9 86.2 34 86.3 34.1C86.5 34.1 86.6 34.2 86.8 34.2ZM89.6 34.6H89V31.5H89.7V32C89.8 31.8 90 31.7 90.1 31.6C90.3 31.5 90.5 31.5 90.7 31.5V32.2C90.6 32.2 90.6 32.2 90.5 32.2C90.4 32.2 90.2 32.2 90.1 32.3C89.9 32.4 89.8 32.5 89.8 32.6L89.6 34.6ZM93.8 34.6H93.1V32.7C93.1 32.3 92.9 32.1 92.5 32.1C92.3 32.1 92.2 32.1 92.1 32.2C92 32.3 91.8 32.4 91.8 32.5V34.6H91.1V31.5H91.8V31.9C91.9 31.8 92.1 31.6 92.3 31.6C92.5 31.5 92.7 31.5 92.9 31.5C93.2 31.5 93.5 31.6 93.6 31.8C93.8 32 93.9 32.2 93.9 32.5L93.8 34.6Z" fill="#021F49"/>
<path d="M198.6 10.8C198.3 10.4 197.9 10.1 196.4 9.90002C196 9.90002 194.7 9.79999 192.5 9.79999C186.8 9.79999 182.9 11.5 180.9 15C181.4 11.5 178.1 9.79999 170.8 9.79999C162.2 9.79999 156.9 13.2 154.8 20.1C154 22.7 153.9 24.8 154.6 26.4L152.6 26.5C151 26.6 148.9 26.7 147.7 26.7C144.6 26.7 142.6 26.2 141.9 25.1C141.2 24.2 141.3 22.4 142.1 19.9C143.4 15.7 146.6 13.8 151.8 13.8C154.5 13.8 157.1 14.1 157.1 14.1C157.5 14.1 157.6 13.7 157.6 13.4L157.5 13L157.3 11.6C157.2 10.7 156.5 10.1 155.2 9.90002C154 9.80002 153.2 9.79999 151.9 9.79999C151.9 9.79999 151.9 9.79999 151.8 9.79999C145 9.79999 140.3 12 137.7 16.5C138.7 12.1 135.6 9.79999 128.3 9.79999C124.3 9.79999 121.4 9.89998 119.6 10.1C118.3 10.3 117.4 10.8 117.1 11.8L116.5 13.6C116.4 13.9 116.6 14.1 117 14.1C117.3 14.1 118.5 13.9 120.6 13.8C123.4 13.6 125.4 13.5 126.8 13.5C130.8 13.5 132.5 14.5 131.8 16.5C131.7 16.9 131.4 17.2 130.9 17.3C127.1 17.9 124.1 18.4 121.9 18.6C115.7 19.4 112.1 21.3 111.1 24.4C109.8 28.6 113.1 30.8 121.1 30.8C125.1 30.8 128.4 30.6 131.1 30.1C132.7 29.8 133.4 29.4 133.8 28.4L135.3 23.7C135.1 28.4 138.5 30.8 145.2 30.8C148.1 30.8 150.9 30.7 152.2 30.5C153.6 30.3 154.3 30 154.6 28.9L154.9 27.4C156.3 29.7 159.5 30.8 164.4 30.8C169.6 30.8 172.6 30.7 173.4 30.4C174.1 30.2 174.6 29.8 174.7 29.3C174.7 29.2 174.7 29.1 174.8 29L175.4 27C175.5 26.7 175.3 26.5 174.9 26.5L171.6 26.7C169.4 26.8 167.7 26.9 166.4 26.9C164.1 26.9 162.4 26.7 161.6 26.4C160.3 25.9 159.7 24.9 159.7 23.4L170.2 22.1C174.9 21.5 178 20.1 179.6 17.8L176.1 30.2C176 30.4 176.1 30.6 176.2 30.8C176.3 31 176.6 31 176.9 31H181.2C182 31 182.2 30.6 182.3 30.3L186.1 17C186.6 15.2 188.2 14.4 191 14.4C193.5 14.4 195.5 14.4 196.7 14.5H196.8C197 14.5 197.5 14.4 197.7 13.8L198.4 12C198.8 11.4 198.7 11.1 198.6 10.8ZM128.7 26.9C127.3 27.1 125.4 27.2 122.9 27.2C118.5 27.2 116.6 26.3 117.1 24.5C117.5 23.2 118.7 22.5 120.6 22.2L130.6 20.9L128.7 26.9ZM175 16.1C174.6 17.5 172.6 18.4 169.1 18.9L160.7 20.1L160.9 19.4C161.6 17.2 162.6 15.6 163.8 14.8C165.1 14 167.1 13.6 170 13.6C173.9 13.6 175.5 14.4 175 16.1Z" fill="#76BC21"/>
<defs>
<linearGradient id="paint0_linear_117_35" x1="6.9259" y1="20.0725" x2="33.2463" y2="7.26214" gradientUnits="userSpaceOnUse">
<stop stop-color="#0071B8"/>
<stop offset="1" stop-color="#9C2589"/>
</linearGradient>
</defs>
</svg>
