<svg width="183" height="50" viewBox="0 0 183 50" fill="none" xmlns="http://www.w3.org/2000/svg">
<path fill-rule="evenodd" clip-rule="evenodd" d="M78.4 13.5L79.5 14.6C79.9 15 79.9 15.6 79.5 16L78.4 17.1C78 17.5 77.4 17.5 77 17.1L75.9 16C75.5 15.6 75.5 15 75.9 14.6L77 13.5C77.4 13.1 78 13.1 78.4 13.5Z" fill="#05143C"/>
<path d="M30.7 23.5C30.7 20.3 28.8 17.7 24.8 17.7C21.2 17.7 18.9 20.2 18.9 23.5C18.9 27 21.2 29.3 24.7 29.3C29.2 29.2 30.7 26 30.7 23.5ZM22.1 23.5C22.1 21.8 23.2 20.7 24.8 20.7C26.4 20.7 27.5 21.8 27.5 23.5C27.5 25.2 26.5 26.4 24.8 26.4C23.2 26.4 22.1 25.2 22.1 23.5Z" fill="#05143C"/>
<path d="M38.8 26.4H39C39.1 26.4 39.3 26.5 39.3 26.7V28.7C39.3 28.8 39.4 29 39.6 29H41.9C42 29 42.2 28.9 42.2 28.7V18.3C42.2 18.2 42.1 18 41.9 18H39.4C39.3 18 39.1 18.1 39.1 18.3V24.3C39.1 25.4 38.4 26.5 36.9 26.5C35.6 26.5 34.9 25.8 34.9 24.3V18.3C34.9 18.2 34.8 18 34.6 18H32.1C32 18 31.8 18.1 31.8 18.3V24.8C31.8 27.2 33 29.2 35.6 29.2C37.8 29.1 38.5 27.9 38.8 26.4Z" fill="#05143C"/>
<path d="M49.2 20.6C50.6 20.6 51.4 21.3 51.4 22.8V28.6C51.4 28.7 51.5 28.9 51.7 28.9H54.2C54.3 28.9 54.5 28.8 54.5 28.6V22C54.5 19.3 53.1 17.8 50.6 17.8C48.1 17.8 47.4 19.3 47.3 20.9H47.1C47 20.9 46.8 20.8 46.8 20.6V18.2C46.8 18.1 46.7 17.9 46.5 17.9H44.2C44.1 17.9 43.9 18 43.9 18.2V28.6C43.9 28.7 44 28.9 44.2 28.9H46.7C46.8 28.9 47 28.8 47 28.6V22.8C46.9 21.3 48 20.6 49.2 20.6Z" fill="#05143C"/>
<path d="M62.5 28.5V26.2C62.5 26.1 62.5 26 62.4 26C62.3 26 62.3 25.9 62.2 26C62 26 61.7 26.1 61.4 26.1C60.5 26.1 59.9 25.8 59.9 24.9V21.3C59.9 21.2 60 21 60.2 21H62.3C62.4 21 62.6 20.9 62.6 20.7V18.2C62.6 18.1 62.5 17.9 62.3 17.9H60.2C60.1 17.9 59.9 17.8 59.9 17.6V15.4C59.9 15.3 59.8 15.1 59.6 15.1H57.2C57.1 15.1 56.9 15.2 56.9 15.4V16.5C56.9 17.4 56.6 17.9 55.5 17.9H55.4C55.3 17.9 55.1 18 55.1 18.2V20.7C55.1 20.8 55.2 21 55.4 21H59.1V21.2C59.1 21.3 59 21.4 58.9 21.5C57.5 21.6 56.8 22.3 56.8 23.5V24.8C56.8 27.2 57.8 29 60.5 29C61.4 29 61.9 28.9 62.2 28.8C62.4 28.7 62.5 28.6 62.5 28.5Z" fill="#05143C"/>
<path d="M76.2 18.2V28.6C76.2 28.7 76.3 28.9 76.5 28.9H79C79.1 28.9 79.3 28.8 79.3 28.6V18.2C79.3 18.1 79.2 17.9 79 17.9H76.5C76.3 18 76.2 18.1 76.2 18.2Z" fill="#05143C"/>
<path d="M86.4 20.6C87.8 20.6 88.6 21.3 88.6 22.8V28.6C88.6 28.7 88.7 28.9 88.9 28.9H91.4C91.5 28.9 91.7 28.8 91.7 28.6V22C91.7 19.3 90.3 17.8 87.8 17.8C85.3 17.8 84.6 19.3 84.5 20.9H84.3C84.2 20.9 84 20.8 84 20.6V18.2C84 18.1 83.9 17.9 83.7 17.9H81.4C81.3 17.9 81.1 18 81.1 18.2V28.6C81.1 28.7 81.2 28.9 81.4 28.9H83.9C84 28.9 84.2 28.8 84.2 28.6V22.8C84.1 21.3 85.2 20.6 86.4 20.6Z" fill="#05143C"/>
<path d="M68.5 26.1C67.1 26.1 66.3 25.4 66.3 23.9V23.5C66.3 21.4 67.6 20.6 68.8 20.6C69.8 20.6 70.8 21.4 70.8 22.5C70.8 23 70.8 23.4 70.8 23.9C70.8 25.4 69.7 26.1 68.5 26.1ZM63.4 24.7C63.4 27.4 64.8 28.9 67.3 28.9C69.7 28.9 70.5 27.5 70.6 26C70.6 25.9 70.7 25.8 70.9 25.8H71.1C71.2 25.9 71.2 26.4 71.2 26.6C71.2 28.1 71.9 29 73.7 29C74.3 29 74.6 28.9 74.9 28.8C75 28.8 75.1 28.7 75.1 28.6V26.6C75.1 26.5 75.1 26.5 75 26.4C74.9 26.3 74.9 26.3 74.8 26.3C74.7 26.3 74.6 26.3 74.5 26.3C74.2 26.3 74 26.2 74 25.9V22C74 15.8 63.5 16.5 63.5 22.9V24.7H63.4Z" fill="#05143C"/>
<path d="M5.8 20.6C6.9 20.6 7.8 21.1 7.8 22.6V28.6C7.8 28.7 7.9 28.9 8.1 28.9H10.6C10.7 28.9 10.9 28.8 10.9 28.6V22.6C10.9 21.2 11.9 20.6 12.8 20.6C13.8 20.6 14.8 21.1 14.8 22.6V28.6C14.8 28.7 14.9 28.9 15.1 28.9H17.6C17.7 28.9 17.9 28.8 17.9 28.6V22C17.9 19.5 16.9 17.8 14.4 17.8C12.1 17.8 11.3 19.3 11.3 20.8H11.1C11 20.8 10.9 20.7 10.8 20.6C10.5 18.7 9.3 17.8 7.4 17.8C5.3 17.8 4.4 19.1 4.4 20.8H4.2C4.1 20.8 3.9 20.7 3.9 20.5V18.2C3.9 18.1 3.8 17.9 3.6 17.9H1.3C1.2 17.9 1 18 1 18.2V28.6C1 28.7 1.1 28.9 1.3 28.9H3.8C3.9 28.9 4.1 28.8 4.1 28.6V22.6C3.9 21.3 4.9 20.6 5.8 20.6Z" fill="#05143C"/>
<path d="M93.4 15.2C93.9 15.2 94.3 15.4 94.7 15.7C95 16 95.2 16.5 95.2 17C95.2 17.5 95 17.9 94.7 18.3C94.4 18.6 93.9 18.8 93.4 18.8C92.9 18.8 92.5 18.6 92.1 18.3C91.8 18 91.6 17.5 91.6 17C91.6 16.5 91.8 16.1 92.1 15.7C92.4 15.4 92.9 15.2 93.4 15.2ZM94.4 16C94.1 15.7 93.8 15.6 93.4 15.6C93 15.6 92.6 15.8 92.4 16C92.1 16.3 92 16.6 92 17C92 17.4 92.2 17.8 92.4 18C92.7 18.3 93 18.4 93.4 18.4C93.8 18.4 94.2 18.2 94.4 18C94.7 17.7 94.8 17.4 94.8 17C94.8 16.6 94.7 16.3 94.4 16Z" fill="#05143C"/>
<path d="M92.7 18V16.2H93.5C93.7 16.2 93.8 16.2 93.9 16.2C94 16.2 94.1 16.3 94.1 16.4C94.2 16.5 94.2 16.6 94.2 16.7C94.2 16.8 94.2 17 94.1 17C94 17.1 93.9 17.1 93.7 17.2C93.8 17.2 93.8 17.3 93.9 17.4C94 17.5 94 17.6 94.1 17.7L94.3 18.1H93.9L93.6 17.7C93.5 17.6 93.4 17.5 93.4 17.4L93.3 17.3C93.3 17.3 93.2 17.3 93.1 17.3H93V18.1L92.7 18ZM93 16.9H93.3C93.5 16.9 93.6 16.9 93.6 16.9C93.6 16.9 93.7 16.9 93.7 16.8V16.7C93.7 16.6 93.7 16.6 93.7 16.6L93.6 16.5C93.6 16.5 93.5 16.5 93.3 16.5H93V16.9Z" fill="#05143C"/>
<path d="M0.900002 37V32.6H3.2C3.4 32.6 3.7 32.6 3.8 32.7C4 32.8 4.1 32.9 4.2 33.1C4.3 33.3 4.4 33.5 4.4 33.7C4.4 33.9 4.4 34 4.3 34.2C4.2 34.3 4.2 34.5 4 34.5C3.8 34.5 3.8 34.7 3.6 34.7C3.8 34.7 3.9 34.8 4 34.9C4.1 35 4.2 35.1 4.3 35.3C4.4 35.4 4.4 35.6 4.4 35.8C4.4 36.1 4.3 36.3 4.2 36.5C4.1 36.7 3.9 36.8 3.7 36.9C3.5 37 3.3 37 3 37H0.900002ZM1.6 36.3H3.2C3.4 36.3 3.6 36.2 3.7 36.1C3.8 36 3.9 35.8 3.9 35.6C3.9 35.5 3.9 35.3 3.8 35.2C3.7 35.1 3.7 35 3.6 35C3.5 34.9 3.4 34.9 3.2 34.9H1.7L1.6 36.3ZM1.6 34.4H3C3.1 34.4 3.3 34.4 3.4 34.3C3.5 34.2 3.6 34.2 3.6 34.1C3.7 34 3.7 33.9 3.7 33.8C3.7 33.6 3.6 33.4 3.5 33.3C3.4 33.2 3.2 33.1 3.1 33.1H1.6V34.4ZM5.4 37V32.6H7.7C8 32.6 8.3 32.7 8.5 32.8C8.7 32.9 8.9 33.1 9 33.3C9.1 33.5 9.2 33.7 9.2 34C9.2 34.3 9.1 34.6 9 34.8C8.9 35 8.7 35.2 8.4 35.3L9.3 37.1H8.5L7.7 35.4H6.2V37.1H5.4V37ZM6.1 34.7H7.6C7.8 34.7 8 34.6 8.1 34.5C8.2 34.4 8.3 34.2 8.3 33.9C8.3 33.8 8.3 33.6 8.2 33.5C8.1 33.4 8.1 33.3 8 33.3C7.9 33.2 7.8 33.2 7.6 33.2H6.1V34.7ZM9.5 37L11.2 32.6H12.1L13.8 37H13L12.6 36H10.5L10.1 37H9.5ZM10.9 35.3H12.5L12 34C12 34 12 33.9 11.9 33.8C11.9 33.7 11.8 33.7 11.8 33.6C11.8 33.5 11.7 33.4 11.7 33.4C11.7 33.3 11.6 33.2 11.6 33.2C11.6 33.3 11.5 33.4 11.5 33.5C11.5 33.6 11.4 33.7 11.4 33.8C11.4 33.9 11.3 34 11.3 34L10.9 35.3ZM14.4 37V32.6H15.1L17.1 35.4L17.2 35.5L17.3 35.6L17.4 35.7C17.4 35.6 17.4 35.6 17.4 35.5C17.4 35.4 17.4 35.4 17.4 35.3V32.5H18.1V36.9H17.4L15.4 34.1C15.4 34 15.3 34 15.3 33.9C15.2 33.8 15.2 33.8 15.2 33.7C15.2 33.8 15.2 33.8 15.2 33.9C15.2 34 15.2 34 15.2 34.1V36.9L14.4 37ZM19.1 37V32.6H20.8C21.3 32.6 21.6 32.7 22 32.8C22.3 33 22.6 33.2 22.7 33.5C22.9 33.8 23 34.2 23 34.7C23 35.2 22.9 35.6 22.7 35.9C22.5 36.2 22.3 36.5 22 36.6C21.7 36.8 21.3 36.8 20.8 36.8H19.1V37ZM19.8 36.3H20.8C21 36.3 21.2 36.3 21.4 36.2C21.6 36.1 21.7 36 21.8 35.9C21.9 35.8 22 35.6 22.1 35.4C22.2 35.2 22.2 35 22.2 34.7V34.6C22.2 34.3 22.2 34.1 22.1 33.9C22 33.7 21.9 33.6 21.8 33.4C21.7 33.3 21.5 33.2 21.4 33.1C21.2 33 21 33 20.8 33H19.8V36.3ZM23.8 37V32.6H24.5V37H23.8ZM25.6 37V32.6H26.3L28.3 35.4L28.4 35.5L28.5 35.6L28.6 35.7C28.6 35.6 28.6 35.6 28.6 35.5C28.6 35.4 28.6 35.4 28.6 35.3V32.5H29.3V36.9H28.6L26.6 34.1C26.6 34 26.5 34 26.5 33.9C26.4 33.8 26.4 33.8 26.4 33.7C26.4 33.8 26.4 33.8 26.4 33.9C26.4 34 26.4 34 26.4 34.1V36.9L25.6 37ZM32.2 37C31.5 37 31 36.8 30.6 36.4C30.2 36 30 35.5 30 34.7C30 34.2 30.1 33.8 30.3 33.4C30.5 33.1 30.7 32.8 31.1 32.6C31.4 32.4 31.8 32.4 32.3 32.4C32.6 32.4 32.9 32.4 33.1 32.5C33.3 32.6 33.6 32.7 33.7 32.8C33.9 32.9 34 33.1 34.1 33.3C34.2 33.5 34.3 33.7 34.3 34H33.6C33.6 33.8 33.6 33.7 33.5 33.6C33.4 33.5 33.3 33.4 33.2 33.3C33.1 33.2 32.9 33.2 32.8 33.1C32.6 33.1 32.5 33 32.3 33C32.1 33 31.8 33 31.7 33.1C31.5 33.2 31.4 33.3 31.2 33.4C31.1 33.5 31 33.7 30.9 33.9C30.8 34.1 30.8 34.3 30.8 34.6V34.7C30.8 35.1 30.9 35.4 31 35.6C31.1 35.8 31.3 36 31.5 36.1C31.7 36.2 32 36.3 32.3 36.3C32.6 36.3 32.8 36.3 33 36.2C33.2 36.1 33.4 36 33.5 35.8C33.6 35.6 33.7 35.4 33.7 35.2V35.1H32.2V34.5H34.4V36.8H33.9L33.8 36.3C33.7 36.4 33.5 36.6 33.4 36.6C33.2 36.7 33.1 36.8 32.9 36.8C32.7 37 32.5 37 32.2 37ZM36.2 37L37.9 32.6H38.8L40.5 37H39.7L39.3 36H37.2L36.8 37H36.2ZM37.5 35.3H39.1L38.6 34C38.6 34 38.6 33.9 38.5 33.8C38.5 33.7 38.4 33.7 38.4 33.6C38.4 33.5 38.3 33.4 38.3 33.4C38.3 33.3 38.2 33.2 38.2 33.2C38.2 33.3 38.1 33.4 38.1 33.5C38.1 33.6 38 33.7 38 33.8C38 33.9 37.9 34 37.9 34L37.5 35.3ZM43 37C42.3 37 41.8 36.8 41.4 36.4C41 36 40.8 35.5 40.8 34.7C40.8 34.2 40.9 33.8 41.1 33.4C41.3 33 41.5 32.8 41.9 32.6C42.2 32.4 42.6 32.4 43.1 32.4C43.4 32.4 43.7 32.4 43.9 32.5C44.1 32.6 44.4 32.7 44.5 32.8C44.7 32.9 44.8 33.1 44.9 33.3C45 33.5 45.1 33.7 45.1 34H44.4C44.4 33.8 44.4 33.7 44.3 33.6C44.2 33.5 44.1 33.4 44 33.3C43.9 33.2 43.7 33.2 43.6 33.1C43.4 33.1 43.3 33 43.1 33C42.9 33 42.6 33 42.5 33.1C42.3 33.2 42.2 33.3 42 33.4C41.9 33.5 41.8 33.7 41.7 33.9C41.6 34.1 41.6 34.3 41.6 34.6V34.7C41.6 35.1 41.7 35.4 41.8 35.6C41.9 35.8 42.1 36 42.3 36.1C42.5 36.2 42.8 36.3 43.1 36.3C43.4 36.3 43.6 36.3 43.8 36.2C44 36.1 44.2 36 44.3 35.8C44.4 35.6 44.5 35.4 44.5 35.2V35.1H43V34.5H45.2V36.8H44.7L44.6 36.3C44.5 36.4 44.3 36.6 44.2 36.6C44 36.7 43.9 36.8 43.7 36.8C43.4 37 43.2 37 43 37ZM46.1 37V32.6H49.5V33.2H46.8V34.4H49.2V35H46.8V36.3H49.5V36.9L46.1 37ZM50.4 37V32.6H51.1L53.1 35.4L53.2 35.5L53.3 35.6L53.4 35.7C53.4 35.6 53.4 35.6 53.4 35.5C53.4 35.4 53.4 35.4 53.4 35.3V32.5H54.1V36.9H53.4L51.4 34.1C51.4 34 51.3 34 51.3 33.9C51.2 33.8 51.2 33.8 51.2 33.7C51.2 33.8 51.2 33.8 51.2 33.9C51.2 34 51.2 34 51.2 34.1V36.9L50.4 37ZM57 37C56.6 37 56.2 36.9 55.9 36.8C55.6 36.6 55.3 36.4 55.2 36.1C55 35.8 55 35.3 55 34.8C55 34 55.2 33.5 55.6 33.1C56 32.7 56.5 32.5 57.2 32.5C57.6 32.5 57.9 32.6 58.2 32.7C58.5 32.8 58.7 33 58.9 33.3C59.1 33.5 59.2 33.9 59.2 34.2H58.5C58.5 34 58.5 33.8 58.4 33.6C58.3 33.4 58.2 33.3 58 33.2C57.8 33.1 57.6 33.1 57.4 33.1C57.1 33.1 56.8 33.2 56.6 33.3C56.4 33.4 56.2 33.6 56.1 33.8C56 34 55.9 34.3 55.9 34.7V34.8C55.9 35.2 56 35.5 56.1 35.7C56.2 35.9 56.4 36.1 56.6 36.2C56.8 36.3 57.1 36.4 57.4 36.4C57.6 36.4 57.9 36.4 58 36.3C58.2 36.2 58.3 36.1 58.4 35.9C58.5 35.7 58.6 35.5 58.6 35.3H59.3C59.3 35.7 59.2 36 59 36.2C58.8 36.4 58.6 36.6 58.3 36.8C57.7 37 57.4 37 57 37ZM60.9 37V35.2L59.2 32.6H60L61.3 34.5L62.5 32.6H63.3L61.6 35.2V37H60.9Z" fill="#05143C"/>
<path fill-rule="evenodd" clip-rule="evenodd" d="M182 25.1C182 12.1 171.4 1.5 158.4 1.5C145.4 1.5 134.8 12.1 134.8 25.1C134.8 38.1 145.4 48.7 158.4 48.7C171.4 48.7 182 38.1 182 25.1Z" fill="white" stroke="#221F1F" stroke-width="2" stroke-miterlimit="2.6131" stroke-linecap="round" stroke-linejoin="round"/>
<path fill-rule="evenodd" clip-rule="evenodd" d="M181.4 25.1C181.4 12.4 171.1 2.09998 158.4 2.09998C145.7 2.09998 135.3 12.4 135.3 25.1C135.3 37.8 145.6 48.1 158.4 48.1C171.1 48.2 181.4 37.8 181.4 25.1Z" fill="black"/>
<path fill-rule="evenodd" clip-rule="evenodd" d="M148.4 12.1C148.3 11.5 147.9 11 147.4 10.7C146.8 10.4 146.2 10.5 145.7 10.9L145.6 11C145.7 10.7 145.7 10.4 145.6 10.1C145.5 9.79995 145.4 9.59997 145.2 9.29997C144.8 8.89997 144.1 8.69998 143.6 8.99998C143.3 9.09998 143.1 9.29998 142.9 9.49998C142.8 9.59998 142.7 9.7 142.6 9.9C142.1 10.6 141.6 11.2 141 11.9C140.6 12.5 140.1 13 139.7 13.6L139.6 13.7C139.6 13.7 139.7 13.7 139.7 13.8C139.9 13.9 140 14.1 140.2 14.2C140.9 14.7 141.5 15.3 142.2 15.8C142.9 16.3 143.5 16.8 144.2 17.4C144.4 17.5 144.5 17.7 144.7 17.8C144.7 17.8 144.7 17.8 144.8 17.8L144.9 17.7C145.3 17.1 145.8 16.6 146.2 16C146.7 15.3 147.3 14.7 147.8 14C148.1 13.7 148.4 13.3 148.5 12.9C148.4 12.6 148.4 12.4 148.4 12.1ZM142.7 14C142.4 13.8 142.2 13.6 141.9 13.3C141.8 13.2 141.7 13.1 141.6 13.1L141.7 13C142.2 12.4 142.7 11.7 143.2 11.1C143.3 10.9 143.5 10.8 143.7 10.7C144 10.6 144.3 10.7 144.5 10.9C144.7 11.1 144.7 11.3 144.7 11.6C144.6 11.8 144.5 12 144.4 12.1C144.1 12.4 143.9 12.8 143.6 13.1C143.2 13.4 142.9 13.7 142.7 14ZM146.7 13.3C146.5 13.5 146.4 13.7 146.2 13.9C145.7 14.5 145.3 15.1 144.8 15.7C144.8 15.7 144.8 15.7 144.7 15.6C144.6 15.5 144.4 15.4 144.3 15.3C144.1 15.1 143.9 14.9 143.6 14.8C144 14.3 144.5 13.7 144.9 13.2C145.1 12.9 145.3 12.7 145.5 12.4C145.6 12.2 145.8 12.1 146.1 12.1C146.4 12.1 146.7 12.3 146.8 12.5C146.9 12.8 146.8 13 146.7 13.3Z" fill="white"/>
<path fill-rule="evenodd" clip-rule="evenodd" d="M172.8 25.1C172.8 17.1 166.3 10.7 158.4 10.7C150.4 10.7 144 17.1 144 25.1C144 33.1 150.5 39.5 158.4 39.5C166.4 39.5 172.8 33.1 172.8 25.1Z" fill="white"/>
<path fill-rule="evenodd" clip-rule="evenodd" d="M158.4 11.4C150.9 11.6 144.9 17.6 144.7 25.1H158.4V11.4Z" fill="#0099D8"/>
<path fill-rule="evenodd" clip-rule="evenodd" d="M158.4 38.8C165.9 38.6 171.9 32.6 172.1 25.1H158.4V38.8Z" fill="#0099D8"/>
<path fill-rule="evenodd" clip-rule="evenodd" d="M173.8 9.29999L172.6 8.20001L168.7 13.3L169.9 14.5L174.1 12.5L171.3 16.2L172.1 17.7L178 15L177.1 13.6L173.8 15.1L176.2 12L175.1 10.6L171.5 12.3L173.8 9.29999Z" fill="white"/>
<path fill-rule="evenodd" clip-rule="evenodd" d="M156.3 5.40002L157.8 9.70001H159L160.5 5.40002L160.7 9.70001L162.4 10L162.1 3.5L160 3.29999L158.4 7.79999L156.8 3.29999L154.7 3.5L154.4 10L156.1 9.70001L156.3 5.40002Z" fill="white"/>
</svg>
