<svg width="205" height="43" viewBox="0 0 205 43" fill="none" xmlns="http://www.w3.org/2000/svg">
<path fill-rule="evenodd" clip-rule="evenodd" d="M151.1 24.2C151.1 19.6 147.8 15.8 143.4 15.8C139 15.8 135.4 19.6 135.4 24.2C135.4 28.8 139 32.6 143.4 32.6C147.5 32.6 149.9 30.5 150.9 27.1H147.2C146.4 28.7 144.8 29.4 143.4 29.4C141.4 29.4 139.7 27.7 139.2 25.5H151C151.1 25.1 151.1 24.7 151.1 24.2ZM139.3 22.6C139.9 20.5 141.5 19 143.4 19C145.3 19 146.8 20.5 147.2 22.6H139.3Z" fill="#1D1D1B"/>
<path fill-rule="evenodd" clip-rule="evenodd" d="M202.8 27.1C201.7 27.1 200.8 28 200.8 29.1C200.8 30.2 201.7 31.1 202.8 31.1C203.9 31.1 204.8 30.2 204.8 29.1C204.8 28 203.9 27.1 202.8 27.1ZM202.8 30.9C201.8 30.9 201 30.1 201 29.1C201 28.1 201.8 27.3 202.8 27.3C203.8 27.3 204.6 28.1 204.6 29.1C204.6 30.1 203.8 30.9 202.8 30.9Z" fill="#1D1D1B"/>
<path fill-rule="evenodd" clip-rule="evenodd" d="M199.1 24.2C199.1 19.6 195.8 15.8 191.4 15.8C187 15.8 183.4 19.6 183.4 24.2C183.4 28.8 187 32.6 191.4 32.6C195.5 32.6 198.1 30.8 198.9 27.1H195.2C194.4 28.7 192.8 29.4 191.4 29.4C189.4 29.4 187.7 27.7 187.2 25.5H199C199.1 25.1 199.1 24.7 199.1 24.2ZM187.3 22.6C187.9 20.5 189.5 19 191.4 19C193.3 19 194.8 20.5 195.2 22.6H187.3Z" fill="#1D1D1B"/>
<path fill-rule="evenodd" clip-rule="evenodd" d="M165.8 10.6H129.4V25.7L120.3 10.6H116.2V32.2H120.4V18L129.2 32.2H133.6V13.7H165.8V10.6Z" fill="#1D1D1B"/>
<path fill-rule="evenodd" clip-rule="evenodd" d="M156.1 20.3C156.1 19.6 156.9 18.4 159.1 18.4C161.7 18.4 162.2 20.2 162.4 20.8H165.9C165.6 16.7 162 15.6 158.9 15.6C154 15.6 152.5 18.8 152.5 21.1C152.5 27 162.6 24.6 162.6 27.9C162.6 29.3 161.7 29.9 159.1 29.9C156.5 29.9 155.7 28.6 155.7 27.2H152.4C152.5 31.4 155.7 32.7 159.3 32.7C162.4 32.7 166.4 31.8 166.4 27.2C166.4 21 156.1 23.4 156.1 20.3Z" fill="#1D1D1B"/>
<path fill-rule="evenodd" clip-rule="evenodd" d="M172.1 10.5H168.1V16.5H166.9V19.5H168.1V26.3C168.1 28.3 169.7 32.1 173.3 32.1C174 32.1 175.8 32 175.8 32V29.2H174.9C173.4 29.1 172 28.3 172 25.8V19.6H175.7V16.6H172V10.5H172.1Z" fill="#1D1D1B"/>
<path fill-rule="evenodd" clip-rule="evenodd" d="M177.6 32.2H181.8V10.6H177.6V32.2Z" fill="#1D1D1B"/>
<path fill-rule="evenodd" clip-rule="evenodd" d="M198.2 10.3L184.2 11.9V13.6H198.2V10.3Z" fill="#1D1D1B"/>
<path fill-rule="evenodd" clip-rule="evenodd" d="M203.2 29.2C203.5 29.1 203.8 29 203.8 28.6C203.8 28.2 203.6 28 203 28H202.1V30.3H202.3V29.2H202.9L203.6 30.3H203.8L203.2 29.2ZM202.8 29H202.3V28.1H202.9C203.2 28.1 203.5 28.2 203.5 28.6C203.5 29 203.2 29 202.8 29Z" fill="#1D1D1B"/>
<path d="M32 28.2C32.1 28.3 32.2 28.4 32.4 28.4C32.6 28.5 32.7 28.5 32.9 28.5C33.1 28.5 33.4 28.5 33.6 28.5C33.9 28.5 34.1 28.5 34.4 28.5C34.6 28.5 34.7 28.4 34.9 28.4C35 28.4 35.2 28.3 35.3 28.1C35.4 28 35.4 27.9 35.4 27.7V14.1C35.4 13.9 35.4 13.7 35.3 13.5C35.2 13.3 35.1 13.1 35 13C34.9 12.9 34.7 12.8 34.5 12.7C34.3 12.6 34.1 12.6 33.9 12.6H31.8C31.5 12.6 31.2 12.6 31 12.7C30.7 12.8 30.5 12.9 30.3 13.1C30.1 13.3 29.9 13.5 29.8 13.7C29.7 14 29.5 14.3 29.4 14.6L26.2 23.1L23.1 14.6C23 14.3 22.9 14 22.7 13.7C22.6 13.5 22.4 13.2 22.2 13.1C22 12.9 21.7 12.8 21.4 12.8C21.1 12.7 20.7 12.7 20.4 12.7H18.4C18.2 12.7 18 12.7 17.8 12.8C17.6 12.9 17.5 13 17.3 13.1C17.2 13.2 17.1 13.4 17 13.6C16.9 13.8 16.9 14 16.9 14.2V27.8C16.9 27.9 16.9 28.1 17 28.2C17.1 28.3 17.2 28.4 17.4 28.5C17.6 28.6 17.7 28.6 17.9 28.6C18.4 28.6 18.9 28.6 19.4 28.6C19.6 28.6 19.7 28.5 19.9 28.5C20 28.5 20.2 28.4 20.3 28.2C20.4 28.1 20.4 28 20.4 27.8V16.8L24.2 27.8C24.2 27.9 24.3 28.1 24.4 28.1C24.5 28.2 24.6 28.3 24.8 28.3C25 28.4 25.2 28.4 25.3 28.4C25.5 28.4 25.8 28.4 26 28.4C26.3 28.4 26.5 28.4 26.7 28.4C26.9 28.4 27.1 28.4 27.2 28.3C27.3 28.3 27.5 28.2 27.6 28.1C27.7 28 27.8 27.9 27.8 27.7L31.7 16.6V27.6C31.9 27.9 32 28.1 32 28.2Z" fill="#2CBCED"/>
<path d="M40.5 16.5C40 16.5 39.5 16.5 39 16.5C38.8 16.5 38.6 16.6 38.5 16.6C38.4 16.6 38.2 16.7 38.1 16.8C38 16.9 38 17 38 17.2V27.7C38 27.8 38 28 38.1 28.1C38.2 28.2 38.3 28.3 38.5 28.3C38.7 28.4 38.8 28.4 39 28.4C39.5 28.4 40 28.4 40.5 28.4C40.7 28.4 40.8 28.4 41 28.3C41.1 28.3 41.3 28.2 41.4 28.1C41.5 28 41.5 27.9 41.5 27.7V17.2C41.5 17.1 41.5 16.9 41.4 16.8C41.3 16.7 41.2 16.6 41.1 16.6C40.9 16.6 40.7 16.6 40.5 16.5Z" fill="#2CBCED"/>
<path d="M39.8 15.5C40.5 15.5 41 15.4 41.3 15.1C41.6 14.8 41.8 14.3 41.8 13.7C41.8 13 41.7 12.6 41.4 12.3C41.1 12 40.6 11.9 39.9 11.9C39.2 11.9 38.6 12 38.3 12.3C38 12.6 37.9 13.1 37.9 13.7C37.9 14.4 38 14.8 38.3 15.1C38.5 15.4 39 15.5 39.8 15.5Z" fill="#2CBCED"/>
<path d="M43.1 19.4C43.2 19.5 43.3 19.5 43.5 19.5H44.5V24.6C44.5 25.2 44.6 25.8 44.7 26.4C44.8 26.9 45.1 27.3 45.4 27.7C45.7 28 46.1 28.3 46.6 28.5C47.1 28.7 47.7 28.7 48.2 28.7C48.4 28.7 48.7 28.7 48.9 28.7C49.1 28.7 49.3 28.6 49.5 28.6C49.7 28.6 49.9 28.5 50 28.4C50.1 28.3 50.3 28.2 50.4 28.1C50.5 28 50.6 27.8 50.6 27.6C50.7 27.3 50.7 27 50.7 26.7C50.7 26.5 50.7 26.3 50.7 26.1C50.7 26 50.7 25.8 50.6 25.7C50.6 25.6 50.5 25.5 50.4 25.4C50.3 25.3 50.2 25.3 50.1 25.3C50 25.3 49.9 25.3 49.8 25.4C49.7 25.4 49.7 25.5 49.6 25.5C49.5 25.5 49.4 25.6 49.3 25.6C49.2 25.6 49.1 25.6 48.9 25.6C48.8 25.6 48.6 25.6 48.5 25.5C48.4 25.4 48.3 25.4 48.2 25.2C48 24.8 47.9 24.4 48 24V19.3H50C50.1 19.3 50.3 19.3 50.4 19.2C50.5 19.1 50.6 19 50.6 18.9C50.7 18.6 50.8 18.2 50.7 17.9C50.7 17.7 50.7 17.5 50.7 17.3C50.7 17.2 50.6 17 50.6 16.9C50.6 16.8 50.5 16.7 50.4 16.6C50.3 16.5 50.2 16.5 50 16.5H48V14.4C48 14.3 48 14.1 47.9 14C47.8 13.9 47.7 13.8 47.6 13.8C47.4 13.7 47.3 13.7 47.1 13.7C46.9 13.7 46.6 13.7 46.3 13.7C46.1 13.7 45.8 13.7 45.6 13.7C45.4 13.7 45.2 13.8 45.1 13.8C45 13.8 44.8 13.9 44.7 14.1C44.6 14.2 44.6 14.3 44.6 14.5V16.6H43.6C43.5 16.6 43.4 16.6 43.2 16.7C43.1 16.8 43 16.9 43 17C42.9 17.1 42.9 17.3 42.9 17.4C42.9 17.6 42.9 17.8 42.9 18C42.9 18.3 42.9 18.7 43 19C42.9 19.2 43 19.3 43.1 19.4Z" fill="#2CBCED"/>
<path d="M51.2 19.4C51.3 19.5 51.4 19.5 51.6 19.5H52.6V24.6C52.6 25.2 52.7 25.8 52.8 26.4C52.9 26.9 53.2 27.3 53.5 27.7C53.8 28.1 54.2 28.3 54.7 28.5C55.2 28.7 55.8 28.7 56.3 28.7C56.5 28.7 56.8 28.7 57 28.7C57.2 28.7 57.4 28.6 57.6 28.6C57.8 28.6 58 28.5 58.1 28.4C58.2 28.3 58.4 28.3 58.5 28.1C58.6 28 58.7 27.8 58.7 27.6C58.8 27.3 58.8 27 58.8 26.7C58.8 26.5 58.8 26.3 58.8 26.1C58.8 26 58.8 25.8 58.7 25.7C58.7 25.6 58.6 25.5 58.5 25.4C58.4 25.3 58.3 25.3 58.2 25.3C58.1 25.3 58 25.3 57.9 25.4C57.8 25.4 57.8 25.5 57.7 25.5C57.6 25.5 57.5 25.6 57.4 25.6C57.3 25.6 57.2 25.6 57 25.6C56.9 25.6 56.7 25.6 56.6 25.5C56.5 25.4 56.4 25.4 56.3 25.2C56.1 24.8 56 24.4 56.1 24V19.3H58.1C58.2 19.3 58.4 19.3 58.5 19.2C58.6 19.1 58.7 19 58.7 18.9C58.8 18.6 58.9 18.2 58.8 17.9C58.8 17.7 58.8 17.5 58.8 17.3C58.8 17.1 58.7 17 58.7 16.9C58.7 16.8 58.6 16.7 58.5 16.6C58.4 16.5 58.3 16.5 58.1 16.5H56.1V14.4C56.1 14.3 56.1 14.1 56 14C55.9 13.9 55.8 13.8 55.6 13.8C55.4 13.7 55.3 13.7 55.1 13.7C54.9 13.7 54.6 13.7 54.3 13.7C54.1 13.7 53.8 13.7 53.6 13.7C53.4 13.7 53.2 13.8 53.1 13.8C53 13.8 52.8 13.9 52.7 14.1C52.6 14.2 52.6 14.3 52.6 14.5V16.6H51.6C51.5 16.6 51.3 16.6 51.2 16.7C51.1 16.8 51 16.9 51 17C50.9 17.1 50.9 17.3 50.9 17.4C50.9 17.6 50.9 17.8 50.9 18C50.9 18.3 50.9 18.7 51 19C51.1 19.2 51.1 19.3 51.2 19.4Z" fill="#2CBCED"/>
<path d="M62.3 15.5C63 15.5 63.5 15.4 63.8 15.1C64.1 14.8 64.3 14.3 64.3 13.7C64.3 13 64.2 12.6 63.9 12.3C63.6 12 63.1 11.9 62.4 11.9C61.7 11.9 61.1 12 60.8 12.3C60.5 12.6 60.4 13.1 60.4 13.7C60.4 14.4 60.5 14.8 60.8 15.1C61 15.4 61.5 15.5 62.3 15.5Z" fill="#2CBCED"/>
<path d="M63 16.5C62.7 16.5 62.5 16.5 62.2 16.5C61.9 16.5 61.7 16.5 61.4 16.5C61.2 16.5 61.1 16.6 60.9 16.6C60.8 16.6 60.6 16.7 60.5 16.8C60.4 16.9 60.4 17 60.4 17.2V27.7C60.4 27.8 60.4 28 60.5 28.1C60.6 28.2 60.7 28.3 60.9 28.3C61.1 28.4 61.2 28.4 61.4 28.4C61.6 28.4 61.9 28.4 62.2 28.4C62.4 28.4 62.7 28.4 62.9 28.4C63.1 28.4 63.2 28.4 63.4 28.3C63.5 28.3 63.7 28.2 63.8 28.1C63.9 28 63.9 27.9 63.9 27.7V17.2C63.9 17.1 63.9 16.9 63.8 16.8C63.7 16.7 63.6 16.6 63.4 16.6C63.4 16.6 63.2 16.6 63 16.5Z" fill="#2CBCED"/>
<path d="M65.4 18.2L68.6 27.8C68.6 27.9 68.7 28.1 68.8 28.2C68.9 28.3 69.1 28.4 69.3 28.5C69.5 28.6 69.8 28.6 70 28.6C70.3 28.6 70.6 28.6 71 28.6C71.4 28.6 71.8 28.6 72.1 28.6C72.3 28.6 72.6 28.6 72.8 28.5C73 28.5 73.1 28.4 73.3 28.2C73.4 28.1 73.5 27.9 73.5 27.8L76.7 18.2C76.7 18.1 76.8 18 76.8 17.9C76.8 17.8 76.8 17.7 76.8 17.7C76.8 17.6 76.8 17.6 76.8 17.5C76.8 17.4 76.8 17.4 76.8 17.3C76.8 17.2 76.8 17.1 76.7 16.9C76.6 16.8 76.5 16.7 76.4 16.7C76.2 16.6 76.1 16.6 75.9 16.6C75.7 16.6 75.5 16.6 75.2 16.6C74.9 16.6 74.7 16.6 74.4 16.6C74.2 16.6 74.1 16.6 73.9 16.7C73.8 16.7 73.6 16.8 73.5 16.9C73.4 17 73.4 17.1 73.3 17.2L71.1 24.4L68.9 17.2C68.9 17.1 68.8 17 68.7 16.9C68.6 16.8 68.5 16.7 68.3 16.6C68.1 16.6 67.9 16.5 67.8 16.5C67.6 16.5 67.3 16.5 67 16.5C66.7 16.5 66.5 16.5 66.2 16.5C66 16.5 65.8 16.5 65.7 16.6C65.6 16.6 65.4 16.7 65.3 16.8C65.2 16.9 65.2 17 65.2 17.2V17.4C65.2 17.5 65.2 17.6 65.2 17.7C65.3 17.9 65.4 18 65.4 18.2Z" fill="#2CBCED"/>
<path d="M78.5 27.1C79 27.6 79.6 28.1 80.3 28.3C81.1 28.6 82 28.7 82.8 28.7C83.7 28.7 84.6 28.6 85.5 28.2C86.2 27.9 86.9 27.5 87.4 26.9C87.9 26.3 88.3 25.6 88.5 24.9C88.8 24.1 88.9 23.2 88.9 22.4C88.9 21.5 88.8 20.7 88.6 19.8C88.4 19.1 88 18.4 87.5 17.9C87 17.4 86.4 16.9 85.7 16.7C84.9 16.4 84 16.3 83.1 16.3C82.2 16.3 81.3 16.4 80.5 16.8C79.8 17.1 79.1 17.5 78.6 18.1C78.1 18.7 77.7 19.4 77.5 20.1C77.2 20.9 77.1 21.8 77.1 22.6C77.1 23.5 77.2 24.3 77.4 25.2C77.6 25.9 78 26.6 78.5 27.1ZM80.8 21.1C80.9 20.7 81 20.4 81.2 20.1C81.4 19.8 81.6 19.6 81.9 19.5C82.2 19.4 82.6 19.3 82.9 19.3C83.3 19.3 83.7 19.4 84 19.5C84.3 19.7 84.5 19.9 84.7 20.2C84.9 20.5 85 20.9 85.1 21.3C85.2 21.8 85.2 22.2 85.2 22.7C85.2 23.2 85.2 23.7 85.1 24.1C85 24.5 84.9 24.8 84.7 25.1C84.5 25.4 84.3 25.6 84 25.7C83.7 25.9 83.3 25.9 82.9 25.9C82.5 25.9 82.1 25.8 81.8 25.7C81.5 25.6 81.3 25.3 81.1 25C80.9 24.7 80.8 24.3 80.7 23.9C80.6 23.4 80.6 23 80.6 22.5C80.7 22 80.7 21.5 80.8 21.1Z" fill="#2CBCED"/>
<path d="M100.5 18.7C100.4 18 99.6 17.6 99 17.6C98.8 17.6 98.6 17.6 98.4 17.7C97.6 18 97.1 18.8 96.7 19.4L93.9 23.7C93.8 22 93.7 20.3 93.5 18.5C93.4 17.6 93.3 16.6 92.6 15.9C92.4 15.7 92.2 15.6 92 15.5C91.8 15.4 91.5 15.4 91.3 15.4C91 15.4 90.8 15.4 90.6 15.6C90.4 15.7 90.2 15.9 90.1 16.1C89.9 16.5 89.9 17 90 17.4L90.8 25.7C90.9 26.5 91 27.4 90.7 28.3C90.5 28.9 90.2 29.4 89.8 29.9C88.2 32 85.8 33.9 82.7 35.4C78.3 37.6 73.2 38.9 66.2 39.6C62.3 40 58.4 40.2 54.5 40.2C40.4 40.2 27.7 37.4 16.9 31.9C11.6 29.2 5.20001 25.3 3.20001 19.3C2.50001 17 2.70001 14.6 3.70001 12.5C4.80001 10.4 6.59999 8.7 8.89999 8C10.1 7.6 11.4 7.39998 12.7 7.59998C14 7.69998 15.2 8.19999 16.3 8.79999C16.5 8.89999 16.7 9 16.9 9C17 9 17.2 9.00002 17.3 8.90002C17.5 8.80002 17.6 8.79998 17.7 8.59998C17.8 8.49998 17.9 8.30001 18 8.20001C18.5 7.00001 19.2 5.9 20.2 5C21.1 4.1 22.3 3.4 23.5 3C24.4 2.7 25.4 2.5 26.3 2.5C30 2.5 33.3 4.89998 34.8 8.59998C34.9 8.79998 35 8.9 35.1 9C35.2 9.1 35.4 9.19999 35.6 9.29999C35.8 9.39999 35.9 9.39999 36.1 9.29999C36.3 9.29999 36.4 9.19998 36.6 9.09998C36.8 8.89998 37 8.70002 37.1 8.40002C37.2 8.10002 37.2 7.89998 37.1 7.59998C35.3 2.99998 31.1 0 26.5 0C25.3 0 24.1 0.199976 22.9 0.599976C20.2 1.49998 17.9 3.5 16.5 6C13.9 4.8 10.9 4.69998 8.20001 5.59998C5.40001 6.59998 3.00001 8.59999 1.70001 11.3C0.400005 14 0.0999992 17.1 1.1 20C3.3 26.8 10.2 31 15.9 34C27.3 39.9 41 43 55.4 43C59.4 43 63.5 42.7 67.5 42.3C78.3 41 85.9 37.9 91.3 32.7C95.1 29.1 97.7 24.5 100.2 20.1C100.4 19.8 100.6 19.4 100.6 18.9C100.6 18.8 100.5 18.8 100.5 18.7ZM35.7 9C35.8 9 35.8 9 35.9 9C35.8 9 35.7 9 35.7 9ZM35.5 8.90002C35.5 8.90002 35.6 8.9 35.6 9C35.6 9 35.6 9.00002 35.5 8.90002ZM35.3 8.79999L35.4 8.90002C35.4 8.90002 35.4 8.79999 35.3 8.79999ZM35.1 8.40002C35.1 8.50002 35.2 8.49998 35.2 8.59998C35.2 8.59998 35.1 8.50002 35.1 8.40002ZM27.8 2.29999C28 2.29999 28.2 2.40002 28.4 2.40002C28.2 2.30002 28 2.29999 27.8 2.29999ZM32.1 1.90002C32.2 2.00002 32.3 1.99998 32.4 2.09998C32.3 2.09998 32.2 2.00002 32.1 1.90002ZM31.2 1.40002C31.3 1.50002 31.5 1.49998 31.6 1.59998C31.4 1.59998 31.3 1.50002 31.2 1.40002ZM29.8 2.90002C30 3.00002 30.2 3.09998 30.4 3.09998C30.2 2.99998 30 3.00002 29.8 2.90002ZM29.8 0.799988C29.9 0.799988 30 0.900024 30.2 0.900024C30 0.900024 29.9 0.899988 29.8 0.799988ZM29.2 0.700012C29.3 0.700012 29.5 0.799988 29.6 0.799988C29.5 0.799988 29.4 0.700012 29.2 0.700012ZM28.5 2.40002C28.7 2.40002 28.9 2.49998 29.1 2.59998C28.9 2.49998 28.7 2.50002 28.5 2.40002ZM27.2 0.299988C27.4 0.299988 27.5 0.299988 27.7 0.299988C27.5 0.399988 27.3 0.299988 27.2 0.299988ZM27.2 2.20001C27.4 2.20001 27.6 2.19999 27.7 2.29999C27.5 2.19999 27.3 2.20001 27.2 2.20001ZM23.4 0.700012C23.3 0.800012 23.1 0.800024 22.9 0.900024C23.1 0.800024 23.2 0.800012 23.4 0.700012ZM16.7 8.5C16.8 8.5 16.8 8.5 16.9 8.5C16.8 8.6 16.8 8.6 16.7 8.5ZM16 8.20001C16.2 8.30001 16.3 8.4 16.5 8.5C16.4 8.3 16.2 8.30001 16 8.20001ZM15.5 7.90002C15.6 8.00002 15.7 7.99998 15.9 8.09998C15.8 7.99998 15.6 8.00002 15.5 7.90002ZM13.7 7.29999C13.9 7.29999 14.1 7.40002 14.2 7.40002C14.1 7.40002 13.9 7.39999 13.7 7.29999ZM12.6 7.20001C12.7 7.20001 12.9 7.20001 13 7.20001C12.8 7.20001 12.7 7.20001 12.6 7.20001ZM11.9 7.09998C12.1 7.09998 12.2 7.09998 12.4 7.09998C12.2 7.19998 12.1 7.09998 11.9 7.09998ZM10.9 5.29999C11.1 5.29999 11.2 5.29999 11.4 5.29999C11.3 5.29999 11.1 5.29999 10.9 5.29999ZM6.29998 27.4C6.89998 28 7.59998 28.6 8.29998 29.1C7.69998 28.6 6.99998 28 6.29998 27.4ZM24.8 37.6C24.5 37.5 24.1 37.4 23.8 37.2C24.1 37.3 24.4 37.4 24.8 37.6ZM26.6 38.2C26.1 38 25.7 37.9 25.2 37.7C25.6 37.9 26.1 38 26.6 38.2ZM28 38.7C27.6 38.6 27.2 38.5 26.9 38.3C27.2 38.4 27.6 38.5 28 38.7ZM29.5 39.1C29.2 39 28.8 38.9 28.5 38.8C28.8 38.9 29.1 39 29.5 39.1ZM32.8 40C32.3 39.9 31.8 39.8 31.4 39.6C31.9 39.8 32.3 39.9 32.8 40ZM58.7 40.4C58.5 40.4 58.2 40.4 58 40.4C58.2 40.4 58.4 40.4 58.7 40.4Z" fill="#2CBCED"/>
</svg>
