<svg width="188" height="45" viewBox="0 0 188 45" fill="none" xmlns="http://www.w3.org/2000/svg">
<path fill-rule="evenodd" clip-rule="evenodd" d="M94.4 42.1C94.8 41.5 95.1 41 95.4 40.5C95.5 40.4 95.6 40.4 95.8 40.4C97.4 40.4 99.1 40.4 100.7 40.4C101.5 40.4 101.7 40.2 101.7 39.4C101.7 39.2 101.7 39 101.7 38.8C101.7 38.1 101.5 37.9 100.8 37.9C99.5 37.9 98.2 37.9 96.8 37.9C96.4 37.9 96 37.8 95.6 37.6C95 37.3 94.7 36.8 94.5 36.2C94.3 35.4 94.3 34.7 94.5 33.9C94.7 33 95.4 32.3 96.4 32.2C96.9 32.2 97.4 32.2 97.8 32.2C99.5 32.2 101.2 32.2 103 32.2C103.1 32.2 103.2 32.2 103.3 32.2C103 32.6 102.8 32.9 102.6 33.3C102.4 33.7 102.1 33.9 101.6 33.9C100.1 33.9 98.7 33.9 97.2 33.9C96.6 33.9 96.4 34.1 96.4 34.7C96.4 34.9 96.4 35.2 96.4 35.4C96.4 35.9 96.6 36.1 97.1 36.1C98.3 36.1 99.6 36.1 100.8 36.1C101.1 36.1 101.3 36.1 101.6 36.2C102.7 36.3 103.4 37 103.5 38C103.6 38.7 103.6 39.4 103.5 40.1C103.3 41.3 102.5 42 101.1 42C98.9 42.1 96.7 42.1 94.4 42.1Z" fill="black"/>
<path fill-rule="evenodd" clip-rule="evenodd" d="M107.5 33.9C107.5 34.7 107.5 35.4 107.5 36.1C109.3 36.1 111.1 36.1 112.9 36.1C112.9 36.7 112.9 37.2 112.9 37.8C111.1 37.8 109.4 37.8 107.6 37.8C107.6 38.6 107.6 39.5 107.6 40.3C107.7 40.3 107.9 40.3 108 40.3C109.6 40.3 111.2 40.3 112.9 40.3C113.1 40.3 113.3 40.4 113.4 40.6C113.7 41.1 114 41.5 114.3 42C111.4 42 108.6 42 105.7 42C105.7 41.9 105.7 41.8 105.7 41.6C105.7 38.6 105.7 35.6 105.7 32.5C105.7 32.2 105.7 32.1 106 32.1C108.7 32.1 111.3 32.1 114 32.1C114.1 32.1 114.2 32.1 114.3 32.1C113.9 32.6 113.6 33.2 113.3 33.7C113.3 33.8 113.1 33.8 113 33.8C111.4 33.8 109.8 33.8 108.1 33.8C107.8 33.9 107.6 33.9 107.5 33.9Z" fill="black"/>
<path fill-rule="evenodd" clip-rule="evenodd" d="M73.8 36.1C75.6 36.1 77.4 36.1 79.2 36.1C79.2 35.9 79.2 35.7 79.2 35.5C79.2 34.5 79.2 33.5 79.2 32.5C79.2 32.3 79.3 32.2 79.5 32.2C80 32.2 80.6 32.2 81.1 32.2C81.1 35.5 81.1 38.7 81.1 42C80.5 42 79.8 42 79.2 42C79.2 40.6 79.2 39.2 79.2 37.8C77.4 37.8 75.6 37.8 73.8 37.8C73.8 39.2 73.8 40.6 73.8 42C73.1 42 72.5 42 71.9 42C71.9 38.8 71.9 35.5 71.9 32.2C72.5 32.2 73.2 32.2 73.8 32.2C73.8 33.6 73.8 34.8 73.8 36.1Z" fill="black"/>
<path fill-rule="evenodd" clip-rule="evenodd" d="M82.3 42.1C82.4 41.9 82.4 41.8 82.5 41.7C83.9 38.7 85.4 35.6 86.8 32.6C86.9 32.4 87 32.3 87.3 32.3C87.8 32.3 88.2 32.3 88.7 32.3C88.8 32.3 89 32.4 89 32.5C90.5 35.7 92 38.8 93.5 42C93.5 42 93.5 42 93.5 42.1C92.8 42.1 92.1 42.1 91.4 42.1C91.3 42.1 91.3 42 91.2 41.9C91 41.4 90.7 40.9 90.5 40.3C90.4 40.1 90.3 40 90.1 40.1C88.6 40.1 87.1 40.1 85.6 40.1C85.4 40.1 85.3 40.2 85.2 40.3C85 40.8 84.7 41.3 84.5 41.9C84.4 42 84.3 42.1 84.2 42.1C83.6 42.1 83 42.1 82.3 42.1ZM89.7 38.4C89.1 37 88.5 35.7 87.9 34.3C87.3 35.7 86.7 37 86.1 38.4C87.4 38.4 88.5 38.4 89.7 38.4Z" fill="black"/>
<path fill-rule="evenodd" clip-rule="evenodd" d="M70.7 42.1C68.5 42.1 66.4 42.1 64.3 42.1C62.5 42.1 61.5 40.9 61.5 39.2C61.5 37.9 61.5 36.6 61.5 35.3C61.5 33.6 62.5 32.5 64.2 32.4C66.3 32.3 68.4 32.4 70.6 32.4H70.7C70.4 32.9 70 33.5 69.7 34C69.6 34.1 69.5 34.1 69.4 34.1C68 34.1 66.6 34.1 65.2 34.1C65.1 34.1 65 34.1 64.9 34.1C63.9 34.1 63.5 34.5 63.5 35.5C63.5 36.7 63.5 37.9 63.5 39.1C63.5 40.1 63.9 40.5 64.9 40.5C66.3 40.5 67.8 40.5 69.2 40.5C69.5 40.5 69.7 40.6 69.9 40.9C70 41.1 70.3 41.6 70.7 42.1Z" fill="black"/>
<path fill-rule="evenodd" clip-rule="evenodd" d="M100.2 9.60001C99.9 9.60001 99.7 9.60001 99.5 9.60001C94.3 9.60001 89.2 9.60001 84 9.60001C83.3 9.60001 83.1 9.40001 83.1 8.70001C83.1 6.90001 83.1 5.19999 83.1 3.39999C83.1 2.39999 83.4 2.10001 84.4 2.10001C86.9 2.10001 89.4 2.10001 91.9 2.10001C92.2 2.10001 92.6 2.19999 92.8 2.39999C95.2 4.69999 97.6 6.90001 100 9.20001C100.1 9.30001 100.1 9.40001 100.2 9.60001Z" fill="#4C79C8"/>
<path fill-rule="evenodd" clip-rule="evenodd" d="M93.8 27.9C93.8 27.6 93.8 27.4 93.8 27.2C93.8 22 93.8 16.9 93.8 11.7C93.8 11 94 10.8 94.7 10.8C96.4 10.8 98.2 10.8 99.9 10.8C100.9 10.8 101.1 11 101.1 12C101.1 14.5 101.1 17.1 101.1 19.6C101.1 19.9 101 20.4 100.7 20.6C98.5 22.9 96.3 25.2 94.2 27.5C94.1 27.7 94 27.8 93.8 27.9Z" fill="#4C79C8"/>
<path fill-rule="evenodd" clip-rule="evenodd" d="M75.5 21.5C75.9 21.5 76.1 21.5 76.3 21.5C81.4 21.5 86.5 21.5 91.6 21.5C92.5 21.5 92.5 21.5 92.5 22.5C92.5 24.2 92.5 25.9 92.5 27.6C92.5 28.5 92.2 28.8 91.3 28.8C88.8 28.8 86.2 28.8 83.7 28.8C83.4 28.8 83.1 28.7 82.9 28.5C80.5 26.3 78.2 24.1 75.9 21.8C75.7 21.8 75.6 21.7 75.5 21.5Z" fill="#4C79C8"/>
<path fill-rule="evenodd" clip-rule="evenodd" d="M81.7 3.20001C81.7 3.50001 81.7 3.7 81.7 4C81.7 9.1 81.7 14.2 81.7 19.3C81.7 20 81.5 20.2 80.8 20.2C79 20.2 77.3 20.2 75.5 20.2C74.6 20.2 74.4 19.9 74.4 19C74.4 16.5 74.4 13.9 74.4 11.4C74.4 11.1 74.5 10.7 74.7 10.5C76.9 8.2 79.1 5.8 81.3 3.5C81.5 3.4 81.6 3.30001 81.7 3.20001Z" fill="#4C79C8"/>
<path fill-rule="evenodd" clip-rule="evenodd" d="M20.3 23.5H7L0.5 35H13.7L20.3 23.5Z" fill="#EC1C24"/>
<path fill-rule="evenodd" clip-rule="evenodd" d="M27 11.6L20.4 0L13.7 11.6L20.4 23.3L27 11.6Z" fill="#EC1C24"/>
<path fill-rule="evenodd" clip-rule="evenodd" d="M27 35H40.3L33.7 23.5H20.5L27 35Z" fill="#EC1C24"/>
<path fill-rule="evenodd" clip-rule="evenodd" d="M26.4 44H27.4V38.7H26.4V44Z" fill="#231F20"/>
<path fill-rule="evenodd" clip-rule="evenodd" d="M37.5 44H38.5V38.7H37.5V44Z" fill="#231F20"/>
<path fill-rule="evenodd" clip-rule="evenodd" d="M7.70001 44H8.70001V38.7H7.70001V44Z" fill="#231F20"/>
<path fill-rule="evenodd" clip-rule="evenodd" d="M12.5 38.7H9.5V39.6H10.5V44H11.5V39.6H12.5V38.7Z" fill="#231F20"/>
<path fill-rule="evenodd" clip-rule="evenodd" d="M35.5 40.7H33.3V38.7H32.3V44H33.3V41.6H35.5V44H36.5V38.7H35.5V40.7Z" fill="#231F20"/>
<path fill-rule="evenodd" clip-rule="evenodd" d="M4.5 41.1L3.60001 38.7H2.5V44H3.5V40.7L4.5 43.4L5.60001 40.7V44H6.60001V38.7H5.5L4.5 41.1Z" fill="#231F20"/>
<path fill-rule="evenodd" clip-rule="evenodd" d="M20.9 38.7H19.9V42.5C19.9 42.9 19.4 43.2 19 43.2C18.6 43.2 18.1 42.9 18.1 42.5V38.7H17.1V42.4C17.1 43.4 18 44.1 19 44.1C20 44.1 20.9 43.3 20.9 42.4V38.7Z" fill="#231F20"/>
<path fill-rule="evenodd" clip-rule="evenodd" d="M24.8 41.2C24.9 41.1 25.5 40.8 25.5 40.1C25.5 39.2 24.8 38.8 24.3 38.7H22V44H24C24.8 44 25.7 43.6 25.7 42.6C25.6 41.7 25.2 41.4 24.8 41.2ZM24 43.1H22.9V39.6H23.9C24.2 39.6 24.4 39.8 24.4 40.1C24.4 40.4 24.3 40.7 23.9 40.7H23.5V41.6H24C24.3 41.6 24.7 41.9 24.7 42.4C24.6 42.9 24.2 43.1 24 43.1Z" fill="#231F20"/>
<path fill-rule="evenodd" clip-rule="evenodd" d="M12.9 42.3C12.9 42.4 12.9 42.4 12.9 42.5C12.9 43.4 13.6 44.1 14.6 44.1C15.5 44.1 16.3 43.5 16.3 42.6C16.3 42.1 16.1 41.7 15.8 41.4C15.5 41.2 14.8 40.8 14.5 40.6C14.2 40.4 14.1 40.3 14.1 40.1C14.1 39.7 14.3 39.5 14.7 39.5C15.1 39.5 15.4 39.8 15.4 40.2C15.4 40.3 15.4 40.4 15.4 40.4H16.3V40.2C16.3 39.3 15.8 38.7 14.8 38.7C13.9 38.7 13.3 39.3 13.3 40.2C13.3 40.6 13.5 41 14 41.3C14.5 41.6 15.2 41.9 15.4 42.1C15.5 42.2 15.6 42.4 15.6 42.6C15.6 43 15.3 43.3 14.9 43.3C14.5 43.3 14.2 42.9 14.1 42.6C14.1 42.5 14.1 42.4 14.1 42.3H12.9Z" fill="#231F20"/>
<path fill-rule="evenodd" clip-rule="evenodd" d="M29.7 40.6C29.4 40.4 29.3 40.3 29.3 40.1C29.3 39.7 29.5 39.5 29.9 39.5C30.3 39.5 30.6 39.8 30.6 40.2C30.6 40.3 30.6 40.4 30.6 40.4H31.5V40.2C31.5 39.3 31 38.7 30 38.7C29.1 38.7 28.5 39.3 28.5 40.2C28.5 40.6 28.7 41 29.2 41.3C29.7 41.6 30.4 41.9 30.6 42.1C30.7 42.2 30.8 42.4 30.8 42.6C30.8 43 30.5 43.3 30.1 43.3C29.7 43.3 29.4 42.9 29.3 42.6C29.3 42.5 29.3 42.4 29.3 42.3H28.4C28.4 42.4 28.4 42.4 28.4 42.5C28.4 43.4 29.1 44.1 30.1 44.1C31 44.1 31.8 43.5 31.8 42.6C31.8 42.1 31.6 41.7 31.3 41.4C30.7 41.2 30 40.8 29.7 40.6Z" fill="#231F20"/>
<mask id="mask0_152_5" style="mask-type:luminance" maskUnits="userSpaceOnUse" x="127" y="2" width="61" height="40">
<path d="M187.1 2.70001H127.7V41.6H187.1V2.70001Z" fill="white"/>
</mask>
<g mask="url(#mask0_152_5)">
<path fill-rule="evenodd" clip-rule="evenodd" d="M132 32.7C132.2 33.1 132.4 33.8 132.6 34.2C132.8 34.7 133 35.3 133.2 35.7H130.9L132 32.7ZM141.5 34.8C141.5 35.3 141.5 35.8 141.5 36.3C141.5 36.8 141.6 36.9 141 37.2C139 38.2 138.1 35.3 139.4 34.4C140.2 33.9 141.4 34.5 141.5 34.8ZM159.9 34.7C160 34.6 160.1 34.6 160.3 34.5C161.3 33.9 162.6 34.3 162.6 35.9C162.6 36.7 162.3 37.2 161.8 37.5C161 37.9 160.3 37.3 160 37.2V34.7H159.9ZM180.7 38.9H182.5V36.5H183.3C183.4 36.9 184.6 38.4 184.9 38.9H187V37.7H186.2L184.8 35.7C185 35.3 186.5 33.3 186.6 33.1H184.8L183.3 35.2H182.5V30.7H180.7V38.9ZM174.9 33.8L174.8 33.6C174.8 33.5 174.8 33.4 174.7 33.4C174.7 33.2 174.6 33.1 174.6 33H171.9V34.2H173.1V38.9H174.9C175 38.2 174.8 34.9 175 34.7C175.2 34.5 175.7 34.3 176.1 34.3C177.8 34.3 177.1 36.3 177.3 38.9H179.1C179.2 38.1 179.1 37 179.1 36.1C179.1 35.1 179.2 34.3 178.7 33.6C178.3 33.1 177.6 32.8 176.7 32.8C175.8 32.9 175.3 33.3 174.9 33.8ZM169.3 36.5C169.3 36.7 169.4 37.1 169.2 37.3C168.7 37.8 167.7 37.9 167.2 37.5C166.7 36.9 167.5 35.9 169.3 36.5ZM153.4 34.3C155.4 33.8 155.9 37 154.1 37.5C153.1 37.8 152.4 37.1 152.3 36.3C152.2 35.4 152.5 34.6 153.4 34.3ZM147.4 34.2L147.1 33H144.4V34.2H145.6V38.9H147.4C147.5 37.9 147.4 36.5 147.4 35.4C147.4 35 147.9 34.7 148.3 34.6C149 34.4 149.3 34.5 149.9 34.5C149.9 32.9 150.1 32.8 149.5 32.8C149.3 32.8 149 32.8 148.8 32.9C148.4 33 148.1 33.1 147.9 33.3C147.5 33.7 147.5 34 147.4 34.2ZM153.3 32.9C149 33.4 149.7 39.6 154.3 39C156 38.8 157.4 37.5 157.1 35.5C156.8 33.8 155.3 32.6 153.3 32.9ZM165.7 33.4V34.8C166.1 34.7 166.4 34.2 167.7 34.2C168.6 34.1 169.3 34.5 169.2 35.4C168.2 35.3 167.5 35.1 166.4 35.5C164 36.4 165.3 39.7 168.3 38.9C168.8 38.7 169 38.5 169.3 38.3C169.5 38.5 169.6 38.9 170.3 39C170.9 39.1 171.3 39 171.7 38.8V37.8C171.1 37.7 171 37.9 171 37.1C171 35.5 171.2 34.3 170.2 33.5C169.7 33 168.8 32.9 167.9 32.9C167.3 32.9 166.2 33 165.7 33.4ZM158 38.9H159.8V38.1C160.2 38.5 160.4 38.8 161.1 38.9C162.7 39.3 164.4 38.1 164.4 35.9C164.4 33.8 162.9 32.5 161.2 32.8C160.4 32.9 160 33.5 159.9 33.5V30.5H158.1L158 38.9ZM141.5 38C141.5 39.2 141.2 39.8 140.2 39.9C138.7 40.1 138 39.4 137.5 39.3V40.7C138.5 41.4 141.8 41.8 143 39.9C143.5 39 143.4 37.7 143.4 36.6C143.4 35.9 143.4 33.4 143.4 32.9H141.7V33.7C141.5 33.5 141.5 33.4 141.2 33.2C141 33.1 140.7 32.9 140.5 32.9C138.9 32.5 137.2 33.6 137.1 35.7C137.1 37.1 137.7 38 138.6 38.5C139.1 38.7 139.7 38.9 140.4 38.7C141 38.6 141.1 38.3 141.5 38ZM128.8 32.1H130.4L127.7 38.9H129.6C129.8 38.8 129.7 38.9 129.7 38.8C129.8 38.6 130.1 37.5 130.3 37.3H133.7C133.9 37.6 134.1 38.5 134.4 38.9H136.5L133.2 30.8H128.8V32.1Z" fill="black"/>
</g>
<path fill-rule="evenodd" clip-rule="evenodd" d="M146.4 24.8H157.3C157 24.4 148.8 16.2 147.8 15.2L146.4 13.8C146.6 13.4 147.4 12.7 147.8 12.4L151.9 8.29999C152.6 7.59999 157.2 3.09999 157.4 2.79999H146.4V24.8ZM168.4 13.8V2.79999H157.4C157.6 3.09999 158.4 3.90001 158.7 4.20001L165.5 11C166 11.4 168.1 13.6 168.4 13.8ZM157.5 24.8H168.4V13.9C168 14.1 167.3 14.9 166.9 15.3C165.8 16.4 157.6 24.6 157.5 24.8Z" fill="#74CF70"/>
</svg>
