<svg width="194" height="46" viewBox="0 0 194 46" fill="none" xmlns="http://www.w3.org/2000/svg">
<path d="M73.2 30.9H70.6C70.5 30.9 70.4 31 70.4 31.1V37C70.4 37.1 70.5 37.2 70.6 37.2H73.2C75.3 37.2 76.6 36 76.6 34.1C76.6 32.1 75.2 30.9 73.2 30.9ZM73.2 35.4H72.3V32.5H73.2C74.1 32.5 74.7 33 74.7 34C74.7 34.7 74.2 35.4 73.2 35.4Z" fill="#0078AE"/>
<path d="M88.1 32.5C87.4 32.5 86.8 32.9 86.5 33.3C86.3 32.8 85.9 32.5 85.2 32.5C84.5 32.5 83.9 32.9 83.7 33.1V32.7C83.7 32.6 83.6 32.5 83.5 32.5H82.1C82 32.5 81.9 32.6 81.9 32.7V36.9C81.9 37 82 37.1 82.1 37.1H83.5C83.6 37.1 83.7 37 83.7 36.9V34.3C83.8 34.2 84 33.9 84.4 33.9C84.7 33.9 84.9 34.1 84.9 34.4V36.9C84.9 37 85 37.1 85.1 37.1H86.5C86.6 37.1 86.7 37 86.7 36.9V34.3C86.8 34.2 87 33.9 87.4 33.9C87.7 33.9 87.9 34.1 87.9 34.4V36.9C87.9 37 88 37.1 88.1 37.1H89.5C89.6 37.1 89.7 37 89.7 36.9V33.8C89.5 32.9 89 32.5 88.1 32.5Z" fill="#0078AE"/>
<path d="M91.7 32.6H90.3C90.2 32.6 90.1 32.7 90.1 32.8V37C90.1 37.1 90.2 37.2 90.3 37.2H91.7C91.8 37.2 91.9 37.1 91.9 37V32.8C91.8 32.6 91.8 32.6 91.7 32.6Z" fill="#0078AE"/>
<path d="M91.1 30.4C90.6 30.4 90.2 30.8 90.2 31.3C90.2 31.8 90.6 32.2 91.1 32.2C91.6 32.2 92 31.8 92 31.3C92 30.8 91.6 30.4 91.1 30.4Z" fill="#0078AE"/>
<path d="M95.8 32.5C94.9 32.5 94.5 32.9 94.3 33.1V32.7C94.3 32.6 94.2 32.5 94.1 32.5H92.7C92.6 32.5 92.5 32.6 92.5 32.7V36.9C92.5 37 92.6 37.1 92.7 37.1H94.1C94.2 37.1 94.3 37 94.3 36.9V34.3C94.4 34.2 94.6 33.9 95 33.9C95.4 33.9 95.6 34.1 95.6 34.5V36.8C95.6 36.9 95.7 37 95.8 37H97.2C97.3 37 97.4 36.9 97.4 36.8V33.8C97.3 33 96.7 32.5 95.8 32.5Z" fill="#0078AE"/>
<path d="M79.3 32.4C78 32.4 76.9 33.5 76.9 34.8C76.9 36.1 78 37.2 79.3 37.2C80.6 37.2 81.7 36.1 81.7 34.8C81.6 33.5 80.6 32.4 79.3 32.4ZM79.3 35.6C78.9 35.6 78.5 35.2 78.5 34.8C78.5 34.4 78.9 34 79.3 34C79.7 34 80.1 34.4 80.1 34.8C80.1 35.2 79.7 35.6 79.3 35.6Z" fill="#0078AE"/>
<path d="M100.1 32.5C98.8 32.5 97.7 33.6 97.7 34.9C97.7 36.2 98.8 37.3 100.1 37.3C101.4 37.3 102.5 36.2 102.5 34.9C102.5 33.5 101.4 32.5 100.1 32.5ZM100.1 35.6C99.7 35.6 99.3 35.2 99.3 34.8C99.3 34.4 99.7 34 100.1 34C100.5 34 100.9 34.4 100.9 34.8C100.9 35.2 100.6 35.6 100.1 35.6Z" fill="#0078AE"/>
<path d="M103.8 31.1C103.7 30.6 103.2 30.3 102.7 30.4C102.2 30.5 101.9 31 102 31.4C102.1 31.8 102.4 32.1 102.8 32.1C102.8 32.3 102.6 32.4 102.5 32.5C102.4 32.5 102.5 32.6 102.5 32.6L102.6 32.8C102.6 32.9 102.7 32.9 102.7 32.9C103.7 32.4 103.9 31.6 103.8 31.1Z" fill="#0078AE"/>
<path d="M105 33.9C105 33.7 105.2 33.7 105.5 33.7C106 33.7 106.3 33.9 106.7 34.1H106.8C106.8 34.1 106.9 34.1 106.9 34L107.4 33.2C107.4 33.1 107.4 33 107.3 33C106.9 32.8 106.4 32.5 105.4 32.5C104 32.5 103.3 33.1 103.4 34.1C103.6 35.7 106.2 35.2 106.1 35.7C106.1 35.8 105.9 35.9 105.5 35.9C105 35.9 104.4 35.6 104.1 35.4H104C104 35.4 103.9 35.4 103.9 35.5L103.4 36.4C103.4 36.5 103.4 36.6 103.4 36.6C103.9 36.9 104.7 37.2 105.4 37.2C106.8 37.2 107.6 36.6 107.6 35.6C107.6 33.8 105 34.4 105 33.9Z" fill="#0078AE"/>
<path d="M102.7 8.20001L95.2 0.700012C94.9 0.400012 94.5 0.200012 94 0.200012C93.6 0.200012 93.1 0.400012 92.8 0.700012L86.5 7L76 17.5C75.3 18.2 75.3 19.2 76 19.9L83.5 27.4C83.8 27.7 84.2 27.9 84.7 27.9C85.2 27.9 85.6 27.7 85.9 27.4L95.3 18L102.7 10.6C103.4 9.90001 103.4 8.80001 102.7 8.20001Z" fill="white"/>
<path d="M102.2 8.70002L94.7 1.20002C94.3 0.800024 93.7 0.800024 93.4 1.20002L85.3 9.3L94.2 18.2L102.3 10.1C102.6 9.70002 102.6 9.10002 102.2 8.70002ZM95.6 10.9C95.2 11.3 94.6 11.5 94.1 11.5C93.5 11.5 93 11.3 92.6 10.9C92.2 10.5 92 9.90001 92 9.40001C92 8.80001 92.2 8.30001 92.6 7.90001C93 7.50001 93.6 7.3 94.1 7.3C94.7 7.3 95.2 7.50001 95.6 7.90001C96 8.30001 96.2 8.90001 96.2 9.40001C96.2 9.90001 96 10.5 95.6 10.9Z" fill="#E31937"/>
<path d="M76.5 18C76.1 18.4 76.1 19 76.5 19.3L84 26.8C84.2 27 84.4 27.1 84.7 27.1C84.9 27.1 85.2 27 85.4 26.8L93.5 18.7L84.6 9.79999L76.5 18ZM83 20.2C82.6 20.6 82 20.8 81.5 20.8C80.9 20.8 80.4 20.6 80 20.2C79.6 19.8 79.4 19.2 79.4 18.7C79.4 18.1 79.6 17.6 80 17.2C80.4 16.8 81 16.6 81.5 16.6C82.1 16.6 82.6 16.8 83 17.2C83.4 17.6 83.6 18.2 83.6 18.7C83.7 19.2 83.5 19.8 83 20.2ZM86.4 17.2C86.8 16.8 87.4 16.6 87.9 16.6C88.5 16.6 89 16.8 89.4 17.2C89.8 17.6 90 18.2 90 18.7C90 19.3 89.8 19.8 89.4 20.2C89 20.6 88.4 20.8 87.9 20.8C87.3 20.8 86.8 20.6 86.4 20.2C86 19.8 85.8 19.2 85.8 18.7C85.7 18.2 85.9 17.6 86.4 17.2Z" fill="#0078AE"/>
<path d="M85.9 45.2C85.9 45.3 86 45.4 86.1 45.4H89.7C89.8 45.4 89.9 45.3 89.9 45.2V44.1C89.9 44 89.8 43.9 89.7 43.9H88.2C88.2 43.9 89.5 42.4 89.7 42.2C89.8 42.1 89.8 42.1 89.8 41.9V41.1C89.8 41 89.7 40.9 89.6 40.9H86C85.9 40.9 85.8 41 85.8 41.1V42.1V42.3C85.8 42.4 85.9 42.5 86 42.5H86.2H87.5L85.9 44.3C85.8 44.4 85.8 44.5 85.8 44.6V45.2H85.9Z" fill="#0078AE"/>
<path d="M90.4 45.2C90.4 45.3 90.5 45.4 90.6 45.4H94.2C94.3 45.4 94.4 45.3 94.4 45.2V44.1C94.4 44 94.3 43.9 94.2 43.9H92.7C92.7 43.9 94 42.4 94.2 42.2C94.3 42.1 94.3 42.1 94.3 41.9V41.1C94.3 41 94.2 40.9 94.1 40.9H90.5C90.4 40.9 90.3 41 90.3 41.1V42.1V42.3C90.3 42.4 90.4 42.5 90.5 42.5H90.7H92L90.4 44.3C90.3 44.4 90.3 44.5 90.3 44.6V45.2H90.4Z" fill="#0078AE"/>
<path d="M97.1 44C96.6 44 96.2 43.6 96.2 43.1C96.2 42.6 96.6 42.2 97.1 42.2C97.6 42.2 98 42.6 98 43.1C98 43.6 97.6 44 97.1 44ZM99.5 40.9H98.1C98 40.9 97.9 41 97.9 41.1V41.4C97.5 41.1 97.1 40.9 96.6 40.9C95.4 40.9 94.5 42 94.5 43.3C94.5 44.6 95.4 45.7 96.6 45.7C97.1 45.7 97.6 45.5 97.9 45.2V45.5C97.9 45.6 98 45.7 98.1 45.7H99.5C99.6 45.7 99.7 45.6 99.7 45.5V41.3C99.6 41 99.6 40.9 99.5 40.9Z" fill="#0078AE"/>
<path d="M85.2 40.9H83.8C83.7 40.9 83.6 41 83.6 41.1V45.2C83.6 45.3 83.7 45.4 83.8 45.4H85.2C85.3 45.4 85.4 45.3 85.4 45.2V41.1C85.4 41 85.3 40.9 85.2 40.9Z" fill="#0078AE"/>
<path d="M84.5 38.7C84 38.7 83.6 39.1 83.6 39.6C83.6 40.1 84 40.5 84.5 40.5C85 40.5 85.4 40.1 85.4 39.6C85.5 39.2 85.1 38.7 84.5 38.7Z" fill="#0078AE"/>
<path d="M80.6 42.2H80.3V40.8H80.7C81.4 40.8 81.6 41.1 81.6 41.5C81.5 41.9 81.3 42.2 80.6 42.2ZM82.3 39.7C81.7 39.3 81.1 39.2 80.2 39.2H78.5C78.4 39.2 78.4 39.3 78.4 39.3V45.2C78.4 45.3 78.5 45.3 78.5 45.3H79.9H80.1C80.2 45.3 80.2 45.2 80.2 45.2V45V43.7C81 43.7 81.8 43.7 82.4 43.2C82.8 42.8 83.1 42.2 83.1 41.4C83.2 40.9 82.9 40.1 82.3 39.7Z" fill="#0078AE"/>
<path d="M87.6 27.2V26.8H87.5V26.7H87.9V26.8H87.8V27.2H87.6Z" fill="#0078AE"/>
<path d="M88.4 27.2V26.8L88.3 27.2L88.2 26.8V27.2H88V26.7H88.1L88.2 27L88.3 26.7H88.5V27.2H88.4Z" fill="#0078AE"/>
<path d="M100.2 41.6C100 41.6 99.9 41.4 99.9 41.3C99.9 41.1 100.1 41 100.2 41C100.4 41 100.5 41.1 100.5 41.3C100.5 41.5 100.4 41.6 100.2 41.6ZM100.2 41C100 41 99.9 41.1 99.9 41.3C99.9 41.5 100 41.6 100.2 41.6C100.4 41.6 100.5 41.5 100.5 41.3C100.5 41.1 100.3 41 100.2 41ZM100.2 41.3H100.1V41.5H100V41.1H100.2C100.3 41.1 100.3 41.1 100.3 41.2C100.3 41.3 100.2 41.3 100.2 41.3ZM100.2 41.1H100.1V41.2H100.2C100.2 41.3 100.3 41.2 100.2 41.1Z" fill="#0078AE"/>
<path d="M13.2 14.5C13.3 14.6 13.4 14.6 13.5 14.6C14.6 14.7 15.8 14.7 16.9 14.8C18.4 15 19.2 15.7 19.4 17.3C19.7 19.3 19.7 21.3 19.6 23.3C19.6 24.1 19.5 24.9 19.3 25.7C19.1 27 18.3 27.7 17 27.9C14.9 28.2 12.7 28.2 10.6 28.2C8.40001 28.2 6.20001 28.2 4.00001 28C3.50001 28 3.00001 27.9 2.50001 27.8C1.40001 27.6 0.700008 26.9 0.500008 25.8C0.300008 25 0.300005 24.1 0.200005 23.2C0.200005 23.1 0.200006 23 0.100006 22.9C0.100006 21.8 0.100006 20.7 0.100006 19.5C0.200006 19.4 0.200005 19.3 0.200005 19.2C0.300005 18.4 0.300009 17.7 0.400009 16.9C0.600009 15.5 1.40001 14.7 2.80001 14.6C3.90001 14.5 5 14.4 6.2 14.4C6.3 14.4 6.40001 14.5 6.50001 14.3C8.80001 14.5 11 14.5 13.2 14.5ZM8.00001 18.4C8.00001 20.4 8.00001 22.3 8.00001 24.2C9.70001 23.2 11.4 22.3 13.1 21.3C11.4 20.4 9.70001 19.4 8.00001 18.4Z" fill="#ED342E"/>
<path d="M61.4 25.2C61.3 25.3 61.3 25.4 61.3 25.5C61.1 26.4 60.6 27 59.7 27.2C59.1 27.3 58.6 27.3 58 27.2C57.1 27 56.7 26.3 56.5 25.5C56.4 25.2 56.4 24.9 56.3 24.6C56.3 23.2 56.1 21.7 56.4 20.3C56.7 19.1 57.4 18.5 58.7 18.5C59 18.5 59.3 18.5 59.5 18.5C60.5 18.7 61 19.2 61.2 20.2C61.2 20.4 61.2 20.6 61.3 20.8C61.3 21.7 61.3 22.6 61.3 23.6C60.3 23.6 59.2 23.6 58.2 23.6C58.1 23.6 58 23.6 58.1 23.7C58.1 24.3 58.1 24.9 58.2 25.5C58.3 25.8 58.5 26 58.8 26C59.1 26 59.3 25.9 59.4 25.5C59.5 25.3 59.5 25 59.5 24.7C59.5 24.5 59.5 24.5 59.7 24.5C60.1 24.5 60.6 24.6 61 24.6C61.1 24.6 61.1 24.7 61.2 24.7C61.4 24.9 61.4 25.1 61.4 25.2ZM58.2 21.5C58.2 21.7 58.2 22 58.2 22.3C58.2 22.4 58.2 22.5 58.4 22.5C58.8 22.5 59.1 22.5 59.5 22.5C59.6 22.5 59.7 22.5 59.7 22.4C59.7 21.7 59.7 21 59.6 20.4C59.5 20.1 59.3 19.9 59 19.9C58.7 19.9 58.5 20.1 58.5 20.4C58.2 20.7 58.3 21 58.2 21.5Z" fill="#232628"/>
<path d="M52 19.5C52.3 19 52.8 18.6 53.3 18.5C54.2 18.3 54.9 18.7 55.2 19.5C55.4 20 55.5 20.5 55.5 21C55.6 22.4 55.6 23.7 55.5 25.1C55.5 25.5 55.4 25.9 55.2 26.3C55 26.9 54.6 27.3 53.9 27.4C53.2 27.5 52.6 27.2 52.1 26.7C52.1 26.6 52 26.6 52 26.5C52 26.6 51.9 26.6 51.9 26.7C51.7 27.3 51.7 27.3 51.1 27.3C50.9 27.3 50.6 27.3 50.4 27.3C50.2 27.3 50.1 27.2 50.1 27C50.1 25.2 50.1 23.4 50.1 21.5C50.1 19.5 50.1 17.4 50.1 15.4C50.1 15.1 50.2 15.1 50.4 15.1C50.8 15.1 51.2 15.1 51.6 15.1C51.9 15.1 51.9 15.2 51.9 15.4C51.9 16.8 52 18.1 52 19.5ZM53.5 23C53.5 22.5 53.5 22 53.5 21.6C53.5 21.2 53.5 20.7 53.3 20.3C53.2 19.9 52.8 19.8 52.4 20C52.1 20.2 51.9 20.5 51.9 20.9C51.9 22.4 51.9 23.8 51.9 25.3C51.9 25.7 52.1 25.9 52.4 26C52.8 26.1 53 25.9 53.2 25.6C53.3 25.5 53.3 25.3 53.3 25.2C53.5 24.4 53.5 23.7 53.5 23Z" fill="#232628"/>
<path d="M37.3 26.1C37 26.7 36.5 27.1 35.9 27.3C34.8 27.6 33.9 27 33.8 25.9C33.8 25.6 33.7 25.3 33.7 25C33.7 23 33.7 21 33.7 19C33.7 18.8 33.7 18.7 34 18.7C34.5 18.7 34.9 18.7 35.4 18.7C35.6 18.7 35.7 18.8 35.7 19C35.7 20.9 35.7 22.9 35.7 24.8C35.7 25.1 35.7 25.4 35.8 25.7C35.9 25.9 36 26 36.3 26C36.8 26 37.1 25.7 37.1 25.2C37.1 23.1 37.1 21 37.1 19C37.1 18.8 37.2 18.7 37.4 18.7C37.9 18.7 38.4 18.7 38.9 18.7C39.1 18.7 39.1 18.8 39.1 18.9C39.1 21.6 39.1 24.3 39.1 27C39.1 27.1 39.1 27.2 38.9 27.2C38.5 27.2 38.1 27.2 37.7 27.2C37.6 27.2 37.5 27.1 37.5 27C37.5 26.8 37.4 26.5 37.3 26.1Z" fill="#232628"/>
<path d="M47.2 26.1C46.9 26.7 46.5 27.1 46 27.2C44.8 27.6 43.9 26.9 43.7 25.7C43.6 25.1 43.7 24.6 43.7 24C43.7 22.3 43.7 20.6 43.7 18.9C43.7 18.7 43.8 18.6 44 18.6C44.5 18.6 44.9 18.6 45.4 18.6C45.6 18.6 45.7 18.7 45.7 18.9C45.7 20.9 45.7 22.8 45.7 24.8C45.7 25.1 45.7 25.3 45.8 25.6C45.9 25.9 46 26 46.4 26C46.8 26 47.1 25.6 47.1 25.2C47.1 23.1 47.1 21 47.1 18.9C47.1 18.7 47.1 18.6 47.4 18.6C47.9 18.6 48.4 18.6 48.8 18.6C49 18.6 49 18.6 49 18.8C49 21.5 49 24.2 49 26.9C49 27.1 49 27.1 48.8 27.1C48.4 27.1 48.1 27.1 47.7 27.1C47.6 27.1 47.5 27.1 47.5 26.9C47.4 26.8 47.3 26.5 47.2 26.1Z" fill="#232628"/>
<path d="M32.8 23.1C32.8 23.7 32.8 24.5 32.6 25.3C32.3 26.7 31.5 27.4 30.1 27.4C29.8 27.4 29.5 27.4 29.2 27.3C28.3 27.1 27.8 26.4 27.6 25.5C27.5 25.1 27.5 24.7 27.5 24.3C27.5 23 27.4 21.8 27.6 20.5C27.9 18.9 29 18.3 30.6 18.5C31.8 18.6 32.5 19.2 32.7 20.9C32.8 21.6 32.8 22.3 32.8 23.1ZM29.4 22.9C29.4 23.4 29.4 24 29.4 24.5C29.4 24.9 29.4 25.2 29.6 25.6C29.7 25.8 29.9 26 30.1 26C30.4 26 30.5 25.9 30.6 25.6C30.7 25.4 30.7 25.2 30.7 25C30.8 23.7 30.7 22.4 30.7 21.1C30.7 20.8 30.7 20.4 30.5 20.1C30.4 19.9 30.2 19.7 30 19.7C29.7 19.7 29.6 19.8 29.5 20.1C29.4 20.3 29.4 20.5 29.4 20.7C29.4 21.5 29.5 22.2 29.4 22.9Z" fill="#232628"/>
<path d="M21.7 15.5C22.3 15.5 22.9 15.5 23.5 15.5C23.7 15.5 23.7 15.6 23.7 15.7C24.1 17.5 24.5 19.4 24.8 21.2C24.8 21.2 24.8 21.2 24.8 21.3C25 20.4 25.2 19.5 25.4 18.5C25.6 17.5 25.8 16.6 26 15.6C26 15.5 26 15.4 26.2 15.4C26.8 15.4 27.4 15.4 28 15.4C27.8 16.1 27.6 16.7 27.4 17.4C26.9 19.3 26.3 21.2 25.8 23.2C25.8 23.3 25.8 23.5 25.8 23.6C25.8 24.7 25.8 25.8 25.8 26.9C25.8 27.1 25.8 27.2 25.5 27.2C25.1 27.2 24.6 27.2 24.2 27.2C24 27.2 23.9 27.2 23.9 26.9C23.9 26.3 23.9 25.6 23.9 25C24 23.9 23.8 22.9 23.5 21.9C22.9 19.8 22.3 17.7 21.8 15.6C21.7 15.6 21.7 15.6 21.7 15.5Z" fill="#232628"/>
<path d="M42.4 22.1C42.4 23.7 42.4 25.3 42.4 26.9C42.4 27.1 42.3 27.2 42.1 27.2C41.7 27.2 41.2 27.2 40.8 27.2C40.6 27.2 40.5 27.1 40.5 26.9C40.5 24.2 40.5 21.6 40.5 18.9C40.5 18.4 40.5 17.8 40.5 17.3C40.5 17.1 40.5 17 40.3 17C39.8 17 39.3 17 38.9 17C38.7 17 38.7 17 38.7 16.8C38.7 16.4 38.7 16.1 38.7 15.7C38.7 15.5 38.7 15.5 38.9 15.5C40.7 15.5 42.4 15.5 44.2 15.5C44.4 15.5 44.4 15.6 44.4 15.7C44.4 16.1 44.4 16.5 44.4 16.8C44.4 17 44.4 17 44.2 17C43.7 17 43.3 17 42.8 17C42.5 17 42.4 17 42.5 17.3C42.4 19 42.4 20.5 42.4 22.1Z" fill="#232628"/>
<path d="M8 18.4C9.7 19.4 11.3 20.3 13.1 21.3C11.4 22.3 9.7 23.2 8 24.2C8 22.3 8 20.4 8 18.4Z" fill="white"/>
<path fill-rule="evenodd" clip-rule="evenodd" d="M117.4 22.4C117.4 27.4 121.5 31.5 126.5 31.5C131.5 31.5 135.6 27.4 135.6 22.4C135.6 17.4 131.5 13.3 126.5 13.3C121.5 13.3 117.4 17.4 117.4 22.4Z" fill="url(#paint0_radial_152_4)"/>
<path fill-rule="evenodd" clip-rule="evenodd" d="M133.1 12.6H119.7V16.2H133.1V12.6ZM119.7 32.2H133.1V28.6H119.7V32.2ZM116.4 24.7H136.5V20H116.4V24.7Z" fill="url(#paint1_linear_152_4)"/>
<path d="M140.1 18.2H146.1C148.5 18.2 149 19.2 149 20.2V20.3C149 21.3 148.1 21.9 147.5 21.9C148.4 22 149.4 22.6 149.4 24V24.1C149.4 25.2 148.7 26.5 146.1 26.5H140L140.1 18.2ZM142.4 19.9V21.4H145.8C146.5 21.4 146.7 21.1 146.7 20.7C146.7 20.3 146.5 20 145.8 20H142.4V19.9ZM142.4 23V24.6H146C146.8 24.6 147 24.2 147 23.8C147 23.4 146.8 23 146 23H142.4Z" fill="black"/>
<path d="M154.7 26.6H154.3C151.3 26.6 150.5 24.9 150.5 23.4V23.2C150.5 21.8 151.2 20 154.1 20H154.6C157.7 20 158.3 21.8 158.3 23.5V23.7H152.7C152.8 24.4 153.2 25 154.6 25C155.9 25 156 24.5 156.1 24.4H158.3C158.3 25.1 157.9 26.6 154.7 26.6ZM152.7 22.7H156C156 22.2 155.8 21.6 154.4 21.6C153.2 21.6 152.9 22 152.7 22.7Z" fill="black"/>
<path d="M163.4 26.6H163C160 26.6 159.2 24.9 159.2 23.4V23.2C159.2 21.8 159.9 20 162.8 20H163.3C166.4 20 167 21.8 167 23.5V23.7H161.4C161.5 24.4 161.9 25 163.3 25C164.6 25 164.7 24.5 164.8 24.4H167C167 25.1 166.6 26.6 163.4 26.6ZM161.5 22.7H164.8C164.8 22.2 164.6 21.6 163.2 21.6C162 21.6 161.6 22 161.5 22.7Z" fill="black"/>
<path d="M170.3 26.5H168.1V18H170.3V26.5Z" fill="black"/>
<path d="M173.8 19.6H171.6V18H173.8V19.6ZM173.8 26.5H171.6V20.3H173.8V26.5Z" fill="black"/>
<path d="M175 20.3H177.1V21.3C177.4 21 178.2 20.2 179.6 20.2H179.7C181.5 20.2 182.3 21.4 182.3 22.5V26.5H180.1V23.3C180.1 22.6 179.7 21.9 178.6 21.9C177.5 21.9 177 22.6 177 23.4V26.5H175V20.3Z" fill="black"/>
<path d="M187.7 26.6H187.3C184.3 26.6 183.5 24.9 183.5 23.4V23.2C183.5 21.8 184.2 20 187.1 20H187.6C190.7 20 191.3 21.8 191.3 23.5V23.7H185.7C185.8 24.4 186.2 25 187.6 25C188.9 25 189 24.5 189.1 24.4H191.3C191.3 25.1 190.9 26.6 187.7 26.6ZM185.8 22.7H189.1C189.1 22.2 188.9 21.6 187.5 21.6C186.3 21.6 185.9 22 185.8 22.7Z" fill="black"/>
<path d="M192.2 20.6C191 20.6 190.7 19.9 190.7 19.4V19.3C190.7 18.8 191 18.1 192.2 18.1H192.4C193.6 18.1 193.9 18.8 193.9 19.3V19.4C193.9 20 193.5 20.6 192.4 20.6H192.2ZM192.3 20.2C193.4 20.2 193.5 19.7 193.5 19.2C193.5 18.8 193.4 18.3 192.3 18.3C191.2 18.3 191.1 18.8 191.1 19.2C191.1 19.7 191.2 20.2 192.3 20.2ZM192 19.9H191.5V18.6H192.6C193 18.6 193.1 18.7 193.1 18.9C193.1 19.1 193 19.2 192.8 19.2C193 19.2 193.1 19.4 193.1 19.5V19.7C193.1 19.8 193.1 19.8 193.1 19.8H192.6C192.6 19.8 192.6 19.8 192.6 19.7V19.6C192.6 19.5 192.6 19.4 192.4 19.4H192V19.9ZM192.5 19.2C192.6 19.2 192.6 19.1 192.6 19.1C192.6 19 192.6 19 192.5 19H192V19.2H192.5Z" fill="black"/>
<defs>
<radialGradient id="paint0_radial_152_4" cx="0" cy="0" r="1" gradientUnits="userSpaceOnUse" gradientTransform="translate(129.152 20.6854) rotate(103.777) scale(11.1682 11.1695)">
<stop stop-color="#FBE993"/>
<stop offset="0.4262" stop-color="#FDE622"/>
<stop offset="1" stop-color="#F5B732"/>
</radialGradient>
<linearGradient id="paint1_linear_152_4" x1="117.369" y1="22.3789" x2="135.6" y2="22.3789" gradientUnits="userSpaceOnUse">
<stop stop-color="#2B2B2B"/>
<stop offset="0.1528" stop-color="#131313"/>
<stop offset="0.746" stop-color="#131313"/>
<stop offset="1" stop-color="#1B1B1B"/>
</linearGradient>
</defs>
</svg>
