<svg width="12" height="11" viewBox="0 0 12 11" fill="none" xmlns="http://www.w3.org/2000/svg">
<path d="M11.9 3.70001C11.9 2.10001 10.6 0.700012 8.9 0.700012C7.7 0.700012 6.7 1.40002 6.2 2.40002C5.7 1.40002 4.7 0.700012 3.5 0.700012C1.9 0.700012 0.5 2.00001 0.5 3.70001C0.5 4.00001 0.599997 4.40001 0.699997 4.70001C0.799997 5.10001 1 5.40001 1.3 5.70001C1.4 5.80001 1.5 5.9 1.6 6L6.1 10.5H6.2H6.3L11 5.79999C11.3 5.49999 11.5 5.10001 11.7 4.70001C11.8 4.30001 11.9 4.00001 11.9 3.70001Z" fill="#0F55A0"/>
</svg>
