<svg width="198" height="51" viewBox="0 0 198 51" fill="none" xmlns="http://www.w3.org/2000/svg">
<path fill-rule="evenodd" clip-rule="evenodd" d="M162 1.50001L164.3 3.8C165.1 4.6 165.1 6 164.3 6.8L162 9.00001C161.2 9.80001 159.8 9.80001 159 9.00001L156.7 6.70003C155.9 5.90003 155.9 4.50003 156.7 3.70003L159 1.40004C159.9 0.700039 161.2 0.700014 162 1.50001Z" fill="#05143C"/>
<path d="M62.5 22.3C62.5 15.7 58.5 10.3 50.3 10.3C42.8 10.3 38 15.4 38 22.3C38 29.5 42.9 34.3 50 34.3C59.4 34.4 62.5 27.6 62.5 22.3ZM44.6 22.4C44.6 18.8 47 16.5 50.3 16.5C53.7 16.5 55.9 18.7 55.9 22.4C55.9 26 53.8 28.4 50.3 28.4C46.9 28.5 44.6 26 44.6 22.4Z" fill="#05143C"/>
<path d="M79.3 28.5H79.7C80 28.5 80.2 28.7 80.2 29V33.1C80.2 33.4 80.4 33.6 80.7 33.6H85.5C85.8 33.6 86 33.4 86 33.1V11.4C86 11.1 85.8 10.9 85.5 10.9H80.3C80 10.9 79.8 11.1 79.8 11.4V24C79.8 26.3 78.4 28.5 75.2 28.5C72.5 28.5 71.1 27.1 71.1 24V11.4C71.1 11.1 70.9 10.9 70.6 10.9H65.4C65.1 10.9 64.9 11.1 64.9 11.4V25C64.9 30 67.3 34.1 72.9 34.1C77.3 34.1 78.9 31.7 79.3 28.5Z" fill="#05143C"/>
<path d="M101 16.4C103.9 16.4 105.5 17.8 105.5 20.9V33C105.5 33.3 105.7 33.5 106 33.5H111.2C111.5 33.5 111.7 33.3 111.7 33V19.2C111.7 13.7 108.8 10.3 103.7 10.3C98.4 10.3 96.9 13.5 96.8 16.8H96.3C96 16.8 95.8 16.6 95.8 16.3V11.4C95.8 11.1 95.6 10.9 95.3 10.9H90.5C90.2 10.9 90 11.1 90 11.4V33.1C90 33.4 90.2 33.6 90.5 33.6H95.7C96 33.6 96.2 33.4 96.2 33.1V21C96.3 17.9 98.5 16.4 101 16.4Z" fill="#05143C"/>
<path d="M128.9 32.9V28.2C128.9 28 128.8 27.9 128.7 27.8C128.6 27.7 128.4 27.7 128.2 27.7C127.8 27.8 127.2 27.9 126.6 27.9C124.7 27.9 123.5 27.4 123.5 25.4V17.8C123.5 17.5 123.7 17.3 124 17.3H128.3C128.6 17.3 128.8 17.1 128.8 16.8V11.6C128.8 11.3 128.6 11.1 128.3 11.1H124C123.7 11.1 123.5 10.9 123.5 10.6V5.90002C123.5 5.60002 123.3 5.40002 123 5.40002H118C117.7 5.40002 117.5 5.60002 117.5 5.90002V8.29999C117.5 10.1 116.8 11.1 114.7 11.1H114.4C114.1 11.1 113.9 11.3 113.9 11.6V16.8C113.9 17.1 114.1 17.3 114.4 17.3H122.1V17.7C122.1 18 121.9 18.2 121.6 18.2C118.7 18.4 117.2 19.9 117.2 22.4V25.1C117.2 30 119.2 33.9 125 33.9C127 33.9 128 33.6 128.5 33.4C128.7 33.3 128.9 33.1 128.9 32.9Z" fill="#05143C"/>
<path d="M157.4 11.5V33.2C157.4 33.5 157.6 33.7 157.9 33.7H163.1C163.4 33.7 163.6 33.5 163.6 33.2V11.5C163.6 11.2 163.4 11 163.1 11H157.9C157.6 10.9 157.4 11.2 157.4 11.5Z" fill="#05143C"/>
<path d="M178.7 16.4C181.6 16.4 183.2 17.8 183.2 20.9V33C183.2 33.3 183.4 33.5 183.7 33.5H188.9C189.2 33.5 189.4 33.3 189.4 33V19.2C189.4 13.7 186.5 10.3 181.4 10.3C176.1 10.3 174.6 13.5 174.5 16.8H174C173.7 16.8 173.5 16.6 173.5 16.3V11.4C173.5 11.1 173.3 10.9 173 10.9H168.2C167.9 10.9 167.7 11.1 167.7 11.4V33.1C167.7 33.4 167.9 33.6 168.2 33.6H173.4C173.7 33.6 173.9 33.4 173.9 33.1V21C174 17.9 176.2 16.4 178.7 16.4Z" fill="#05143C"/>
<path d="M141.4 27.8C138.5 27.8 136.9 26.4 136.9 23.3V22.5C136.9 18 139.6 16.4 142 16.4C144.2 16.5 146.2 18.1 146.2 20.4C146.2 21.4 146.2 22.3 146.2 23.3C146.2 26.3 143.9 27.8 141.4 27.8ZM130.7 24.9C130.7 30.4 133.6 33.8 138.7 33.8C143.7 33.8 145.3 30.9 145.6 27.8C145.6 27.5 145.9 27.3 146.1 27.3H146.6C146.8 27.5 146.8 28.6 146.8 28.9C146.8 31.9 148.3 33.8 151.9 33.8C153.1 33.8 153.9 33.6 154.3 33.4C154.5 33.3 154.7 33.1 154.7 32.9V28.7C154.7 28.5 154.6 28.4 154.5 28.3C154.4 28.2 154.2 28.2 154.1 28.2C153.9 28.2 153.8 28.2 153.6 28.2C153 28.2 152.5 28 152.5 27.3V19.1C152.5 6.09997 130.7 7.69997 130.7 21.1V24.9Z" fill="#05143C"/>
<path d="M10.6 16.4C12.8 16.4 14.7 17.4 14.7 20.7V33.1C14.7 33.4 14.9 33.6 15.2 33.6H20.4C20.7 33.6 20.9 33.4 20.9 33.1V20.7C20.9 17.8 22.9 16.4 24.9 16.4C27 16.4 29 17.4 29 20.7V33.1C29 33.4 29.2 33.6 29.5 33.6H34.7C35 33.6 35.2 33.4 35.2 33.1V19.3C35.2 14 33.2 10.5 27.8 10.5C23 10.5 21.3 13.6 21.3 16.9H20.8C20.5 16.9 20.3 16.7 20.3 16.4C19.7 12.4 17.2 10.5 13.3 10.5C9 10.5 7.1 13.2 6.9 16.9H6.4C6.1 16.9 5.9 16.7 5.9 16.4V11.6C5.9 11.3 5.7 11.1 5.4 11.1H0.599998C0.299998 11.1 0.0999985 11.3 0.0999985 11.6V33.3C0.0999985 33.6 0.299998 33.8 0.599998 33.8H6C6.3 33.8 6.5 33.6 6.5 33.3V20.8C6.5 17.7 8.6 16.4 10.6 16.4Z" fill="#05143C"/>
<path d="M193.3 5.20001C194.3 5.20001 195.3 5.59999 196 6.29999C196.7 6.99999 197.1 7.9 197.1 9C197.1 10 196.7 11 196 11.7C195.3 12.4 194.4 12.8 193.3 12.8C192.2 12.8 191.3 12.4 190.6 11.7C189.9 11 189.5 10.1 189.5 9C189.5 8 189.9 6.99999 190.6 6.29999C191.3 5.59999 192.2 5.20001 193.3 5.20001ZM195.4 6.79999C194.8 6.19999 194.1 5.90002 193.2 5.90002C192.4 5.90002 191.6 6.19999 191 6.79999C190.4 7.39999 190.1 8.1 190.1 9C190.1 9.8 190.4 10.6 191 11.2C191.6 11.8 192.3 12.1 193.2 12.1C194.1 12.1 194.8 11.8 195.4 11.2C196 10.6 196.3 9.9 196.3 9C196.3 8.1 196 7.29999 195.4 6.79999Z" fill="#05143C"/>
<path d="M191.8 10.9V7.09998H193.4C193.8 7.09998 194.1 7.10001 194.3 7.20001C194.5 7.30001 194.6 7.39998 194.7 7.59998C194.8 7.79998 194.9 8.00001 194.9 8.20001C194.9 8.50001 194.8 8.70002 194.6 8.90002C194.4 9.10002 194.2 9.19999 193.8 9.29999C194 9.39999 194.1 9.49998 194.2 9.59998C194.3 9.69998 194.5 9.90001 194.6 10.2L195.1 10.9H194.2L193.6 10.1C193.4 9.79998 193.3 9.6 193.2 9.5C193.1 9.4 193 9.39999 193 9.29999C192.9 9.29999 192.8 9.29999 192.6 9.29999H192.4V10.9H191.8ZM192.6 8.70001H193.2C193.6 8.70001 193.8 8.70001 193.9 8.70001C194 8.70001 194.1 8.6 194.1 8.5C194.2 8.4 194.2 8.30001 194.2 8.20001C194.2 8.10001 194.2 8.00002 194.1 7.90002C194 7.80002 193.9 7.79999 193.8 7.79999C193.7 7.79999 193.5 7.79999 193.2 7.79999H192.6V8.70001Z" fill="#05143C"/>
<path d="M0.299999 50.5V41.3H5.2C5.7 41.3 6.2 41.4 6.5 41.6C6.9 41.8 7.2 42 7.4 42.4C7.6 42.7 7.7 43.1 7.7 43.6C7.7 43.9 7.6 44.3 7.5 44.5C7.4 44.8 7.2 45 7 45.2C6.8 45.4 6.5 45.5 6.2 45.6V45.7C6.5 45.8 6.8 45.9 7.1 46.1C7.4 46.3 7.6 46.5 7.7 46.8C7.8 47.1 7.9 47.5 7.9 47.9C7.9 48.5 7.8 49 7.5 49.3C7.2 49.7 6.9 49.9 6.5 50.1C6.1 50.3 5.6 50.4 5.1 50.4H0.299999V50.5ZM1.8 49.2H5C5.4 49.2 5.7 49.1 6 48.9C6.3 48.7 6.4 48.3 6.4 47.8C6.4 47.5 6.3 47.3 6.2 47C6.1 46.8 5.9 46.6 5.7 46.5C5.5 46.4 5.2 46.3 4.9 46.3H1.8V49.2ZM1.8 45.2H4.8C5.1 45.2 5.3 45.1 5.5 45C5.7 44.9 5.9 44.7 6 44.5C6.1 44.3 6.2 44.1 6.2 43.8C6.2 43.4 6.1 43 5.8 42.8C5.6 42.6 5.3 42.5 4.9 42.5H1.8V45.2ZM9.7 50.5V41.3H14.5C15.1 41.3 15.7 41.4 16.1 41.6C16.5 41.8 16.8 42.2 17.1 42.6C17.3 43 17.4 43.5 17.4 44C17.4 44.6 17.3 45.1 17 45.6C16.7 46.1 16.3 46.4 15.8 46.6L17.7 50.4H16.1L14.4 46.9H11.2V50.4H9.7V50.5ZM11.2 45.7H14.4C14.9 45.7 15.3 45.6 15.5 45.3C15.8 45 15.9 44.6 15.9 44.1C15.9 43.8 15.8 43.5 15.7 43.3C15.6 43.1 15.4 42.9 15.2 42.8C15 42.7 14.7 42.6 14.4 42.6H11.2V45.7ZM18.3 50.5L21.9 41.3H23.8L27.4 50.5H25.8L25 48.4H20.7L19.9 50.5H18.3ZM21.1 47.1H24.5L23.5 44.4C23.5 44.3 23.4 44.2 23.4 44.1C23.4 44 23.3 43.8 23.2 43.6C23.1 43.4 23.1 43.3 23 43.1C22.9 42.9 22.9 42.8 22.8 42.6H22.7C22.6 42.8 22.6 43 22.5 43.2C22.4 43.4 22.3 43.7 22.3 43.9C22.3 44.1 22.2 44.3 22.1 44.4L21.1 47.1ZM28.6 50.5V41.3H30L34.2 47C34.3 47.1 34.3 47.1 34.4 47.2C34.5 47.3 34.5 47.4 34.6 47.5C34.7 47.6 34.7 47.7 34.7 47.7H34.8C34.8 47.6 34.8 47.4 34.8 47.3C34.8 47.2 34.8 47.1 34.8 46.9V41.2H36.2V50.4H34.8L30.6 44.6C30.5 44.5 30.4 44.4 30.3 44.2C30.2 44 30.1 43.9 30.1 43.8H30C30 43.9 30 44.1 30 44.2C30 44.3 30 44.5 30 44.6V50.4L28.6 50.5ZM38.4 50.5V41.3H41.9C42.8 41.3 43.6 41.5 44.3 41.8C45 42.1 45.5 42.6 45.8 43.3C46.2 44 46.3 44.8 46.3 45.9C46.3 47 46.1 47.8 45.8 48.5C45.4 49.2 44.9 49.7 44.3 50C43.6 50.3 42.8 50.5 41.9 50.5H38.4ZM39.9 49.2H41.9C42.4 49.2 42.8 49.1 43.2 49C43.6 48.9 43.9 48.7 44.1 48.4C44.4 48.1 44.5 47.8 44.7 47.4C44.8 47 44.9 46.5 44.9 46V45.7C44.9 45.1 44.8 44.7 44.7 44.3C44.6 43.9 44.4 43.6 44.1 43.3C43.8 43 43.5 42.9 43.2 42.7C42.8 42.6 42.4 42.5 41.9 42.5H39.9V49.2ZM48.1 50.5V41.3H49.6V50.5H48.1ZM51.8 50.5V41.3H53.2L57.4 47C57.5 47.1 57.5 47.1 57.6 47.2C57.7 47.3 57.7 47.4 57.8 47.5C57.9 47.6 57.9 47.7 57.9 47.7H58C58 47.6 58 47.4 58 47.3C58 47.2 58 47.1 58 46.9V41.2H59.4V50.4H58L53.8 44.6C53.7 44.5 53.6 44.4 53.5 44.2C53.4 44 53.3 43.9 53.3 43.8H53.2C53.2 43.9 53.2 44.1 53.2 44.2C53.2 44.3 53.2 44.5 53.2 44.6V50.4L51.8 50.5ZM65.7 50.6C64.2 50.6 63.1 50.2 62.4 49.5C61.6 48.7 61.2 47.5 61.2 45.9C61.2 44.8 61.4 43.9 61.7 43.2C62.1 42.5 62.6 42 63.3 41.6C64 41.3 64.8 41.1 65.8 41.1C66.4 41.1 67 41.2 67.5 41.3C68 41.4 68.5 41.6 68.8 41.9C69.2 42.2 69.5 42.5 69.7 42.9C69.9 43.3 70 43.8 70 44.4H68.5C68.5 44.1 68.4 43.8 68.3 43.5C68.2 43.2 68 43 67.7 42.9C67.5 42.7 67.2 42.6 66.8 42.5C66.4 42.4 66.1 42.4 65.8 42.4C65.3 42.4 64.8 42.5 64.4 42.6C64 42.7 63.7 42.9 63.4 43.2C63.1 43.5 62.9 43.8 62.8 44.2C62.7 44.6 62.6 45.1 62.6 45.7V46C62.6 46.8 62.7 47.4 62.9 47.9C63.1 48.4 63.5 48.7 63.9 49C64.3 49.2 64.9 49.3 65.5 49.3C66.1 49.3 66.6 49.2 67 49C67.4 48.8 67.7 48.6 68 48.2C68.2 47.8 68.3 47.4 68.3 46.9V46.8H65.2V45.6H69.8V50.5H69L68.9 49.4C68.7 49.7 68.4 49.9 68 50.1C67.7 50.3 67.3 50.4 67 50.5C66.6 50.6 66.2 50.6 65.7 50.6ZM73.9 50.5L77.5 41.3H79.4L83 50.5H81.4L80.6 48.4H76.3L75.5 50.5H73.9ZM76.8 47.1H80.2L79.2 44.4C79.2 44.3 79.1 44.2 79.1 44.1C79 44 79 43.8 78.9 43.6C78.8 43.4 78.8 43.3 78.7 43.1C78.6 42.9 78.6 42.8 78.5 42.6H78.4C78.3 42.8 78.3 43 78.2 43.2C78.1 43.4 78 43.7 78 43.9C78 44.1 77.9 44.3 77.8 44.4L76.8 47.1ZM88.2 50.6C86.7 50.6 85.6 50.2 84.9 49.5C84.1 48.7 83.7 47.5 83.7 45.9C83.7 44.8 83.9 43.9 84.2 43.2C84.6 42.5 85.1 42 85.8 41.6C86.5 41.3 87.3 41.1 88.3 41.1C88.9 41.1 89.5 41.2 90 41.3C90.5 41.4 91 41.6 91.3 41.9C91.7 42.2 92 42.5 92.2 42.9C92.4 43.3 92.5 43.8 92.5 44.4H91C91 44.1 90.9 43.8 90.8 43.5C90.7 43.2 90.5 43 90.2 42.9C90 42.7 89.7 42.6 89.3 42.5C89 42.4 88.6 42.4 88.3 42.4C87.8 42.4 87.3 42.5 86.9 42.6C86.5 42.7 86.2 42.9 85.9 43.2C85.6 43.5 85.4 43.8 85.3 44.2C85.2 44.6 85.1 45.1 85.1 45.7V46C85.1 46.8 85.2 47.4 85.4 47.9C85.6 48.4 86 48.7 86.4 49C86.8 49.2 87.4 49.3 88 49.3C88.6 49.3 89.1 49.2 89.5 49C89.9 48.8 90.2 48.6 90.5 48.2C90.7 47.8 90.8 47.4 90.8 46.9V46.8H88V45.6H92.6V50.5H91.5L91.4 49.4C91.2 49.7 90.9 49.9 90.5 50.1C90.2 50.3 89.8 50.4 89.5 50.5C89.1 50.6 88.6 50.6 88.2 50.6ZM94.6 50.5V41.3H101.7V42.6H96.1V45.1H101.1V46.4H96.1V49.2H101.8V50.5H94.6ZM103.6 50.5V41.3H105L109.2 47C109.3 47.1 109.3 47.1 109.4 47.2C109.5 47.3 109.5 47.4 109.6 47.5C109.7 47.6 109.7 47.7 109.7 47.7H109.8C109.8 47.6 109.8 47.4 109.8 47.3C109.8 47.2 109.8 47.1 109.8 46.9V41.2H111.2V50.4H109.8L105.6 44.6C105.5 44.5 105.4 44.4 105.3 44.2C105.2 44 105.1 43.9 105.1 43.8H105C105 43.9 105 44.1 105 44.2C105 44.3 105 44.5 105 44.6V50.4L103.6 50.5ZM117.4 50.6C116.5 50.6 115.7 50.4 115 50.1C114.3 49.8 113.8 49.2 113.5 48.5C113.2 47.8 113 46.9 113 45.8C113 44.2 113.4 43 114.2 42.2C115 41.4 116.1 41 117.5 41C118.3 41 119 41.1 119.6 41.4C120.2 41.7 120.7 42 121 42.6C121.4 43.1 121.5 43.8 121.5 44.6H120C120 44.1 119.9 43.7 119.7 43.4C119.5 43.1 119.2 42.8 118.8 42.7C118.4 42.5 118 42.4 117.5 42.4C116.9 42.4 116.3 42.5 115.9 42.8C115.5 43 115.1 43.4 114.9 43.9C114.7 44.4 114.6 45 114.6 45.8V46.1C114.6 46.9 114.7 47.5 114.9 48C115.1 48.5 115.4 48.9 115.9 49.1C116.3 49.3 116.9 49.5 117.5 49.5C118 49.5 118.5 49.4 118.8 49.3C119.2 49.1 119.5 48.9 119.7 48.6C119.9 48.3 120 47.9 120 47.4H121.5C121.5 48.2 121.3 48.8 121 49.4C120.6 49.9 120.2 50.3 119.6 50.5C118.9 50.5 118.2 50.6 117.4 50.6ZM125.6 50.5V46.7L122 41.3H123.7L126.3 45.4H126.4L129 41.3H130.6L127 46.7V50.5H125.6Z" fill="#05143C"/>
</svg>
