<svg width="142" height="36" viewBox="0 0 142 36" fill="none" xmlns="http://www.w3.org/2000/svg">
<path fill-rule="evenodd" clip-rule="evenodd" d="M116.1 0.5L117.7 2.1C118.3 2.7 118.3 3.6 117.7 4.2L116.1 5.8C115.5 6.4 114.6 6.4 114 5.8L112.4 4.2C111.8 3.6 111.8 2.7 112.4 2.1L114 0.5C114.6 0 115.5 0 116.1 0.5Z" fill="white"/>
<path d="M44.7 15.5C44.7 10.7 41.8 6.90002 35.9 6.90002C30.5 6.90002 27.1 10.6 27.1 15.5C27.1 20.7 30.6 24.1 35.7 24.1C42.5 24.1 44.7 19.3 44.7 15.5ZM31.8 15.6C31.8 13 33.5 11.4 35.9 11.4C38.3 11.4 39.9 13 39.9 15.6C39.9 18.2 38.4 19.9 35.9 19.9C33.5 19.9 31.8 18.1 31.8 15.6Z" fill="white"/>
<path d="M56.8 19.9H57.1C57.3 19.9 57.5 20.1 57.5 20.3V23.2C57.5 23.4 57.7 23.6 57.9 23.6H61.4C61.6 23.6 61.8 23.4 61.8 23.2V7.69999C61.8 7.49999 61.6 7.29999 61.4 7.29999H57.7C57.5 7.29999 57.3 7.49999 57.3 7.69999V16.7C57.3 18.3 56.3 19.9 54 19.9C52.1 19.9 51.1 18.9 51.1 16.7V7.69999C51.1 7.49999 50.9 7.29999 50.7 7.29999H47C46.8 7.29999 46.6 7.49999 46.6 7.69999V17.4C46.6 21 48.3 24 52.3 24C55.3 24 56.4 22.2 56.8 19.9Z" fill="white"/>
<path d="M72.3 11.2C74.4 11.2 75.5 12.2 75.5 14.5V23.2C75.5 23.4 75.7 23.6 75.9 23.6H79.6C79.8 23.6 80 23.4 80 23.2V13.3C80 9.30002 77.9 6.90002 74.2 6.90002C70.4 6.90002 69.3 9.20002 69.2 11.5H69C68.8 11.5 68.6 11.3 68.6 11.1V7.60002C68.6 7.40002 68.4 7.20002 68.2 7.20002H64.8C64.6 7.20002 64.4 7.40002 64.4 7.60002V23.1C64.4 23.3 64.6 23.5 64.8 23.5H68.5C68.7 23.5 68.9 23.3 68.9 23.1V14.4C68.9 12.3 70.6 11.2 72.3 11.2Z" fill="white"/>
<path d="M92.3 23.1V19.7C92.3 19.6 92.2 19.5 92.2 19.4C92.2 19.3 92 19.3 91.9 19.3C91.6 19.4 91.2 19.4 90.7 19.4C89.3 19.4 88.5 19 88.5 17.6V12.1C88.5 11.9 88.7 11.7 88.9 11.7H92C92.2 11.7 92.4 11.5 92.4 11.3V7.5C92.4 7.3 92.2 7.1 92 7.1H88.9C88.7 7.1 88.5 6.9 88.5 6.7V3.4C88.5 3.2 88.3 3 88.1 3H84.5C84.3 3 84.1 3.2 84.1 3.4V5.1C84.1 6.4 83.6 7.1 82.1 7.1H81.9C81.7 7.1 81.5 7.3 81.5 7.5V11.3C81.5 11.5 81.7 11.7 81.9 11.7H87.5V12C87.5 12.2 87.3 12.4 87.1 12.4C85 12.5 84 13.6 84 15.4V17.4C84 20.9 85.5 23.7 89.6 23.7C91 23.7 91.8 23.5 92.1 23.4C92.2 23.4 92.3 23.2 92.3 23.1Z" fill="white"/>
<path d="M112.8 7.69999V23.2C112.8 23.4 113 23.6 113.2 23.6H116.9C117.1 23.6 117.3 23.4 117.3 23.2V7.69999C117.3 7.49999 117.1 7.29999 116.9 7.29999H113.2C113 7.29999 112.8 7.49999 112.8 7.69999Z" fill="white"/>
<path d="M128.1 11.2C130.2 11.2 131.3 12.2 131.3 14.5V23.2C131.3 23.4 131.5 23.6 131.7 23.6H135.4C135.6 23.6 135.8 23.4 135.8 23.2V13.3C135.8 9.30002 133.7 6.90002 130 6.90002C126.2 6.90002 125.1 9.20002 125 11.5H124.7C124.5 11.5 124.3 11.3 124.3 11.1V7.60002C124.3 7.40002 124.1 7.20002 123.9 7.20002H120.5C120.3 7.20002 120.1 7.40002 120.1 7.60002V23.1C120.1 23.3 120.3 23.5 120.5 23.5H124.2C124.4 23.5 124.6 23.3 124.6 23.1V14.4C124.7 12.3 126.3 11.2 128.1 11.2Z" fill="white"/>
<path d="M101.3 19.4C99.2 19.4 98.1 18.4 98.1 16.1V15.5C98.1 12.3 100 11.1 101.8 11.2C103.4 11.2 104.8 12.4 104.8 14C104.8 14.7 104.8 15.4 104.8 16.1C104.8 18.4 103.1 19.4 101.3 19.4ZM93.6 17.3C93.6 21.3 95.7 23.7 99.4 23.7C103 23.7 104.1 21.6 104.3 19.4C104.3 19.2 104.5 19 104.7 19H105.1C105.2 19.1 105.3 19.9 105.3 20.2C105.3 22.4 106.4 23.7 109 23.7C109.8 23.7 110.4 23.6 110.7 23.4C110.9 23.3 111 23.2 111 23V20C111 19.9 111 19.8 110.9 19.7C110.8 19.6 110.7 19.6 110.6 19.6C110.5 19.6 110.4 19.6 110.2 19.6C109.8 19.6 109.4 19.5 109.4 19V13.1C109.4 3.80001 93.7 4.90001 93.7 14.5L93.6 17.3Z" fill="white"/>
<path d="M7.5 11.2C9.1 11.2 10.5 12 10.5 14.3V23.2C10.5 23.4 10.7 23.6 10.9 23.6H14.6C14.8 23.6 15 23.4 15 23.2V14.3C15 12.2 16.4 11.2 17.9 11.2C19.4 11.2 20.9 11.9 20.9 14.3V23.2C20.9 23.4 21.1 23.6 21.3 23.6H25C25.2 23.6 25.4 23.4 25.4 23.2V13.3C25.4 9.5 24 7 20.1 7C16.7 7 15.5 9.3 15.4 11.6H15C14.8 11.6 14.6 11.5 14.6 11.3C14.2 8.4 12.4 7.1 9.60001 7.1C6.50001 7.1 5.2 9 5 11.7H4.7C4.5 11.7 4.3 11.5 4.3 11.3V7.8C4.3 7.6 4.09999 7.4 3.89999 7.4H0.5C0.3 7.4 0.100006 7.6 0.100006 7.8V23.3C0.100006 23.5 0.3 23.7 0.5 23.7H4.2C4.4 23.7 4.60001 23.5 4.60001 23.3V14.4C4.50001 12.2 6 11.2 7.5 11.2Z" fill="white"/>
<path d="M138.5 3.20001C139.2 3.20001 139.9 3.50001 140.4 4.00001C140.9 4.50001 141.2 5.20001 141.2 5.90001C141.2 6.60001 140.9 7.30001 140.4 7.80001C139.9 8.30001 139.2 8.60001 138.5 8.60001C137.8 8.60001 137.1 8.30001 136.6 7.80001C136.1 7.30001 135.8 6.60001 135.8 5.90001C135.8 5.20001 136.1 4.50001 136.6 4.00001C137.1 3.50001 137.8 3.20001 138.5 3.20001ZM140.1 4.30001C139.7 3.90001 139.1 3.70001 138.5 3.70001C137.9 3.70001 137.3 3.90001 136.9 4.30001C136.5 4.70001 136.3 5.30001 136.3 5.90001C136.3 6.50001 136.5 7.10001 136.9 7.50001C137.3 7.90001 137.9 8.10001 138.5 8.10001C139.1 8.10001 139.7 7.90001 140.1 7.50001C140.5 7.10001 140.7 6.50001 140.7 5.90001C140.7 5.30001 140.5 4.70001 140.1 4.30001Z" fill="white"/>
<path d="M137.5 7.30004V4.60004H138.7C139 4.60004 139.2 4.60004 139.3 4.70004C139.4 4.70004 139.5 4.80004 139.6 5.00004C139.7 5.10004 139.7 5.30004 139.7 5.40004C139.7 5.60004 139.6 5.80004 139.5 5.90004C139.4 6.00004 139.2 6.10004 139 6.20004C139.1 6.30004 139.2 6.30004 139.3 6.40004C139.4 6.50004 139.5 6.60004 139.6 6.80004L139.9 7.30004H139.2L138.8 6.70004C138.7 6.50004 138.6 6.40004 138.5 6.30004C138.4 6.20004 138.4 6.20004 138.3 6.20004C138.2 6.20004 138.1 6.20004 138 6.20004V7.30004H137.5ZM138 5.70004H138.4C138.7 5.70004 138.8 5.70004 138.9 5.70004C139 5.70004 139 5.60004 139.1 5.60004C139.1 5.50004 139.2 5.50004 139.2 5.40004C139.2 5.30004 139.2 5.20004 139.1 5.20004C139.1 5.10004 139 5.10004 138.9 5.10004C138.9 5.10004 138.7 5.10004 138.5 5.10004H138V5.70004Z" fill="white"/>
<path d="M0.100006 35.7V29.1H3.60001C4.00001 29.1 4.30001 29.2 4.60001 29.3C4.90001 29.4 5.1 29.6 5.2 29.9C5.3 30.2 5.39999 30.4 5.39999 30.8C5.39999 31 5.4 31.3 5.3 31.5C5.2 31.7 5.09999 31.9 4.89999 32C4.69999 32.1 4.6 32.2 4.3 32.3C4.5 32.4 4.69999 32.4 4.89999 32.6C5.09999 32.7 5.19999 32.9 5.39999 33.1C5.49999 33.3 5.60001 33.6 5.60001 33.9C5.60001 34.3 5.5 34.7 5.3 34.9C5.1 35.2 4.90001 35.4 4.60001 35.5C4.30001 35.6 4.00001 35.7 3.60001 35.7H0.100006ZM1.10001 34.8H3.39999C3.69999 34.8 3.90001 34.7 4.10001 34.6C4.30001 34.4 4.39999 34.2 4.39999 33.8C4.39999 33.6 4.4 33.4 4.3 33.3C4.2 33.1 4.09999 33 3.89999 33C3.69999 32.9 3.5 32.9 3.3 32.9H1L1.10001 34.8ZM1.10001 31.9H3.3C3.5 31.9 3.7 31.9 3.8 31.8C3.9 31.7 4.10001 31.6 4.10001 31.5C4.20001 31.4 4.2 31.2 4.2 31C4.2 30.7 4.09999 30.5 3.89999 30.3C3.69999 30.1 3.5 30.1 3.2 30.1H1V31.9H1.10001ZM6.8 35.7V29.1H10.3C10.8 29.1 11.2 29.2 11.5 29.3C11.8 29.5 12 29.7 12.2 30C12.4 30.3 12.4 30.6 12.4 31C12.4 31.4 12.3 31.8 12.1 32.1C11.9 32.4 11.6 32.7 11.3 32.8L12.7 35.5H11.5L10.3 33H8V35.5L6.8 35.7ZM7.89999 32.3H10.2C10.5 32.3 10.8 32.2 11 32C11.2 31.8 11.3 31.5 11.3 31.1C11.3 30.9 11.3 30.7 11.2 30.5C11.1 30.3 11 30.2 10.8 30.1C10.6 30 10.4 30 10.2 30H7.89999V32.3ZM13 35.7L15.6 29.1H17L19.6 35.7H18.5L17.9 34.2H14.8L14.2 35.7H13ZM15 33.3H17.4L16.7 31.4C16.7 31.3 16.7 31.3 16.6 31.2C16.6 31.1 16.5 31 16.5 30.9C16.5 30.8 16.4 30.7 16.4 30.5C16.4 30.4 16.3 30.3 16.3 30.2H16.2C16.2 30.3 16.1 30.5 16.1 30.6C16 30.8 16 30.9 15.9 31.1C15.8 31.3 15.8 31.4 15.8 31.5L15 33.3ZM20.4 35.7V29.1H21.4L24.4 33.2C24.4 33.2 24.5 33.3 24.5 33.4C24.5 33.5 24.6 33.5 24.6 33.6C24.6 33.7 24.7 33.7 24.7 33.8C24.7 33.7 24.7 33.6 24.7 33.5C24.7 33.4 24.7 33.3 24.7 33.2V29.1H25.7V35.7H24.7L21.7 31.5C21.6 31.4 21.6 31.3 21.5 31.2C21.4 31.1 21.4 31 21.3 30.9C21.3 31 21.3 31.1 21.3 31.2C21.3 31.3 21.3 31.4 21.3 31.5V35.7H20.4ZM27.4 35.7V29.1H29.9C30.6 29.1 31.2 29.2 31.6 29.4C32.1 29.6 32.4 30 32.7 30.5C33 31 33.1 31.6 33.1 32.4C33.1 33.2 33 33.8 32.7 34.3C32.4 34.8 32.1 35.1 31.6 35.4C31.1 35.6 30.5 35.7 29.9 35.7H27.4ZM28.5 34.8H30C30.3 34.8 30.6 34.8 30.9 34.7C31.2 34.6 31.4 34.5 31.6 34.3C31.8 34.1 31.9 33.9 32 33.6C32.1 33.3 32.1 33 32.1 32.6V32.4C32.1 32 32.1 31.7 32 31.4C31.9 31.1 31.8 30.9 31.6 30.7C31.4 30.5 31.2 30.4 30.9 30.3C30.6 30.2 30.3 30.2 30 30.2H28.5V34.8ZM34.4 35.7V29.1H35.5V35.7H34.4ZM37 35.7V29.1H38L41 33.2C41 33.2 41.1 33.3 41.1 33.4C41.1 33.5 41.2 33.5 41.2 33.6C41.2 33.7 41.3 33.7 41.3 33.8C41.3 33.7 41.3 33.6 41.3 33.5C41.3 33.4 41.3 33.3 41.3 33.2V29.1H42.3V35.7H41.3L38.3 31.5C38.2 31.4 38.2 31.3 38.1 31.2C38 31.1 38 31 37.9 30.9C37.9 31 37.9 31.1 37.9 31.2C37.9 31.3 37.9 31.4 37.9 31.5V35.7H37ZM47 35.8C46 35.8 45.2 35.5 44.6 35C44 34.5 43.8 33.6 43.8 32.4C43.8 31.6 43.9 31 44.2 30.5C44.5 30 44.8 29.6 45.3 29.4C45.8 29.2 46.4 29 47.1 29C47.5 29 47.9 29 48.3 29.1C48.7 29.2 49 29.3 49.3 29.5C49.6 29.7 49.8 29.9 49.9 30.2C50.1 30.5 50.1 30.8 50.1 31.2H49C49 31 49 30.7 48.9 30.6C48.8 30.4 48.7 30.3 48.5 30.1C48.3 30 48.1 29.9 47.9 29.8C47.7 29.7 47.4 29.7 47.2 29.7C46.8 29.7 46.5 29.7 46.2 29.8C45.9 29.9 45.7 30 45.5 30.2C45.3 30.4 45.2 30.6 45.1 30.9C45 31.2 45 31.6 45 32V32.2C45 32.8 45.1 33.2 45.2 33.6C45.4 34 45.6 34.2 45.9 34.4C46.2 34.6 46.6 34.6 47.1 34.6C47.5 34.6 47.9 34.5 48.2 34.4C48.5 34.3 48.7 34.1 48.9 33.8C49.1 33.5 49.1 33.2 49.1 32.9V32.8H46.9V31.9H50.2V35.4H49.4L49.3 34.6C49.1 34.8 48.9 35 48.7 35.1C48.5 35.2 48.2 35.3 47.9 35.4C47.7 35.8 47.4 35.8 47 35.8ZM52.9 35.7L55.5 29.1H56.9L59.5 35.7H58.4L57.8 34.2H54.7L54.1 35.7H52.9ZM54.9 33.3H57.3L56.6 31.4C56.6 31.3 56.6 31.3 56.5 31.2C56.5 31.1 56.4 31 56.4 30.9C56.4 30.8 56.3 30.7 56.3 30.5C56.3 30.4 56.2 30.3 56.2 30.2H56.1C56.1 30.3 56 30.5 56 30.6C55.9 30.8 55.9 30.9 55.8 31.1C55.7 31.3 55.7 31.4 55.7 31.5L54.9 33.3ZM63.1 35.8C62.1 35.8 61.3 35.5 60.7 35C60.1 34.5 59.9 33.6 59.9 32.4C59.9 31.6 60 31 60.3 30.5C60.6 30 60.9 29.6 61.4 29.4C61.9 29.2 62.5 29 63.2 29C63.6 29 64 29 64.4 29.1C64.8 29.2 65.1 29.3 65.4 29.5C65.7 29.7 65.9 29.9 66 30.2C66.2 30.5 66.2 30.8 66.2 31.2H65.1C65.1 31 65.1 30.7 65 30.6C64.9 30.4 64.8 30.3 64.6 30.1C64.4 30 64.2 29.9 64 29.8C63.8 29.7 63.5 29.7 63.3 29.7C62.9 29.7 62.6 29.7 62.3 29.8C62 29.9 61.8 30 61.6 30.2C61.4 30.4 61.3 30.6 61.2 30.9C61.1 31.2 61.1 31.6 61.1 32V32.2C61.1 32.8 61.2 33.2 61.3 33.6C61.5 34 61.7 34.2 62 34.4C62.3 34.6 62.7 34.6 63.2 34.6C63.6 34.6 64 34.5 64.3 34.4C64.6 34.3 64.8 34.1 65 33.8C65.2 33.5 65.2 33.2 65.2 32.9V32.8H63V31.9H66.3V35.4H65.5L65.4 34.6C65.2 34.8 65 35 64.8 35.1C64.6 35.2 64.3 35.3 64 35.4C63.8 35.8 63.5 35.8 63.1 35.8ZM67.8 35.7V29.1H72.9V30H68.9V31.8H72.5V32.7H68.9V34.7H73V35.6L67.8 35.7ZM74.2 35.7V29.1H75.2L78.2 33.2C78.2 33.2 78.3 33.3 78.3 33.4C78.3 33.5 78.4 33.5 78.4 33.6C78.4 33.7 78.5 33.7 78.5 33.8C78.5 33.7 78.5 33.6 78.5 33.5C78.5 33.4 78.5 33.3 78.5 33.2V29.1H79.5V35.7H78.5L75.5 31.5C75.4 31.4 75.4 31.3 75.3 31.2C75.2 31.1 75.2 31 75.1 30.9C75.1 31 75.1 31.1 75.1 31.2C75.1 31.3 75.1 31.4 75.1 31.5V35.7H74.2ZM84.1 35.8C83.4 35.8 82.9 35.7 82.4 35.4C81.9 35.2 81.6 34.8 81.3 34.3C81 33.8 80.9 33.2 80.9 32.4C80.9 31.3 81.2 30.4 81.7 29.8C82.3 29.2 83 29 84 29C84.5 29 85 29.1 85.5 29.3C85.9 29.5 86.3 29.8 86.5 30.1C86.7 30.4 86.9 30.9 86.9 31.5H85.8C85.8 31.1 85.7 30.9 85.6 30.6C85.5 30.4 85.2 30.2 85 30.1C84.7 30 84.4 29.9 84.1 29.9C83.7 29.9 83.3 30 83 30.2C82.7 30.4 82.5 30.6 82.3 31C82.1 31.4 82.1 31.8 82.1 32.3V32.5C82.1 33 82.2 33.5 82.3 33.8C82.5 34.2 82.7 34.4 83 34.6C83.3 34.8 83.7 34.9 84.1 34.9C84.5 34.9 84.8 34.8 85.1 34.7C85.4 34.6 85.6 34.4 85.7 34.2C85.9 34 85.9 33.7 85.9 33.3H87C87 33.9 86.9 34.3 86.6 34.7C86.3 35.1 86 35.3 85.6 35.5C85.2 35.7 84.7 35.8 84.1 35.8ZM90 35.7V33L87.4 29.1H88.6L90.5 32L92.4 29.1H93.6L91 33V35.7H90Z" fill="white"/>
</svg>
