<svg width="300" height="37" viewBox="0 0 300 37" fill="none" xmlns="http://www.w3.org/2000/svg">
<rect y="4.5" width="3" height="28" rx="1.5" fill="#5122D6"/>
<rect x="9" width="3" height="37" rx="1.5" fill="#5122D6"/>
<rect x="18" y="6.5" width="3" height="24" rx="1.5" fill="#5122D6"/>
<rect x="27" y="3" width="3" height="31" rx="1.5" fill="#5122D6"/>
<rect x="36" y="10" width="3" height="17" rx="1.5" fill="#5122D6"/>
<rect x="45" y="6.5" width="3" height="24" rx="1.5" fill="#5122D6"/>
<rect x="54" width="3" height="37" rx="1.5" fill="#5122D6"/>
<rect x="63" y="13.5" width="3" height="10" rx="1.5" fill="#5122D6"/>
<rect x="72" y="10" width="3" height="17" rx="1.5" fill="#5122D6"/>
<rect x="81" y="4.5" width="3" height="28" rx="1.5" fill="#5122D6"/>
<rect x="90" y="13.5" width="3" height="10" rx="1.5" fill="#5122D6"/>
<rect x="99" y="8.5" width="3" height="20" rx="1.5" fill="#F1E8FE"/>
<rect x="108" y="3" width="3" height="31" rx="1.5" fill="#F1E8FE"/>
<rect x="117" y="8.5" width="3" height="20" rx="1.5" fill="#F1E8FE"/>
<rect x="126" y="4.5" width="3" height="28" rx="1.5" fill="#F1E8FE"/>
<rect x="135" width="3" height="37" rx="1.5" fill="#F1E8FE"/>
<rect x="144" y="15" width="3" height="7" rx="1.5" fill="#F1E8FE"/>
<rect x="153" width="3" height="37" rx="1.5" fill="#F1E8FE"/>
<rect x="162" y="6.5" width="3" height="24" rx="1.5" fill="#F1E8FE"/>
<rect x="171" y="3" width="3" height="31" rx="1.5" fill="#F1E8FE"/>
<rect x="180" y="10" width="3" height="17" rx="1.5" fill="#F1E8FE"/>
<rect x="189" y="6.5" width="3" height="24" rx="1.5" fill="#F1E8FE"/>
<rect x="198" width="3" height="37" rx="1.5" fill="#F1E8FE"/>
<rect x="207" y="13.5" width="3" height="10" rx="1.5" fill="#F1E8FE"/>
<rect x="216" y="10" width="3" height="17" rx="1.5" fill="#F1E8FE"/>
<rect x="225" y="4.5" width="3" height="28" rx="1.5" fill="#F1E8FE"/>
<rect x="234" y="8.5" width="3" height="20" rx="1.5" fill="#F1E8FE"/>
<rect x="243" y="3" width="3" height="31" rx="1.5" fill="#F1E8FE"/>
<rect x="252" y="8.5" width="3" height="20" rx="1.5" fill="#F1E8FE"/>
<rect x="261" y="4.5" width="3" height="28" rx="1.5" fill="#F1E8FE"/>
<rect x="270" width="3" height="37" rx="1.5" fill="#F1E8FE"/>
<rect x="279" y="15" width="3" height="7" rx="1.5" fill="#F1E8FE"/>
<rect x="288" width="3" height="37" rx="1.5" fill="#F1E8FE"/>
<rect x="297" y="10" width="3" height="17" rx="1.5" fill="#F1E8FE"/>
</svg>
