<svg width="323" height="31" viewBox="0 0 323 31" fill="none" xmlns="http://www.w3.org/2000/svg">
<path d="M16.9 0.5C24.5 1.3 30.4 7.7 30.4 15.5C30.4 23.8 23.7 30.6 15.3 30.6C7 30.6 0.199997 23.9 0.199997 15.5C0.199997 7.2 6.9 0.399994 15.3 0.399994C15.9 0.399994 16.4 0.4 16.9 0.5ZM17.7 29.5C25.4 28.2 30.7 20.9 29.4 13.1C28.3 6.70001 23.1 1.99999 16.9 1.29999C15.6 1.19999 14.4 1.19999 13.1 1.39999C11.6 1.69999 10.1 2.19999 8.8 2.89999C15.6 5.19999 19.3 8.69999 19.5 12.3C19.6 14.5 18.6 16.1 17.2 17.4L26.8 16.7C27.1 16.7 27.2 17 26.8 17.1L3.8 23.7C6.1 26.9 9.8 29.1 13.8 29.5C15.1 29.7 16.4 29.7 17.7 29.5ZM11.4 15.8C12.7 11.1 11.2 6.1 7.8 3.5C3.1 6.5 0.400002 12.1 1.4 17.9C1.7 19.8 2.4 21.6 3.4 23.1C7 22 10.2 20.1 11.4 15.8Z" fill="white"/>
<path d="M29.4 13.1C30.7 20.8 25.5 28.2 17.7 29.5C16.4 29.7 15.1 29.8 13.9 29.6C9.9 29.2 6.2 27 3.9 23.8L26.9 17.2C27.2 17.1 27.1 16.8 26.9 16.8L17.3 17.5C18.7 16.2 19.7 14.6 19.6 12.4C19.3 8.8 15.7 5.30001 8.9 3.00001C10.2 2.30001 11.7 1.80001 13.2 1.50001C14.5 1.30001 15.8 1.2 17 1.4C23 2 28.3 6.70001 29.4 13.1ZM1.3 17.8C1.6 19.7 2.3 21.5 3.3 23C7 22 10.2 20 11.3 15.7C12.6 11 11.1 6 7.7 3.4C3.1 6.4 0.400004 12 1.3 17.8Z" fill="#C90019"/>
<path d="M108.4 13.7V8.70001H103.5V13.7H100.7V1.89999H103.5V6.60001H108.4V1.89999H111.2V13.7H108.4Z" fill="#1A171B"/>
<path d="M49.6 1.89999V9.29999C49.6 10.1 49.7 10.8 50 11.4C50.2 12 50.6 12.4 51 12.8C51.4 13.2 52 13.4 52.6 13.6C53.2 13.8 53.9 13.9 54.7 13.9C55.5 13.9 56.2 13.8 56.8 13.6C57.4 13.4 57.9 13.2 58.3 12.8C58.7 12.4 59 12 59.3 11.4C59.5 10.8 59.6 10.1 59.6 9.29999V1.89999H57V9.20001C57 9.90001 56.8 10.5 56.5 11C56.1 11.4 55.5 11.7 54.7 11.7C53.9 11.7 53.3 11.5 53 11C52.6 10.6 52.4 10 52.4 9.20001V1.89999H49.6Z" fill="#1A171B"/>
<path d="M41.8 13.7V4.10001H38.6V1.89999H47.8V3C47.8 3.6 47.3 4.10001 46.7 4.10001H44.6V13.7H41.8Z" fill="#1A171B"/>
<path d="M88.3 1.89999H85.6V13.7H88.3V1.89999Z" fill="#1A171B"/>
<path d="M76.5 8.20001L76.6 8.29999L80.1 12.8C80.5 13.4 81.2 13.7 81.9 13.7H84.1L79.1 7.39999L79 7.29999L79.1 7.20001L83.2 1.89999H80.4L76.6 7L76.5 7.10001V6.89999V1.89999H73.8V13.7H76.5V8.39999V8.20001Z" fill="#1A171B"/>
<path d="M70.2 13.7C69.4 13.7 68.6 13.3 68.2 12.6L66.1 9.10001H64.8V13.7H62.1V1.89999H67C68.2 1.89999 69.2 2.19999 69.9 2.89999C70.6 3.49999 70.9 4.4 70.9 5.5C70.9 6.1 70.8 6.60001 70.5 7.20001C70.2 7.70001 69.7 8.2 69 8.5L68.8 8.60001L72.1 13.8H70.2V13.7ZM64.8 7.29999H66.4C67 7.29999 67.4 7.09999 67.7 6.79999C68 6.49999 68.1 6.10001 68.1 5.60001C68.1 5.10001 68 4.69999 67.7 4.39999C67.4 4.09999 67 3.89999 66.4 3.89999H64.8V7.29999Z" fill="#1A171B"/>
<path d="M90.6 13.2V10.9C91.5 11.3 92.6 11.7 93.7 11.7C95 11.7 95.7 11.2 95.7 10.4C95.7 9.39999 94.8 9.3 93 8.5C91.8 7.9 90.6 7.10001 90.6 5.10001C90.6 2.80001 92.4 1.70001 94.8 1.70001C96.1 1.70001 97.2 2.00001 97.8 2.20001V4.39999C97.2 4.09999 96.1 3.79999 95 3.79999C93.8 3.79999 93.2 4.2 93.2 5C93.2 5.8 93.9 6 95.1 6.5C96.7 7.3 98.5 7.59999 98.5 10.3C98.5 12.6 96.7 13.9 94.2 13.9C92.7 13.8 91.5 13.6 90.6 13.2Z" fill="#1A171B"/>
<path d="M94.8 29.1V17.3H102.2V18.4C102.2 19 101.7 19.5 101.1 19.5H97.6V22H101.6V24H97.6V26.9H102.3V29.1H94.8Z" fill="#1A171B"/>
<path d="M67.9 29.1V17.3H69.2C70 17.3 70.6 17.9 70.6 18.7V27H75V29.1H67.9Z" fill="#1A171B"/>
<path d="M53.7 17.3H51V29.1H53.7V17.3Z" fill="#1A171B"/>
<path d="M64.4 29.1C63.6 29.1 62.8 28.7 62.4 28L60.3 24.5H59V29.1H56.3V17.3H61.2C62.4 17.3 63.4 17.6 64.1 18.3C64.8 18.9 65.1 19.8 65.1 20.9C65.1 21.5 65 22 64.7 22.6C64.4 23.1 63.9 23.6 63.2 23.9L63 24L66.3 29.2H64.4V29.1ZM58.9 22.7H60.5C61.1 22.7 61.5 22.5 61.8 22.2C62.1 21.9 62.2 21.5 62.2 21C62.2 20.5 62.1 20.1 61.8 19.8C61.5 19.5 61.1 19.3 60.5 19.3H58.9V22.7Z" fill="#1A171B"/>
<path d="M45 17.3H41.9L37.4 29.1H39.4C39.9 29.1 40.3 28.8 40.5 28.3L41 26.9H45.8L46.5 29.1H49.5L45 17.3ZM41.6 24.8L42.7 21.8C42.9 21.1 43.2 20.4 43.3 19.9C43.4 20.4 43.7 21.1 43.9 21.8L44.9 24.8H41.6Z" fill="#1A171B"/>
<path d="M104.4 28.6V26.3C105.3 26.7 106.4 27.1 107.5 27.1C108.8 27.1 109.5 26.6 109.5 25.8C109.5 24.8 108.6 24.7 106.8 23.9C105.6 23.3 104.4 22.5 104.4 20.5C104.4 18.2 106.2 17.1 108.6 17.1C109.9 17.1 111 17.4 111.6 17.6V19.8C111 19.5 109.9 19.2 108.8 19.2C107.6 19.2 107 19.6 107 20.4C107 21.2 107.7 21.4 108.9 21.9C110.5 22.7 112.3 23 112.3 25.7C112.3 28 110.5 29.3 108 29.3C106.5 29.2 105.3 29 104.4 28.6Z" fill="#1A171B"/>
<path d="M81.9 17.3H83.6C84.4 17.3 85.1 17.7 85.6 18.4L88.9 23.7C89.3 24.3 89.7 25.1 90 25.6H90.1C90.1 25.1 90 24.3 90 23.8V17.3H92.4V29.1H89.4L85.4 22.7C85 22.1 84.6 21.4 84.4 20.9C84.4 21.4 84.5 22 84.5 22.6V29.1H82.1V17.3H81.9Z" fill="#1A171B"/>
<path d="M79.4 17.3H76.7V29.1H79.4V17.3Z" fill="#1A171B"/>
<path d="M235.6 4.39998C236.8 3.99998 238.3 4.9 238.4 6.2C238.6 7.4 237.7 8.69998 236.4 8.79998C235.2 8.99998 234.1 7.99998 233.9 6.89998C233.8 5.79998 234.5 4.69998 235.6 4.39998Z" fill="#1E3E79"/>
<path d="M220.9 4.89999C221.6 4.89999 222.3 4.89999 223.1 4.89999C223.6 4.89999 224.1 4.99999 224.4 5.39999C224.8 5.79999 224.8 6.39999 224.8 6.89999C224.8 9.49999 224.8 12 224.8 14.6C225.3 14.6 226 14.7 226.3 14.2C227.2 12.8 228.1 11.5 228.9 10.1C230.4 10.1 231.8 10.1 233.3 10.1C232.1 11.8 231 13.6 229.8 15.3C229.6 15.6 229.3 15.9 229.1 16.2C229.6 16.7 229.9 17.4 230.3 18.1C231.2 20 232.4 21.7 233.4 23.5C232.2 23.5 231.1 23.5 229.9 23.5C229.2 23.5 228.6 23.1 228.2 22.5C227.4 21.1 226.7 19.7 225.9 18.3C225.7 17.9 225.1 18 224.7 18C224.7 19.9 224.7 21.7 224.7 23.6C223.4 23.6 222.1 23.6 220.8 23.6C220.9 17.2 220.9 11.1 220.9 4.89999Z" fill="#1E3E79"/>
<path d="M244.2 11.5C245.1 10.5 246.3 9.90001 247.6 9.70001C249 9.60001 250.5 9.80001 251.6 10.7C252.6 11.6 253 12.9 253.1 14.1C253.1 17.2 253.1 20.2 253.1 23.3C252.3 23.3 251.6 23.3 250.8 23.3C250.3 23.3 249.7 23 249.4 22.5C249.1 21.9 249.1 21.2 249.1 20.6C249.1 18.8 249.1 17 249.1 15.1C249.1 14.4 248.9 13.5 248.2 13.3C247.2 13 246 13.3 245.3 14.1C244.6 14.8 244.2 15.9 244.2 16.9C244.2 19 244.2 21.2 244.2 23.3C242.9 23.3 241.6 23.3 240.3 23.3C240.3 18.8 240.3 14.4 240.3 9.89999C241.2 9.99999 242.2 9.8 243.1 10.1C243.8 10.4 244.1 11 244.2 11.5Z" fill="#1E3E79"/>
<path d="M276 11.8C277.9 9.9 280.8 9.30001 283.4 10C284.4 10.3 285.4 10.7 286 11.6C286.5 12.5 286.3 13.6 286.3 14.6C285.5 14.6 284.8 14.6 284 14.6C283.5 14.5 283.1 14.1 282.9 13.6C282.8 13.2 282.4 13.1 282 13C280.6 12.7 279.1 13.3 278.3 14.5C277.6 15.7 277.5 17.2 278.1 18.4C278.7 19.6 280 20.3 281.3 20.4C282.9 20.5 284.3 19.6 285.4 18.5C285.9 19.4 286.5 20.3 287 21.2C284.4 24.3 279.2 24.6 276.2 21.9C273.4 19.3 273.4 14.5 276 11.8Z" fill="#00ADEF"/>
<path d="M306.3 11.7C307.1 10.7 308.2 9.99999 309.5 9.79999C310.7 9.59999 312.1 9.80001 313 10.7C313.4 11.1 313.7 11.6 314 12C314.9 10.7 316.3 9.90001 317.9 9.70001C319.3 9.60001 320.8 9.9 321.8 11C322.7 12.1 322.9 13.5 322.9 14.9C322.9 17.7 322.9 20.6 322.9 23.4C321.9 23.3 320.9 23.6 320 23.2C319.3 22.9 319.2 22 319.2 21.3C319.2 19.2 319.2 17.2 319.2 15.1C319.2 14.5 319.1 13.6 318.4 13.3C317.5 13 316.5 13.3 315.9 13.9C315.1 14.7 314.7 16 314.7 17.1C314.7 19.2 314.7 21.3 314.7 23.3C313.5 23.3 312.2 23.3 311 23.3C311 20.7 311 18 311 15.4C311 14.7 310.9 14 310.5 13.5C310.1 13 309.3 13 308.7 13.2C307.9 13.5 307.3 14.3 307 15.1C306.6 16 306.5 17.1 306.5 18.1C306.5 19.8 306.5 21.6 306.5 23.3C305.3 23.3 304.1 23.3 302.9 23.3C302.9 18.8 302.9 14.4 302.9 9.89999C303.8 9.89999 304.9 9.70001 305.8 10.2C306 10.6 306.2 11.2 306.3 11.7Z" fill="#00ADEF"/>
<path d="M234.4 10C235.3 10 236.3 9.90002 237.2 10.2C237.9 10.4 238.2 11.2 238.2 11.9C238.2 15.8 238.2 19.6 238.2 23.5C236.9 23.5 235.6 23.5 234.4 23.5C234.5 19 234.4 14.5 234.4 10Z" fill="#1E3E79"/>
<path d="M196 9.89999C198.2 9.49999 200.6 9.99999 202.3 11.5C205.1 14 205.3 18.7 202.8 21.4C200.1 24.4 194.8 24.4 192.2 21.3C189.6 18.4 190 13.4 193.2 11.1C194 10.5 195 10.1 196 9.89999ZM196.6 13.2C195.8 13.4 195.1 14 194.7 14.8C193.9 16.5 194.2 19 195.9 20C197.3 20.8 199.2 20.4 200.1 19.1C201 17.6 201 15.5 199.9 14.2C199.1 13.1 197.8 12.8 196.6 13.2Z" fill="#1E3E79"/>
<path d="M210.9 9.9C212.8 9.5 215 9.8 216.6 10.9C218 11.8 219 13.3 219.3 14.9C219.8 17.1 219.3 19.5 217.9 21.2C215.3 24.3 210 24.3 207.3 21.3C204.9 18.7 204.9 14.1 207.5 11.6C208.4 10.8 209.6 10.2 210.9 9.9ZM211.6 13.1C210.5 13.4 209.7 14.4 209.4 15.5C209 17.1 209.4 19 210.8 19.9C212 20.6 213.6 20.5 214.6 19.5C215.4 18.7 215.7 17.5 215.7 16.4C215.7 15.4 215.2 14.3 214.4 13.6C213.7 13 212.6 12.9 211.6 13.1Z" fill="#1E3E79"/>
<path d="M292.9 9.89998C295.1 9.49998 297.5 10 299.2 11.6C301.9 14.1 302.1 18.8 299.6 21.5C296.9 24.4 291.7 24.4 289 21.5C286.6 18.8 286.7 14.2 289.3 11.7C290.3 10.7 291.6 10.1 292.9 9.89998ZM293.5 13.1C292.7 13.3 291.9 13.9 291.6 14.7C290.8 16.2 291 18.3 292.3 19.6C293.5 20.7 295.5 20.7 296.7 19.5C297.4 18.7 297.7 17.7 297.7 16.6C297.7 15.5 297.2 14.3 296.3 13.6C295.4 13 294.4 12.9 293.5 13.1Z" fill="#00ADEF"/>
<path d="M258 10.2C260 9.4 262.5 9.59999 264.1 11C264.3 10.6 264.7 10.2 265.2 10.1C266 10 266.8 10.1 267.5 9.99999C267.5 14.1 267.5 18.2 267.5 22.3C267.5 23.8 267 25.3 266 26.5C264.7 28 262.6 28.6 260.7 28.6C258.9 28.6 257.1 28.2 255.5 27.3C255.8 26.6 256 25.8 256.4 25.1C256.6 24.7 257 24.5 257.4 24.6C258 24.7 258.6 25 259.3 25.1C260.4 25.3 261.7 25.2 262.7 24.5C263.4 23.9 263.7 23 263.6 22.1C262.4 23.1 260.7 23.3 259.1 23C257.6 22.7 256.2 21.8 255.4 20.4C254.3 18.6 254.1 16.4 254.5 14.4C255 12.6 256.2 10.9 258 10.2ZM259.9 13.3C259 13.6 258.6 14.5 258.4 15.4C258.2 16.6 258.3 17.9 259.1 18.8C260 20.1 262.2 20.1 263.1 18.8C263.7 17.9 263.8 16.7 263.7 15.7C263.6 14.8 263.3 13.8 262.4 13.4C261.7 13 260.7 13 259.9 13.3Z" fill="#1E3E79"/>
<path d="M176.7 6.89999C176.6 5.89999 177.6 4.89999 178.6 4.89999C180.2 4.89999 181.7 4.89999 183.3 4.89999C184.8 4.89999 186.5 5.4 187.6 6.5C189.3 8.2 189.2 11.3 187.4 13C187.2 13.2 187 13.4 186.8 13.5C187.7 13.9 188.5 14.6 189 15.5C189.8 17.2 189.7 19.3 188.7 20.8C187.6 22.5 185.5 23.2 183.5 23.2C181.2 23.2 179 23.2 176.7 23.2C176.7 17.8 176.7 12.4 176.7 6.89999ZM180.6 8.20001C180.3 8.50001 180.3 8.89999 180.2 9.29999C180.2 10.3 180.2 11.3 180.2 12.3C181.2 12.3 182.1 12.3 183.1 12.3C183.7 12.3 184.3 12 184.6 11.6C185.3 10.6 185.3 9.09999 184.3 8.29999C183.6 7.79999 182.7 7.89999 181.9 7.89999C181.5 7.99999 180.9 7.90001 180.6 8.20001ZM180.7 15.4C180.3 15.6 180.3 16.1 180.2 16.5C180.2 17.7 180.2 18.9 180.2 20.1C181.3 20.1 182.4 20.1 183.5 20.1C184.3 20.1 185 19.7 185.4 19C185.9 18 185.8 16.5 184.9 15.7C184.1 15.1 183.1 15.1 182.2 15.1C181.7 15.2 181.1 15.1 180.7 15.4Z" fill="#1E3E79"/>
<path d="M270.7 19.2C272 18.8 273.5 19.8 273.5 21.2C273.6 22.4 272.7 23.6 271.5 23.6C270.3 23.8 269.2 22.8 269.1 21.6C268.9 20.5 269.6 19.4 270.7 19.2Z" fill="#00ADEF"/>
</svg>
