<svg width="324" height="47" viewBox="0 0 324 47" fill="none" xmlns="http://www.w3.org/2000/svg">
<path d="M3.1 20.8C5.9 15.7 10.6 10.1 16.3 8.2C17.5 7.9 19 7.6 20 8.4C20.9 9.1 21 10.2 20.8 11.3C20.5 12.5 19.7 14.1 18.3 14.3C18 14.3 17.8 14.2 17.7 14C17.3 13.6 17.4 13.1 17.4 12.6C17.6 11.6 18.5 10.6 19.6 10.4C19.8 10.3 19.7 10.1 19.7 9.9C19.6 9.7 19.4 9.5 19.1 9.5C18 9.4 17.1 10.1 16.2 10.7C12.9 13.3 10.5 16.8 8.5 20.1C6.9 23.1 5.5 26.3 5.1 29.9C4.9 32.5 5.7 35 8 36.3C10.5 37.6 13.7 36.7 16.2 36L18.5 35.3L22.9 34C27.1 32.8 32.3 32.5 36.4 34.1C38.9 35.1 41.4 36.5 43 39C43 39.1 43 39.1 42.9 39.1C39.4 38.1 34.8 37.2 31.4 38.9H31.2C30.1 37.2 28.4 36.3 26.6 35.9C20.7 35.3 15.9 38.1 10.4 38.8C7.6 39.1 4.6 39 2.6 36.8C-0.500001 33.7 -0.0999964 28.3 1.3 24.6C1.9 23.3 2.5 22.1 3.1 20.8Z" fill="#EC1A3B"/>
<path d="M11.2 22.7C12.7 20 14.9 16.7 18 15.8C18.8 15.6 19.7 15.7 20.4 16.2C21.7 17.5 21.2 19.8 20.8 21.4C20.8 21.5 20.9 21.6 21 21.6C22.2 21.6 23.1 21 24 20.2C25.8 18.1 27.8 15.5 30.8 15.8C31.4 15.9 31.9 16.2 32.2 16.7C33 18.2 32.2 19.9 31.2 21C30.8 21.4 30.3 21.7 29.7 21.5C29.5 21.4 29.3 21.2 29.2 21C29 19.9 29.6 19 30.5 18.4C30.7 18.2 31.5 18.3 31.3 17.8C31.1 17.6 30.9 17.6 30.7 17.6C29.2 18.2 28.3 19.7 27.5 20.9C26.4 22.6 25.6 24.3 25 26.2C24.8 26.9 24.7 27.8 25 28.4C25.3 28.8 25.8 29 26.3 28.8C27.7 28.2 29 27.1 30.1 25.9C32.6 22.9 34 19.1 37.3 16.7C38.3 16 39.8 15.4 41.1 16.1C41.3 16.2 41.5 16.4 41.7 16.3C41.9 16.1 42 15.7 42.5 15.8C43.4 15.8 44.5 15.8 45.5 15.9L45.6 16L45.3 16.6L40.1 27.2C40 27.3 40 27.5 40.1 27.6C40.2 27.8 40.4 27.7 40.5 27.7C41.3 27.3 41.8 26.5 42.4 25.8C42.9 25.2 43.3 24.5 43.6 23.8C43.7 23.6 43.9 23.3 44.2 23.4C44.5 23.4 44.9 23.3 45.1 23.5C44.8 24.4 44.2 25.2 43.8 26C42.4 28.2 40.5 30.7 37.9 31.4C37.5 31.4 36.9 31.5 36.6 31.2C36.1 30.8 36.1 30.2 35.9 29.7C35.8 29.6 35.8 29.6 35.7 29.6C34.6 30.6 33.4 31.6 31.9 31.4C31.4 31.3 31 30.9 30.7 30.5C30.3 29.7 30.5 28.7 30.5 27.9C30.5 27.8 30.3 27.8 30.3 27.9C28.6 29.6 26.8 31.1 24.5 31.5C23.5 31.6 22.6 31.3 21.9 30.6C20.2 28.4 21.5 25.5 22.4 23.3C22.4 23.2 22.4 23.1 22.3 23C21.7 23 21.1 23.1 20.5 23.2L20.3 23.4C18.9 25.9 17.4 28.6 15 30.5C14 31.2 12.5 31.7 11.3 31.1C10.1 30.2 9.90001 28.7 10.1 27.3C10 25.6 10.5 24.1 11.2 22.7ZM15.1 22.5C14.4 23.9 13.7 25.4 13.6 27.1C13.7 27.4 13.9 27.8 14.2 27.9C14.6 28 14.9 27.8 15.2 27.6C16.6 26.4 17.6 24.8 18.4 23.3C18.5 23.1 18.6 23 18.5 22.8C17.7 22.5 16.8 21.9 16.2 21.2H16.1C16 21.2 15.9 21.4 15.8 21.4L15.1 22.5ZM17.3 19.6C17.3 20.4 18.1 21 18.7 21.3C18.9 21.4 19.1 21.5 19.3 21.3C19.6 20.8 19.7 20.3 19.8 19.7C19.9 19 20 18.1 19.4 17.6C19.2 17.5 18.8 17.5 18.6 17.6C17.8 17.9 17.3 18.7 17.3 19.6ZM34.6 25.5C34.4 26.1 34.1 26.8 34.3 27.5C34.4 27.6 34.5 27.7 34.7 27.8C35.3 27.8 35.7 27.3 36 26.9C37.7 24.6 39 22.1 40.1 19.5C40.3 19 40.6 18.5 40.6 17.9C40.6 17.8 40.5 17.7 40.4 17.6C40.1 17.5 39.9 17.7 39.7 17.8C37.4 19.5 36.2 22 35.1 24.4L34.6 25.5Z" fill="#EC1A3B"/>
<path d="M45.4 19C45.9 18 46.3 17 47 16C47.3 15.7 47.6 15.7 48 15.7H50.5L50.6 15.8C50.2 16.8 49.7 17.8 49.2 18.8C49.1 19.1 48.8 19.3 48.5 19.3C47.5 19.3 46.4 19.4 45.4 19.3C45.3 19.2 45.4 19.1 45.4 19Z" fill="#EC1A3B"/>
<path d="M47.9 24.1C49.6 20.5 51.7 17 54.7 13.9C57.6 11 60.7 8.7 64.5 8C65.5 7.9 66.7 7.9 67.5 8.6C67.7 8.7 67.8 8.90001 68 8.80001C70.7 7.70001 74.5 7.3 77.2 8.7C78.8 9.5 80.3 10.5 81.8 11.4C82 11.5 81.9 11.7 81.8 11.8C80.9 12.8 80.2 13.8 79.4 14.8C79.3 14.9 79.2 14.9 79.1 14.8L75.1 12C73.2 10.7 71.1 9.8 68.7 10.2C68.4 10.3 68.6 10.7 68.5 10.9C68.6 13.4 67.7 15.6 66.5 17.6C65.5 19 64.4 20.4 62.8 20.9C62.1 21.1 61.4 20.8 61 20.3C59.8 18.5 60.9 16.3 61.7 14.7C62.7 12.9 64.2 11.3 65.9 10C65.9 9.9 66 9.90001 66 9.80001C65.8 9.60001 65.6 9.70001 65.4 9.80001C62.7 10.7 60.5 13.1 58.5 15.4C54.9 19.8 52.2 24.6 50.7 29.8C50.2 31.8 49.6 34.8 51.6 36.2C53.4 37.1 55.1 35.9 56.4 34.8C58.4 32.7 59.8 30.4 60.3 27.7C60.4 26.9 60.6 25.8 59.9 25.3C59.2 25 58.7 25.6 58.2 26C57.2 27.2 56.7 28.7 56.5 30.3C56 30.7 55.5 30.9 55 31.3C54.1 31.9 53.2 32.8 52.4 33.6C52.3 33.6 52.3 33.5 52.3 33.5C52.2 30.5 53.2 28 54.9 25.7C56.2 24.2 57.8 22.9 59.9 23.4C60.8 23.6 61.4 24.6 61.5 25.4C61.8 28.2 60.7 30.6 59.4 32.9C57.4 36.1 54.2 39.3 50.1 38.9C48.5 38.8 47.1 37.7 46.4 36.3C44.9 33.3 45.9 29.3 47 26.4L47.9 24.1ZM61.7 18.8C61.7 19.1 61.9 19.5 62.2 19.6C62.9 19.8 63.4 19.3 63.9 18.9C65.7 17 66.9 14.7 67.1 12.1C67.1 11.7 67.2 11.2 67 10.9C66.8 10.9 66.7 10.9 66.6 11C65.4 11.8 64.2 13 63.4 14.2C62.6 15.7 61.8 17.1 61.7 18.8Z" fill="#EC1A3B"/>
<path d="M64.3 27.4C65.8 25.5 67.7 23.3 70.2 23.2C70.8 23.2 71.4 23.5 71.8 24C72.9 25.6 72 27.6 71.6 29.1C71.6 29.2 71.7 29.3 71.8 29.4C72.3 29.5 72.9 29.4 73.3 29.2L73.5 29C75.3 23.9 77.9 19.2 81 14.8C83 12.2 85.5 9.5 88.4 8.3C89.1 8.1 90.1 7.8 90.7 8.3C91.4 8.9 91.2 9.9 91 10.7C90.9 11.4 90.1 11.5 89.6 11.7H89.5C89.5 11.2 89.8 10.8 89.8 10.4C89.8 10.2 89.9 10 89.8 9.7C89.7 9.5 89.4 9.5 89.2 9.6C88.2 10.1 87.4 11 86.7 11.8C83.9 15.1 81.9 18.7 80 22.3C79.4 23.6 78.7 24.8 78.2 26.2C78.2 26.3 78.2 26.3 78.3 26.4C78.7 26.4 79 25.9 79.3 25.7C81.8 23.5 83.8 20.9 85.6 18.3C86 18.1 86.5 18.1 86.9 18.1H87C87 18.5 86.7 18.7 86.5 19.1C84.4 22.1 82.1 24.9 79.2 27.5L77.1 29.2C76.7 29.6 76.7 30.2 76.4 30.6C76 31.9 75.6 33.2 75.5 34.7C75.5 34.9 75.6 35.2 75.8 35.3C76.3 35.5 76.8 35 77.2 34.7C80 31.5 81.2 27.5 84.7 24.6C85.8 23.7 87.3 23 88.8 23.6C89.1 23.7 89.2 24 89.6 23.9C89.8 23.7 89.8 23.4 90.1 23.4C91.1 23.4 92.2 23.4 93.1 23.4C93.2 23.5 93.1 23.6 93.1 23.7L92.4 25.1L88.1 33.7C87.9 34.1 87.7 34.5 87.7 35C87.8 35.2 88 35.2 88.1 35.2C88.9 34.8 89.5 34 90 33.3C90.5 32.6 90.9 31.8 91.4 31C91.7 30.9 92 30.9 92.3 31C92.5 31.2 92.2 31.4 92.2 31.6C90.9 34.2 89.2 37.1 86.4 38.5C85.8 38.8 84.9 39.1 84.2 38.7C83.6 38.3 83.7 37.6 83.4 37.1C83.3 37 83.2 37 83.2 37.1C82.1 38.1 80.8 39.3 79.2 38.8C78.2 38.3 78.1 37.2 78 36.2C77.9 36.2 78 36.1 77.9 36L77.8 36.1C76.7 37.4 75.3 39.1 73.4 38.9C72.7 38.8 72.1 38.2 71.9 37.5C71.2 35.4 71.9 33.1 72.4 31.1C72.4 31 72.3 30.9 72.2 30.9H70.6L70.3 31.2C69.1 33.5 67.9 35.6 65.9 37.5C64.9 38.4 63.6 39.2 62.1 38.8C60.9 38.3 60.6 37 60.6 35.8C61.2 32.5 62.6 29.9 64.3 27.4ZM64.7 34.4C64.7 34.8 64.9 35.3 65.4 35.4C65.7 35.5 66 35.4 66.3 35.2C67.8 34.1 68.6 32.4 69.4 30.9C69.5 30.7 69.5 30.5 69.3 30.4C68.5 30 67.8 29.4 67.2 28.7C67.1 28.6 67 28.6 66.9 28.7C66.3 29.4 66 30.3 65.6 31.1C65.2 32.1 64.7 33.1 64.7 34.4ZM68.4 27.2C68.4 28 69.1 28.7 69.8 29C69.9 29.1 70.2 29.1 70.3 28.9C70.7 27.9 71.1 26.8 70.9 25.6C70.8 25.3 70.6 25.1 70.3 25C70 24.9 69.7 25 69.5 25.1C68.8 25.6 68.4 26.4 68.4 27.2ZM82.4 34C82.4 34.4 82.3 34.8 82.6 35.1C82.8 35.3 83 35.3 83.2 35.2C84 34.8 84.4 34 84.9 33.3C86.4 30.9 87.6 28.4 88.6 25.8C88.6 25.6 88.7 25.3 88.5 25.1C87.9 24.8 87.4 25.5 86.9 25.8C84.9 27.8 83.8 30.3 82.8 32.7L82.4 34Z" fill="#EC1A3B"/>
<path d="M85.4 15L86.8 13.2L87 13C90.9 12.9 94 10.6 96.7 7.8C96.7 8.2 96.5 8.5 96.4 8.8C94.6 13.1 90.2 16.8 85.5 16.9H84.4C84.2 16.8 84.3 16.6 84.4 16.5L85.4 15Z" fill="#EC1A3B"/>
<path d="M90.3 37.5C90.3 37 90.7 36.6 91.2 36.6C91.7 36.6 92.1 37 92.1 37.5C92.1 38 91.7 38.4 91.2 38.4C90.7 38.4 90.3 38 90.3 37.5ZM91.3 38.6C91.9 38.6 92.4 38.1 92.4 37.5C92.4 36.9 91.9 36.4 91.3 36.4C90.7 36.4 90.2 36.9 90.2 37.5C90.1 38.2 90.6 38.6 91.3 38.6ZM91 37.6H91.2L91.5 38.2H91.7L91.3 37.6C91.5 37.6 91.6 37.5 91.6 37.2C91.6 36.9 91.4 36.8 91.1 36.8H90.6V38.1H90.8V37.6H91ZM91 37.4V37H91.3C91.4 37 91.6 37 91.6 37.2C91.6 37.4 91.5 37.4 91.3 37.4H91Z" fill="#EC1A3B"/>
<path fill-rule="evenodd" clip-rule="evenodd" d="M205.2 2.9C204.4 4.2 202.9 4.8 200.7 4.8H174C169.2 4.8 164.7 6.5 161.3 9.7C157.8 13 155.9 17.4 155.9 22.2V45.5V46.2H156.6H157.1H157.6L157.8 45.7C159.4 41.5 162.3 41.1 165.5 41.1H187.5C192.9 41.1 198.1 39.1 201.5 35.6C204.8 32.3 206.5 27.9 206.5 22.9V3.3V0.900002L205.2 2.9Z" fill="white"/>
<path fill-rule="evenodd" clip-rule="evenodd" d="M200.7 6.2H174C169.4 6.2 165 8 161.9 11.1C159 14 157.3 18 157.3 22.2V43.3C159.5 39.7 163.1 39.7 165.4 39.7H187.4C192.1 39.7 196.4 38.2 199.6 35.4C203.1 32.3 205 28 205 22.9V5C204 5.8 202.5 6.2 200.7 6.2ZM197.7 12.6V15.7C195.2 14.9 192.5 14.6 192.5 17.5C192.5 20.4 195.7 20.1 197.6 19.4V22.5C193.8 25.3 186.4 24 186.4 17.6C186.5 11 193.1 11.3 197.7 12.6ZM182.8 10.3C184.4 10.3 185.7 11.1 185.7 12.1C185.7 13.1 184.4 13.9 182.8 13.9C181.2 13.9 179.9 13.1 179.9 12.1C179.9 11.1 181.2 10.3 182.8 10.3ZM179.9 14.1H185.7V23.6H179.9V14.1ZM168 13L174.3 7.2L176.1 7.1V12H178.9V14.3H176.1V18.8C176.1 20.5 177.5 20.2 178.1 19.4L179.2 21C178.7 21.7 176.8 23.8 174.6 23.8C172.4 23.8 170.7 22.6 170.7 20.2V14.2H168V13ZM168.2 36.6C166 36.6 164.3 35.4 164.3 33V27H161.7V25.6L168 19.8L169.8 19.7V24.6H172.6V26.9H169.8V31.4C169.8 33.1 171.2 32.8 171.8 32L172.9 33.6C172.3 34.5 170.4 36.6 168.2 36.6ZM183.8 36.3C182.7 36.3 181.6 35.9 180.9 35.1C179.3 36.9 175.7 36.9 174 35.2C172.2 33.4 172.8 30.5 174.2 29.3C175.6 28.1 178.1 27.8 180.1 28.7C180.1 27.6 179.6 26.8 178.7 26.8C178.3 26.8 177.6 26.8 175.8 27.7L174.7 25.6C176.1 24.7 177.9 23.9 181 23.9C184.1 23.9 185.7 26.2 185.7 29.2V32.5C185.7 33.4 186.2 33.5 186.9 33.2L187.7 34.8C187.4 35.2 185.7 36.3 183.8 36.3ZM197.8 28.3C195.3 27.5 192.6 27.2 192.6 30.1C192.6 33 195.8 32.7 197.7 32V35.1C193.9 37.9 186.5 36.6 186.5 30.2C186.5 23.6 193.1 23.9 197.7 25.3L197.8 28.3ZM201.6 16.3C201.2 16.7 200.7 16.9 200.1 16.9C199.5 16.9 199 16.7 198.6 16.3C198.2 15.9 198 15.4 198 14.8C198 13.6 199 12.7 200.1 12.7C200.7 12.7 201.2 12.9 201.6 13.3C202 13.7 202.2 14.2 202.2 14.8C202.2 15.4 202 15.9 201.6 16.3Z" fill="#007A4D"/>
<path fill-rule="evenodd" clip-rule="evenodd" d="M180.1 31C179.2 30.3 177.9 31.1 177.9 32.4C177.9 33.8 179.3 33.9 180.1 33.4C180.1 33.3 180.1 33.2 180.1 33.1V31Z" fill="#007A4D"/>
<path fill-rule="evenodd" clip-rule="evenodd" d="M200.1 12.9C199.6 12.9 199.1 13.1 198.8 13.4C198.4 13.8 198.3 14.2 198.3 14.7C198.3 15.2 198.5 15.7 198.8 16C199.2 16.4 199.6 16.5 200.1 16.5C201.1 16.5 202 15.7 202 14.6C202 14.1 201.8 13.6 201.5 13.3C201.1 13.1 200.6 12.9 200.1 12.9ZM201.1 15.9H200.7C200.7 15.8 200.6 15.4 200.6 15.3C200.6 15.1 200.6 14.9 200.2 14.9H199.4V15.9H199.1V13.6H200.2C200.6 13.6 201 13.7 201 14.2C201 14.5 200.8 14.7 200.7 14.8C200.8 14.9 201 14.9 201 15.2V15.6C201 15.7 201 15.8 201.1 15.9Z" fill="#007A4D"/>
<path fill-rule="evenodd" clip-rule="evenodd" d="M200.3 13.8H199.5V14.6H200.2C200.4 14.6 200.7 14.5 200.7 14.2C200.7 13.9 200.4 13.8 200.3 13.8Z" fill="#007A4D"/>
<path fill-rule="evenodd" clip-rule="evenodd" d="M298.2 41.8C298.2 41.8 294.9 41.2 292.9 41.2C289.9 41.2 290.6 44.4 294 44.5C297 44.5 298.2 41.8 298.2 41.8ZM308.7 26.7L306.2 32.6C305.7 33.8 307.2 33.6 307.5 33.2C309 31 309.7 29.5 310 27.3C310.2 26.1 309 26.2 308.7 26.7ZM319 23.5C319.7 22.7 322.7 22.4 321.7 23.6C319.4 26.5 321.9 29 320.6 32.1C319.3 35.2 317.5 35.3 317.5 35.3C317.5 35.3 313.2 36.2 313.4 33.3C313.4 32.5 314.5 31.5 314.5 31.5L315.1 31.3C315.1 31.3 314.7 33.4 315.6 33.6C316.3 33.8 317 33.4 317.3 32.7C318.1 30.3 318.2 29.5 318.7 26.1C318.7 25.9 314.9 29.8 313.8 31.1C312.5 32.8 309.7 35.2 307.5 35.5C307 35.6 305.4 35.4 305.2 35C305 35.4 304.4 36.8 303.6 38.1C306.4 39.8 311.7 39.7 314.9 38.4C315.6 38.1 314.1 40.7 311.1 41.8C308.6 42.8 306.4 42.9 301.4 42C299.9 43.7 297 45.8 295.2 45.8C289.4 45.9 288.6 43.1 288.6 42.6C288 37.5 296.1 36.3 300.4 37.3C300.7 36.7 300.9 36.1 301.2 35.4C301.1 35.4 301.1 35.4 301 35.4C300.1 35.3 300.2 35.5 300 35.5C299.7 35.6 298.8 36.1 298 36C296 35.7 296.3 35 296 35C295.6 35 295.3 35.4 295 35.5C294.3 35.9 292.6 36.1 291.5 35.7C290.9 35.4 290.8 34.6 290.4 34.7C288.8 35.3 287.7 36.6 285.8 35.8C282.5 34.4 286.5 29.8 286.5 27.6C286.5 27 285.7 27.1 285.7 27.1C284.4 27.9 283.5 31.2 282.8 32.5C282.2 33.8 281.4 35.8 281.2 35.8H278C277.8 35.7 278.4 34.8 278.3 34.7C278 34.6 277.8 34.8 277.7 34.9C274.6 36.9 271.1 36.7 269.2 33.4C267.3 30.3 268.2 26.6 270 23.7C271.8 20.9 276.5 17.1 280.1 19.3C282.5 20.7 282.9 23.5 280.3 24.9C278.7 26 276.6 24.2 277.6 23.8C278.6 23.7 280.2 21.9 278.9 21.1C278.1 20.6 277.5 20.5 276.6 21C273.8 22.7 271.8 26.3 271.8 29.5C271.8 34.9 277.8 34.6 279.8 30.6C281.5 27.1 284.6 19.3 285.1 19.1H288.6L286.4 24.5C286.4 24.5 287 24.3 287.1 24.3C290.3 23.1 290.7 23.9 290.8 26.1L288.3 33C288.6 34.2 290.5 32.8 290.8 32.1L293.9 24.1H297.3L294.3 32.5C294.2 33.1 294.5 33.2 294.7 33.2C295.3 33.3 296.3 32.8 296.7 31.6L299.4 24.1C299.4 24.1 302.9 23.9 302.8 24.1C302.7 24.4 300.5 31.2 300.2 31.9C299.9 32.9 300.3 33.1 300.7 33.2C301.4 33.3 302.2 32.5 302.5 31.8C302.6 31.8 305.2 24.3 305.5 23.6H308.6C308.6 23.6 309 24.1 309.3 24C313.2 22.8 313.9 23.8 313.2 27.5C313.2 27.6 313.2 27.7 313.2 27.8C313.3 28 313.4 28.1 313.6 27.9C314.9 27.2 318.2 24.3 319 23.5ZM319.9 9.6C319.9 9.1 319 9 318.5 9.8C317.6 11.5 316.9 12.4 316.7 14.8C316.7 15.3 317.6 16 317.9 14.9L319.9 9.6ZM309 9.9L306.8 15C306.4 16.1 307.7 15.9 307.9 15.5C309.2 13.5 309.8 12.2 310.1 10.3C310.3 9.4 309.2 9.5 309 9.9ZM302.2 22.5C301.9 22.7 299 22.9 299 22C299 21.1 300.2 21.7 300.9 20.6C301.3 20 301.8 18.9 302.3 17.7C302.2 17.7 302.2 17.7 302.1 17.7C301.3 17.6 301.4 17.8 301.2 17.8C300.9 17.9 300.1 18.3 299.4 18.2C297.7 18 297.9 17.3 297.6 17.3C297.3 17.3 297 17.6 296.8 17.7C296.2 18 294.7 18.3 293.7 17.9C293.2 17.7 293.1 16.9 292.8 17C291.4 17.5 290.5 18.7 288.8 18C285.9 16.8 289.4 12.7 289.4 10.8C289.4 10.3 288.7 10.4 288.7 10.4C287.6 11.1 286.8 14 286.2 15.1C285.6 16.2 285 18 284.8 18H282C281.8 17.9 282.4 17.1 282.2 17.1C281.9 17 281.8 17.2 281.7 17.3C279 19.1 275.9 18.8 274.2 16C272.5 13.2 273.3 10.1 274.9 7.5C276.5 5.1 280.6 1.7 283.7 3.6C285.8 4.9 286.1 7.3 283.9 8.5C282.5 9.5 280.7 7.9 281.5 7.5C282.4 7.4 283.8 5.9 282.6 5.1C281.9 4.7 281.4 4.6 280.6 5C278.2 6.5 276.4 9.6 276.4 12.5C276.4 17.2 281.7 17 283.4 13.4C284.9 10.3 287.6 3.5 288 3.4H291.1L289.2 8.2C289.2 8.2 289.7 8.1 289.9 8C292.7 7 293.1 7.7 293.2 9.6L291 15.6C291.2 16.7 292.9 15.4 293.2 14.8L295.9 7.8H298.9L296.3 15.2C296.2 15.7 296.4 15.8 296.7 15.8C297.3 15.9 298.1 15.5 298.5 14.4L300.8 7.9C300.8 7.9 303.8 7.8 303.8 7.9C303.7 8.2 301.8 14.2 301.5 14.8C301.3 15.7 301.6 15.9 301.9 15.9C302.5 16 303.2 15.3 303.5 14.7C303.6 14.7 305.9 8.1 306.2 7.5H308.9C308.9 7.5 309.3 7.9 309.6 7.8C313 6.8 313.7 7.5 313 11.3C313 11.4 313 11.5 313 11.6C313.2 12.1 313.6 11.4 314.3 10.6C315.1 9.8 316.2 8.5 317.2 7.7C318.3 6.9 318.6 7 320 7C320.4 7 320.7 8.3 321.2 7.5C321.7 6.7 323.1 7 323.8 7L320.8 15.9C321 16.6 322.1 16.3 321.7 16.5C321.3 18 319.7 17.7 318.9 17.4C318.1 17.1 317.9 16.9 317.9 16.7C317.3 17.3 317.3 17.3 316.8 17.5C315.7 18 313.2 17.9 313.4 15.5C313.4 14.9 313.2 14 313 14.1L312.9 14.2V14.3C312.4 15 309.5 17.5 308 17.7C307.6 17.8 306.2 17.6 306 17.3C305.5 18 304.1 21.3 302.2 22.5Z" fill="#0F140E"/>
</svg>
