<svg width="345" height="40" viewBox="0 0 345 40" fill="none" xmlns="http://www.w3.org/2000/svg">
<path fill-rule="evenodd" clip-rule="evenodd" d="M40.3 35C62.2 35 80 28.3 80 20C80 11.7 62.2 5 40.3 5C18.4 5 0.600006 11.7 0.600006 20C0.600006 28.3 18.4 35 40.3 35Z" fill="#2F5E9C"/>
<path fill-rule="evenodd" clip-rule="evenodd" d="M40.3 33.5C19.3 33.5 2.10001 27.5 2.10001 20C2.10001 12.5 19.2 6.5 40.3 6.5C61.4 6.5 78.5 12.6 78.5 20C78.5 27.5 61.4 33.5 40.3 33.5Z" fill="white"/>
<path fill-rule="evenodd" clip-rule="evenodd" d="M40.3 32.4C60.7 32.4 77.3 26.8 77.3 20C77.3 13.2 60.7 7.60001 40.3 7.60001C19.9 7.60001 3.30002 13.2 3.30002 20C3.40002 26.9 19.9 32.4 40.3 32.4Z" fill="#2F5E9C"/>
<path fill-rule="evenodd" clip-rule="evenodd" d="M50 22.5C51.7 20.9 52.7 19.1 55.2 19.2C56.7 19.2 57.1 20.4 57.4 20.9L60.7 15.3H62.7L57.2 25C57.1 25.2 56.8 25.6 56.9 25.9C57 26.4 57.6 26.3 57.3 26.3C58.4 26.2 60.4 24.1 60.9 23.6C61 23.5 61.2 23.2 61.3 23.2C61.4 23.2 61.6 23.3 61.6 23.5C61.6 23.6 61.4 24 61.2 24.2C60.2 25.5 58.5 27.5 56.6 27.5C55.7 27.5 55.3 27.1 55.2 26.4C54.8 26.8 53.3 27.4 51.8 27.4C50.5 27.4 50 26.6 49.8 26C49.6 25.5 49.5 24.8 49.6 24.1C48.9 24.5 48.3 24.5 47.3 24.5C46.2 24.5 45.6 24 45.2 22.7C44 25 43.9 25 42.7 27.4H40.5L43.3 22.7C43.7 22.1 43.8 21.5 44 21C44.1 20.7 43.8 20.4 43.5 20.4C43.1 20.4 42.6 20.8 42 21.3C42 21.3 40.6 22.8 39.5 24.4C38.5 25.9 36.8 27.6 34.9 27.6C33.5 27.6 32.3 26.9 32.1 25.4C32.1 25.4 32 25.7 30.8 26.4C30.7 26.5 30.4 26.6 30.4 26.6C30.2 26.4 30 26.1 30 26C30.1 26 30.2 25.9 30.7 25.5C31.6 24.8 31.9 24.2 31.9 24.2C32.1 23.7 32.5 22.9 32.8 22.4C33.6 20.9 34.9 19.3 37.1 19.2C37.5 19.2 37.6 19.4 37.6 19.5C37.8 19.7 37.7 20 37.7 20C36.2 20.2 35.1 21.1 34.5 22C34.1 22.6 33.7 23.5 33.6 24.2C33.4 25.4 34 26.1 34.8 26.3C36.3 26.5 37.5 25.5 38.5 23.8C38.8 23.4 38.9 22.2 38.9 21.6C38.9 21 38.6 20.3 38.3 20.1C38.3 19.7 38.6 19.4 38.9 19.4C39 19.4 39.1 19.4 39.2 19.5C39.7 20 40 21 40 21.7C40 22 40 22.2 39.9 22.5C41 21.2 42.3 19.5 43.4 19.2C43.6 19.1 43.8 19.1 44 19.1C45.9 19 45.7 20.8 45.7 20.8C46.7 19.6 47.4 19.2 48.4 19.2C49.4 19.3 49.8 20 49.8 20.5C49.8 21.2 49.3 21.9 48.4 22C47.7 22 47.2 21.6 47 21C46.5 21.2 46.3 21.5 46.2 22.2C46 23 46.7 23.7 47.5 23.7C48.9 23.6 49.5 22.9 50 22.5Z" fill="white"/>
<path fill-rule="evenodd" clip-rule="evenodd" d="M51.5 11.5C51.5 12.3 48.6 13.9 46.2 13.9C42.4 13.9 38.5 12.1 36.6 11.7C34.6 11.2 32.8 10.9 31.4 10.9C26.5 10.9 24.3 13 24.4 15C24.5 15.8 25.1 16.3 26 16.1C27 15.9 28.5 14.9 28.8 14.1C28.9 13.9 29.1 13.9 29.2 13.9C29.4 14 29.3 14.2 29.3 14.2C29.2 15.2 27.6 18 25 18C23.5 18 22.5 16.6 22.5 15.3C22.5 12.8 25.1 10.2 31.5 10.2C32.7 10.2 34.1 10.3 35.5 10.6C37.2 10.9 41.5 11.6 45 11.7C46.3 11.7 47.9 11.8 49.3 11.5C50.7 11.3 50.4 11.2 51 11.2C51.5 11 51.5 11.2 51.5 11.5Z" fill="white"/>
<path fill-rule="evenodd" clip-rule="evenodd" d="M55.3 20.4C54.4 20.3 53.3 21.1 52.4 22.2C51.9 22.8 51.5 23.8 51.4 24.5C51.3 25.1 51.5 25.8 51.7 26C51.9 26.2 53 26.7 54.5 25.1C55.4 24.2 56.3 22.7 56.3 22.7L56 22.6C56.5 21.6 56.4 20.5 55.3 20.4Z" fill="#2F5E9C"/>
<path fill-rule="evenodd" clip-rule="evenodd" d="M36.6 17.3C36.6 17.6 37 17.8 37.3 17.8C37.2 18.1 37.2 18.2 37.1 18.2C36.3 18.2 36 17.5 36 17.5C35 17.7 34 17.8 32 18C26.9 26.2 25.3 27.6 22.2 27.6C20 27.6 18 26.1 17.9 23.5C17.9 21.9 19.2 20 21.5 19.4C21.8 19.4 21.9 19.5 21.9 19.7C21.9 19.8 21.8 19.9 21.6 20C20.9 20.3 19.7 21.6 19.7 22.9C19.7 23.8 20.3 24.9 21.3 25.1C21.6 25.2 21.8 25.2 22.1 25.2C24.6 25.2 27.4 22.4 30.4 18.2C29.9 18.2 27.8 18.5 27.3 19C27.1 19.2 26.9 19.1 26.9 18.9C26.9 18.8 27 18.7 27.1 18.6C27.9 17.7 30.4 17.5 31 17.4C33.3 13.9 36.3 11.7 36.9 11.7C37 11.7 37.2 11.9 37.1 12.1C37.1 12.2 36.8 12.4 36.7 12.5C36.2 13 34.4 14.1 32.6 17.3C34.1 17.2 35.9 16.9 35.9 16.9C35.9 16.9 35.8 16.6 35.8 16.3C35.9 15.2 36.5 14.5 37.3 14.7C37.8 14.8 38.1 15.2 38.1 15.6C38.1 16 37.8 16.7 37.4 17C37.2 17 36.9 17.2 36.6 17.3Z" fill="white"/>
<path fill-rule="evenodd" clip-rule="evenodd" d="M36.5 16.8C36.5 16.8 36.8 16.8 37.1 16.4C37.3 16.2 37.5 15.8 37.5 15.5C37.5 15.3 37.4 15.2 37.2 15.2C36.8 15.3 36.6 15.5 36.5 15.8C36.4 16.2 36.4 16.5 36.5 16.8Z" fill="#2F5E9C"/>
<path fill-rule="evenodd" clip-rule="evenodd" d="M140.7 23.9C140.5 25.1 139.3 28.9 137.5 28.9C134.9 28.9 136.9 20.7 139.4 20.7C140.7 20.7 141 22.1 140.7 23.9ZM176.2 20.3C176.6 17.6 173 16.8 171.8 19.7C171.3 18.6 170.4 18.1 169.4 18C165.8 17.6 163.8 21 162.9 23.9C162 26.8 161.6 28.2 160.5 28.3C159.8 28.3 159.7 26 160.4 21.6C160.6 20.6 160.7 19.8 160.8 19.4C160.8 18.9 160.6 18.7 160 18.7L153.8 18.6C153.8 16.5 153.8 15.7 153.9 13.6C154 11.2 154.5 9.49999 155.6 9.39999C156.9 9.39999 156.9 10.8 156.8 11.7C156.7 13.3 155.5 13.3 155.5 15C155.5 16.7 157.3 17.4 158.8 17.2C160 17 160.7 16 160.9 14.7C161.6 11.5 160 7.70001 155.2 7.70001C153.1 7.70001 150 10.1 149.8 13.5L149.6 18.2C149.6 18.3 149.6 18.5 149.6 18.7C148.6 18.7 148.6 18.7 147.7 18.7C147.4 18.7 147.1 18.8 147.1 19C147.2 20.9 148.6 20.9 149.6 20.8C149.5 25.1 148.2 28.3 146.8 28.3C144.4 28.4 146.1 22 146.3 20.2C146.7 17.6 142.8 17.4 142 19.7C141.6 18.9 141.1 18.3 140.2 18.1C136.8 17.2 134 20.4 133.1 23.9C131.9 28.7 134.3 31.5 137 31.6C138.7 31.6 140.4 30.5 141.5 28.3C141.5 31.8 147.3 34 149.8 26.8C149.7 29.3 149.7 31 149 35C148.7 36.5 150.3 36.7 151.6 34.1C153.5 30.1 154.1 23.8 154.1 20.8C155 20.8 155.4 20.8 156.3 20.8L155.7 26C155.3 29.7 157.3 31.7 159.3 31.6C160.7 31.5 162.3 30.2 162.9 28.1C163.1 30.8 168.1 34.3 171.4 28.3C171.8 30.1 174 32.1 175.9 32.2C176.8 32.2 177 31.8 176.5 31.2C174.6 29.3 175.6 24.3 176.2 20.3ZM167.2 28.9C164.9 28.8 166.6 20.4 169.4 20.7C170.7 20.8 170.9 22.3 170.7 23.7C170.2 26.8 168.9 29 167.2 28.9Z" fill="#2E2024"/>
<path fill-rule="evenodd" clip-rule="evenodd" d="M134 15.9C135.4 15.7 136.8 14.3 137.2 12.9C140 2.29999 115.5 -0.200015 112.1 12.3C111.2 15.7 113.4 19.1 116.1 20.5C118.9 21.9 124.7 23.8 126.8 24.8C129.1 25.9 131 26.6 130.6 28.2C130.1 30 126.5 30.5 123 29.8C119.7 29.2 117.4 27.5 118.3 25C118.4 24.8 118.1 24.6 117.8 24.7C113.2 27.3 114.2 32.7 122.4 33.6C127.8 34.2 131.8 32.2 133 28.8C134.5 24.5 131.8 22 129.2 20.6C127.6 19.7 121.6 17.8 118.4 16.6C116.3 15.8 114.6 14.3 114.9 12.6C115.7 7 137.5 5.99999 133.8 15.4C133.7 15.5 133.8 15.9 134 15.9Z" fill="#2E2024"/>
<path d="M213.7 31C214.3 31 214.8 31 215.4 30.9C216.4 30.7 217.1 30.1 217.6 29.2C217.9 28.6 218.1 27.9 218.2 27.2C218.2 27.1 218.2 27.1 218.2 27C218.2 18.1 218.2 9.29999 218.2 0.399994C218.2 0.299994 218.2 0.300012 218.2 0.200012C218.3 0.200012 218.3 0.299988 218.3 0.299988C221.3 3.29999 224.4 6.29999 227.4 9.29999C229.2 11.1 231 12.9 232.8 14.7C232.9 14.8 232.9 14.8 232.9 14.9C232.9 18.8 232.9 22.7 232.9 26.6V26.7C232.8 26.8 232.8 26.8 232.7 26.8C232.3 26.8 231.9 26.8 231.5 26.8C231.2 26.8 231.2 26.8 231.2 26.5C231.2 23.4 231.2 20.4 231.2 17.3V17.2C230.8 16.9 230.4 16.6 230 16.2C229.3 15.6 228.5 15 227.8 14.3C227.2 13.8 226.5 13.2 225.9 12.7C225.2 12.1 224.5 11.5 223.7 10.8C223.1 10.3 222.4 9.70001 221.8 9.20001C221.7 9.10001 221.6 9 221.5 9C221.4 9.1 221.5 9.10001 221.5 9.10001C221.5 16.3 221.5 23.4 221.5 30.6C221.5 30.7 221.5 30.8 221.7 30.8C221.9 30.9 222.1 31 222.3 31.1C222.4 31.3 222.3 31.5 222.3 31.8C222.3 31.9 222.3 32 222.3 32.2C222.1 32.2 222 32.2 221.8 32.2C220.6 32.2 219.5 32.2 218.3 32.2C216.8 32.2 215.3 32.2 213.8 32.2C213.6 32.2 213.6 32.2 213.6 32C213.7 31.7 213.7 31.3 213.7 31Z" fill="#393185"/>
<path d="M238 14.7C238.3 14.3 238.7 14 239.1 13.6C242.7 10 246.3 6.49999 249.9 2.89999C250.8 1.99999 251.7 1.19999 252.6 0.299988C252.7 0.199988 252.7 0.200006 252.8 0.100006C252.8 0.200006 252.8 0.299994 252.8 0.399994C252.8 9.09999 252.8 17.8 252.8 26.4C252.8 27.4 253.1 28.3 253.5 29.2C253.8 29.7 254.2 30.2 254.7 30.4C255.2 30.7 255.7 30.8 256.2 30.8C256.4 30.8 256.5 30.8 256.7 30.8C256.8 30.9 257 30.8 257.1 30.8C257.2 30.8 257.3 30.8 257.3 31C257.3 31.3 257.3 31.5 257.3 31.8C257.3 32 257.3 32 257.1 32C254.4 32 251.7 32 248.9 32C248.6 32 248.6 32 248.6 31.7C248.6 31.4 248.6 31.2 248.6 30.9C248.8 30.8 249 30.7 249.2 30.6C249.3 30.5 249.4 30.5 249.4 30.3C249.4 28.1 249.4 26 249.4 23.8C249.4 18.8 249.4 13.9 249.4 8.89999C249.4 8.79999 249.4 8.70001 249.4 8.70001C249.3 8.70001 249.3 8.79999 249.2 8.79999C248.1 9.69999 247 10.7 245.9 11.6C244.8 12.5 243.8 13.4 242.7 14.3C241.7 15.1 240.8 15.9 239.8 16.8C239.7 16.9 239.7 17 239.7 17.1C239.7 20 239.7 22.8 239.7 25.7C239.7 26 239.7 26.2 239.7 26.5C239.6 26.5 239.5 26.5 239.5 26.5C239.1 26.5 238.7 26.5 238.3 26.5C238 26.5 238 26.5 238 26.2C238 22.3 238 18.5 238 14.6C238 14.9 238.1 14.8 238 14.7Z" fill="#393185"/>
<path d="M235.5 39.8C228.2 39.8 221 39.8 213.7 39.8C213.5 39.8 213.5 39.8 213.5 39.6C213.5 39.3 213.5 39.3 213.8 39.3C228.3 39.3 242.8 39.3 257.3 39.3C257.5 39.3 257.5 39.3 257.5 39.5C257.5 39.8 257.5 39.8 257.2 39.8C249.9 39.8 242.7 39.8 235.5 39.8Z" fill="#3C3485"/>
<path d="M235.5 34C228.2 34 221 34 213.7 34C213.5 34 213.5 34 213.5 33.8C213.5 33.5 213.5 33.5 213.8 33.5C228.2 33.5 242.6 33.5 257.1 33.5C257.5 33.5 257.5 33.5 257.5 33.9C257.5 34 257.5 34 257.4 34H257.3C250 34 242.8 34 235.5 34Z" fill="#3F3787"/>
<path d="M247 25.4C247 24.8 247 24.2 247 23.6C247 23.5 247 23.4 247.1 23.4C247.6 23.4 248.2 23.3 248.7 23.3C248.9 23.3 248.9 23.3 248.9 23.5C248.9 24.4 248.9 25.3 248.9 26.3C248.9 26.9 248.9 27.5 248.9 28.1C248.9 28.3 248.9 28.3 248.7 28.2C248.5 28.1 248.3 28.1 248.1 28.1C247.8 28 247.5 28 247.2 27.9C247.1 27.9 247.1 27.8 247.1 27.7C247 27 247 26.2 247 25.4Z" fill="#D6B46E"/>
<path d="M222.1 26.5C222.1 26 222.1 25.6 222.1 25.1C222.1 24.5 222.1 24 222.1 23.4C222.1 23.3 222.1 23.2 222.3 23.2C222.8 23.2 223.2 23.3 223.7 23.3C224 23.4 224 23.4 224 23.7C224 25 224 26.3 224 27.6C224 27.8 223.9 27.8 223.8 27.8C223.3 27.9 222.8 28 222.3 28.1C222.2 28.1 222.1 28.1 222.1 28C222.1 27.6 222.1 27 222.1 26.5Z" fill="#D6B46E"/>
<path d="M224 19.9C224 20.6 224 21.2 224 21.9C224 22 224 22.1 223.8 22.1C223.6 22.1 223.5 22 223.3 22C222.9 21.9 222.5 21.9 222.2 21.8C222.1 21.8 222.1 21.7 222.1 21.7C222.1 20.8 222.1 20 222.1 19.1C222.1 18.4 222.1 17.8 222.1 17.1C222.1 17 222.1 16.9 222.3 17C222.8 17.2 223.3 17.4 223.8 17.7C223.9 17.8 224 17.8 224 18C224 18.6 224 19.3 224 19.9Z" fill="#D6B46E"/>
<path d="M248.9 18.9C248.9 19.5 248.9 20 248.9 20.6C248.9 21 248.9 21.3 248.9 21.7C248.9 21.8 248.9 21.8 248.8 21.9C248.4 22 248 22 247.6 22.1C247.5 22.1 247.3 22.2 247.2 22.2C247 22.2 247 22.2 247 22C247 20.9 247 19.8 247 18.8C247 18.6 247 18.3 247 18.1C247 18 247 17.9 247.1 17.9C247.7 17.7 248.2 17.4 248.8 17.2C248.9 17.1 248.9 17.3 248.9 17.3C248.9 17.7 248.9 18.3 248.9 18.9Z" fill="#D6B46E"/>
<path d="M248.8 10.9C248.8 11 248.8 11 248.8 11.1C248.8 12.6 248.8 14 248.8 15.5C248.8 15.6 248.7 15.7 248.6 15.8C248.1 16 247.6 16.3 247.1 16.6C247 16.7 246.9 16.6 246.9 16.5C246.9 15.2 246.9 13.8 246.9 12.5C246.9 12.4 246.9 12.4 247 12.3C247.5 11.9 248 11.6 248.4 11.2C248.6 11 248.7 10.9 248.8 10.9Z" fill="#D6B46E"/>
<path d="M222.2 10.9C222.5 11.2 222.9 11.4 223.2 11.7C223.5 11.9 223.7 12.1 224 12.3C224.1 12.4 224.1 12.4 224.1 12.5C224.1 13.7 224.1 14.8 224.1 16C224.1 16.2 224.1 16.3 224.1 16.5C224.1 16.6 224.1 16.6 224 16.6C223.5 16.3 222.9 16.1 222.4 15.8C222.3 15.8 222.3 15.7 222.3 15.6C222.2 14 222.2 12.5 222.2 10.9Z" fill="#D6B46E"/>
<path d="M215.6 38.1C215.4 37.7 215.2 37.4 215 37C214.8 36.7 214.6 36.3 214.4 36C214.3 36 214.3 36.1 214.3 36.1C214.3 36.7 214.3 37.2 214.3 37.8C214.3 37.9 214.3 38 214.5 38.1C214.2 38.1 213.9 38.1 213.6 38.1C213.8 38 213.8 37.8 213.8 37.6C213.8 36.8 213.8 36.1 213.8 35.3C213.8 35.2 213.8 35 213.7 35C214.1 35 214.5 35 214.9 35C214.8 35.1 214.8 35.3 214.9 35.4C215.1 35.9 215.4 36.3 215.6 36.8C215.6 36.8 215.6 36.9 215.7 36.9C216 36.4 216.3 35.8 216.6 35.3C216.7 35.2 216.6 35.1 216.5 35C216.9 35 217.3 35 217.7 35C217.5 35.1 217.5 35.3 217.5 35.4C217.5 36.2 217.5 37 217.5 37.7C217.5 37.8 217.5 37.9 217.6 38C217.3 38 217 38 216.6 38C216.8 37.9 216.8 37.8 216.8 37.6C216.8 37 216.8 36.5 216.8 35.9C216.8 35.9 216.8 35.9 216.7 35.9C216.4 36.7 216 37.4 215.6 38.1Z" fill="#3C3485"/>
<path d="M232.6 38.1C232.7 38 232.7 37.9 232.7 37.8C232.7 37 232.7 36.2 232.7 35.4C232.7 35.3 232.7 35.1 232.6 35.1C232.6 35 232.7 35.1 232.7 35.1C233.4 35.1 234.1 35.1 234.7 35.1C234.9 35.1 235.2 35.1 235.4 35.3C235.8 35.6 235.9 36.3 235.4 36.6C235.4 36.6 235.3 36.6 235.3 36.7C235.6 36.8 235.8 37.1 235.8 37.4C235.8 37.8 235.6 38.1 235.2 38.2C235.1 38.2 234.9 38.3 234.8 38.3C234.1 38.1 233.3 38.1 232.6 38.1ZM234.1 37.6C234.3 37.6 234.5 37.6 234.7 37.6C235 37.6 235.1 37.4 235.1 37.2C235.1 37 234.9 36.8 234.7 36.8C234.3 36.8 233.9 36.8 233.5 36.8C233.4 36.8 233.4 36.8 233.4 36.9C233.4 37.1 233.4 37.3 233.4 37.5C233.4 37.6 233.4 37.6 233.5 37.6C233.7 37.6 233.9 37.6 234.1 37.6ZM234.1 36.3C234.3 36.3 234.5 36.3 234.7 36.3C234.9 36.3 235.1 36.1 235 35.9C235 35.7 234.8 35.6 234.6 35.6C234.2 35.6 233.8 35.6 233.5 35.6C233.4 35.6 233.4 35.6 233.4 35.7C233.4 35.9 233.4 36 233.4 36.2C233.4 36.3 233.4 36.3 233.5 36.3C233.7 36.3 233.9 36.3 234.1 36.3Z" fill="#3C3485"/>
<path d="M225.2 25.6C225.2 25 225.2 24.4 225.2 23.7C225.2 23.6 225.2 23.5 225.4 23.5C225.7 23.5 226 23.6 226.3 23.6C226.4 23.6 226.4 23.6 226.4 23.7V23.8C226.4 24.9 226.4 26 226.4 27.2C226.4 27.4 226.3 27.4 226.2 27.5C226 27.5 225.7 27.6 225.5 27.6C225.3 27.7 225.3 27.6 225.3 27.4C225.2 26.8 225.2 26.2 225.2 25.6Z" fill="#D6B46E"/>
<path d="M244.6 25.6C244.6 25 244.6 24.4 244.6 23.9C244.6 23.8 244.6 23.7 244.8 23.7C245.1 23.7 245.3 23.6 245.6 23.6C245.7 23.6 245.8 23.6 245.8 23.8C245.9 25 245.8 26.3 245.8 27.5C245.8 27.7 245.8 27.7 245.6 27.7C245.4 27.6 245.1 27.6 244.9 27.6C244.8 27.6 244.7 27.5 244.7 27.4C244.6 26.7 244.6 26.1 244.6 25.6Z" fill="#D6B46E"/>
<path d="M226.4 20.7C226.4 21.3 226.4 21.8 226.4 22.4C226.4 22.6 226.4 22.6 226.2 22.5C225.9 22.4 225.6 22.4 225.4 22.3C225.3 22.3 225.3 22.2 225.3 22.1C225.3 21.5 225.3 21 225.3 20.4C225.3 19.7 225.3 19.1 225.3 18.4C225.3 18.3 225.3 18.2 225.5 18.3C225.8 18.4 226 18.6 226.3 18.7C226.4 18.7 226.4 18.8 226.4 18.9C226.4 19.5 226.4 20.1 226.4 20.7Z" fill="#D6B46E"/>
<path d="M245.8 20.3C245.8 20.9 245.8 21.5 245.8 22.1C245.8 22.2 245.7 22.3 245.6 22.3C245.3 22.3 245.1 22.4 244.8 22.4C244.7 22.4 244.7 22.4 244.7 22.3C244.7 21.7 244.7 21.1 244.7 20.6C244.7 20 244.7 19.5 244.7 18.9C244.7 18.8 244.7 18.7 244.9 18.7C245.2 18.6 245.5 18.5 245.7 18.3C245.9 18.2 245.8 18.3 245.8 18.4C245.8 18.9 245.8 19.4 245.8 19.9C245.8 20.1 245.8 20.2 245.8 20.3Z" fill="#D6B46E"/>
<path d="M244.6 15.9C244.6 15.3 244.6 14.8 244.6 14.3C244.6 14.2 244.6 14.1 244.7 14.1C245 13.9 245.3 13.7 245.5 13.5C245.5 13.5 245.6 13.4 245.7 13.4C245.8 13.4 245.7 13.5 245.7 13.6C245.7 14.8 245.7 15.9 245.7 17.1C245.7 17.3 245.7 17.4 245.5 17.4C245.2 17.5 245 17.7 244.7 17.8C244.6 17.9 244.6 17.8 244.6 17.7C244.6 17 244.6 16.4 244.6 15.9Z" fill="#D6B46E"/>
<path d="M225.3 13.3C225.7 13.6 226 13.8 226.3 14.1C226.4 14.1 226.4 14.2 226.4 14.3C226.4 15.4 226.4 16.5 226.4 17.6C226.4 17.7 226.4 17.8 226.3 17.7C226 17.5 225.7 17.4 225.4 17.3C225.3 17.3 225.3 17.2 225.3 17.2C225.3 15.8 225.3 14.6 225.3 13.3Z" fill="#D6B46E"/>
<path d="M248.9 36.5C248.9 37 248.9 37.4 248.9 37.9C248.9 38 249 38.1 249.1 38.2C248.8 38.2 248.5 38.2 248.2 38.2C248.4 38.1 248.4 38 248.4 37.9C248.4 37.3 248.4 36.6 248.4 36C248.4 35.9 248.4 35.8 248.3 35.7C248.6 35.7 248.9 35.7 249.3 35.7C249.2 35.8 249.2 35.9 249.3 36L249.4 36.1C249.8 36.5 250.2 36.9 250.6 37.4C250.6 37.4 250.6 37.4 250.7 37.4C250.7 37.1 250.7 36.7 250.7 36.4C250.7 36.3 250.7 36.2 250.7 36.1C250.7 35.9 250.7 35.9 250.6 35.8C250.9 35.8 251.1 35.8 251.4 35.8C251.2 35.9 251.2 36 251.2 36.1C251.2 36.7 251.2 37.4 251.2 38C251.2 38.1 251.2 38.2 251.3 38.3C251 38.3 250.7 38.3 250.4 38.3C250.5 38.2 250.5 38.2 250.5 38.1C249.9 37.4 249.4 37 248.9 36.5Z" fill="#3C3485"/>
<path d="M224.3 38.1C224 38.1 223.6 38.1 223.2 38.1C223.4 38 223.3 37.9 223.3 37.8C223.2 37.6 223 37.5 222.9 37.3C222.8 37.1 222.7 37.1 222.5 37.1C222.1 37.1 222.1 37.1 222.1 37.5C222.1 37.6 222.1 37.8 222.1 37.9C222.1 38 222.1 38.1 222.2 38.2C221.9 38.2 221.7 38.2 221.3 38.2C221.5 38.1 221.5 38 221.5 37.8C221.5 37.2 221.5 36.6 221.5 36C221.5 35.9 221.5 35.7 221.4 35.6C222.1 35.6 222.9 35.5 223.6 35.6C224 35.6 224.2 35.9 224.2 36.3C224.2 36.6 224.1 36.8 223.7 37C223.4 37.1 223.4 37.1 223.6 37.3C223.7 37.5 223.9 37.7 224 37.8C224.1 38 224.2 38.1 224.3 38.1ZM222.8 36.6C223 36.6 223.1 36.6 223.3 36.6C223.5 36.6 223.6 36.5 223.6 36.3C223.6 36.1 223.5 36 223.3 36C223 36 222.6 36 222.3 36C222.2 36 222.2 36 222.2 36.1C222.2 36.6 222.2 36.6 222.6 36.6C222.6 36.6 222.7 36.6 222.8 36.6Z" fill="#393185"/>
<path d="M228 38.1C228.1 38 228.1 37.9 228.1 37.8C228.1 37.1 228.1 36.5 228.1 35.8C228.1 35.7 228.1 35.6 228 35.5H228.1C228.6 35.5 229.1 35.5 229.6 35.5C230.4 35.5 230.9 36 230.8 36.8C230.8 37.3 230.7 37.7 230.2 38C230 38.1 229.9 38.1 229.7 38.1C229.2 38.1 228.6 38.1 228 38.1ZM228.8 36.9C228.8 37.1 228.8 37.4 228.8 37.6C228.8 37.7 228.8 37.7 228.9 37.7C229.1 37.7 229.3 37.7 229.5 37.7C230 37.7 230.2 37.5 230.3 37.1C230.3 36.9 230.3 36.7 230.3 36.5C230.2 36.2 230 36.1 229.7 36C229.4 36 229.2 36 228.9 36C228.8 36 228.8 36 228.8 36.1C228.8 36.4 228.8 36.6 228.8 36.9Z" fill="#3C3485"/>
<path d="M243.6 38.1C243.7 38 243.7 37.9 243.7 37.8C243.7 37.2 243.7 36.5 243.7 35.9C243.7 35.8 243.7 35.6 243.6 35.6C244.3 35.6 244.9 35.5 245.6 35.6C246.1 35.7 246.5 36.1 246.5 36.6C246.5 36.9 246.5 37.3 246.3 37.6C246.1 37.9 245.8 38.1 245.5 38.1C244.8 38.1 244.2 38.1 243.6 38.1ZM244.3 36.9C244.3 37.1 244.3 37.4 244.3 37.6C244.3 37.7 244.3 37.7 244.4 37.7C244.7 37.7 245 37.7 245.2 37.7C245.5 37.6 245.7 37.5 245.8 37.2C245.8 37 245.8 36.8 245.8 36.6C245.7 36.3 245.5 36.1 245.2 36.1C244.9 36.1 244.7 36.1 244.4 36.1C244.3 36.1 244.3 36.1 244.3 36.2C244.3 36.4 244.3 36.6 244.3 36.9Z" fill="#3C3485"/>
<path d="M254.6 36.8C254.4 37 254.4 37.6 254.6 37.8C254.3 38 253.9 38.1 253.6 38.2C253.3 38.3 252.9 38.2 252.6 38.1C252.1 37.9 251.6 37.5 251.7 36.7C251.7 36.2 252.2 35.7 252.7 35.6C253.2 35.5 253.6 35.5 254 35.7C254.1 35.7 254.2 35.8 254.4 35.7C254.3 35.9 254.2 36.1 254.1 36.3C253.9 36 253.7 36 253.4 35.9C253.1 35.9 252.9 35.9 252.6 36.1C252.3 36.3 252.2 36.6 252.2 36.9C252.3 37.3 252.5 37.5 252.8 37.6C253.1 37.7 253.5 37.7 253.8 37.5C253.9 37.5 254 37.1 253.9 37.1C253.8 37 253.2 37.1 253.1 37.2C253.1 37 253.1 36.8 253.1 36.6C253.2 36.7 253.3 36.7 253.5 36.7C253.9 36.8 254.3 36.8 254.6 36.8Z" fill="#3C3485"/>
<path d="M255 38C255.1 37.8 255.2 37.6 255.3 37.4C255.3 37.6 255.4 37.6 255.5 37.6C255.9 37.8 256.3 37.8 256.8 37.7C256.9 37.7 257.1 37.6 257.1 37.4C257.1 37.2 256.9 37.2 256.8 37.2C256.4 37.1 256.1 37.2 255.7 37.1C255.4 37 255.2 36.8 255.2 36.5C255.2 36.2 255.3 35.9 255.6 35.8C256.1 35.5 256.6 35.6 257.2 35.8C257.3 35.8 257.4 35.9 257.4 35.9C257.5 36 257.5 36 257.7 35.9C257.6 36.1 257.5 36.3 257.4 36.5C257.4 36.3 257.3 36.3 257.2 36.2C256.8 36 256.5 36 256.1 36.1C256 36.1 256 36.1 255.9 36.2C255.8 36.2 255.7 36.3 255.8 36.4C255.8 36.5 255.9 36.6 256 36.6C256.3 36.7 256.6 36.7 256.9 36.7C257 36.7 257.2 36.8 257.3 36.8C257.6 36.9 257.7 37.1 257.8 37.4C257.8 37.7 257.7 37.9 257.4 38.1C257.1 38.3 256.7 38.3 256.3 38.3C256 38.3 255.7 38.2 255.4 38.1C255.2 37.9 255.1 37.9 255 38Z" fill="#3C3485"/>
<path d="M220.2 35.6C220.5 35.6 220.7 35.6 221 35.6C220.9 35.7 220.9 35.8 220.9 35.9C220.9 36.3 220.9 36.7 220.9 37.1C220.9 37.8 220.6 38.1 220 38.1C219.6 38.1 219.2 38.1 218.9 38C218.6 37.9 218.4 37.7 218.4 37.3C218.4 36.8 218.4 36.3 218.4 35.8C218.4 35.7 218.4 35.5 218.3 35.5C218.6 35.5 218.9 35.5 219.2 35.5C219 35.6 219 35.7 219 35.9C219 36.3 219 36.7 219 37.1C219 37.4 219.1 37.6 219.4 37.6C219.6 37.6 219.8 37.6 219.9 37.6C220.2 37.5 220.4 37.4 220.4 37.1C220.4 36.7 220.4 36.2 220.4 35.8C220.3 35.7 220.3 35.7 220.2 35.6Z" fill="#3C3485"/>
<path d="M236.2 35.6C236.5 35.6 236.7 35.6 237.1 35.6C236.9 35.7 236.9 35.9 236.9 36C236.9 36.3 236.9 36.7 236.9 37C236.9 37.4 237.1 37.6 237.5 37.6C237.6 37.6 237.7 37.6 237.8 37.6C238.2 37.5 238.3 37.4 238.3 37C238.3 36.6 238.3 36.2 238.3 35.8C238.3 35.7 238.3 35.6 238.2 35.5C238.5 35.5 238.7 35.5 239 35.5C238.8 35.6 238.8 35.7 238.8 35.8C238.8 36.2 238.8 36.6 238.8 37C238.8 37.6 238.6 37.8 238 38C237.6 38.1 237.2 38.1 236.8 37.9C236.4 37.8 236.2 37.5 236.2 37.1C236.2 36.6 236.2 36.2 236.2 35.7C236.4 35.8 236.4 35.7 236.2 35.6Z" fill="#3C3485"/>
<path d="M227.8 38.1C227.5 38.1 227.1 38.1 226.8 38.1C227 38 227 37.9 226.9 37.8C226.8 37.7 226.8 37.5 226.6 37.5C226.3 37.5 226 37.5 225.8 37.5C225.5 37.5 225.5 37.7 225.5 37.8C225.4 37.9 225.4 38 225.6 38.1C225.2 38.1 225 38.1 224.6 38.1C224.8 38 224.8 37.9 224.9 37.7C225.2 37.1 225.5 36.5 225.8 35.9C225.9 35.8 225.9 35.6 225.7 35.5C226.1 35.5 226.4 35.5 226.7 35.5C226.5 35.7 226.6 35.8 226.7 36C227 36.6 227.3 37.1 227.6 37.7C227.6 37.9 227.6 38.1 227.8 38.1ZM226.5 37.2C226.4 36.9 226.2 36.7 226.1 36.4C226 36.7 225.8 36.9 225.7 37.2C226 37.2 226.2 37.2 226.5 37.2Z" fill="#3C3485"/>
<path d="M243.6 25.5C243.6 26 243.6 26.5 243.6 27.1C243.6 27.2 243.6 27.3 243.4 27.2C243.2 27.2 243 27.1 242.9 27.1C242.8 27.1 242.8 27 242.8 26.9C242.8 25.9 242.8 24.9 242.8 23.9C242.8 23.8 242.8 23.8 242.9 23.8C243.1 23.8 243.3 23.8 243.4 23.8C243.6 23.8 243.6 23.8 243.6 24C243.5 24.5 243.6 25 243.6 25.5Z" fill="#D6B46E"/>
<path d="M227.5 25.5C227.5 25 227.5 24.5 227.5 24C227.5 23.9 227.5 23.8 227.7 23.8C227.9 23.8 228 23.8 228.2 23.8C228.4 23.8 228.4 23.9 228.4 24C228.4 24.5 228.4 25 228.4 25.5C228.4 26 228.4 26.4 228.4 26.9C228.4 27 228.4 27.1 228.2 27.1C228 27.1 227.9 27.2 227.7 27.2C227.5 27.2 227.5 27.2 227.5 27.1C227.5 26.6 227.5 26 227.5 25.5Z" fill="#D6B46E"/>
<path d="M243.6 21C243.6 21.5 243.6 22 243.6 22.5C243.6 22.6 243.6 22.7 243.4 22.7C243.2 22.7 243.1 22.8 242.9 22.8C242.7 22.8 242.7 22.8 242.7 22.6C242.7 21.9 242.7 21.2 242.7 20.5C242.7 20.2 242.7 20 242.7 19.7C242.7 19.6 242.7 19.5 242.8 19.5C243 19.4 243.2 19.3 243.4 19.2C243.5 19.1 243.6 19.2 243.6 19.3C243.5 20 243.6 20.5 243.6 21Z" fill="#D6B46E"/>
<path d="M227.5 19.3C227.8 19.4 228 19.5 228.3 19.6C228.4 19.6 228.4 19.7 228.4 19.8C228.4 20.8 228.4 21.7 228.4 22.7C228.4 22.8 228.4 22.8 228.3 22.8C228.1 22.8 227.9 22.7 227.7 22.7C227.6 22.7 227.6 22.6 227.6 22.6C227.5 21.5 227.5 20.4 227.5 19.3Z" fill="#D6B46E"/>
<path d="M242.7 18.7C242.7 17.7 242.7 16.7 242.7 15.7C242.7 15.7 242.7 15.6 242.8 15.6C243 15.4 243.2 15.3 243.4 15.1L243.5 15V15.1C243.5 15.8 243.5 16.5 243.5 17.2C243.5 17.5 243.5 17.8 243.5 18.2C243.5 18.3 243.5 18.3 243.4 18.4C243.2 18.5 243 18.6 242.7 18.7Z" fill="#D6B46E"/>
<path d="M228.3 18.8C228 18.7 227.8 18.5 227.6 18.4C227.5 18.4 227.5 18.3 227.5 18.2C227.5 17.2 227.5 16.2 227.5 15.2V15.1H227.6C227.8 15.2 227.9 15.4 228.1 15.5C228.3 15.6 228.3 15.8 228.3 15.9C228.3 16.8 228.3 17.8 228.3 18.8Z" fill="#D6B46E"/>
<path d="M240.9 35.6C241.2 35.6 241.4 35.6 241.8 35.6C241.6 35.7 241.6 35.9 241.6 36C241.6 36.5 241.6 37 241.6 37.5C241.6 37.6 241.6 37.7 241.8 37.7C242.2 37.7 242.6 37.7 243 37.7C243.1 37.7 243.2 37.7 243.3 37.6C243.3 37.8 243.3 38.1 243.3 38.3C243.2 38.1 243.1 38.1 243 38.1C242.3 38.1 241.7 38.1 241 38.1C241.1 38 241.1 37.9 241.1 37.8C241.1 37.2 241.1 36.6 241.1 36C241 35.9 241 35.7 240.9 35.6Z" fill="#393185"/>
<path d="M229.1 21.5C229.1 21.1 229.1 20.6 229.1 20.2C229.1 20 229.2 20 229.3 20.1C229.4 20.1 229.5 20.2 229.6 20.3C229.7 20.3 229.7 20.4 229.7 20.5C229.7 21.3 229.7 22.2 229.7 23C229.7 23.1 229.6 23.1 229.6 23.1C229.5 23.1 229.3 23 229.2 23C229.1 23 229.1 22.9 229.1 22.8C229.1 22.4 229.1 21.9 229.1 21.5Z" fill="#D6B46E"/>
<path d="M241.9 25.5C241.9 26 241.9 26.4 241.9 26.9C241.9 27 241.9 27.1 241.7 27C241.6 27 241.4 27 241.3 26.9C241.2 26.9 241.2 26.9 241.2 26.8C241.2 26 241.2 25.1 241.2 24.3C241.2 24.2 241.2 24 241.4 24.1C241.4 24.1 241.4 24.1 241.5 24.1C241.8 24 241.9 24.1 241.9 24.4C241.9 24.7 241.9 25.1 241.9 25.5Z" fill="#D6B46E"/>
<path d="M229.1 25.4C229.1 25 229.1 24.5 229.1 24.1C229.1 24 229.1 23.9 229.3 23.9C229.8 23.9 229.8 23.9 229.8 24.3C229.8 25.1 229.8 25.8 229.8 26.6C229.8 26.7 229.8 26.8 229.6 26.8C229.5 26.8 229.4 26.8 229.4 26.8C229.2 26.9 229.2 26.8 229.2 26.6C229.1 26.3 229.1 25.9 229.1 25.4Z" fill="#D6B46E"/>
<path d="M241.9 16.2C241.9 16.8 241.9 17.4 241.9 18C241.9 18.3 241.9 18.6 241.9 19C241.9 19.1 241.9 19.2 241.7 19.3C241.5 19.4 241.4 19.4 241.2 19.5C241.2 19.3 241.2 19.1 241.2 18.9C241.2 18.3 241.2 17.6 241.2 17C241.2 16.9 241.2 16.8 241.3 16.7C241.6 16.5 241.7 16.4 241.9 16.2Z" fill="#D6B46E"/>
<path d="M241.9 21.5C241.9 21.9 241.9 22.4 241.9 22.8C241.9 22.9 241.9 23 241.7 23C241.6 23 241.5 23.1 241.4 23.1C241.3 23.1 241.2 23.1 241.2 23C241.2 22.1 241.2 21.3 241.2 20.4C241.2 20.3 241.2 20.3 241.3 20.3C241.4 20.2 241.6 20.2 241.7 20.1C241.8 20.1 241.8 20.1 241.8 20.2C241.9 20.6 241.9 21.1 241.9 21.5Z" fill="#D6B46E"/>
<path d="M229.1 16.3C229.3 16.4 229.5 16.6 229.7 16.7L229.8 16.8C229.8 17.7 229.8 18.5 229.8 19.4C229.6 19.3 229.5 19.2 229.3 19.1C229.2 19.1 229.2 19 229.2 19C229.1 18.1 229.1 17.2 229.1 16.3Z" fill="#D6B46E"/>
<path d="M239.5 35.6C239.8 35.6 240 35.6 240.4 35.6C240.2 35.7 240.2 35.8 240.2 36C240.2 36.6 240.2 37.2 240.2 37.8C240.2 37.9 240.2 38.1 240.4 38.2C240.1 38.2 239.8 38.2 239.5 38.2C239.7 38.1 239.6 38 239.6 37.9C239.6 37.3 239.6 36.7 239.6 36C239.7 35.8 239.7 35.7 239.5 35.6Z" fill="#393185"/>
<path d="M246.9 38.1C247 38 247 37.9 247 37.8C247 37.2 247 36.6 247 35.9C247 35.8 247 35.6 246.9 35.5C247.2 35.5 247.4 35.5 247.8 35.5C247.6 35.6 247.6 35.8 247.6 35.9C247.6 36.5 247.6 37.1 247.6 37.6C247.6 37.7 247.6 37.8 247.8 37.9C247.4 38.1 247.2 38.1 246.9 38.1Z" fill="#393185"/>
<path d="M240.6 25.3C240.6 25.7 240.6 26.2 240.6 26.6C240.6 26.7 240.6 26.7 240.5 26.7C240.1 26.6 240.1 26.7 240.1 26.3C240.1 25.6 240.1 25 240.1 24.3C240.1 24.1 240.1 24.1 240.3 24.1C240.6 24.1 240.6 24.1 240.6 24.4C240.6 24.7 240.6 24.9 240.6 25.3Z" fill="#D6B46E"/>
<path d="M230.4 25.4C230.4 25 230.4 24.6 230.4 24.2C230.4 24.1 230.4 24.1 230.5 24.1C230.8 24.1 230.8 24.1 230.8 24.5C230.8 25.2 230.8 25.8 230.8 26.5C230.8 26.7 230.7 26.7 230.6 26.8C230.3 26.8 230.3 26.8 230.3 26.6C230.4 26.1 230.4 25.7 230.4 25.4Z" fill="#D6B46E"/>
<path d="M230.3 18.5C230.3 18.1 230.3 17.7 230.3 17.3V17.2H230.4C230.7 17.4 230.8 17.6 230.8 18C230.8 18.6 230.8 19.2 230.8 19.8C230.8 19.9 230.8 20 230.7 19.9C230.6 19.9 230.6 19.8 230.5 19.8C230.4 19.7 230.3 19.7 230.3 19.5C230.4 19.3 230.3 18.9 230.3 18.5Z" fill="#D6B46E"/>
<path d="M240.6 20.6C240.6 21.5 240.6 22.3 240.6 23.1C240.6 23.2 240.6 23.2 240.5 23.2C240.1 23.3 240.1 23.3 240.1 22.9C240.1 22.2 240.1 21.6 240.1 20.9C240.1 20.8 240.1 20.8 240.2 20.7C240.4 20.7 240.5 20.6 240.6 20.6Z" fill="#D6B46E"/>
<path d="M230.4 21.8C230.4 21.5 230.4 21 230.4 20.6C230.4 20.5 230.4 20.5 230.5 20.5C230.6 20.6 230.7 20.6 230.9 20.7C231 20.7 231 20.8 231 20.8C231 21.6 231 22.3 231 23.1C231 23.2 231 23.2 230.9 23.2C230.6 23.1 230.6 23.1 230.6 22.8C230.4 22.6 230.4 22.2 230.4 21.8Z" fill="#D6B46E"/>
<path d="M240.6 17.2C240.6 18.1 240.6 18.9 240.6 19.7C240.6 19.9 240.4 19.9 240.3 20C240.3 20 240.2 20 240.1 20.1C240.1 19.9 240.1 19.8 240.1 19.6C240.1 19 240.1 18.4 240.1 17.9C240.1 17.7 240.1 17.6 240.3 17.6C240.4 17.4 240.5 17.3 240.6 17.2Z" fill="#D6B46E"/>
<path d="M238 14.7C238.1 14.8 238 14.9 238 14.9C238 18.8 238 22.6 238 26.5C238 26.8 238 26.8 238.3 26.8C238.7 26.8 239.1 26.8 239.5 26.8C239.6 26.8 239.7 26.8 239.7 26.8C239.7 26.9 239.7 26.9 239.6 26.9C239.1 26.9 238.6 26.9 238.1 26.9C238 26.9 238 26.9 238 26.8C238 26.8 238 26.8 238 26.7C238 22.8 238 18.8 238 14.9C238 14.8 238 14.8 238 14.7Z" fill="#3C3485"/>
<path d="M248.6 31.2C248.7 31.5 248.6 31.7 248.6 32C248.6 32.3 248.6 32.3 248.9 32.3C251.6 32.3 254.3 32.3 257.1 32.3C257.3 32.3 257.3 32.3 257.3 32.1C257.3 31.8 257.3 31.6 257.3 31.3C257.3 31.2 257.2 31.1 257.1 31.1C257 31.1 256.8 31.1 256.7 31.1C256.9 31.1 257.1 31.1 257.2 31.1C257.3 31.1 257.3 31.1 257.3 31.2C257.3 31.6 257.3 31.9 257.3 32.3C257.3 32.4 257.3 32.4 257.2 32.4H257.1C254.3 32.4 251.5 32.4 248.8 32.4C248.7 32.4 248.6 32.4 248.6 32.2C248.6 31.8 248.6 31.5 248.6 31.2Z" fill="#3C3485"/>
<path d="M231.3 17.2C231.3 17.3 231.3 17.3 231.3 17.4C231.3 20.5 231.3 23.5 231.3 26.6C231.3 26.9 231.3 26.9 231.6 26.9C232 26.9 232.4 26.9 232.8 26.9C232.9 26.9 233 26.9 233 26.8C233 26.9 233 26.9 232.9 26.9C232.4 26.9 231.9 26.9 231.4 26.9C231.3 26.9 231.3 26.9 231.3 26.8V26.7C231.3 23.7 231.3 20.7 231.3 17.7C231.3 17.5 231.3 17.3 231.3 17.2Z" fill="#3C3485"/>
<path d="M213.7 31C213.7 31.3 213.7 31.7 213.7 32C213.7 32.2 213.7 32.2 213.9 32.2C215.4 32.2 216.9 32.2 218.4 32.2C219.6 32.2 220.7 32.2 221.9 32.2C222.1 32.2 222.2 32.2 222.4 32.2C222.4 32.2 222.4 32.3 222.3 32.3H222.2C219.4 32.3 216.7 32.3 213.9 32.3C213.7 32.3 213.7 32.3 213.7 32.1C213.7 31.8 213.7 31.5 213.7 31.2C213.7 31.1 213.6 31 213.7 31Z" fill="#3C3485"/>
<path d="M295.8 37.5C295.8 37.5 295.7 37.5 295.6 37.5C295 37.4 294.3 37.2 293.7 36.8C292.9 36.2 292.3 35.4 292.1 34.4C292 33.9 291.9 33.3 292 32.8C292.2 31.4 293.2 30.1 294.5 29.6C294.8 29.5 295.2 29.4 295.5 29.3C295.7 29.3 296.2 29.3 296.4 29.3C296.9 29.4 297.2 29.5 297.6 29.7C298 29.9 298.3 30.1 298.7 30.5C299 30.8 299.2 31.1 299.4 31.5V31.6L299.2 31.7C299 31.9 298.4 32.3 298.2 32.4L298 32.5L297.9 32.4C297.8 32.2 297.8 32.1 297.7 32C297.3 31.5 296.8 31.1 296.2 31C295.9 30.9 295.5 30.9 295.2 31C294.9 31.1 294.5 31.3 294.2 31.5C294.1 31.6 293.9 31.8 293.8 31.9C293.3 32.5 293.1 33.3 293.3 34.1C293.4 34.4 293.5 34.7 293.7 35C294.1 35.6 294.8 36 295.5 36.1C295.6 36.1 295.9 36.1 296.1 36.1C296.7 36 297.3 35.7 297.7 35.2C297.8 35.1 297.9 34.9 298 34.7C298 34.6 298.1 34.6 298.1 34.6C298.1 34.6 298.4 34.8 298.8 35.1L299.4 35.6L299.3 35.7C299.2 36 298.9 36.3 298.7 36.5C298.3 36.9 298 37.2 297.5 37.4C297.1 37.6 296.7 37.7 296.2 37.8C296.4 37.5 295.9 37.5 295.8 37.5ZM301.3 33.3V29.3H302.1H302.9V30.8V32.3H304.9H306.9V30.8V29.3H307.7H308.5V33.3V37.3H307.7H307V35.5V33.7H305H303V35.5V37.3H302.2H301.4V33.3H301.3ZM310.1 36.7C310.3 36.3 311.1 34.5 311.9 32.7L313.4 29.4H314.5H315.6L317.4 33.4C318.4 35.6 319.2 37.4 319.2 37.4H318.3H317.4L317 36.6L316.6 35.8H314.5H312.4L312 36.6L311.6 37.4H310.7H309.8L310.1 36.7ZM315.9 34.1L314.5 30.9L313.1 34.1C313.1 34.1 313.6 34.1 314.5 34.1C315.7 34.2 315.9 34.2 315.9 34.1ZM320.5 33.3V29.3H321.6H322.7L324.4 31.7L326.1 34.1V31.7V29.3H326.9H327.7V33.3V37.3H327.1H326.5L324.3 34.3C323.1 32.6 322.1 31.3 322.1 31.3C322.1 31.3 322.1 32.7 322.1 34.3V37.3H321.3H320.5V33.3ZM330.6 33.3V29.3H333.4H336.2V30.1V30.9H334.2H332.2V31.7V32.5H334.1H336V33.3V34.1H334H332.1V34.9V35.7H334.4H336.7V36.5V37.3H333.6H330.5V33.3H330.6ZM339 33.3V29.3H339.8H340.6V32.5V35.7H342.8H345V36.5V37.3H342H339V33.3Z" fill="black"/>
<path d="M312 27.2C310.3 27.1 308.4 26.6 306.9 25.8C305.7 25.2 304.8 24.5 303.8 23.5C303 22.7 302.5 22 302 21.3L301.8 21L302.1 20.8C302.7 20.5 305.3 19.2 305.3 19.2C305.3 19.2 305.4 19.3 305.5 19.5C306.9 21.5 309 22.8 311.5 23.2C311.9 23.3 313.2 23.3 313.7 23.2C314.2 23.1 314.9 23 315.3 22.8C315.3 22.8 315.3 22.7 315.2 22.6C314.3 21.6 313.5 20.1 313 18.8C312.2 16.4 312.1 13.8 312.8 11.3C313.2 9.79999 314 8.30001 315 7.10001C315.1 6.90001 315.3 6.80001 315.3 6.70001C315.3 6.70001 314.5 6.49999 314.1 6.39999C313.3 6.29999 312.1 6.29999 311.4 6.39999C310.2 6.59999 309.1 7.00001 308.1 7.60001C307.1 8.30001 306.2 9.10001 305.5 10.1L305.2 10.6L304.8 10.4C304.6 10.3 303.8 9.9 303.1 9.5C302.4 9.1 301.7 8.79999 301.7 8.79999C301.7 8.79999 302.2 7.99999 302.3 7.79999C302.9 6.99999 303.9 5.80001 304.7 5.20001C306.7 3.60001 308.9 2.7 311.5 2.5C312 2.5 313.1 2.5 313.6 2.5C315.2 2.6 316.6 3.00001 318 3.70001L318.7 4L318.9 3.89999C319.3 3.69999 319.9 3.40001 320.4 3.20001C321.8 2.70001 323.2 2.39999 324.7 2.39999C325.8 2.39999 326.7 2.50001 327.6 2.70001C329.8 3.20001 331.7 4.29999 333.3 5.89999C334.2 6.79999 334.9 7.60001 335.4 8.60001L335.5 8.70001L334.1 9.39999C333.3 9.79999 332.6 10.2 332.4 10.3L332 10.5L331.7 10.1C330.3 8.00001 328 6.59999 325.4 6.29999C324.6 6.19999 323.5 6.29999 322.8 6.39999C322.5 6.49999 321.9 6.60001 321.9 6.70001C321.9 6.70001 322 6.8 322.1 7C323.6 8.8 324.5 11 324.8 13.4C324.9 14 324.9 15.4 324.8 16C324.5 18.4 323.6 20.6 322.2 22.4C321.9 22.8 321.9 22.8 322 22.8C322 22.8 322.3 22.9 322.5 22.9C323.7 23.2 325 23.2 326.2 23C328.4 22.6 330.4 21.3 331.6 19.4C331.7 19.2 331.8 19.1 331.8 19.1C331.8 19.1 332.1 19.2 332.5 19.4C333.2 19.7 335.3 20.9 335.4 20.9C335.4 20.9 334.8 22 334.3 22.5C333.9 23 332.9 24 332.4 24.4C330.6 25.8 328.6 26.7 326.4 27C323.8 27.4 321.1 26.9 318.9 25.7L318.6 25.5L318.2 25.7C316.4 26.9 314.2 27.3 312 27.2ZM319.1 20.2C320.2 18.9 320.8 17.3 321 15.6C321.1 15.1 321 13.9 320.9 13.4C320.7 12 320.2 10.8 319.3 9.79999C319.1 9.59999 318.9 9.30001 318.8 9.20001L318.6 9L318.4 9.20001C318.1 9.50001 317.7 10.1 317.5 10.4C316.4 12.2 316 14.5 316.5 16.6C316.8 17.9 317.5 19.3 318.4 20.4L318.6 20.6L318.7 20.5C318.8 20.6 318.9 20.4 319.1 20.2Z" fill="black"/>
</svg>
