<svg width="347" height="55" viewBox="0 0 347 55" fill="none" xmlns="http://www.w3.org/2000/svg">
<path d="M32.4 34C21.2 35 9.4 33.4 7.8 24.6C7 20.3 9 15.7 11.6 12.8V11.3C6.9 15.4 4.3 20.7 5.8 26.8C7.7 34.7 17.7 39.2 33.1 37.7C39.2 37.1 47.1 35.2 52.6 32.1V27.8C47.6 30.9 39.3 33.4 32.4 34ZM62 11.2C59.3 -1.79998 34.1 -2.6 17.8 7.3V8.4C34.1 2.38419e-06 57.2 0.100015 59.3 12.1C60 16.1 57.8 20.2 53.8 22.6V25.7C58.5 23.9 63.4 18.2 62 11.2Z" fill="#0E7DC2"/>
<path d="M51.7 9.29999H48.8V22.4C48.8 23.9 49.5 25.3 51.7 25.5V9.29999Z" fill="#0E7DC2"/>
<path d="M16.6 14.1H13.6V22.7C13.6 24.2 14.3 25.6 16.6 25.8V14.1Z" fill="#0E7DC2"/>
<path d="M16.6 9.70001H13.7V12.5H16.6V9.70001Z" fill="#0E7DC2"/>
<path d="M34.3 25.6C31.9 25.6 30.9 23.9 30.9 22.3V11H33.8V14.1H36V16.5H33.8V22.2C33.8 22.9 34.1 23.2 34.8 23.2H36V25.6H34.3Z" fill="#0E7DC2"/>
<path d="M39.6 20.8C39.6 22.3 40.5 23.4 42.2 23.4C43.5 23.4 44.1 23 44.9 22.3L46.7 24C45.5 25.1 44.3 25.8 42.2 25.8C39.4 25.8 36.7 24.3 36.7 19.8C36.7 16 39 13.8 42.1 13.8C45.2 13.8 47 16.3 47 19.6V20.7H39.6M42 16.3C41 16.3 40.2 16.8 39.9 17.5C39.7 17.9 39.6 18.2 39.6 18.8H44.1C44.1 17.5 43.5 16.3 42 16.3Z" fill="#0E7DC2"/>
<path d="M24.5 16.5C25.4 16.5 25.7 16.9 25.7 17.6V25.7H28.6V17.6C28.6 16 27.7 14.1 25.2 14.1H19.2V25.6H22.1V16.4H24.5V16.5Z" fill="#0E7DC2"/>
<path d="M54.9 11.7C54.3 11.7 53.7 11.2 53.7 10.5C53.7 9.9 54.2 9.29999 54.9 9.29999C55.5 9.29999 56.1 9.8 56.1 10.5C56.1 11.1 55.5 11.7 54.9 11.7ZM54.9 9.5C54.4 9.5 53.9 9.9 53.9 10.5C53.9 11 54.3 11.5 54.9 11.5C55.4 11.5 55.9 11.1 55.9 10.5C55.9 10 55.4 9.5 54.9 9.5ZM55.4 11.2H55.2L54.9 10.7C54.9 10.7 54.9 10.7 54.8 10.7V11.2V11.3H54.6C54.6 11.3 54.6 11.3 54.6 11.2V9.89999C54.6 9.79999 54.6 9.79999 54.7 9.79999C54.8 9.79999 55 9.79999 55.1 9.79999C55.5 9.79999 55.7 9.90001 55.7 10.2C55.7 10.4 55.6 10.5 55.4 10.6V11.2C55.4 11.1 55.4 11.1 55.4 11.2ZM55.1 10.2C55.1 10.1 55 10 54.8 10H54.7C54.7 10 54.7 10 54.6 10V10.4H54.8C55 10.4 55.1 10.4 55.1 10.2Z" fill="#0E7DC2"/>
<path fill-rule="evenodd" clip-rule="evenodd" d="M132.1 6.5C132.1 4 134.1 2 136.6 2H192.8C195.3 2 197.3 4 197.3 6.5C197.3 16 197.3 25.5 197.3 34.9C197.3 37.4 195.3 39.4 192.8 39.4H136.6C134.1 39.4 132.1 37.4 132.1 34.9C132.1 25.4 132.1 15.9 132.1 6.5Z" fill="url(#paint0_linear_118_53)"/>
<path fill-rule="evenodd" clip-rule="evenodd" d="M172 26.6C171.3 25.5 170.9 24.2 170.9 22.9C170.9 19 174.1 15.9 177.9 15.9C182.2 15.9 185.5 19.8 184.8 24.1V24.2H173.6C174.2 26.1 175.9 27.4 177.9 27.4H185.8V11.5H188.4V30H177.9C176.4 30 175 29.5 173.8 28.6C172.6 29.5 171.2 30 169.7 30H169.6C165.7 30 162.6 26.8 162.6 23V18.5C160.2 18.6 158.3 20.6 158.3 23V30H155.7V23C155.7 19.2 158.8 16.1 162.5 16V11.5H165.1V16H168.9V18.6H165.1V23.1C165.1 25.5 167.1 27.6 169.6 27.6C170.4 27.4 171.2 27.1 172 26.6ZM155 29.9H148C144.1 29.9 141 26.7 141 22.9C141 19 144.2 15.9 148 15.9C151.9 15.9 155 19.1 155 22.9V29.9ZM182.2 21.6C181.6 19.7 179.9 18.4 177.9 18.4C175.9 18.4 174.2 19.7 173.6 21.6H182.2ZM152.4 27.4V22.9C152.4 20.5 150.4 18.4 147.9 18.4C145.4 18.4 143.4 20.4 143.4 22.9C143.4 25.3 145.4 27.4 147.9 27.4H152.4Z" fill="#FEFEFE"/>
<path d="M251.3 7.29999C256.6 7.29999 261.8 7.29999 267.1 7.29999C267.1 9.29999 267.1 11.3 267.1 13.3C264.2 13.3 261.3 13.3 258.5 13.3C258.5 14.5 258.5 15.8 258.5 17C261.1 17 263.8 17 266.4 17C266.4 18.1 266.4 19.2 266.4 20.3C267 19.4 267.7 18.6 268.6 17.9C270 16.9 271.7 16.2 273.4 16C275.1 15.9 276.9 15.9 278.5 16.5C280.6 17.2 282.3 18.7 283.3 20.7C283.6 21.2 283.8 21.8 284 22.4C284.7 20.1 286.3 18.1 288.4 17C290.3 16 292.6 15.8 294.7 16.5C295.7 16.8 296.6 17.5 297.4 18.3C297.4 14.7 297.4 11.1 297.4 7.5C299.5 7.5 301.6 7.5 303.7 7.5C303.7 12.7 303.7 17.8 303.7 23C303.7 26.7 303.7 30.4 303.7 34.1C301.6 34.2 299.6 34.1 297.5 34.1C297.5 33.5 297.5 32.9 297.5 32.4L297.4 32.5C296.5 33.7 295.1 34.7 293.6 35C291.7 35.3 289.6 34.9 287.9 33.9C285.5 32.4 283.9 29.8 283.6 27C279.7 27 275.8 27 271.9 27C271.7 27 271.4 27 271.2 27.1C271.3 28.2 271.9 29.3 272.9 30C274 30.7 275.4 30.8 276.6 30.3C277.1 30 277.5 29.5 277.9 29.1C279.9 29.1 282 29.1 284 29.1C283.2 31.2 281.7 33.2 279.6 34.2C277.7 35.1 275.4 35.4 273.3 35.1C270.8 34.8 268.4 33.4 266.9 31.4C265.7 29.8 265.1 27.8 265.2 25.8C265.2 24.9 265.3 24.1 265.4 23.2C263.1 23.2 260.8 23.2 258.5 23.2C258.5 26.9 258.5 30.7 258.5 34.4C256.1 34.4 253.7 34.4 251.4 34.4C251.3 25 251.3 16.1 251.3 7.29999ZM272.9 20.6C272.2 21.1 271.7 21.9 271.5 22.7C273.7 22.7 276 22.8 278.2 22.7C278 22 277.7 21.4 277.2 20.9C276.1 19.8 274.2 19.7 272.9 20.6ZM292.8 20.8C291.2 21.2 290.2 22.7 290 24.2C289.6 25.9 290.1 27.8 291.4 28.9C292.7 30 294.7 29.9 295.9 28.8C297 27.6 297.2 25.8 297 24.3C296.8 23.2 296.4 22.1 295.6 21.4C294.9 20.8 293.8 20.6 292.8 20.8Z" fill="#312280"/>
<path d="M303.7 7.29999C308.6 7.29999 313.6 7.29999 318.5 7.29999C318.5 9.29999 318.5 11.3 318.5 13.2C315.7 13.3 312.8 13.2 310 13.2C310 14.4 309.9 15.7 310.1 16.9C312.9 16.9 315.8 16.9 318.6 16.9C318.5 18.8 318.6 20.7 318.6 22.6C315.8 22.6 313 22.6 310.2 22.6C310 23.6 310.1 24.6 310.1 25.7C310.1 26.4 310.1 27.2 310.2 27.9C313 27.9 315.8 27.9 318.6 27.9C318.8 28.5 318.6 29.1 318.7 29.7C318.8 31 318.6 32.3 318.8 33.5C319.8 32.5 320.7 31.4 321.7 30.4C322.5 29.3 323.5 28.4 324.4 27.4C325 26.7 325.6 26.2 326.1 25.4C326 25.3 325.9 25.1 325.8 25C324.4 23.4 323 21.8 321.6 20.3C320.7 19.2 319.6 18.2 318.7 17C320.6 16.9 322.4 17 324.3 17C325.1 17 325.8 17 326.6 17C328 18.2 329 19.8 330.4 21C331.4 19.9 332.4 18.8 333.4 17.6C333.6 17.3 333.9 16.9 334.3 17C336.7 17 339.1 17 341.5 17C341.2 17.5 340.8 17.9 340.4 18.3C338.3 20.6 336.2 22.9 334.2 25.3C334.9 26.4 336 27.3 336.9 28.4C338.1 29.6 339.2 30.9 340.4 32.2C340.9 32.7 341.4 33.2 341.8 33.9C339.4 33.9 337 33.9 334.5 33.9C334.2 33.9 333.9 33.9 333.7 33.7C332.5 32.4 331.4 31 330.1 29.7C329 30.9 327.9 32.1 326.9 33.3C326.7 33.5 326.5 33.9 326.1 33.8C316.6 33.8 307.2 33.8 297.7 33.8C297.7 33.2 297.7 32.7 297.7 32.1L297.8 32C297.8 32.6 297.8 33.2 297.8 33.7C299.9 33.7 301.9 33.7 304 33.7C304 30 304 26.3 304 22.6C303.7 17.6 303.6 12.4 303.7 7.29999Z" fill="#EA6214"/>
<path d="M344.5 30.4C345.5 30.1 346.7 31 346.6 32.1C346.8 33.4 345.1 34.2 344 33.5C342.7 33 343.1 30.6 344.5 30.4ZM344.5 30.8C343.9 31 343.4 31.5 343.5 32.1C343.4 33.1 344.7 33.8 345.5 33.3C346.4 32.9 346.5 31.5 345.7 30.9C345.4 30.8 345 30.7 344.5 30.8Z" fill="#EA6214"/>
<path d="M344.2 31.1C344.6 31.1 345.1 31 345.5 31.2C345.5 31.8 345.5 32.4 345.6 33C345.6 33.1 345.5 33.2 345.5 33.3C345.3 32.9 345.2 32.4 344.8 32.1C344.7 32.5 344.6 32.8 344.5 33.2C344 32.6 344.3 31.8 344.2 31.1ZM344.6 31.5C344.6 31.7 344.6 31.8 344.6 32C344.7 32 344.9 32 345 32C345 31.9 345 31.7 345.1 31.6C345 31.5 344.8 31.5 344.6 31.5Z" fill="#EA6214"/>
<path d="M1.36845 47.8734V52.9643H0.751975V47.8734H1.36845ZM3.11162 50.6674V52.9643H2.52497V49.1461H3.09173V49.7427H3.14145C3.23093 49.5488 3.36683 49.393 3.54912 49.2754C3.73141 49.1561 3.96673 49.0964 4.25508 49.0964C4.51361 49.0964 4.73981 49.1494 4.9337 49.2555C5.1276 49.3599 5.2784 49.519 5.38612 49.7328C5.49384 49.9449 5.5477 50.2133 5.5477 50.5382V52.9643H4.96105V50.5779C4.96105 50.278 4.88316 50.0443 4.72738 49.8769C4.57161 49.7079 4.35783 49.6234 4.08605 49.6234C3.89879 49.6234 3.73141 49.664 3.58392 49.7452C3.43808 49.8264 3.32291 49.9449 3.23839 50.1007C3.15388 50.2564 3.11162 50.4454 3.11162 50.6674ZM8.28021 49.1461V49.6433H6.30151V49.1461H8.28021ZM6.87822 48.2313H7.46487V51.8705C7.46487 52.0363 7.4889 52.1606 7.53695 52.2434C7.58667 52.3246 7.64964 52.3793 7.72587 52.4075C7.80376 52.434 7.88579 52.4472 7.97197 52.4472C8.0366 52.4472 8.08963 52.4439 8.13106 52.4373C8.17249 52.429 8.20563 52.4224 8.23049 52.4174L8.34981 52.9444C8.31004 52.9593 8.25452 52.9742 8.18326 52.9892C8.112 53.0057 8.02168 53.014 7.91231 53.014C7.74659 53.014 7.58418 52.9784 7.42509 52.9071C7.26766 52.8359 7.13674 52.7273 7.03234 52.5815C6.92959 52.4356 6.87822 52.2517 6.87822 52.0296V48.2313ZM10.7225 53.0438C10.3546 53.0438 10.0372 52.9626 9.77044 52.8002C9.50529 52.6362 9.30063 52.4075 9.15645 52.1142C9.01393 51.8192 8.94267 51.4761 8.94267 51.085C8.94267 50.6939 9.01393 50.3492 9.15645 50.0509C9.30063 49.751 9.50115 49.5173 9.75801 49.3499C10.0165 49.1809 10.3181 49.0964 10.6628 49.0964C10.8617 49.0964 11.0581 49.1295 11.252 49.1958C11.4459 49.2621 11.6224 49.3698 11.7814 49.519C11.9405 49.6665 12.0673 49.862 12.1618 50.1056C12.2562 50.3492 12.3035 50.6492 12.3035 51.0055V51.2541H9.36029V50.747H11.7069C11.7069 50.5315 11.6638 50.3393 11.5776 50.1703C11.4931 50.0012 11.3721 49.8678 11.2147 49.77C11.0589 49.6723 10.875 49.6234 10.6628 49.6234C10.4292 49.6234 10.227 49.6814 10.0563 49.7974C9.88727 49.9117 9.75718 50.0609 9.66604 50.2448C9.57489 50.4288 9.52932 50.626 9.52932 50.8365V51.1745C9.52932 51.4629 9.57904 51.7073 9.67847 51.9078C9.77956 52.1067 9.91959 52.2583 10.0986 52.3627C10.2775 52.4655 10.4855 52.5169 10.7225 52.5169C10.8766 52.5169 11.0158 52.4953 11.1401 52.4522C11.2661 52.4075 11.3746 52.3412 11.4658 52.2534C11.5569 52.1639 11.6273 52.0528 11.677 51.9203L12.2438 52.0794C12.1841 52.2716 12.0839 52.4406 11.943 52.5865C11.8022 52.7306 11.6282 52.8433 11.421 52.9245C11.2139 53.0041 10.981 53.0438 10.7225 53.0438ZM14.7371 54.4757C14.4537 54.4757 14.2101 54.4392 14.0062 54.3663C13.8024 54.295 13.6325 54.2006 13.4966 54.0829C13.3624 53.9669 13.2555 53.8426 13.176 53.71L13.6433 53.3819C13.6963 53.4515 13.7635 53.5311 13.8447 53.6205C13.9259 53.7117 14.0369 53.7904 14.1778 53.8567C14.3203 53.9246 14.5067 53.9586 14.7371 53.9586C15.0453 53.9586 15.2997 53.884 15.5002 53.7349C15.7007 53.5857 15.801 53.3521 15.801 53.0339V52.2583H15.7513C15.7082 52.3279 15.6469 52.4141 15.5673 52.5169C15.4894 52.6179 15.3767 52.7083 15.2292 52.7878C15.0834 52.8657 14.8862 52.9046 14.6376 52.9046C14.3294 52.9046 14.0526 52.8317 13.8074 52.6859C13.5638 52.5401 13.3707 52.3279 13.2282 52.0495C13.0873 51.7711 13.0169 51.433 13.0169 51.0353C13.0169 50.6442 13.0857 50.3037 13.2232 50.0137C13.3608 49.722 13.5522 49.4966 13.7974 49.3375C14.0427 49.1768 14.3261 49.0964 14.6476 49.0964C14.8962 49.0964 15.0934 49.1378 15.2392 49.2207C15.3867 49.3019 15.4994 49.3947 15.5773 49.4991C15.6568 49.6018 15.7181 49.6864 15.7612 49.7526H15.8209V49.1461H16.3876V53.0737C16.3876 53.4018 16.3131 53.6686 16.1639 53.8741C16.0164 54.0812 15.8176 54.2329 15.5673 54.329C15.3187 54.4268 15.042 54.4757 14.7371 54.4757ZM14.7172 52.3776C14.9525 52.3776 15.1514 52.3238 15.3138 52.2161C15.4762 52.1084 15.5996 51.9534 15.6841 51.7512C15.7687 51.549 15.8109 51.3071 15.8109 51.0254C15.8109 50.7503 15.7695 50.5075 15.6866 50.297C15.6038 50.0866 15.4811 49.9217 15.3187 49.8024C15.1563 49.683 14.9558 49.6234 14.7172 49.6234C14.4686 49.6234 14.2614 49.6864 14.0957 49.8123C13.9317 49.9383 13.8082 50.1073 13.7253 50.3194C13.6441 50.5315 13.6035 50.7669 13.6035 51.0254C13.6035 51.2905 13.645 51.525 13.7278 51.7289C13.8123 51.931 13.9366 52.0901 14.1007 52.2061C14.2664 52.3205 14.4719 52.3776 14.7172 52.3776ZM17.4615 52.9643V49.1461H18.0283V49.7228H18.068C18.1376 49.5339 18.2636 49.3806 18.4459 49.2629C18.6282 49.1453 18.8337 49.0865 19.0623 49.0865C19.1054 49.0865 19.1593 49.0873 19.2239 49.0889C19.2886 49.0906 19.3374 49.0931 19.3706 49.0964V49.693C19.3507 49.688 19.3051 49.6806 19.2339 49.6706C19.1643 49.659 19.0905 49.6532 19.0126 49.6532C18.827 49.6532 18.6613 49.6922 18.5155 49.77C18.3713 49.8463 18.2569 49.9523 18.1724 50.0882C18.0896 50.2225 18.0481 50.3758 18.0481 50.5481V52.9643H17.4615ZM21.1896 53.0538C20.9476 53.0538 20.728 53.0082 20.5308 52.9171C20.3336 52.8243 20.177 52.6909 20.061 52.5169C19.945 52.3412 19.887 52.1291 19.887 51.8805C19.887 51.6617 19.9301 51.4844 20.0163 51.3485C20.1024 51.211 20.2176 51.1033 20.3618 51.0254C20.506 50.9475 20.6651 50.8895 20.8391 50.8514C21.0147 50.8116 21.1912 50.7801 21.3685 50.7569C21.6005 50.7271 21.7886 50.7047 21.9328 50.6898C22.0787 50.6732 22.1847 50.6459 22.251 50.6078C22.3189 50.5696 22.3529 50.5034 22.3529 50.4089V50.389C22.3529 50.1437 22.2858 49.9532 22.1516 49.8173C22.019 49.6814 21.8176 49.6134 21.5475 49.6134C21.2675 49.6134 21.0479 49.6748 20.8888 49.7974C20.7297 49.92 20.6178 50.0509 20.5532 50.1901L19.9964 49.9913C20.0958 49.7593 20.2284 49.5786 20.3941 49.4494C20.5615 49.3185 20.7438 49.2273 20.941 49.1759C21.1398 49.1229 21.3354 49.0964 21.5276 49.0964C21.6503 49.0964 21.7911 49.1113 21.9502 49.1411C22.111 49.1693 22.2659 49.2281 22.4151 49.3176C22.5659 49.4071 22.691 49.5422 22.7904 49.7228C22.8898 49.9035 22.9396 50.1454 22.9396 50.4487V52.9643H22.3529V52.4472H22.3231C22.2833 52.5301 22.217 52.6188 22.1242 52.7132C22.0314 52.8077 21.908 52.8881 21.7538 52.9544C21.5997 53.0206 21.4116 53.0538 21.1896 53.0538ZM21.2791 52.5268C21.5111 52.5268 21.7066 52.4812 21.8657 52.3901C22.0264 52.2989 22.1474 52.1813 22.2286 52.0371C22.3115 51.8929 22.3529 51.7413 22.3529 51.5822V51.0453C22.3281 51.0751 22.2734 51.1024 22.1889 51.1273C22.106 51.1505 22.0099 51.1712 21.9005 51.1894C21.7928 51.206 21.6876 51.2209 21.5848 51.2342C21.4837 51.2458 21.4017 51.2557 21.3387 51.264C21.1862 51.2839 21.0437 51.3162 20.9112 51.361C20.7802 51.404 20.6742 51.4695 20.593 51.5573C20.5134 51.6435 20.4737 51.7612 20.4737 51.9103C20.4737 52.1142 20.5491 52.2683 20.6999 52.3727C20.8523 52.4754 21.0454 52.5268 21.2791 52.5268ZM25.6708 49.1461V49.6433H23.6921V49.1461H25.6708ZM24.2688 48.2313H24.8555V51.8705C24.8555 52.0363 24.8795 52.1606 24.9276 52.2434C24.9773 52.3246 25.0403 52.3793 25.1165 52.4075C25.1944 52.434 25.2764 52.4472 25.3626 52.4472C25.4272 52.4472 25.4803 52.4439 25.5217 52.4373C25.5631 52.429 25.5963 52.4224 25.6211 52.4174L25.7404 52.9444C25.7007 52.9593 25.6451 52.9742 25.5739 52.9892C25.5026 53.0057 25.4123 53.014 25.3029 53.014C25.1372 53.014 24.9748 52.9784 24.8157 52.9071C24.6583 52.8359 24.5274 52.7273 24.423 52.5815C24.3202 52.4356 24.2688 52.2517 24.2688 52.0296V48.2313ZM28.1131 53.0438C27.7452 53.0438 27.4279 52.9626 27.1611 52.8002C26.8959 52.6362 26.6913 52.4075 26.5471 52.1142C26.4046 51.8192 26.3333 51.4761 26.3333 51.085C26.3333 50.6939 26.4046 50.3492 26.5471 50.0509C26.6913 49.751 26.8918 49.5173 27.1486 49.3499C27.4072 49.1809 27.7088 49.0964 28.0535 49.0964C28.2523 49.0964 28.4487 49.1295 28.6426 49.1958C28.8365 49.2621 29.013 49.3698 29.1721 49.519C29.3312 49.6665 29.4579 49.862 29.5524 50.1056C29.6469 50.3492 29.6941 50.6492 29.6941 51.0055V51.2541H26.7509V50.747H29.0975C29.0975 50.5315 29.0544 50.3393 28.9682 50.1703C28.8837 50.0012 28.7627 49.8678 28.6053 49.77C28.4495 49.6723 28.2656 49.6234 28.0535 49.6234C27.8198 49.6234 27.6176 49.6814 27.4469 49.7974C27.2779 49.9117 27.1478 50.0609 27.0567 50.2448C26.9655 50.4288 26.9199 50.626 26.9199 50.8365V51.1745C26.9199 51.4629 26.9697 51.7073 27.0691 51.9078C27.1702 52.1067 27.3102 52.2583 27.4892 52.3627C27.6682 52.4655 27.8761 52.5169 28.1131 52.5169C28.2672 52.5169 28.4064 52.4953 28.5307 52.4522C28.6567 52.4075 28.7652 52.3412 28.8564 52.2534C28.9475 52.1639 29.018 52.0528 29.0677 51.9203L29.6344 52.0794C29.5748 52.2716 29.4745 52.4406 29.3337 52.5865C29.1928 52.7306 29.0188 52.8433 28.8116 52.9245C28.6045 53.0041 28.3716 53.0438 28.1131 53.0438ZM32.0283 53.0438C31.7101 53.0438 31.4292 52.9635 31.1856 52.8027C30.942 52.6403 30.7514 52.4116 30.6138 52.1166C30.4763 51.82 30.4075 51.4695 30.4075 51.0651C30.4075 50.6641 30.4763 50.3161 30.6138 50.0211C30.7514 49.7261 30.9428 49.4983 31.1881 49.3375C31.4333 49.1768 31.7167 49.0964 32.0382 49.0964C32.2868 49.0964 32.4832 49.1378 32.6273 49.2207C32.7732 49.3019 32.8842 49.3947 32.9604 49.4991C33.0383 49.6018 33.0988 49.6864 33.1419 49.7526H33.1916V47.8734H33.7783V52.9643H33.2115V52.3776H33.1419C33.0988 52.4472 33.0375 52.5351 32.9579 52.6411C32.8784 52.7455 32.7649 52.8392 32.6174 52.922C32.4699 53.0032 32.2735 53.0438 32.0283 53.0438ZM32.1078 52.5169C32.3431 52.5169 32.542 52.4555 32.7044 52.3329C32.8668 52.2086 32.9903 52.0371 33.0748 51.8183C33.1593 51.5979 33.2015 51.3436 33.2015 51.0552C33.2015 50.7702 33.1601 50.5208 33.0773 50.307C32.9944 50.0915 32.8718 49.9242 32.7094 49.8048C32.547 49.6839 32.3464 49.6234 32.1078 49.6234C31.8592 49.6234 31.6521 49.6872 31.4864 49.8148C31.3223 49.9407 31.1988 50.1123 31.116 50.3294C31.0348 50.5448 30.9942 50.7867 30.9942 51.0552C30.9942 51.327 31.0356 51.5739 31.1185 51.796C31.203 52.0164 31.3273 52.192 31.4913 52.323C31.657 52.4522 31.8625 52.5169 32.1078 52.5169ZM36.9824 52.9643V47.8734H40.0549V48.4203H37.5989V50.1404H39.8958V50.6873H37.5989V52.4174H40.0947V52.9643H36.9824ZM41.6731 47.8734V52.9643H41.0865V47.8734H41.6731ZM44.3485 53.0438C43.9806 53.0438 43.6632 52.9626 43.3964 52.8002C43.1313 52.6362 42.9266 52.4075 42.7824 52.1142C42.6399 51.8192 42.5686 51.4761 42.5686 51.085C42.5686 50.6939 42.6399 50.3492 42.7824 50.0509C42.9266 49.751 43.1271 49.5173 43.384 49.3499C43.6425 49.1809 43.9441 49.0964 44.2888 49.0964C44.4877 49.0964 44.6841 49.1295 44.878 49.1958C45.0718 49.2621 45.2483 49.3698 45.4074 49.519C45.5665 49.6665 45.6933 49.862 45.7878 50.1056C45.8822 50.3492 45.9294 50.6492 45.9294 51.0055V51.2541H42.9863V50.747H45.3329C45.3329 50.5315 45.2898 50.3393 45.2036 50.1703C45.1191 50.0012 44.9981 49.8678 44.8407 49.77C44.6849 49.6723 44.5009 49.6234 44.2888 49.6234C44.0552 49.6234 43.853 49.6814 43.6823 49.7974C43.5133 49.9117 43.3832 50.0609 43.292 50.2448C43.2009 50.4288 43.1553 50.626 43.1553 50.8365V51.1745C43.1553 51.4629 43.205 51.7073 43.3044 51.9078C43.4055 52.1067 43.5456 52.2583 43.7245 52.3627C43.9035 52.4655 44.1115 52.5169 44.3485 52.5169C44.5026 52.5169 44.6418 52.4953 44.7661 52.4522C44.892 52.4075 45.0006 52.3412 45.0917 52.2534C45.1829 52.1639 45.2533 52.0528 45.303 51.9203L45.8698 52.0794C45.8101 52.2716 45.7099 52.4406 45.569 52.5865C45.4281 52.7306 45.2541 52.8433 45.047 52.9245C44.8398 53.0041 44.607 53.0438 44.3485 53.0438ZM48.373 53.0438C48.015 53.0438 47.7068 52.9593 47.4483 52.7903C47.1897 52.6213 46.9909 52.3884 46.8517 52.0918C46.7125 51.7951 46.6429 51.4562 46.6429 51.0751C46.6429 50.6873 46.7141 50.3451 46.8566 50.0485C47.0008 49.7502 47.2013 49.5173 47.4582 49.3499C47.7167 49.1809 48.0183 49.0964 48.363 49.0964C48.6315 49.0964 48.8735 49.1461 49.0889 49.2455C49.3043 49.345 49.4808 49.4842 49.6184 49.6632C49.7559 49.8421 49.8413 50.0509 49.8744 50.2896H49.2878C49.243 50.1156 49.1436 49.9615 48.9895 49.8272C48.837 49.6913 48.6315 49.6234 48.373 49.6234C48.1443 49.6234 47.9438 49.683 47.7714 49.8024C47.6007 49.92 47.4673 50.0866 47.3712 50.302C47.2767 50.5158 47.2295 50.7669 47.2295 51.0552C47.2295 51.3502 47.2759 51.6071 47.3687 51.8258C47.4632 52.0446 47.5958 52.2144 47.7664 52.3354C47.9388 52.4564 48.141 52.5169 48.373 52.5169C48.5254 52.5169 48.6638 52.4903 48.7881 52.4373C48.9124 52.3843 49.0176 52.308 49.1038 52.2086C49.19 52.1092 49.2513 51.9899 49.2878 51.8507H49.8744C49.8413 52.076 49.7592 52.279 49.6283 52.4597C49.499 52.6387 49.3275 52.7812 49.1137 52.8872C48.9016 52.9916 48.6547 53.0438 48.373 53.0438ZM52.3925 49.1461V49.6433H50.4138V49.1461H52.3925ZM50.9905 48.2313H51.5772V51.8705C51.5772 52.0363 51.6012 52.1606 51.6493 52.2434C51.699 52.3246 51.7619 52.3793 51.8382 52.4075C51.9161 52.434 51.9981 52.4472 52.0843 52.4472C52.1489 52.4472 52.2019 52.4439 52.2434 52.4373C52.2848 52.429 52.3179 52.4224 52.3428 52.4174L52.4621 52.9444C52.4223 52.9593 52.3668 52.9742 52.2956 52.9892C52.2243 53.0057 52.134 53.014 52.0246 53.014C51.8589 53.014 51.6965 52.9784 51.5374 52.9071C51.38 52.8359 51.249 52.7273 51.1446 52.5815C51.0419 52.4356 50.9905 52.2517 50.9905 52.0296V48.2313ZM53.275 52.9643V49.1461H53.8417V49.7228H53.8815C53.9511 49.5339 54.0771 49.3806 54.2593 49.2629C54.4416 49.1453 54.6471 49.0865 54.8758 49.0865C54.9189 49.0865 54.9728 49.0873 55.0374 49.0889C55.102 49.0906 55.1509 49.0931 55.1841 49.0964V49.693C55.1642 49.688 55.1186 49.6806 55.0473 49.6706C54.9777 49.659 54.904 49.6532 54.8261 49.6532C54.6405 49.6532 54.4748 49.6922 54.3289 49.77C54.1848 49.8463 54.0704 49.9523 53.9859 50.0882C53.903 50.2225 53.8616 50.3758 53.8616 50.5481V52.9643H53.275ZM57.3144 53.0438C56.9697 53.0438 56.6673 52.9618 56.4071 52.7977C56.1485 52.6337 55.9464 52.4042 55.8005 52.1092C55.6564 51.8142 55.5843 51.4695 55.5843 51.0751C55.5843 50.6774 55.6564 50.3302 55.8005 50.0335C55.9464 49.7369 56.1485 49.5066 56.4071 49.3425C56.6673 49.1784 56.9697 49.0964 57.3144 49.0964C57.6591 49.0964 57.9607 49.1784 58.2192 49.3425C58.4794 49.5066 58.6816 49.7369 58.8258 50.0335C58.9716 50.3302 59.0445 50.6774 59.0445 51.0751C59.0445 51.4695 58.9716 51.8142 58.8258 52.1092C58.6816 52.4042 58.4794 52.6337 58.2192 52.7977C57.9607 52.9618 57.6591 53.0438 57.3144 53.0438ZM57.3144 52.5169C57.5762 52.5169 57.7917 52.4497 57.9607 52.3155C58.1297 52.1813 58.2548 52.0048 58.336 51.786C58.4173 51.5673 58.4579 51.3303 58.4579 51.0751C58.4579 50.8199 58.4173 50.5821 58.336 50.3617C58.2548 50.1413 58.1297 49.9631 57.9607 49.8272C57.7917 49.6913 57.5762 49.6234 57.3144 49.6234C57.0525 49.6234 56.8371 49.6913 56.6681 49.8272C56.499 49.9631 56.3739 50.1413 56.2927 50.3617C56.2115 50.5821 56.1709 50.8199 56.1709 51.0751C56.1709 51.3303 56.2115 51.5673 56.2927 51.786C56.3739 52.0048 56.499 52.1813 56.6681 52.3155C56.8371 52.4497 57.0525 52.5169 57.3144 52.5169ZM60.5267 50.6674V52.9643H59.94V49.1461H60.5068V49.7427H60.5565C60.646 49.5488 60.7819 49.393 60.9642 49.2754C61.1464 49.1561 61.3818 49.0964 61.6701 49.0964C61.9286 49.0964 62.1549 49.1494 62.3487 49.2555C62.5426 49.3599 62.6934 49.519 62.8012 49.7328C62.9089 49.9449 62.9627 50.2133 62.9627 50.5382V52.9643H62.3761V50.5779C62.3761 50.278 62.2982 50.0443 62.1424 49.8769C61.9866 49.7079 61.7729 49.6234 61.5011 49.6234C61.3138 49.6234 61.1464 49.664 60.999 49.7452C60.8531 49.8264 60.7379 49.9449 60.6534 50.1007C60.5689 50.2564 60.5267 50.4454 60.5267 50.6674ZM64.0347 52.9643V49.1461H64.6214V52.9643H64.0347ZM64.333 48.5097C64.2187 48.5097 64.1201 48.4708 64.0372 48.3929C63.956 48.315 63.9154 48.2214 63.9154 48.112C63.9154 48.0026 63.956 47.909 64.0372 47.8311C64.1201 47.7532 64.2187 47.7143 64.333 47.7143C64.4474 47.7143 64.5452 47.7532 64.6264 47.8311C64.7092 47.909 64.7506 48.0026 64.7506 48.112C64.7506 48.2214 64.7092 48.315 64.6264 48.3929C64.5452 48.4708 64.4474 48.5097 64.333 48.5097ZM67.247 53.0438C66.889 53.0438 66.5808 52.9593 66.3223 52.7903C66.0638 52.6213 65.8649 52.3884 65.7257 52.0918C65.5865 51.7951 65.5169 51.4562 65.5169 51.0751C65.5169 50.6873 65.5881 50.3451 65.7307 50.0485C65.8748 49.7502 66.0754 49.5173 66.3322 49.3499C66.5908 49.1809 66.8924 49.0964 67.2371 49.0964C67.5055 49.0964 67.7475 49.1461 67.9629 49.2455C68.1783 49.345 68.3548 49.4842 68.4924 49.6632C68.6299 49.8421 68.7153 50.0509 68.7484 50.2896H68.1618C68.117 50.1156 68.0176 49.9615 67.8635 49.8272C67.711 49.6913 67.5055 49.6234 67.247 49.6234C67.0183 49.6234 66.8178 49.683 66.6454 49.8024C66.4747 49.92 66.3413 50.0866 66.2452 50.302C66.1508 50.5158 66.1035 50.7669 66.1035 51.0552C66.1035 51.3502 66.1499 51.6071 66.2427 51.8258C66.3372 52.0446 66.4698 52.2144 66.6405 52.3354C66.8128 52.4564 67.015 52.5169 67.247 52.5169C67.3995 52.5169 67.5378 52.4903 67.6621 52.4373C67.7864 52.3843 67.8917 52.308 67.9778 52.2086C68.064 52.1092 68.1253 51.9899 68.1618 51.8507H68.7484C68.7153 52.076 68.6332 52.279 68.5023 52.4597C68.3731 52.6387 68.2015 52.7812 67.9878 52.8872C67.7756 52.9916 67.5287 53.0438 67.247 53.0438ZM72.3106 50.0012L71.7836 50.1504C71.7504 50.0625 71.7015 49.9772 71.6369 49.8943C71.5739 49.8098 71.4878 49.7402 71.3784 49.6855C71.269 49.6308 71.129 49.6035 70.9583 49.6035C70.7246 49.6035 70.5299 49.6574 70.3741 49.7651C70.22 49.8711 70.143 50.0062 70.143 50.1703C70.143 50.3161 70.196 50.4313 70.302 50.5158C70.4081 50.6003 70.5738 50.6707 70.7992 50.7271L71.366 50.8663C71.7073 50.9491 71.9617 51.0759 72.1291 51.2466C72.2965 51.4156 72.3802 51.6336 72.3802 51.9004C72.3802 52.1191 72.3172 52.3147 72.1913 52.487C72.067 52.6594 71.893 52.7953 71.6692 52.8947C71.4455 52.9941 71.1853 53.0438 70.8887 53.0438C70.4993 53.0438 70.1769 52.9593 69.9217 52.7903C69.6665 52.6213 69.5049 52.3743 69.437 52.0495L69.9938 51.9103C70.0468 52.1158 70.1471 52.2699 70.2946 52.3727C70.4437 52.4754 70.6385 52.5268 70.8788 52.5268C71.1522 52.5268 71.3693 52.4688 71.53 52.3528C71.6924 52.2351 71.7736 52.0943 71.7736 51.9302C71.7736 51.7976 71.7272 51.6866 71.6344 51.5971C71.5416 51.506 71.3991 51.438 71.2069 51.3933L70.5705 51.2441C70.2208 51.1613 69.964 51.0328 69.7999 50.8588C69.6375 50.6832 69.5563 50.4636 69.5563 50.2001C69.5563 49.9847 69.6168 49.7941 69.7378 49.6284C69.8604 49.4626 70.027 49.3325 70.2374 49.2381C70.4495 49.1436 70.6898 49.0964 70.9583 49.0964C71.3361 49.0964 71.6328 49.1793 71.8482 49.345C72.0653 49.5107 72.2194 49.7294 72.3106 50.0012Z" fill="#05143C"/>
<path d="M141.763 52.9643H141.116L142.986 47.8734H143.622L145.491 52.9643H144.845L143.324 48.6788H143.284L141.763 52.9643ZM142.001 50.9757H144.606V51.5225H142.001V50.9757ZM146.205 52.9643V49.1461H146.772V49.7228H146.811C146.881 49.5339 147.007 49.3806 147.189 49.2629C147.371 49.1453 147.577 49.0865 147.806 49.0865C147.849 49.0865 147.903 49.0873 147.967 49.0889C148.032 49.0906 148.081 49.0931 148.114 49.0964V49.693C148.094 49.688 148.048 49.6806 147.977 49.6706C147.908 49.659 147.834 49.6532 147.756 49.6532C147.57 49.6532 147.405 49.6922 147.259 49.77C147.115 49.8463 147 49.9523 146.916 50.0882C146.833 50.2225 146.791 50.3758 146.791 50.5481V52.9643H146.205ZM150.709 49.1461V49.6433H148.73V49.1461H150.709ZM149.307 48.2313H149.894V51.8705C149.894 52.0363 149.918 52.1606 149.966 52.2434C150.016 52.3246 150.078 52.3793 150.155 52.4075C150.233 52.434 150.315 52.4472 150.401 52.4472C150.465 52.4472 150.518 52.4439 150.56 52.4373C150.601 52.429 150.634 52.4224 150.659 52.4174L150.779 52.9444C150.739 52.9593 150.683 52.9742 150.612 52.9892C150.541 53.0057 150.451 53.014 150.341 53.014C150.175 53.014 150.013 52.9784 149.854 52.9071C149.696 52.8359 149.566 52.7273 149.461 52.5815C149.358 52.4356 149.307 52.2517 149.307 52.0296V48.2313ZM153.64 52.9643V47.8734H156.712V48.4203H154.256V50.1404H156.553V50.6873H154.256V52.4174H156.752V52.9643H153.64ZM158.33 47.8734V52.9643H157.744V47.8734H158.33ZM161.006 53.0438C160.638 53.0438 160.321 52.9626 160.054 52.8002C159.789 52.6362 159.584 52.4075 159.44 52.1142C159.297 51.8192 159.226 51.4761 159.226 51.085C159.226 50.6939 159.297 50.3492 159.44 50.0509C159.584 49.751 159.784 49.5173 160.041 49.3499C160.3 49.1809 160.601 49.0964 160.946 49.0964C161.145 49.0964 161.341 49.1295 161.535 49.1958C161.729 49.2621 161.906 49.3698 162.065 49.519C162.224 49.6665 162.351 49.862 162.445 50.1056C162.54 50.3492 162.587 50.6492 162.587 51.0055V51.2541H159.644V50.747H161.99C161.99 50.5315 161.947 50.3393 161.861 50.1703C161.776 50.0012 161.655 49.8678 161.498 49.77C161.342 49.6723 161.158 49.6234 160.946 49.6234C160.713 49.6234 160.51 49.6814 160.34 49.7974C160.171 49.9117 160.041 50.0609 159.949 50.2448C159.858 50.4288 159.813 50.626 159.813 50.8365V51.1745C159.813 51.4629 159.862 51.7073 159.962 51.9078C160.063 52.1067 160.203 52.2583 160.382 52.3627C160.561 52.4655 160.769 52.5169 161.006 52.5169C161.16 52.5169 161.299 52.4953 161.423 52.4522C161.549 52.4075 161.658 52.3412 161.749 52.2534C161.84 52.1639 161.911 52.0528 161.96 51.9203L162.527 52.0794C162.467 52.2716 162.367 52.4406 162.226 52.5865C162.085 52.7306 161.911 52.8433 161.704 52.9245C161.497 53.0041 161.264 53.0438 161.006 53.0438ZM165.03 53.0438C164.672 53.0438 164.364 52.9593 164.106 52.7903C163.847 52.6213 163.648 52.3884 163.509 52.0918C163.37 51.7951 163.3 51.4562 163.3 51.0751C163.3 50.6873 163.371 50.3451 163.514 50.0485C163.658 49.7502 163.859 49.5173 164.116 49.3499C164.374 49.1809 164.676 49.0964 165.02 49.0964C165.289 49.0964 165.531 49.1461 165.746 49.2455C165.962 49.345 166.138 49.4842 166.276 49.6632C166.413 49.8421 166.499 50.0509 166.532 50.2896H165.945C165.9 50.1156 165.801 49.9615 165.647 49.8272C165.494 49.6913 165.289 49.6234 165.03 49.6234C164.802 49.6234 164.601 49.683 164.429 49.8024C164.258 49.92 164.125 50.0866 164.029 50.302C163.934 50.5158 163.887 50.7669 163.887 51.0552C163.887 51.3502 163.933 51.6071 164.026 51.8258C164.121 52.0446 164.253 52.2144 164.424 52.3354C164.596 52.4564 164.798 52.5169 165.03 52.5169C165.183 52.5169 165.321 52.4903 165.445 52.4373C165.57 52.3843 165.675 52.308 165.761 52.2086C165.847 52.1092 165.909 51.9899 165.945 51.8507H166.532C166.499 52.076 166.417 52.279 166.286 52.4597C166.156 52.6387 165.985 52.7812 165.771 52.8872C165.559 52.9916 165.312 53.0438 165.03 53.0438ZM169.05 49.1461V49.6433H167.071V49.1461H169.05ZM167.648 48.2313H168.235V51.8705C168.235 52.0363 168.259 52.1606 168.307 52.2434C168.356 52.3246 168.419 52.3793 168.496 52.4075C168.573 52.434 168.655 52.4472 168.742 52.4472C168.806 52.4472 168.859 52.4439 168.901 52.4373C168.942 52.429 168.975 52.4224 169 52.4174L169.119 52.9444C169.08 52.9593 169.024 52.9742 168.953 52.9892C168.882 53.0057 168.791 53.014 168.682 53.014C168.516 53.014 168.354 52.9784 168.195 52.9071C168.037 52.8359 167.906 52.7273 167.802 52.5815C167.699 52.4356 167.648 52.2517 167.648 52.0296V48.2313ZM169.932 52.9643V49.1461H170.499V49.7228H170.539C170.608 49.5339 170.734 49.3806 170.917 49.2629C171.099 49.1453 171.304 49.0865 171.533 49.0865C171.576 49.0865 171.63 49.0873 171.695 49.0889C171.759 49.0906 171.808 49.0931 171.841 49.0964V49.693C171.822 49.688 171.776 49.6806 171.705 49.6706C171.635 49.659 171.561 49.6532 171.483 49.6532C171.298 49.6532 171.132 49.6922 170.986 49.77C170.842 49.8463 170.728 49.9523 170.643 50.0882C170.56 50.2225 170.519 50.3758 170.519 50.5481V52.9643H169.932ZM173.972 53.0438C173.627 53.0438 173.325 52.9618 173.064 52.7977C172.806 52.6337 172.604 52.4042 172.458 52.1092C172.314 51.8142 172.242 51.4695 172.242 51.0751C172.242 50.6774 172.314 50.3302 172.458 50.0335C172.604 49.7369 172.806 49.5066 173.064 49.3425C173.325 49.1784 173.627 49.0964 173.972 49.0964C174.316 49.0964 174.618 49.1784 174.877 49.3425C175.137 49.5066 175.339 49.7369 175.483 50.0335C175.629 50.3302 175.702 50.6774 175.702 51.0751C175.702 51.4695 175.629 51.8142 175.483 52.1092C175.339 52.4042 175.137 52.6337 174.877 52.7977C174.618 52.9618 174.316 53.0438 173.972 53.0438ZM173.972 52.5169C174.234 52.5169 174.449 52.4497 174.618 52.3155C174.787 52.1813 174.912 52.0048 174.993 51.786C175.075 51.5673 175.115 51.3303 175.115 51.0751C175.115 50.8199 175.075 50.5821 174.993 50.3617C174.912 50.1413 174.787 49.9631 174.618 49.8272C174.449 49.6913 174.234 49.6234 173.972 49.6234C173.71 49.6234 173.494 49.6913 173.325 49.8272C173.156 49.9631 173.031 50.1413 172.95 50.3617C172.869 50.5821 172.828 50.8199 172.828 51.0751C172.828 51.3303 172.869 51.5673 172.95 51.786C173.031 52.0048 173.156 52.1813 173.325 52.3155C173.494 52.4497 173.71 52.5169 173.972 52.5169ZM177.184 50.6674V52.9643H176.597V49.1461H177.164V49.7427H177.214C177.303 49.5488 177.439 49.393 177.622 49.2754C177.804 49.1561 178.039 49.0964 178.327 49.0964C178.586 49.0964 178.812 49.1494 179.006 49.2555C179.2 49.3599 179.351 49.519 179.459 49.7328C179.566 49.9449 179.62 50.2133 179.62 50.5382V52.9643H179.033V50.5779C179.033 50.278 178.956 50.0443 178.8 49.8769C178.644 49.7079 178.43 49.6234 178.158 49.6234C177.971 49.6234 177.804 49.664 177.656 49.7452C177.51 49.8264 177.395 49.9449 177.311 50.1007C177.226 50.2564 177.184 50.4454 177.184 50.6674ZM180.692 52.9643V49.1461H181.279V52.9643H180.692ZM180.99 48.5097C180.876 48.5097 180.777 48.4708 180.695 48.3929C180.613 48.315 180.573 48.2214 180.573 48.112C180.573 48.0026 180.613 47.909 180.695 47.8311C180.777 47.7532 180.876 47.7143 180.99 47.7143C181.105 47.7143 181.202 47.7532 181.284 47.8311C181.367 47.909 181.408 48.0026 181.408 48.112C181.408 48.2214 181.367 48.315 181.284 48.3929C181.202 48.4708 181.105 48.5097 180.99 48.5097ZM183.904 53.0438C183.546 53.0438 183.238 52.9593 182.98 52.7903C182.721 52.6213 182.522 52.3884 182.383 52.0918C182.244 51.7951 182.174 51.4562 182.174 51.0751C182.174 50.6873 182.245 50.3451 182.388 50.0485C182.532 49.7502 182.733 49.5173 182.99 49.3499C183.248 49.1809 183.55 49.0964 183.894 49.0964C184.163 49.0964 184.405 49.1461 184.62 49.2455C184.836 49.345 185.012 49.4842 185.15 49.6632C185.287 49.8421 185.373 50.0509 185.406 50.2896H184.819C184.774 50.1156 184.675 49.9615 184.521 49.8272C184.368 49.6913 184.163 49.6234 183.904 49.6234C183.676 49.6234 183.475 49.683 183.303 49.8024C183.132 49.92 182.999 50.0866 182.903 50.302C182.808 50.5158 182.761 50.7669 182.761 51.0552C182.761 51.3502 182.807 51.6071 182.9 51.8258C182.995 52.0446 183.127 52.2144 183.298 52.3354C183.47 52.4564 183.672 52.5169 183.904 52.5169C184.057 52.5169 184.195 52.4903 184.319 52.4373C184.444 52.3843 184.549 52.308 184.635 52.2086C184.721 52.1092 184.783 51.9899 184.819 51.8507H185.406C185.373 52.076 185.291 52.279 185.16 52.4597C185.03 52.6387 184.859 52.7812 184.645 52.8872C184.433 52.9916 184.186 53.0438 183.904 53.0438ZM188.968 50.0012L188.441 50.1504C188.408 50.0625 188.359 49.9772 188.294 49.8943C188.231 49.8098 188.145 49.7402 188.036 49.6855C187.926 49.6308 187.786 49.6035 187.616 49.6035C187.382 49.6035 187.187 49.6574 187.031 49.7651C186.877 49.8711 186.8 50.0062 186.8 50.1703C186.8 50.3161 186.853 50.4313 186.959 50.5158C187.065 50.6003 187.231 50.6707 187.457 50.7271L188.023 50.8663C188.365 50.9491 188.619 51.0759 188.786 51.2466C188.954 51.4156 189.038 51.6336 189.038 51.9004C189.038 52.1191 188.975 52.3147 188.849 52.487C188.724 52.6594 188.55 52.7953 188.327 52.8947C188.103 52.9941 187.843 53.0438 187.546 53.0438C187.157 53.0438 186.834 52.9593 186.579 52.7903C186.324 52.6213 186.162 52.3743 186.094 52.0495L186.651 51.9103C186.704 52.1158 186.804 52.2699 186.952 52.3727C187.101 52.4754 187.296 52.5268 187.536 52.5268C187.81 52.5268 188.027 52.4688 188.187 52.3528C188.35 52.2351 188.431 52.0943 188.431 51.9302C188.431 51.7976 188.385 51.6866 188.292 51.5971C188.199 51.506 188.056 51.438 187.864 51.3933L187.228 51.2441C186.878 51.1613 186.621 51.0328 186.457 50.8588C186.295 50.6832 186.214 50.4636 186.214 50.2001C186.214 49.9847 186.274 49.7941 186.395 49.6284C186.518 49.4626 186.684 49.3325 186.895 49.2381C187.107 49.1436 187.347 49.0964 187.616 49.0964C187.993 49.0964 188.29 49.1793 188.506 49.345C188.723 49.5107 188.877 49.7294 188.968 50.0012Z" fill="#05143C"/>
<path d="M271.93 52.9643V47.8734H274.982V48.4203H272.546V50.1404H274.754V50.6873H272.546V52.9643H271.93ZM277.279 53.0438C276.911 53.0438 276.594 52.9626 276.327 52.8002C276.062 52.6362 275.857 52.4075 275.713 52.1142C275.571 51.8192 275.499 51.4761 275.499 51.085C275.499 50.6939 275.571 50.3492 275.713 50.0509C275.857 49.751 276.058 49.5173 276.315 49.3499C276.573 49.1809 276.875 49.0964 277.22 49.0964C277.418 49.0964 277.615 49.1295 277.809 49.1958C278.003 49.2621 278.179 49.3698 278.338 49.519C278.497 49.6665 278.624 49.862 278.718 50.1056C278.813 50.3492 278.86 50.6492 278.86 51.0055V51.2541H275.917V50.747H278.264C278.264 50.5315 278.22 50.3393 278.134 50.1703C278.05 50.0012 277.929 49.8678 277.771 49.77C277.616 49.6723 277.432 49.6234 277.22 49.6234C276.986 49.6234 276.784 49.6814 276.613 49.7974C276.444 49.9117 276.314 50.0609 276.223 50.2448C276.132 50.4288 276.086 50.626 276.086 50.8365V51.1745C276.086 51.4629 276.136 51.7073 276.235 51.9078C276.336 52.1067 276.476 52.2583 276.655 52.3627C276.834 52.4655 277.042 52.5169 277.279 52.5169C277.433 52.5169 277.573 52.4953 277.697 52.4522C277.823 52.4075 277.931 52.3412 278.022 52.2534C278.114 52.1639 278.184 52.0528 278.234 51.9203L278.801 52.0794C278.741 52.2716 278.641 52.4406 278.5 52.5865C278.359 52.7306 278.185 52.8433 277.978 52.9245C277.771 53.0041 277.538 53.0438 277.279 53.0438ZM281.194 53.0438C280.876 53.0438 280.595 52.9635 280.352 52.8027C280.108 52.6403 279.917 52.4116 279.78 52.1166C279.642 51.82 279.574 51.4695 279.574 51.0651C279.574 50.6641 279.642 50.3161 279.78 50.0211C279.917 49.7261 280.109 49.4983 280.354 49.3375C280.599 49.1768 280.883 49.0964 281.204 49.0964C281.453 49.0964 281.649 49.1378 281.793 49.2207C281.939 49.3019 282.05 49.3947 282.127 49.4991C282.204 49.6018 282.265 49.6864 282.308 49.7526H282.358V47.8734H282.944V52.9643H282.378V52.3776H282.308C282.265 52.4472 282.204 52.5351 282.124 52.6411C282.044 52.7455 281.931 52.8392 281.783 52.922C281.636 53.0032 281.44 53.0438 281.194 53.0438ZM281.274 52.5169C281.509 52.5169 281.708 52.4555 281.87 52.3329C282.033 52.2086 282.156 52.0371 282.241 51.8183C282.325 51.5979 282.368 51.3436 282.368 51.0552C282.368 50.7702 282.326 50.5208 282.243 50.307C282.16 50.0915 282.038 49.9242 281.875 49.8048C281.713 49.6839 281.513 49.6234 281.274 49.6234C281.025 49.6234 280.818 49.6872 280.652 49.8148C280.488 49.9407 280.365 50.1123 280.282 50.3294C280.201 50.5448 280.16 50.7867 280.16 51.0552C280.16 51.327 280.202 51.5739 280.285 51.796C280.369 52.0164 280.493 52.192 280.657 52.323C280.823 52.4522 281.029 52.5169 281.274 52.5169ZM285.701 53.0438C285.333 53.0438 285.016 52.9626 284.749 52.8002C284.484 52.6362 284.279 52.4075 284.135 52.1142C283.993 51.8192 283.921 51.4761 283.921 51.085C283.921 50.6939 283.993 50.3492 284.135 50.0509C284.279 49.751 284.48 49.5173 284.737 49.3499C284.995 49.1809 285.297 49.0964 285.641 49.0964C285.84 49.0964 286.037 49.1295 286.231 49.1958C286.424 49.2621 286.601 49.3698 286.76 49.519C286.919 49.6665 287.046 49.862 287.14 50.1056C287.235 50.3492 287.282 50.6492 287.282 51.0055V51.2541H284.339V50.747H286.685C286.685 50.5315 286.642 50.3393 286.556 50.1703C286.472 50.0012 286.351 49.8678 286.193 49.77C286.037 49.6723 285.854 49.6234 285.641 49.6234C285.408 49.6234 285.206 49.6814 285.035 49.7974C284.866 49.9117 284.736 50.0609 284.645 50.2448C284.553 50.4288 284.508 50.626 284.508 50.8365V51.1745C284.508 51.4629 284.558 51.7073 284.657 51.9078C284.758 52.1067 284.898 52.2583 285.077 52.3627C285.256 52.4655 285.464 52.5169 285.701 52.5169C285.855 52.5169 285.994 52.4953 286.119 52.4522C286.245 52.4075 286.353 52.3412 286.444 52.2534C286.535 52.1639 286.606 52.0528 286.656 51.9203L287.222 52.0794C287.163 52.2716 287.062 52.4406 286.922 52.5865C286.781 52.7306 286.607 52.8433 286.4 52.9245C286.192 53.0041 285.96 53.0438 285.701 53.0438ZM288.174 52.9643V49.1461H288.741V49.7228H288.781C288.851 49.5339 288.977 49.3806 289.159 49.2629C289.341 49.1453 289.547 49.0865 289.775 49.0865C289.818 49.0865 289.872 49.0873 289.937 49.0889C290.002 49.0906 290.05 49.0931 290.084 49.0964V49.693C290.064 49.688 290.018 49.6806 289.947 49.6706C289.877 49.659 289.803 49.6532 289.726 49.6532C289.54 49.6532 289.374 49.6922 289.228 49.77C289.084 49.8463 288.97 49.9523 288.885 50.0882C288.803 50.2225 288.761 50.3758 288.761 50.5481V52.9643H288.174ZM291.903 53.0538C291.661 53.0538 291.441 53.0082 291.244 52.9171C291.047 52.8243 290.89 52.6909 290.774 52.5169C290.658 52.3412 290.6 52.1291 290.6 51.8805C290.6 51.6617 290.643 51.4844 290.729 51.3485C290.815 51.211 290.931 51.1033 291.075 51.0254C291.219 50.9475 291.378 50.8895 291.552 50.8514C291.728 50.8116 291.904 50.7801 292.081 50.7569C292.314 50.7271 292.502 50.7047 292.646 50.6898C292.792 50.6732 292.898 50.6459 292.964 50.6078C293.032 50.5696 293.066 50.5034 293.066 50.4089V50.389C293.066 50.1437 292.999 49.9532 292.865 49.8173C292.732 49.6814 292.531 49.6134 292.26 49.6134C291.98 49.6134 291.761 49.6748 291.602 49.7974C291.443 49.92 291.331 50.0509 291.266 50.1901L290.709 49.9913C290.809 49.7593 290.941 49.5786 291.107 49.4494C291.274 49.3185 291.457 49.2273 291.654 49.1759C291.853 49.1229 292.048 49.0964 292.241 49.0964C292.363 49.0964 292.504 49.1113 292.663 49.1411C292.824 49.1693 292.979 49.2281 293.128 49.3176C293.279 49.4071 293.404 49.5422 293.503 49.7228C293.603 49.9035 293.653 50.1454 293.653 50.4487V52.9643H293.066V52.4472H293.036C292.996 52.5301 292.93 52.6188 292.837 52.7132C292.744 52.8077 292.621 52.8881 292.467 52.9544C292.313 53.0206 292.125 53.0538 291.903 53.0538ZM291.992 52.5268C292.224 52.5268 292.42 52.4812 292.579 52.3901C292.739 52.2989 292.86 52.1813 292.942 52.0371C293.024 51.8929 293.066 51.7413 293.066 51.5822V51.0453C293.041 51.0751 292.986 51.1024 292.902 51.1273C292.819 51.1505 292.723 51.1712 292.613 51.1894C292.506 51.206 292.401 51.2209 292.298 51.2342C292.197 51.2458 292.115 51.2557 292.052 51.264C291.899 51.2839 291.757 51.3162 291.624 51.361C291.493 51.404 291.387 51.4695 291.306 51.5573C291.226 51.6435 291.187 51.7612 291.187 51.9103C291.187 52.1142 291.262 52.2683 291.413 52.3727C291.565 52.4754 291.758 52.5268 291.992 52.5268ZM295.31 47.8734V52.9643H294.723V47.8734H295.31ZM298.433 52.9643V47.8734H301.505V48.4203H299.049V50.1404H301.346V50.6873H299.049V52.4174H301.545V52.9643H298.433ZM302.974 49.1461L303.889 50.7072L304.804 49.1461H305.48L304.247 51.0552L305.48 52.9643H304.804L303.889 51.4828L302.974 52.9643H302.298L303.511 51.0552L302.298 49.1461H302.974ZM306.317 54.3961V49.1461H306.884V49.7526H306.953C306.996 49.6864 307.056 49.6018 307.132 49.4991C307.21 49.3947 307.321 49.3019 307.465 49.2207C307.611 49.1378 307.808 49.0964 308.057 49.0964C308.379 49.0964 308.662 49.1768 308.907 49.3375C309.152 49.4983 309.344 49.7261 309.481 50.0211C309.619 50.3161 309.688 50.6641 309.688 51.0651C309.688 51.4695 309.619 51.82 309.481 52.1166C309.344 52.4116 309.153 52.6403 308.91 52.8027C308.666 52.9635 308.385 53.0438 308.067 53.0438C307.822 53.0438 307.625 53.0032 307.478 52.922C307.33 52.8392 307.217 52.7455 307.137 52.6411C307.058 52.5351 306.996 52.4472 306.953 52.3776H306.904V54.3961H306.317ZM306.894 51.0552C306.894 51.3436 306.936 51.5979 307.021 51.8183C307.105 52.0371 307.228 52.2086 307.391 52.3329C307.553 52.4555 307.752 52.5169 307.987 52.5169C308.233 52.5169 308.437 52.4522 308.601 52.323C308.767 52.192 308.891 52.0164 308.974 51.796C309.059 51.5739 309.101 51.327 309.101 51.0552C309.101 50.7867 309.06 50.5448 308.977 50.3294C308.896 50.1123 308.772 49.9407 308.606 49.8148C308.442 49.6872 308.236 49.6234 307.987 49.6234C307.749 49.6234 307.548 49.6839 307.386 49.8048C307.224 49.9242 307.101 50.0915 307.018 50.307C306.935 50.5208 306.894 50.7702 306.894 51.0552ZM310.583 52.9643V49.1461H311.149V49.7228H311.189C311.259 49.5339 311.385 49.3806 311.567 49.2629C311.749 49.1453 311.955 49.0865 312.183 49.0865C312.227 49.0865 312.28 49.0873 312.345 49.0889C312.41 49.0906 312.459 49.0931 312.492 49.0964V49.693C312.472 49.688 312.426 49.6806 312.355 49.6706C312.285 49.659 312.212 49.6532 312.134 49.6532C311.948 49.6532 311.782 49.6922 311.637 49.77C311.492 49.8463 311.378 49.9523 311.294 50.0882C311.211 50.2225 311.169 50.3758 311.169 50.5481V52.9643H310.583ZM314.672 53.0438C314.304 53.0438 313.987 52.9626 313.72 52.8002C313.455 52.6362 313.25 52.4075 313.106 52.1142C312.963 51.8192 312.892 51.4761 312.892 51.085C312.892 50.6939 312.963 50.3492 313.106 50.0509C313.25 49.751 313.45 49.5173 313.707 49.3499C313.966 49.1809 314.267 49.0964 314.612 49.0964C314.811 49.0964 315.007 49.1295 315.201 49.1958C315.395 49.2621 315.572 49.3698 315.731 49.519C315.89 49.6665 316.017 49.862 316.111 50.1056C316.206 50.3492 316.253 50.6492 316.253 51.0055V51.2541H313.31V50.747H315.656C315.656 50.5315 315.613 50.3393 315.527 50.1703C315.442 50.0012 315.321 49.8678 315.164 49.77C315.008 49.6723 314.824 49.6234 314.612 49.6234C314.378 49.6234 314.176 49.6814 314.006 49.7974C313.837 49.9117 313.706 50.0609 313.615 50.2448C313.524 50.4288 313.479 50.626 313.479 50.8365V51.1745C313.479 51.4629 313.528 51.7073 313.628 51.9078C313.729 52.1067 313.869 52.2583 314.048 52.3627C314.227 52.4655 314.435 52.5169 314.672 52.5169C314.826 52.5169 314.965 52.4953 315.089 52.4522C315.215 52.4075 315.324 52.3412 315.415 52.2534C315.506 52.1639 315.577 52.0528 315.626 51.9203L316.193 52.0794C316.133 52.2716 316.033 52.4406 315.892 52.5865C315.751 52.7306 315.577 52.8433 315.37 52.9245C315.163 53.0041 314.93 53.0438 314.672 53.0438ZM319.85 50.0012L319.323 50.1504C319.29 50.0625 319.241 49.9772 319.176 49.8943C319.113 49.8098 319.027 49.7402 318.918 49.6855C318.808 49.6308 318.668 49.6035 318.497 49.6035C318.264 49.6035 318.069 49.6574 317.913 49.7651C317.759 49.8711 317.682 50.0062 317.682 50.1703C317.682 50.3161 317.735 50.4313 317.841 50.5158C317.947 50.6003 318.113 50.6707 318.338 50.7271L318.905 50.8663C319.246 50.9491 319.501 51.0759 319.668 51.2466C319.836 51.4156 319.919 51.6336 319.919 51.9004C319.919 52.1191 319.856 52.3147 319.73 52.487C319.606 52.6594 319.432 52.7953 319.208 52.8947C318.985 52.9941 318.724 53.0438 318.428 53.0438C318.038 53.0438 317.716 52.9593 317.461 52.7903C317.206 52.6213 317.044 52.3743 316.976 52.0495L317.533 51.9103C317.586 52.1158 317.686 52.2699 317.834 52.3727C317.983 52.4754 318.178 52.5268 318.418 52.5268C318.691 52.5268 318.908 52.4688 319.069 52.3528C319.232 52.2351 319.313 52.0943 319.313 51.9302C319.313 51.7976 319.266 51.6866 319.174 51.5971C319.081 51.506 318.938 51.438 318.746 51.3933L318.11 51.2441C317.76 51.1613 317.503 51.0328 317.339 50.8588C317.177 50.6832 317.095 50.4636 317.095 50.2001C317.095 49.9847 317.156 49.7941 317.277 49.6284C317.4 49.4626 317.566 49.3325 317.777 49.2381C317.989 49.1436 318.229 49.0964 318.497 49.0964C318.875 49.0964 319.172 49.1793 319.387 49.345C319.604 49.5107 319.759 49.7294 319.85 50.0012ZM323.507 50.0012L322.98 50.1504C322.947 50.0625 322.898 49.9772 322.833 49.8943C322.77 49.8098 322.684 49.7402 322.575 49.6855C322.465 49.6308 322.325 49.6035 322.155 49.6035C321.921 49.6035 321.726 49.6574 321.57 49.7651C321.416 49.8711 321.339 50.0062 321.339 50.1703C321.339 50.3161 321.392 50.4313 321.498 50.5158C321.604 50.6003 321.77 50.6707 321.996 50.7271L322.562 50.8663C322.904 50.9491 323.158 51.0759 323.325 51.2466C323.493 51.4156 323.577 51.6336 323.577 51.9004C323.577 52.1191 323.514 52.3147 323.388 52.487C323.263 52.6594 323.089 52.7953 322.866 52.8947C322.642 52.9941 322.382 53.0438 322.085 53.0438C321.696 53.0438 321.373 52.9593 321.118 52.7903C320.863 52.6213 320.701 52.3743 320.633 52.0495L321.19 51.9103C321.243 52.1158 321.343 52.2699 321.491 52.3727C321.64 52.4754 321.835 52.5268 322.075 52.5268C322.349 52.5268 322.566 52.4688 322.726 52.3528C322.889 52.2351 322.97 52.0943 322.97 51.9302C322.97 51.7976 322.924 51.6866 322.831 51.5971C322.738 51.506 322.595 51.438 322.403 51.3933L321.767 51.2441C321.417 51.1613 321.16 51.0328 320.996 50.8588C320.834 50.6832 320.753 50.4636 320.753 50.2001C320.753 49.9847 320.813 49.7941 320.934 49.6284C321.057 49.4626 321.223 49.3325 321.434 49.2381C321.646 49.1436 321.886 49.0964 322.155 49.0964C322.532 49.0964 322.829 49.1793 323.045 49.345C323.262 49.5107 323.416 49.7294 323.507 50.0012Z" fill="#05143C"/>
<defs>
<linearGradient id="paint0_linear_118_53" x1="148.265" y1="26.0336" x2="210.302" y2="5.40244" gradientUnits="userSpaceOnUse">
<stop stop-color="#0B4E2C"/>
<stop offset="1" stop-color="#0E8B50"/>
</linearGradient>
</defs>
</svg>
