<svg width="328" height="29" viewBox="0 0 328 29" fill="none" xmlns="http://www.w3.org/2000/svg">
<path d="M282.9 21.9V22C281.7 24.5 280.1 25.6 277.4 25.8C276.1 25.9 275 25.5 274.1 24.5C272.8 23.1 273.3 21.4 274.2 20.5C275.2 19.5 276.4 19.5 277.8 19.4C279.6 19.3 281.5 19.2 282.6 16.8C283.1 15.7 283 14.2 282.1 12.9C281 11.1 278.9 10 276.4 10C271.9 10 268.9 13.4 268.9 18.5C268.9 21.3 269.8 23.7 271.5 25.2C272.8 26.4 274.5 27 276.3 27C276.5 27 276.8 27 277 27C280 26.7 282.3 24.9 283.2 22V21.9H282.9ZM273.7 12.2C274.4 11.4 275.4 11 276.4 11C278.2 11 279.1 12 279.6 12.9C280.4 14.4 280.3 16.3 279.7 17.2C278.9 18.3 277.9 18.5 276.8 18.8C275.7 19 274.6 19.3 273.6 20.3C273 20.8 272.7 21.5 272.5 22.2C272.2 21.3 272 20.2 271.9 19C271.7 16.1 272.4 13.6 273.7 12.2Z" fill="#EA5774"/>
<path d="M289.6 26.2V26.7H284.1V26.2H284.2C284.8 26.2 285.6 25.1 285.6 23.9V3.6C285.6 3.2 285.5 2.9 285.2 2.7C284.9 2.5 284.5 2.5 284 2.7H283.9L283.7 2.3L283.8 2.2L287.9 0.5V23.8C287.9 25 288.7 26.1 289.3 26.1H289.6V26.2Z" fill="#EA5774"/>
<path d="M310.6 22.5V26.7H298V25.9L307.2 11.9H303C300.9 11.9 298.7 12.8 298.7 14.7V14.8H298.2V10.6H310.3V11.4L301.1 25.4H305.8C307.9 25.4 310.1 24.5 310.1 22.6V22.5H310.6Z" fill="#EA5774"/>
<path d="M327.3 25.2C327.2 25.5 327.1 25.6 327 25.7C326.9 25.8 326.8 25.9 326.7 26C326.6 26.1 326.4 26.1 326.2 26.1C325.9 26.1 325.7 26 325.7 25.6C325.6 25.2 325.6 24.8 325.6 24.4C325.6 24.1 325.7 17.4 325.7 16.7C325.7 16.5 325.7 16.2 325.7 16C325.7 15.5 325.7 15 325.6 14.5V14.4C325.5 13.8 325.4 13.1 325.1 12.6C324 10.8 322.3 10.1 319.6 10.2C318.7 10.3 318 10.4 317.1 10.7C316 11.1 315.3 11.6 314.9 12.1C314.5 12.6 314.3 13.1 314.2 13.6C314.1 13.9 314.1 14.2 314.1 14.5V14.6C314.1 15.5 314.8 16.2 315.8 16.2C316.7 16.2 317.5 15.5 317.5 14.6C317.5 13.7 316.8 13 315.8 13C315.6 13 315.4 13 315.2 13.1C315.6 12.3 316.4 11.8 317.5 11.5C318.1 11.3 318.8 11.1 319.6 11.1C320.7 11.1 321.6 11.4 322.2 12C322.8 12.6 323.1 13.3 323.1 14C323.1 14.6 322.9 15.1 322.6 15.5C322.2 15.9 321.7 16.2 321.2 16.5C320.6 16.8 320 17 319.4 17.2C318.9 17.4 318.3 17.5 317.9 17.7C317.8 17.7 317.6 17.8 317.4 17.9C316.2 18.3 315.3 18.7 314.7 19.2C314 19.7 313.5 20.3 313.2 20.8C312.9 21.3 312.7 21.8 312.6 22.3C312.5 22.7 312.5 23.1 312.5 23.2C312.5 23.4 312.5 23.8 312.6 24.2C312.7 24.6 312.9 25.1 313.2 25.5C313.5 25.9 314 26.3 314.6 26.6C315.2 26.9 316 27.1 317.1 27.1C319.7 27.1 321.2 25.1 321.7 24.4C321.7 24.3 321.8 24.3 321.8 24.3C322.4 23.5 322.9 22.6 323.2 21.7V24.1C323.2 24.4 323.2 24.8 323.3 25.1C323.4 25.4 323.5 25.7 323.6 26C323.8 26.3 324 26.5 324.2 26.7C324.5 26.9 325.3 27 325.6 27C326.1 27 326.5 26.9 326.7 26.8C327 26.6 327.2 26.5 327.3 26.3C327.5 26.1 327.6 25.8 327.6 25.5V25.3L327.3 25.2ZM317.5 25.6C316.7 25.6 316 25.3 315.6 25C315 24.4 314.6 23.2 315 21.7C315.3 20.9 315.5 20.4 316.2 19.8C316.7 19.4 317.3 19.1 317.8 18.9C318.4 18.6 319 18.4 319.6 18.2C320.3 18 320.8 17.7 321.3 17.4C321.7 17.1 322.1 16.9 322.4 16.6C322.6 16.4 322.8 16.2 322.9 16C322.9 16.6 322.8 17.3 322.8 17.9C322.8 18.2 322.8 18.6 322.8 18.9C322.8 19.4 322.8 19.9 322.7 20.3C322.6 21.1 322.3 21.7 321.8 22.5L321.7 22.7C321.3 23.4 320.6 24.4 319.2 25.2C318.8 25.5 318.3 25.6 317.5 25.6Z" fill="#EA5774"/>
<path d="M270.2 3.7C270.2 4.6 269.4 5.40001 268.5 5.30001C267.7 5.20001 267.1 4.60001 267 3.80001C266.9 2.90001 267.6 2.10001 268.4 2.00001C267.7 1.60001 266.9 1.5 266.2 1.7C264.6 2.2 264.7 4.6 264.8 6.7C264.8 7.2 264.9 7.70001 264.9 8.10001V10.6H268.1V11.5H264.9V23.9C264.9 25.1 265.7 26.2 266.3 26.2H266.4V26.7H260.5V26.2H260.6C261.2 26.2 262 25.1 262 23.9V11.5H260.4V10.6H262V8.10001C262 3.40001 263.6 0.600006 266.4 0.600006C268.1 0.600006 269.3 1.40001 269.9 2.90001C269.9 3.00001 269.9 3.00001 270 3.10001C270.1 3.30001 270.2 3.5 270.2 3.7Z" fill="#EA5774"/>
<path d="M296.7 26.2V26.7H291.3V26.2H291.4C292 26.2 292.8 25.1 292.8 23.9V13.1C292.8 12.7 292.7 12.4 292.4 12.2C292.1 12 291.7 12 291.2 12.2H291.1L290.9 11.8L291 11.7L295 10V23.9C295 25.1 295.8 26.2 296.4 26.2H296.7Z" fill="#EA5774"/>
<path d="M295.9 6V6.3C294.1 6.3 293.9 9.1 293.9 9.1H293.6C293.6 9.1 293.4 6.3 291.6 6.3V6C293.4 6 293.6 3.3 293.6 3.2H293.9C293.9 3.2 294.1 6 295.9 6Z" fill="#EA5774"/>
<path d="M141.5 6.90001C142.825 6.90001 143.9 5.82549 143.9 4.50001C143.9 3.17452 142.825 2.10001 141.5 2.10001C140.175 2.10001 139.1 3.17452 139.1 4.50001C139.1 5.82549 140.175 6.90001 141.5 6.90001Z" fill="#15C4D8"/>
<path d="M173.2 25.7C172.7 25.7 172.1 25.7 171.5 25.7C170.9 25.7 170.2 25.6 169.6 25.6C169 25.5 168.4 25.5 167.8 25.4C167.3 25.3 166.8 25.2 166.5 25.1V22.8H174.1C174.6 22.8 175.1 22.8 175.5 22.7C175.9 22.6 176.2 22.5 176.4 22.2C176.6 22 176.7 21.6 176.7 21.1V20.5C176.7 20 176.5 19.6 176.2 19.3C175.8 19 175.2 18.9 174.3 18.9H171.6C170.6 18.9 169.7 18.8 168.9 18.5C168.1 18.2 167.5 17.8 167 17.1C166.5 16.5 166.3 15.6 166.3 14.5V13.6C166.3 12.5 166.5 11.7 166.9 11C167.3 10.3 168 9.80001 169 9.40001C170 9.00001 171.3 8.90001 173 8.90001C173.7 8.90001 174.5 8.90001 175.3 9.00001C176.1 9.10001 176.9 9.1 177.6 9.2C178.3 9.3 178.9 9.40001 179.4 9.50001V11.8H172.2C171.4 11.8 170.8 11.9 170.3 12.2C169.9 12.5 169.7 12.9 169.7 13.6V14.2C169.7 14.7 169.8 15 170 15.2C170.2 15.4 170.5 15.6 170.9 15.7C171.3 15.8 171.8 15.8 172.3 15.8H175C176.7 15.8 178 16.2 178.8 16.9C179.6 17.6 180 18.7 180 20.1V21.5C180 22.6 179.7 23.5 179.2 24.1C178.7 24.7 177.9 25.2 176.9 25.4C175.9 25.6 174.6 25.7 173.2 25.7Z" fill="#01264F"/>
<path d="M187.7 25.7C186.4 25.7 185.3 25.3 184.5 24.6C183.7 23.9 183.3 22.8 183.3 21.5V20.1C183.3 18.8 183.8 17.8 184.7 17C185.6 16.2 187.1 15.8 189 15.8H194V14.3C194 13.7 193.9 13.2 193.7 12.8C193.5 12.4 193.1 12.1 192.5 11.9C191.9 11.7 191.1 11.6 189.9 11.6H184.6V9.40002C185.4 9.20002 186.4 9.00002 187.5 8.90002C188.6 8.70002 189.9 8.70001 191.4 8.70001C192.8 8.70001 194.1 8.80001 195.1 9.20001C196.1 9.50001 196.9 10.1 197.4 10.9C197.9 11.7 198.2 12.8 198.2 14.1V25.5H195L194.3 23.7C194.1 23.8 193.9 24 193.5 24.2C193.1 24.4 192.6 24.6 192 24.9C191.4 25.1 190.8 25.3 190 25.5C189.2 25.7 188.5 25.7 187.7 25.7ZM189.7 23.1C190 23.1 190.3 23.1 190.7 23C191.1 22.9 191.4 22.8 191.8 22.8C192.2 22.7 192.5 22.6 192.8 22.5C193.1 22.4 193.4 22.3 193.6 22.2C193.8 22.1 193.9 22.1 194 22V17.7L190.2 17.9C189.2 18 188.5 18.2 188 18.6C187.6 19 187.3 19.6 187.3 20.2V20.9C187.3 21.4 187.4 21.8 187.6 22.2C187.8 22.5 188.1 22.7 188.5 22.9C188.9 23 189.3 23 189.7 23.1Z" fill="#01264F"/>
<path d="M201.7 25.7V9.10001H205L205.8 10.8C206.5 10.3 207.4 9.80002 208.4 9.40002C209.4 9.00002 210.5 8.80002 211.6 8.80002C213 8.80002 214.1 9.10001 214.8 9.60001C215.6 10.1 216.2 10.8 216.5 11.7C216.8 12.6 217 13.6 217 14.6V25.7H213V15.1C213 14.5 212.9 14 212.6 13.6C212.4 13.2 212 12.9 211.6 12.6C211.2 12.4 210.7 12.3 210 12.3C209.4 12.3 208.9 12.4 208.4 12.5C207.9 12.6 207.4 12.8 207 13C206.6 13.2 206.1 13.5 205.7 13.7V25.7H201.7Z" fill="#01264F"/>
<path d="M218.6 7.10001C217.7 7.10001 217 7.8 217 8.7C217 9.6 217.7 10.3 218.6 10.3C219.5 10.3 220.2 9.6 220.2 8.7C220.2 7.8 219.5 7.10001 218.6 7.10001ZM218.6 9.90001C217.9 9.90001 217.3 9.30001 217.3 8.60001C217.3 7.90001 217.9 7.30001 218.6 7.30001C219.3 7.30001 219.9 7.90001 219.9 8.60001C219.9 9.40001 219.3 9.90001 218.6 9.90001ZM218.7 8.90001H218.5V9.40001H218.2V8.00001H218.7C218.9 8.00001 219 8.00001 219.1 8.10001C219.2 8.20001 219.2 8.30001 219.2 8.40001C219.2 8.50001 219.2 8.60001 219.1 8.60001C219.1 8.70001 219 8.7 218.9 8.7L219.2 9.30001H218.9L218.7 8.90001ZM218.5 8.7H218.7C218.8 8.7 218.8 8.70001 218.9 8.60001C218.9 8.60001 219 8.50001 219 8.40001C219 8.30001 219 8.3 218.9 8.2C218.9 8.2 218.8 8.10001 218.7 8.10001H218.5V8.7Z" fill="#01264F"/>
<path d="M147.1 25.7V9.10001H150.4L151.2 10.8C151.9 10.3 152.8 9.80002 153.8 9.40002C154.8 9.00002 155.9 8.80002 157 8.80002C158.4 8.80002 159.5 9.10001 160.2 9.60001C160.9 10.1 161.6 10.8 161.9 11.7C162.2 12.6 162.4 13.6 162.4 14.6V25.7H158.3V15.1C158.3 14.5 158.2 14 157.9 13.6C157.7 13.2 157.3 12.9 156.9 12.6C156.5 12.4 156 12.3 155.3 12.3C154.7 12.3 154.2 12.4 153.7 12.5C153.2 12.6 152.7 12.8 152.3 13C151.9 13.2 151.4 13.5 151 13.7V25.7H147.1Z" fill="#01264F"/>
<path d="M141.5 8.7C140.8 8.7 140.1 8.50001 139.5 8.10001V25.8H143.5V8.10001C142.9 8.50001 142.2 8.7 141.5 8.7Z" fill="#01264F"/>
<path fill-rule="evenodd" clip-rule="evenodd" d="M83 3.59999L84.1 4.69999C84.5 5.09999 84.5 5.79999 84.1 6.19999L83 7.29999C82.6 7.69999 81.9 7.69999 81.5 7.29999L80.4 6.19999C80 5.79999 80 5.09999 80.4 4.69999L81.5 3.59999C81.9 3.19999 82.6 3.19999 83 3.59999Z" fill="#05143C"/>
<path d="M32.5 14.2C32.5 10.8 30.4 8.09999 26.3 8.09999C22.5 8.09999 20.1 10.7 20.1 14.2C20.1 17.9 22.6 20.3 26.2 20.3C30.9 20.3 32.5 16.9 32.5 14.2ZM23.4 14.2C23.4 12.4 24.6 11.2 26.3 11.2C28 11.2 29.2 12.3 29.2 14.2C29.2 16 28.1 17.3 26.3 17.3C24.6 17.3 23.4 16 23.4 14.2Z" fill="#05143C"/>
<path d="M41 17.3H41.2C41.4 17.3 41.5 17.4 41.5 17.6V19.7C41.5 19.9 41.6 20 41.8 20H44.3C44.5 20 44.6 19.9 44.6 19.7V8.69999C44.6 8.49999 44.5 8.39999 44.3 8.39999H41.7C41.5 8.39999 41.4 8.49999 41.4 8.69999V15.1C41.4 16.3 40.7 17.4 39.1 17.4C37.7 17.4 37 16.7 37 15.1V8.69999C37 8.49999 36.9 8.39999 36.7 8.39999H34C33.8 8.39999 33.7 8.49999 33.7 8.69999V15.6C33.7 18.1 34.9 20.2 37.7 20.2C40 20.2 40.8 18.9 41 17.3Z" fill="#05143C"/>
<path d="M52.1 11.2C53.6 11.2 54.4 11.9 54.4 13.5V19.7C54.4 19.9 54.5 20 54.7 20H57.3C57.5 20 57.6 19.9 57.6 19.7V12.7C57.6 9.89998 56.1 8.19998 53.5 8.19998C50.8 8.19998 50.1 9.79998 50 11.5H49.8C49.6 11.5 49.5 11.4 49.5 11.2V8.69998C49.5 8.49998 49.4 8.39999 49.2 8.39999H46.8C46.6 8.39999 46.5 8.49998 46.5 8.69998V19.7C46.5 19.9 46.6 20 46.8 20H49.4C49.6 20 49.7 19.9 49.7 19.7V13.5C49.6 11.9 50.8 11.2 52.1 11.2Z" fill="#05143C"/>
<path d="M66.2 19.5V17.1C66.2 17 66.2 16.9 66.1 16.9C66 16.9 66 16.8 65.9 16.9C65.7 17 65.4 17 65.1 17C64.1 17 63.5 16.7 63.5 15.8V11.9C63.5 11.7 63.6 11.6 63.8 11.6H66C66.2 11.6 66.3 11.5 66.3 11.3V8.59998C66.3 8.39998 66.2 8.29999 66 8.29999H63.8C63.6 8.29999 63.5 8.19998 63.5 7.99998V5.59998C63.5 5.39998 63.4 5.29999 63.2 5.29999H60.7C60.5 5.29999 60.4 5.39998 60.4 5.59998V6.79999C60.4 7.69999 60 8.19998 59 8.19998H58.9C58.7 8.19998 58.6 8.29998 58.6 8.49998V11.2C58.6 11.4 58.7 11.5 58.9 11.5H62.8V11.7C62.8 11.8 62.7 12 62.5 12C61 12.1 60.3 12.9 60.3 14.1V15.5C60.3 18 61.3 20 64.2 20C65.2 20 65.7 19.9 66 19.8C66.1 19.8 66.2 19.7 66.2 19.5Z" fill="#05143C"/>
<path d="M80.7 8.69999V19.7C80.7 19.9 80.8 20 81 20H83.6C83.8 20 83.9 19.9 83.9 19.7V8.69999C83.9 8.49999 83.8 8.39999 83.6 8.39999H81C80.8 8.39999 80.7 8.49999 80.7 8.69999Z" fill="#05143C"/>
<path d="M91.5 11.2C93 11.2 93.8 11.9 93.8 13.5V19.7C93.8 19.9 93.9 20 94.1 20H96.7C96.9 20 97 19.9 97 19.7V12.7C97 9.89998 95.5 8.19998 92.9 8.19998C90.2 8.19998 89.5 9.79998 89.4 11.5H89.2C89 11.5 88.9 11.4 88.9 11.2V8.69998C88.9 8.49998 88.8 8.39999 88.6 8.39999H86.2C86 8.39999 85.9 8.49998 85.9 8.69998V19.7C85.9 19.9 86 20 86.2 20H88.8C89 20 89.1 19.9 89.1 19.7V13.5C89.1 11.9 90.3 11.2 91.5 11.2Z" fill="#05143C"/>
<path d="M72.6 17C71.1 17 70.3 16.3 70.3 14.7V14.3C70.3 12 71.7 11.2 72.9 11.2C74 11.2 75 12.1 75 13.2C75 13.7 75 14.2 75 14.7C75 16.2 73.8 17 72.6 17ZM67.1 15.5C67.1 18.3 68.6 20 71.2 20C73.8 20 74.6 18.5 74.7 17C74.7 16.9 74.8 16.8 75 16.8H75.3C75.4 16.9 75.4 17.5 75.4 17.6C75.4 19.1 76.1 20.1 78 20.1C78.6 20.1 79 20 79.2 19.9C79.3 19.9 79.4 19.8 79.4 19.6V17.4C79.4 17.3 79.4 17.2 79.3 17.2C79.2 17.1 79.2 17.1 79.1 17.1C79 17.1 78.9 17.1 78.8 17.1C78.5 17.1 78.2 17 78.2 16.7V12.6C78.2 5.99998 67.1 6.79998 67.1 13.6V15.5Z" fill="#05143C"/>
<path d="M6.1 11.2C7.2 11.2 8.2 11.7 8.2 13.4V19.7C8.2 19.9 8.3 20 8.5 20H11.1C11.3 20 11.4 19.9 11.4 19.7V13.4C11.4 11.9 12.4 11.2 13.5 11.2C14.6 11.2 15.6 11.7 15.6 13.4V19.7C15.6 19.9 15.7 20 15.9 20H18.5C18.7 20 18.8 19.9 18.8 19.7V12.7C18.8 9.99998 17.8 8.19998 15.1 8.19998C12.7 8.19998 11.8 9.79999 11.8 11.4H11.6C11.5 11.4 11.4 11.3 11.3 11.2C11 9.09998 9.7 8.19998 7.7 8.19998C5.5 8.19998 4.6 9.59999 4.5 11.4H4.3C4.1 11.4 4 11.3 4 11.1V8.59998C4 8.39998 3.9 8.29999 3.7 8.29999H1.3C1.1 8.29999 1 8.39998 1 8.59998V19.6C1 19.8 1.1 19.9 1.3 19.9H3.9C4.1 19.9 4.2 19.8 4.2 19.6V13.3C4 11.8 5.1 11.2 6.1 11.2Z" fill="#05143C"/>
<path d="M98.9 5.5C99.4 5.5 99.9 5.7 100.3 6.1C100.6 6.4 100.9 6.9 100.9 7.5C100.9 8.1 100.7 8.5 100.3 8.9C100 9.2 99.5 9.5 98.9 9.5C98.3 9.5 97.9 9.3 97.5 8.9C97.1 8.5 96.9 8.1 96.9 7.5C96.9 7 97.1 6.5 97.5 6.1C97.9 5.7 98.4 5.5 98.9 5.5ZM100 6.3C99.7 6 99.3 5.8 98.9 5.8C98.5 5.8 98.1 6 97.8 6.3C97.5 6.6 97.3 7 97.3 7.4C97.3 7.8 97.5 8.2 97.8 8.5C98.1 8.8 98.5 9 98.9 9C99.3 9 99.7 8.8 100 8.5C100.3 8.2 100.5 7.8 100.5 7.4C100.5 7 100.3 6.6 100 6.3Z" fill="#05143C"/>
<path d="M98.2 8.4V6.5H99C99.2 6.5 99.4 6.5 99.5 6.6C99.6 6.6 99.7 6.7 99.7 6.8C99.8 6.9 99.8 7 99.8 7.1C99.8 7.2 99.8 7.4 99.7 7.5C99.6 7.6 99.5 7.7 99.3 7.7C99.4 7.7 99.5 7.8 99.5 7.9C99.6 8 99.6 8.1 99.7 8.2L99.9 8.6H99.4L99.1 8.2C99 8 98.9 8 98.9 7.9L98.8 7.8C98.8 7.8 98.7 7.8 98.6 7.8H98.5V8.6L98.2 8.4ZM98.6 7.3H98.9C99.1 7.3 99.2 7.3 99.3 7.3C99.3 7.3 99.4 7.3 99.4 7.2V7.1C99.4 7 99.4 7 99.3 6.9L99.2 6.8C99.2 6.8 99.1 6.8 98.9 6.8H98.6V7.3Z" fill="#05143C"/>
<path d="M0.899994 28.5V23.8H3.39999C3.69999 23.8 3.89999 23.8 4.09999 23.9C4.29999 24 4.39999 24.1 4.59999 24.3C4.79999 24.5 4.8 24.7 4.8 24.9C4.8 25.1 4.79999 25.2 4.69999 25.4C4.59999 25.6 4.49999 25.7 4.39999 25.8C4.29999 25.9 4.19999 26 3.99999 26C4.19999 26 4.29999 26.1 4.49999 26.2C4.69999 26.3 4.7 26.4 4.8 26.6C4.9 26.8 4.89999 26.9 4.89999 27.2C4.89999 27.5 4.79999 27.7 4.69999 27.9C4.59999 28.1 4.39999 28.2 4.19999 28.3C3.99999 28.4 3.69999 28.4 3.49999 28.4H0.899994V28.5ZM1.59999 27.8H3.19999C3.39999 27.8 3.59999 27.7 3.69999 27.6C3.79999 27.5 3.89999 27.3 3.89999 27.1C3.89999 27 3.9 26.8 3.8 26.7C3.7 26.6 3.69999 26.5 3.49999 26.5C3.39999 26.4 3.19999 26.4 3.09999 26.4H1.49999L1.59999 27.8ZM1.59999 25.8H3.09999C3.19999 25.8 3.39999 25.8 3.49999 25.7C3.59999 25.6 3.69999 25.6 3.69999 25.5C3.79999 25.4 3.8 25.3 3.8 25.2C3.8 25 3.69999 24.8 3.59999 24.7C3.49999 24.6 3.29999 24.5 3.09999 24.5H1.49999V25.8H1.59999ZM5.59999 28.5V23.8H7.99999C8.29999 23.8 8.6 23.9 8.8 24C9 24.1 9.2 24.3 9.3 24.5C9.4 24.7 9.49999 25 9.49999 25.2C9.49999 25.5 9.4 25.8 9.3 26C9.2 26.2 8.99999 26.4 8.69999 26.5L9.69999 28.4H8.89999L7.99999 26.6H6.39999V28.4H5.59999V28.5ZM6.39999 26H7.99999C8.19999 26 8.39999 25.9 8.59999 25.8C8.79999 25.7 8.8 25.5 8.8 25.2C8.8 25 8.79999 24.9 8.69999 24.8C8.59999 24.7 8.59999 24.6 8.39999 24.5C8.29999 24.4 8.09999 24.4 7.99999 24.4H6.39999V26ZM9.99999 28.5L11.8 23.8H12.8L14.6 28.5H13.8L13.4 27.4H11.2L10.8 28.5H9.99999ZM11.5 26.8H13.2L12.7 25.4C12.7 25.4 12.7 25.3 12.6 25.2C12.5 25.1 12.5 25 12.5 25C12.5 24.9 12.4 24.8 12.4 24.7C12.4 24.6 12.3 24.5 12.3 24.5C12.3 24.6 12.2 24.7 12.2 24.8C12.2 24.9 12.1 25 12.1 25.1C12.1 25.2 12 25.3 12 25.4L11.5 26.8ZM15.3 28.5V23.8H16L18.1 26.7L18.2 26.8L18.3 26.9L18.4 27C18.4 26.9 18.4 26.9 18.4 26.8C18.4 26.7 18.4 26.7 18.4 26.6V23.7H19.1V28.4H18.4L16.3 25.4C16.3 25.3 16.2 25.3 16.2 25.2C16.1 25.1 16.1 25.1 16.1 25C16.1 25.1 16.1 25.1 16.1 25.2C16.1 25.3 16.1 25.3 16.1 25.4V28.4L15.3 28.5ZM20.2 28.5V23.8H22C22.5 23.8 22.9 23.9 23.2 24C23.5 24.2 23.8 24.4 24 24.8C24.2 25.2 24.3 25.6 24.3 26.1C24.3 26.6 24.2 27.1 24 27.4C23.8 27.7 23.6 28 23.2 28.2C22.9 28.4 22.5 28.4 22 28.4H20.2V28.5ZM21 27.8H22C22.2 27.8 22.5 27.8 22.6 27.7C22.8 27.6 22.9 27.5 23.1 27.4C23.3 27.3 23.3 27.1 23.4 26.9C23.5 26.7 23.5 26.5 23.5 26.2V26.1C23.5 25.8 23.5 25.6 23.4 25.4C23.3 25.2 23.2 25 23.1 24.9C23 24.8 22.8 24.7 22.6 24.6C22.4 24.5 22.2 24.5 22 24.5H21V27.8ZM25.2 28.5V23.8H26V28.5H25.2ZM27 28.5V23.8H27.7L29.8 26.7L29.9 26.8L30 26.9L30.1 27C30.1 26.9 30.1 26.9 30.1 26.8C30.1 26.7 30.1 26.7 30.1 26.6V23.7H30.8V28.4H30.1L28 25.4C28 25.3 27.9 25.3 27.9 25.2C27.8 25.1 27.8 25.1 27.8 25C27.8 25.1 27.8 25.1 27.8 25.2C27.8 25.3 27.8 25.3 27.8 25.4V28.4L27 28.5ZM34.1 28.6C33.4 28.6 32.8 28.4 32.4 28C32 27.6 31.8 27 31.8 26.2C31.8 25.7 31.9 25.2 32.1 24.9C32.3 24.6 32.6 24.3 32.9 24.1C33.3 23.9 33.7 23.8 34.2 23.8C34.5 23.8 34.8 23.8 35 23.9C35.3 24 35.5 24.1 35.7 24.2C35.9 24.3 36 24.5 36.2 24.7C36.4 24.9 36.4 25.2 36.4 25.4H35.6C35.6 25.2 35.6 25.1 35.5 24.9C35.4 24.8 35.3 24.7 35.2 24.6C35.1 24.5 34.9 24.5 34.8 24.4C34.6 24.4 34.5 24.3 34.3 24.3C34 24.3 33.8 24.3 33.6 24.4C33.4 24.5 33.2 24.6 33.1 24.7C33 24.8 32.9 25 32.8 25.2C32.7 25.4 32.7 25.7 32.7 26V26.1C32.7 26.5 32.8 26.8 32.9 27.1C33 27.4 33.2 27.5 33.4 27.6C33.6 27.7 33.9 27.8 34.2 27.8C34.5 27.8 34.8 27.8 35 27.7C35.2 27.6 35.4 27.5 35.5 27.3C35.6 27.1 35.7 26.9 35.7 26.6V26.5H34V26H36.3V28.5H35.8L35.7 27.9C35.6 28 35.4 28.2 35.3 28.3C35.1 28.4 35 28.5 34.8 28.5C34.6 28.5 34.4 28.6 34.1 28.6ZM38.3 28.5L40.1 23.8H41.1L42.9 28.5H42.1L41.7 27.4H39.5L39.1 28.5H38.3ZM39.7 26.8H41.4L40.9 25.4C40.9 25.4 40.9 25.3 40.8 25.2C40.7 25.1 40.7 25 40.7 25C40.7 25 40.6 24.8 40.6 24.7C40.6 24.6 40.5 24.5 40.5 24.5C40.5 24.6 40.4 24.7 40.4 24.8C40.4 24.9 40.3 25 40.3 25.1C40.3 25.2 40.2 25.3 40.2 25.4L39.7 26.8ZM45.5 28.6C44.8 28.6 44.2 28.4 43.8 28C43.4 27.6 43.2 27 43.2 26.2C43.2 25.7 43.3 25.2 43.5 24.9C43.7 24.6 44 24.3 44.3 24.1C44.7 23.9 45.1 23.8 45.6 23.8C45.9 23.8 46.2 23.8 46.4 23.9C46.6 24 46.9 24.1 47.1 24.2C47.3 24.3 47.4 24.5 47.6 24.7C47.8 24.9 47.8 25.2 47.8 25.4H47C47 25.2 47 25.1 46.9 24.9C46.8 24.8 46.7 24.7 46.6 24.6C46.5 24.5 46.3 24.5 46.2 24.4C46 24.4 45.9 24.3 45.7 24.3C45.4 24.3 45.2 24.3 45 24.4C44.8 24.5 44.6 24.6 44.5 24.7C44.4 24.8 44.3 25 44.2 25.2C44.1 25.4 44.1 25.7 44.1 26V26.1C44.1 26.5 44.2 26.8 44.3 27.1C44.4 27.4 44.6 27.5 44.8 27.6C45 27.7 45.3 27.8 45.6 27.8C45.9 27.8 46.2 27.8 46.4 27.7C46.6 27.6 46.8 27.5 46.9 27.3C47 27.1 47.1 26.9 47.1 26.6V26.5H45.5V26H47.8V28.5H47.3L47.2 27.9C47.1 28 46.9 28.2 46.8 28.3C46.6 28.4 46.5 28.5 46.3 28.5C46 28.5 45.8 28.6 45.5 28.6ZM48.8 28.5V23.8H52.4V24.5H49.6V25.8H52.2V26.5H49.6V27.9H52.5V28.6L48.8 28.5ZM53.4 28.5V23.8H54.1L56.2 26.7L56.3 26.8L56.4 26.9L56.5 27C56.5 26.9 56.5 26.9 56.5 26.8C56.5 26.7 56.5 26.7 56.5 26.6V23.7H57.2V28.4H56.5L54.4 25.4C54.4 25.3 54.3 25.3 54.3 25.2C54.2 25.1 54.2 25.1 54.2 25C54.2 25.1 54.2 25.1 54.2 25.2C54.2 25.3 54.2 25.3 54.2 25.4V28.4L53.4 28.5ZM60.4 28.6C59.9 28.6 59.5 28.5 59.2 28.3C58.9 28.1 58.6 27.9 58.4 27.5C58.2 27.1 58.1 26.7 58.1 26.1C58.1 25.3 58.3 24.7 58.7 24.3C59.1 23.9 59.6 23.7 60.4 23.7C60.8 23.7 61.1 23.8 61.4 23.9C61.7 24 62 24.2 62.1 24.5C62.2 24.8 62.4 25.1 62.4 25.5H61.6C61.6 25.3 61.5 25 61.4 24.9C61.3 24.7 61.1 24.6 61 24.5C60.8 24.4 60.6 24.4 60.3 24.4C60 24.4 59.7 24.5 59.5 24.6C59.3 24.7 59.1 24.9 59 25.2C58.9 25.4 58.8 25.8 58.8 26.1V26.2C58.8 26.6 58.9 26.9 59 27.1C59.1 27.3 59.3 27.5 59.5 27.7C59.7 27.8 60 27.9 60.3 27.9C60.6 27.9 60.8 27.9 61 27.8C61.2 27.7 61.3 27.6 61.5 27.4C61.6 27.2 61.7 27 61.7 26.8H62.4C62.4 27.2 62.3 27.5 62.1 27.8C61.9 28.1 61.7 28.3 61.4 28.4C61.1 28.5 60.8 28.6 60.4 28.6ZM64.6 28.5V26.6L62.8 23.9H63.7L65 26L66.3 23.9H67.1L65.3 26.6V28.5H64.6Z" fill="#05143C"/>
</svg>
