<svg width="366" height="24" viewBox="0 0 366 24" fill="none" xmlns="http://www.w3.org/2000/svg">
<path d="M58 3.09998C62.1 3.09998 66.1 3.09998 70.2 3.09998C71.7 3.09998 72.8 3.59998 73.8 4.59998C75 5.79998 76.1 7.2 77.2 8.5C77.7 9.1 78.2 9.69999 78.6 10.3C79.3 11.3 79.3 12.7 78.6 13.7C77.4 15.2 76.1 16.6 74.8 18C74.2 18.7 73.5 19.4 72.7 19.9C72 20.4 71.2 20.6 70.4 20.6C62.2 20.6 54 20.6 45.8 20.6C45.2 20.6 44.6 20.6 44 20.4C43 20.1 42.5 19.5 42.4 18.5C42.3 17.9 42.3 17.3 42.3 16.7C42.3 13.2 42.3 9.70001 42.3 6.20001C42.3 5.80001 42.3 5.40002 42.4 4.90002C42.6 3.80002 43.3 3.19998 44.4 3.09998C44.8 3.09998 45.2 3 45.6 3C49.8 3.1 53.9 3.09998 58 3.09998ZM54.7 8.20001C54.6 8.10001 54.6 8.00002 54.5 7.90002C54.2 7.40002 53.8 6.90001 53.3 6.70001C51.8 6.10001 50.4 6.2 49.1 7C48.1 7.6 47.3 8.50002 46.5 9.40002C45.8 10.3 45.2 11.3 44.9 12.4C44.8 13.1 44.8 13.7 44.8 14.4C44.8 15.3 44.8 16.3 44.8 17.2C44.8 17.8 44.9 17.9 45.5 17.9C46.1 17.9 46.8 17.9 47.4 17.9C48 17.9 48.1 17.8 48.1 17.2C48.1 15.2 48.1 13.1 48.1 11.1C48.1 10.6 48.2 10.2 48.6 9.79999C49 9.29999 49.5 8.99999 50.1 8.79999C50.9 8.59999 51.4 8.90001 51.6 9.70001C51.7 10 51.7 10.3 51.7 10.6C51.7 12.2 51.7 13.9 51.7 15.5C51.7 16.1 51.7 16.7 51.7 17.3C51.7 17.8 51.8 17.9 52.3 17.9C53 17.9 53.7 17.9 54.3 17.9C54.8 17.9 54.9 17.8 54.9 17.3C54.9 15.2 54.9 13.1 54.9 11C54.9 10.6 55 10.3 55.3 9.90002C55.7 9.40002 56.2 8.99999 56.8 8.79999C57.6 8.59999 58.2 8.80001 58.5 9.70001C58.6 10 58.6 10.3 58.6 10.6C58.6 12.8 58.6 15 58.6 17.1C58.6 17.2 58.6 17.3 58.6 17.4C58.6 17.7 58.8 17.8 59 17.8C59.8 17.8 60.5 17.8 61.3 17.8C61.7 17.8 61.8 17.6 61.8 17.2C61.8 16.3 61.8 15.5 61.8 14.6C61.8 13 61.8 11.5 61.8 9.90002C61.8 8.90002 61.6 7.90001 60.9 7.20001C59.9 6.10001 57.9 5.89998 56.6 6.59998C55.9 6.89998 55.3 7.50001 54.7 8.20001ZM70.1 12.7C71.2 12.7 72.3 12.7 73.4 12.7C73.8 12.7 74 12.5 74.1 12.1C74.2 11.7 74.1 11.2 74 10.8C73.8 9.39999 73.2 8.19999 72 7.29999C70.8 6.39999 69.5 6.09999 68 6.29999C66.1 6.59999 64.7 7.59999 63.9 9.29999C63.3 10.5 63.2 11.8 63.4 13C63.6 14.5 64.3 15.7 65.5 16.5C66.4 17.2 67.5 17.4 68.6 17.5C70.7 17.7 72.9 16.4 73.7 14.5C73.9 14.1 73.7 13.9 73.3 13.9C72.8 13.9 72.3 13.9 71.8 13.9C71.3 13.9 71 14.1 70.8 14.5C70 15.8 68.1 15.7 67.2 15C66.6 14.4 66.4 13.7 66.4 13C66.4 12.8 66.4 12.7 66.7 12.7C67.9 12.7 69 12.7 70.1 12.7ZM44.9 9.70001C45.7 8.60001 46.7 7.80001 47.9 7.20001C48 7.10001 48 7.1 48 7C48 6.7 47.9 6.5 47.5 6.5C46.7 6.4 46 6.5 45.2 6.5C45 6.5 44.8 6.60002 44.8 6.90002C44.8 7.80002 44.9 8.70001 44.9 9.70001Z" fill="#33CBCB"/>
<path d="M4.09998 15.2C3.39998 14.9 2.89999 14.5 2.39999 14C1.59999 13.3 0.899986 12.4 0.399986 11.4C0.299986 11.3 0.299988 11.1 0.299988 11C0.299988 8 0.299988 5 0.299988 2C0.299988 1.3 0.699986 0.900024 1.39999 0.900024C3.49999 0.900024 5.69999 0.900024 7.79999 0.900024C8.69999 0.900024 9.59999 0.999988 10.5 1.29999C12.2 1.79999 13.3 2.79998 13.8 4.59998C14.1 5.89998 14.1 7.10002 13.7 8.40002C13.2 10.1 12 11.1 10.4 11.7C9.19999 12.1 7.99999 12.2 6.79999 12.2C6.29999 12.2 5.69998 12.2 5.19998 12.2C4.49998 12.2 4.09998 12.6 3.99998 13.3C4.09998 13.9 4.09998 14.6 4.09998 15.2ZM4.09998 6.5C4.09998 7.2 4.09998 7.9 4.09998 8.5C4.09998 8.9 4.39999 9.20001 4.79999 9.20001C5.89999 9.20001 6.89998 9.19998 7.99998 9.09998C9.19998 8.99998 9.99998 8.29998 10.2 7.09998C10.3 6.69998 10.3 6.30002 10.2 5.90002C10.1 5.10002 9.59999 4.50001 8.79999 4.20001C8.49999 4.10001 8.29998 4 7.99998 4C6.89998 3.9 5.79998 4.00002 4.69998 3.90002C4.29998 3.90002 4.09998 4.1 4.09998 4.5C4.09998 5.2 4.09998 5.8 4.09998 6.5Z" fill="#343434"/>
<path d="M23.2 17.5C22.6 17.9 22 18.3 21.4 18.5C19.8 19.1 18.1 19.2 16.5 18.5C15.1 17.9 14.4 16.8 14.4 15.3C14.4 13.7 15 12.5 16.3 11.6C17 11.1 17.7 11 18.5 10.8C19.5 10.6 20.5 10.6 21.6 10.6C21.8 10.6 22 10.6 22.2 10.6C22.7 10.5 23 10.3 23 9.70001C23.1 8.90001 22.7 7.90001 21.6 7.70001C20.9 7.60001 20.2 7.59998 19.5 7.79998C19 7.99998 18.6 8.29998 18.4 8.79998C18.3 9.29998 18 9.40002 17.5 9.40002C16.9 9.40002 16.3 9.40002 15.6 9.40002C15.1 9.40002 14.9 9.09997 15 8.59997C15.3 7.09997 16.3 6.30002 17.7 5.90002C19 5.50002 20.3 5.39999 21.6 5.49999C22.4 5.49999 23.2 5.60002 24 5.90002C25.8 6.50002 26.7 7.59999 26.8 9.49999C26.8 10.3 26.8 11 26.8 11.8C26.8 13.7 26.8 15.7 26.8 17.6C26.8 17.7 26.8 17.8 26.8 18C26.8 18.5 26.6 18.6 26.1 18.6C25.4 18.6 24.7 18.6 24 18.6C23.4 18.6 23.2 18.4 23.2 17.8C23.2 17.8 23.2 17.7 23.2 17.5ZM23.1 14.6C23.1 14.2 23.1 14 23.1 13.7C23 13.2 22.7 12.8 22.1 12.8C21.1 12.8 20.1 12.9 19.1 13.3C18.5 13.6 18.2 14.1 18.1 14.7C18 15.4 18.2 16 18.9 16.3C19.9 16.8 20.9 16.7 21.9 16.2C22.7 15.9 23.3 15.4 23.1 14.6Z" fill="#343434"/>
<path d="M34 13.7C34.4 12.7 34.7 11.7 35.1 10.8C35.6 9.39999 36.1 7.99998 36.6 6.59998C36.8 6.19998 37.1 5.90002 37.5 5.90002C38.2 5.90002 38.9 5.90002 39.6 5.90002C40.2 5.90002 40.4 6.10001 40.2 6.70001C39.8 7.90001 39.4 9.10001 38.9 10.2C38.4 11.5 37.9 12.8 37.5 14.2C37.2 15 36.8 15.8 36.2 16.5C35.1 17.9 33.9 19.1 32.3 19.9C32.1 20 31.9 20.1 31.6 20.2C31.6 20.2 31.5 20.2 31.4 20.2C31.6 19.9 31.8 19.6 31.9 19.3C32.1 18.9 32 18.5 31.9 18.1C30.5 14.3 29.1 10.6 27.7 6.79999C27.5 6.29999 27.7 6.00002 28.3 5.90002C29 5.90002 29.7 5.90002 30.5 5.90002C31 5.90002 31.3 6.20001 31.5 6.70001C32.3 9.00001 33.1 11.3 33.9 13.5C33.9 13.5 33.9 13.5 34 13.7Z" fill="#343434"/>
<path d="M36.1 17.8V17.9C35.6 19.3 35.1 20.7 34.2 21.9C33.5 22.8 32.7 23.5 31.6 23.7C30.7 23.9 29.8 23.8 28.9 23.6C28.7 23.6 28.6 23.4 28.5 23.1C28.4 22.4 28.5 21.8 28.5 21.1C28.5 20.9 28.7 20.7 28.9 20.7C29.1 20.7 29.2 20.7 29.4 20.7C31 20.9 32.4 20.4 33.7 19.6C34.5 19.2 35.4 18.5 36.1 17.8Z" fill="#343434"/>
<path d="M0.399994 13.4C0.999994 14 1.7 14.5 2.3 14.9C2.8 15.2 3.29999 15.5 3.89999 15.7C4.09999 15.8 4.19999 15.8 4.19999 16C4.19999 16.6 4.19999 17.3 4.19999 17.9C4.19999 18.4 3.99999 18.6 3.49999 18.6C2.69999 18.6 1.89999 18.6 1.09999 18.6C0.699991 18.6 0.399994 18.3 0.399994 17.9C0.399994 16.5 0.399994 15 0.399994 13.4Z" fill="#343434"/>
<path d="M68.8 10.8C68.1 10.8 67.4 10.8 66.7 10.8C66.6 10.8 66.4 10.8 66.5 10.6C66.7 9.59995 67.2 8.69998 68.3 8.49998C70 8.19998 70.9 9.29999 71.1 10.7C71.1 10.9 71 10.9 70.9 10.9C70.2 10.8 69.5 10.8 68.8 10.8Z" fill="#33CBCB"/>
<path d="M156.2 12.1C155.4 12.1 154.8 12.4 154.2 12.6V18.7C154.8 18.8 155.1 18.8 155.6 18.8C157.5 18.8 157.8 17.9 157.8 16.7V13.8C157.8 12.9 157.5 12.1 156.2 12.1ZM143.3 11.8C142 11.8 141.7 12.5 141.7 13.4V13.9H145V13.4C145 12.5 144.7 11.8 143.3 11.8ZM118.4 18.1C118.4 18.8 118.7 19.2 119.5 19.2C120.3 19.2 120.8 18.9 121.4 18.7V17.3H119.6C118.8 17.2 118.4 17.4 118.4 18.1ZM168.7 12.1C167.4 12.1 166.9 12.8 166.9 13.7V17C166.9 17.9 167.4 18.7 168.7 18.7C170 18.7 170.5 18 170.5 17V13.7C170.5 12.9 170.1 12.1 168.7 12.1ZM111.8 21.9H107.8V12.3H105.8V9H107.8V7C107.8 4.3 108.9 2.70001 112.1 2.70001H114.7V6H113.1C111.9 6 111.8 6.49999 111.8 7.29999V8.90002H114.8L114.4 12.2H111.8V21.9ZM125.3 21.9H122L121.9 21.1C120.4 21.9 119.1 22.1 118.2 22.1C115.8 22.1 114.5 20.5 114.5 18.3C114.5 15.7 116 14.7 118.7 14.7H121.4V14C121.4 12.7 121.2 12.3 119.2 12.3H115.8L116.1 9H119.8C124.3 9 125.3 10.4 125.3 14.1V21.9ZM136.6 12.5C134.5 12.1 134 12.1 133 12.1C131.2 12.1 130.7 12.5 130.7 14V16.8C130.7 18.3 131.2 18.7 133 18.7C134 18.7 134.6 18.6 136.6 18.3V21.5C134.8 21.9 133.6 22 132.6 22C128.4 22 126.7 19.8 126.7 16.5V14.2C126.7 11 128.4 8.70001 132.6 8.70001C133.6 8.70001 134.8 8.80001 136.6 9.20001V12.5ZM148.9 16.6H141.6V16.9C141.6 18.4 142.1 18.8 143.9 18.8C145.5 18.8 146.5 18.7 148.5 18.4V21.6C146.5 22 145.5 22.1 143.6 22.1C139.4 22.1 137.7 19.9 137.7 16.6V14C137.7 11.2 139 8.90002 143.3 8.90002C147.7 8.90002 148.9 11.2 148.9 14V16.6ZM161.8 16.6C161.8 19.7 160.9 22 155.5 22C153.6 22 152.4 21.8 150.3 21.5V3.70001L154.3 3V9.20001C155.2 8.90001 156.3 8.70001 157.3 8.70001C161.3 8.70001 161.9 10.5 161.9 13.3V16.6H161.8ZM174.5 16.7C174.5 19.4 173.4 22 168.7 22C164 22 162.9 19.4 162.9 16.7V14.1C162.9 11.4 164 8.79999 168.7 8.79999C173.3 8.79999 174.5 11.4 174.5 14.1V16.7ZM187.1 16.7C187.1 19.4 186 22 181.3 22C176.6 22 175.5 19.4 175.5 16.7V14.1C175.5 11.4 176.6 8.79999 181.3 8.79999C185.9 8.79999 187.1 11.4 187.1 14.1V16.7ZM200.2 21.9H195.9L192.3 15.9V21.9H188.3V3.79999L192.3 3.09998V14.8L195.9 9.09998H200.2L196.2 15.4L200.2 21.9ZM181.4 12.1C180.1 12.1 179.6 12.8 179.6 13.7V17C179.6 17.9 180.1 18.7 181.4 18.7C182.7 18.7 183.2 18 183.2 17V13.7C183.2 12.9 182.7 12.1 181.4 12.1Z" fill="#4666A9"/>
<path d="M202.4 19.6C203.1 19.6 203.6 20.1 203.6 20.8C203.6 21.5 203.1 22 202.4 22C201.7 22 201.2 21.5 201.2 20.8C201.2 20.1 201.7 19.6 202.4 19.6ZM202.4 19.8C201.9 19.8 201.4 20.3 201.4 20.8C201.4 21.4 201.8 21.8 202.4 21.8C202.9 21.8 203.4 21.3 203.4 20.8C203.4 20.3 203 19.8 202.4 19.8ZM202.2 21.5H202V20.1C202.1 20.1 202.2 20.1 202.4 20.1C202.6 20.1 202.7 20.1 202.8 20.2C202.9 20.3 202.9 20.4 202.9 20.5C202.9 20.7 202.8 20.8 202.6 20.8C202.7 20.8 202.8 20.9 202.8 21.1C202.8 21.3 202.9 21.4 202.9 21.4H202.7C202.7 21.4 202.6 21.2 202.6 21.1C202.6 20.9 202.5 20.9 202.3 20.9H202.1V21.5H202.2ZM202.2 20.8H202.4C202.6 20.8 202.7 20.7 202.7 20.6C202.7 20.5 202.6 20.4 202.4 20.4C202.3 20.4 202.3 20.4 202.2 20.4V20.8Z" fill="#4666A9"/>
<path d="M266.7 12.5L262.8 7.09998H260.7V19H262.9V10.8L266.6 15.8H266.8L270.5 10.9V19H272.7V7.09998H270.6L266.7 12.5Z" fill="#1D1D1B"/>
<path d="M280.4 10.5C279.9 10.2 279.2 10.1 278.5 10.1C277.9 10.1 277.4 10.2 276.9 10.4C276.4 10.6 276 10.9 275.6 11.2C275.2 11.5 275 11.9 274.8 12.4L276.5 13.2C276.7 12.8 276.9 12.5 277.3 12.3C277.6 12.1 278 11.9 278.5 11.9C279 11.9 279.4 12 279.7 12.3C280 12.6 280.1 12.9 280.1 13.2V13.5L277.5 13.9C276.8 14 276.3 14.2 275.8 14.4C275.4 14.7 275 15 274.8 15.3C274.6 15.7 274.5 16.1 274.5 16.6C274.5 17.1 274.6 17.5 274.9 17.9C275.1 18.3 275.5 18.6 275.9 18.8C276.3 19 276.9 19.1 277.5 19.1C278 19.1 278.4 19 278.8 18.9C279.2 18.8 279.5 18.6 279.9 18.3C280 18.2 280.1 18.1 280.3 18V18.9H282.3V13.1C282.3 12.5 282.1 11.9 281.8 11.5C281.3 11.2 280.9 10.8 280.4 10.5ZM279.7 16.6C279.5 16.9 279.3 17.2 278.9 17.4C278.6 17.6 278.2 17.7 277.7 17.7C277.4 17.7 277.1 17.6 276.8 17.4C276.6 17.2 276.5 17 276.5 16.7C276.5 16.4 276.6 16.1 276.8 16C277 15.8 277.3 15.7 277.7 15.6L279.9 15.2V15.6C280 15.9 279.9 16.2 279.7 16.6Z" fill="#1D1D1B"/>
<path d="M286.8 10.6C286.5 10.8 286.2 11.1 286 11.5V10.3H284V19H286.1V14.2C286.1 13.5 286.3 13 286.6 12.7C287 12.3 287.4 12.1 288 12.1H288.7V10.2H288.2C287.7 10.3 287.2 10.4 286.8 10.6Z" fill="#1D1D1B"/>
<path d="M298.3 10.3H295.7L292.4 13.8V7H290.3V19H292.4V16.4L293.5 15.2L296 19H298.4L295.1 13.8L298.3 10.3Z" fill="#1D1D1B"/>
<path d="M306.1 11.4C305.7 11 305.3 10.7 304.8 10.5C304.3 10.3 303.7 10.2 303 10.2C302.2 10.2 301.5 10.4 300.8 10.8C300.1 11.2 299.6 11.7 299.3 12.4C298.9 13.1 298.7 13.8 298.7 14.7C298.7 15.6 298.9 16.3 299.3 17C299.7 17.7 300.2 18.2 300.9 18.6C301.6 19 302.4 19.2 303.2 19.2C303.8 19.2 304.3 19.1 304.8 18.9C305.3 18.7 305.7 18.5 306.1 18.2C306.5 17.9 306.7 17.5 306.9 17.1L305.2 16.3C305 16.6 304.7 16.9 304.4 17.1C304.1 17.3 303.7 17.4 303.2 17.4C302.7 17.4 302.3 17.3 301.9 17.1C301.5 16.9 301.3 16.6 301.1 16.2C301 15.9 300.9 15.7 300.9 15.4H307.2C307.2 15.3 307.3 15.1 307.3 15C307.3 14.9 307.3 14.7 307.3 14.5C307.3 13.9 307.2 13.4 307 12.9C306.8 12.3 306.5 11.8 306.1 11.4ZM301.8 12.2C302.1 12 302.5 11.9 303 11.9C303.4 11.9 303.8 12 304.2 12.2C304.5 12.4 304.8 12.7 304.9 13.1C305 13.3 305 13.5 305 13.7H300.9C300.9 13.5 301 13.3 301.1 13.2C301.2 12.7 301.5 12.4 301.8 12.2Z" fill="#1D1D1B"/>
<path d="M313.2 17.3C312.9 17.3 312.6 17.2 312.4 17.1C312.2 17 312 16.8 311.9 16.6C311.8 16.4 311.7 16.2 311.7 15.9V12.2H313.7V10.3H311.7V8.29999H309.6V9C309.6 9.4 309.5 9.7 309.2 10C309 10.2 308.6 10.3 308.2 10.3H308V12.2H309.5V16C309.5 17 309.8 17.7 310.3 18.3C310.8 18.8 311.6 19.1 312.6 19.1C312.8 19.1 312.9 19.1 313.1 19.1C313.3 19.1 313.5 19.1 313.6 19V17.2C313.5 17.2 313.4 17.2 313.3 17.2C313.4 17.3 313.3 17.3 313.2 17.3Z" fill="#1D1D1B"/>
<path d="M322.4 10.8C321.7 10.4 321 10.2 320.2 10.2C319.5 10.2 318.9 10.3 318.4 10.6C318.1 10.8 317.8 11 317.5 11.3V7H315.4V19H317.4V18C317.7 18.3 318 18.6 318.4 18.8C318.9 19 319.5 19.2 320.1 19.2C320.9 19.2 321.7 19 322.3 18.6C323 18.2 323.5 17.7 323.9 17C324.3 16.3 324.5 15.5 324.5 14.7C324.5 13.9 324.3 13.1 323.9 12.4C323.6 11.7 323 11.2 322.4 10.8ZM322 16C321.8 16.4 321.5 16.7 321.1 16.9C320.7 17.1 320.3 17.2 319.8 17.2C319.3 17.2 318.9 17.1 318.6 16.9C318.2 16.7 317.9 16.4 317.7 16C317.5 15.6 317.4 15.2 317.4 14.6C317.4 14 317.5 13.7 317.7 13.3C317.9 12.9 318.2 12.6 318.6 12.4C319 12.2 319.4 12.1 319.8 12.1C320.3 12.1 320.7 12.2 321.1 12.4C321.5 12.6 321.8 12.9 322 13.3C322.2 13.7 322.3 14.1 322.3 14.6C322.3 15.1 322.3 15.7 322 16Z" fill="#1D1D1B"/>
<path d="M328.9 10.6C328.6 10.8 328.3 11.1 328.1 11.5V10.3H326.1V19H328.2V14.2C328.2 13.5 328.4 13 328.7 12.7C329.1 12.3 329.5 12.1 330.1 12.1H330.8V10.2H330.3C329.8 10.3 329.3 10.4 328.9 10.6Z" fill="#1D1D1B"/>
<path d="M334.5 7.09998H332.4V9.29999H334.5V7.09998Z" fill="#1D1D1B"/>
<path d="M334.5 10.3H332.4V19H334.5V10.3Z" fill="#1D1D1B"/>
<path d="M343.1 11.2C342.8 10.9 342.5 10.7 342.2 10.5C341.7 10.2 341.1 10.1 340.4 10.1C339.6 10.1 338.8 10.3 338.2 10.7C337.6 11.1 337 11.6 336.6 12.3C336.2 13 336 13.7 336 14.6C336 15.5 336.2 16.2 336.6 16.9C337 17.6 337.5 18.1 338.2 18.5C338.9 18.9 339.6 19.1 340.4 19.1C341 19.1 341.6 19 342.1 18.7C342.5 18.5 342.8 18.2 343.1 17.9V18.9H345.1V7H343V11.2H343.1ZM342.8 16C342.6 16.4 342.3 16.7 341.9 16.9C341.5 17.1 341.1 17.2 340.6 17.2C340.1 17.2 339.7 17.1 339.3 16.9C338.9 16.7 338.6 16.4 338.4 16C338.2 15.6 338.1 15.2 338.1 14.6C338.1 14 338.2 13.6 338.4 13.3C338.6 12.9 338.9 12.6 339.3 12.4C339.7 12.2 340.1 12.1 340.6 12.1C341.1 12.1 341.5 12.2 341.9 12.4C342.3 12.6 342.5 12.9 342.8 13.3C343 13.7 343.1 14.1 343.1 14.6C343.1 15.2 343 15.7 342.8 16Z" fill="#1D1D1B"/>
<path d="M353.6 11.3C353.3 11 353 10.7 352.7 10.5C352.2 10.2 351.6 10.1 351 10.1C350.2 10.1 349.5 10.3 348.9 10.7C348.3 11.1 347.8 11.6 347.4 12.2C347 12.8 346.9 13.6 346.9 14.4C346.9 15.2 347.1 15.9 347.4 16.6C347.8 17.2 348.3 17.8 348.9 18.1C349.5 18.5 350.3 18.7 351.1 18.7C351.7 18.7 352.3 18.6 352.8 18.3C353.1 18.1 353.4 17.9 353.6 17.7V18.6C353.6 19 353.5 19.4 353.3 19.7C353.1 20 352.9 20.2 352.5 20.4C352.2 20.6 351.8 20.6 351.4 20.6C350.8 20.6 350.4 20.5 350 20.2C349.6 19.9 349.4 19.6 349.2 19.2L347.3 19.9C347.5 20.4 347.8 20.9 348.2 21.2C348.6 21.6 349.1 21.9 349.6 22.1C350.2 22.3 350.8 22.4 351.4 22.4C352.2 22.4 353 22.2 353.6 21.9C354.2 21.6 354.7 21.1 355.1 20.5C355.5 19.9 355.7 19.2 355.7 18.5V10.3H353.7L353.6 11.3ZM353.2 15.6C353 16 352.7 16.2 352.4 16.4C352.1 16.6 351.7 16.7 351.2 16.7C350.7 16.7 350.4 16.6 350 16.4C349.7 16.2 349.4 15.9 349.2 15.6C349 15.2 348.9 14.9 348.9 14.4C348.9 14 349 13.6 349.2 13.2C349.4 12.8 349.7 12.6 350 12.4C350.4 12.2 350.7 12.1 351.2 12.1C351.7 12.1 352 12.2 352.4 12.4C352.7 12.6 353 12.9 353.2 13.2C353.4 13.6 353.5 14 353.5 14.4C353.5 14.9 353.4 15.3 353.2 15.6Z" fill="#1D1D1B"/>
<path d="M365.4 12.8C365.2 12.3 364.9 11.8 364.6 11.5C364.2 11.1 363.8 10.8 363.3 10.6C362.8 10.4 362.2 10.3 361.5 10.3C360.7 10.3 360 10.5 359.3 10.9C358.6 11.3 358.1 11.8 357.8 12.5C357.4 13.2 357.2 13.9 357.2 14.8C357.2 15.7 357.4 16.4 357.8 17.1C358.2 17.8 358.7 18.3 359.4 18.7C360.1 19.1 360.9 19.3 361.7 19.3C362.3 19.3 362.8 19.2 363.3 19C363.8 18.8 364.2 18.6 364.6 18.3C365 18 365.2 17.6 365.4 17.2L363.7 16.4C363.5 16.7 363.2 17 362.9 17.2C362.6 17.4 362.2 17.5 361.7 17.5C361.2 17.5 360.8 17.4 360.4 17.2C360 17 359.8 16.7 359.6 16.3C359.5 16 359.4 15.8 359.4 15.5H365.7C365.7 15.4 365.8 15.2 365.8 15.1C365.8 14.9 365.8 14.8 365.8 14.6C365.7 13.8 365.6 13.3 365.4 12.8ZM360.3 12.2C360.6 12 361 11.9 361.5 11.9C362 11.9 362.3 12 362.7 12.2C363 12.4 363.3 12.7 363.4 13.1C363.5 13.3 363.5 13.5 363.5 13.7H359.4C359.4 13.5 359.5 13.3 359.6 13.2C359.7 12.7 360 12.4 360.3 12.2Z" fill="#1D1D1B"/>
<path d="M230.3 19.5H236.3V7.70001L230.3 9.5V19.5Z" fill="#3551F2"/>
<path d="M236.3 7.70001L239.4 9.09998V11.3H236.3V7.70001Z" fill="#3551F2"/>
<path d="M245.4 5L248.5 6.29999V8.29999H245.4V5Z" fill="#3551F2"/>
<path d="M239.4 6.79999V19.5H245.4V5L239.4 6.79999Z" fill="#3551F2"/>
<path d="M248.5 4.09998V19.5H254.5V2.20001L248.5 4.09998Z" fill="#3551F2"/>
</svg>
