<svg width="352" height="44" viewBox="0 0 352 44" fill="none" xmlns="http://www.w3.org/2000/svg">
<path d="M39.4 20.2C41.8 20.2 43.8 20.8 43.8 21.6C43.8 22.4 41.8 23 39.4 23C37 23 35 22.4 35 21.6C35.1 20.8 37 20.2 39.4 20.2ZM29.9 7.89999C30 7.89999 30.1 7.89999 30.2 7.89999L34.2 21.3C34.6 22.8 36.8 23.9 39.5 23.9C42.2 23.9 44.3 22.8 44.8 21.3L48.8 7.89999C48.9 7.89999 49 7.89999 49.1 7.89999C49.9 7.89999 50.5 7.3 50.5 6.5C50.5 5.7 49.9 5.10001 49.1 5.10001C48.3 5.10001 47.7 5.7 47.7 6.5C47.7 7.1 48 7.5 48.5 7.8L43.9 17.6L44.6 4.39999C45.4 4.39999 46 3.8 46 3C46 2.2 45.4 1.60001 44.6 1.60001C43.8 1.60001 43.2 2.2 43.2 3C43.2 3.6 43.6 4.2 44.2 4.3L41.2 17.2L39.7 2.89999C40.4 2.79999 40.9 2.2 40.9 1.5C40.9 0.7 40.3 0.100006 39.5 0.100006C38.7 0.100006 38.1 0.7 38.1 1.5C38.1 2.2 38.6 2.79999 39.3 2.89999L37.8 17.1L34.8 4.2C35.4 4 35.8 3.49999 35.8 2.89999C35.8 2.09999 35.2 1.5 34.4 1.5C33.6 1.5 33 2.09999 33 2.89999C33 3.69999 33.6 4.3 34.4 4.3L35.1 17.5L30.5 7.7C30.9 7.5 31.3 7 31.3 6.5C31.3 5.7 30.7 5.10001 29.9 5.10001C29.1 5.10001 28.5 5.7 28.5 6.5C28.5 7.3 29.1 7.89999 29.9 7.89999Z" fill="#9B7A33"/>
<path d="M27 40.9C26.8 41.2 26.5 41.5 26.2 41.8C25.7 42.2 25.1 42.5 24.4 42.5C24.3 42.5 24.1 42.5 24 42.5C23.9 42.5 23.7 42.5 23.6 42.5C23 42.5 22.3 42.2 21.8 41.8C21.5 41.6 21.2 41.3 21 40.9C20.3 39.9 19.8 38.4 19.8 36.8C19.8 35.3 20.2 33.9 20.9 32.9C21.3 32.2 21.9 31.7 22.6 31.4H22.7C22.8 31.4 22.9 31.3 23 31.3C23.3 31.2 23.7 31.2 24 31.2C24.4 31.2 24.7 31.3 25 31.3C25.1 31.3 25.2 31.4 25.3 31.4H25.4C26.1 31.7 26.7 32.2 27.1 32.9C27.8 33.9 28.2 35.3 28.2 36.8C28.3 38.4 27.8 39.8 27 40.9ZM24 29.6C20 29.6 16.8 32.8 16.8 36.7C16.8 40.6 20 43.8 24 43.8C28 43.8 31.2 40.6 31.2 36.7C31.3 32.9 28 29.6 24 29.6Z" fill="#00623E"/>
<path d="M45.6 38.2H44.6V40.2C44.6 41.4 43.6 42.4 42.4 42.4H39.3H38.1V31.1H40V30.1H38.1H37.9H33.1V31.1H35V42.4H33.1V43.4H44.6H45.4H45.5H45.6V40.1V38.2Z" fill="#00623E"/>
<path d="M60.8 30.1H57.6H47.6V31.1H49.5V42.4H47.6V43.4H57.6H59.8H60.7H60.8H60.9V40.1V38.6H59.9V40.2C59.9 41.4 58.9 42.4 57.7 42.4H54.1H52.8V37V36.8H53.8H54.4C55.3 36.8 56 37.5 56 38.4V38.9V39.1H56.9V39V36.7V36V33.7H56V34.3C56 35.2 55.3 35.8 54.4 35.9H53.8H53.2H52.8V31.1H55.7H57.7C58.9 31.1 59.9 32.1 59.9 33.3V34.7H60.9V33.4L60.8 30.1Z" fill="#00623E"/>
<path d="M78.1 42.5C77.1 42.5 76.9 42.2 76.2 41.3L71.8 35.8L74.7 32.3C75.5 31.4 75.7 31.1 76.7 31.1H77.3H77.4V30.1H77.3H74.4H74.3H72.2H72V31.1H72.1H73.1C73.4 31.1 73.6 31.3 73.6 31.6C73.6 31.7 73.6 31.8 73.5 31.9L70.9 35L68.9 32.5L68.5 32C68.4 31.9 68.4 31.8 68.4 31.7C68.4 31.4 68.6 31.2 68.9 31.2H70.1V30.2H68H65H63.3V31.2H63.6C64.5 31.2 64.7 31.5 65.4 32.3L69.3 37.1L65.8 41.3C65 42.2 64.8 42.5 63.8 42.5H63.2H63V43.5H63.2H66.5H66.7H68.5H68.7V42.5H68.5H67.3C67 42.5 66.8 42.3 66.8 42C66.8 41.9 66.8 41.8 66.9 41.7L70 38L72.6 41.2L73 41.7C73.1 41.8 73.1 41.9 73.1 42C73.1 42.3 72.9 42.5 72.6 42.5H71.4V43.5H78.6V42.5H78.1Z" fill="#00623E"/>
<path d="M8.30001 36H5.10001V31.1H8.30001C9.70001 31.2 10.8 32.1 10.8 33.5C10.9 34.9 9.70001 35.9 8.30001 36ZM14.5 42.4L13.6 39.8C13.2 38.7 12.9 38.2 12.3 37.6C11.9 37.2 11.3 37 10.9 36.9C12.5 36.6 13.8 35.2 13.8 33.5C13.8 31.6 12.3 30.1 10.4 30.1C10.4 30.1 10.4 30.1 10.3 30.1H5.10001H2.00001H0.100006V31.1H2.00001V42.4H0.100006V43.4H5.10001H7.00001V42.4H5.10001V37H6.60001H6.7H7.00001C7.50001 37 7.90001 37.1 8.30001 37.2C8.60001 37.3 9 37.4 9.2 37.6C9.5 37.8 9.9 38.1 10.2 38.6C10.3 38.7 10.4 38.9 10.4 39C11 40.1 11.3 41.5 11.7 43.4H14H16.1V42.4H14.5Z" fill="#00623E"/>
<path d="M139.6 17.3H128V20.7H136.2C135.8 25.5 131.8 27.6 128 27.6C123.1 27.6 118.9 23.8 118.9 18.4C118.9 13.2 122.9 9.19998 128 9.19998C131.9 9.19998 134.2 11.7 134.2 11.7L136.6 9.19998C136.6 9.19998 133.5 5.79999 127.9 5.79999C120.7 5.79999 115.2 11.9 115.2 18.4C115.2 24.8 120.4 31.1 128.1 31.1C134.9 31.1 139.8 26.5 139.8 19.6C139.8 18.1 139.6 17.3 139.6 17.3Z" fill="#5B7FBE"/>
<path d="M149.1 14.8C144.3 14.8 140.9 18.5 140.9 22.9C140.9 27.3 144.2 31.1 149.1 31.1C153.6 31.1 157.2 27.7 157.2 23C157.2 17.6 153 14.8 149.1 14.8ZM149.1 18C151.4 18 153.7 19.9 153.7 22.9C153.7 25.9 151.5 27.8 149.1 27.8C146.5 27.8 144.5 25.7 144.5 22.8C144.5 20.1 146.5 18 149.1 18Z" fill="#D7272A"/>
<path d="M166.9 14.8C162.1 14.8 158.7 18.5 158.7 22.9C158.7 27.3 162 31.1 166.9 31.1C171.4 31.1 175 27.7 175 23C175 17.6 170.8 14.8 166.9 14.8ZM166.9 18C169.2 18 171.5 19.9 171.5 22.9C171.5 25.9 169.3 27.8 166.9 27.8C164.3 27.8 162.3 25.7 162.3 22.8C162.2 20.1 164.3 18 166.9 18Z" fill="#F4C300"/>
<path d="M184.3 14.8C179.9 14.8 176.5 18.6 176.5 22.9C176.5 27.8 180.5 31 184.2 31C186.5 31 187.7 30.1 188.7 29V30.6C188.7 33.4 187 35.1 184.4 35.1C181.9 35.1 180.7 33.3 180.2 32.2L177.1 33.5C178.2 35.8 180.4 38.3 184.4 38.3C188.7 38.3 192.1 35.6 192.1 29.8V15.2H188.7V16.6C187.6 15.5 186.2 14.8 184.3 14.8ZM184.6 18C186.7 18 188.9 19.8 188.9 23C188.9 26.2 186.7 27.9 184.5 27.9C182.2 27.9 180 26 180 23C180.1 19.8 182.3 18 184.6 18Z" fill="#5B7FBE"/>
<path d="M207.2 14.8C203.1 14.8 199.6 18.1 199.6 22.9C199.6 28 203.5 31.1 207.6 31.1C211 31.1 213.2 29.2 214.4 27.5L211.6 25.6C210.9 26.7 209.7 27.8 207.6 27.8C205.3 27.8 204.3 26.5 203.6 25.3L214.5 20.8L213.9 19.5C212.9 16.9 210.5 14.8 207.2 14.8ZM207.4 17.9C208.9 17.9 210 18.7 210.4 19.6L203.1 22.6C202.8 20.3 205 17.9 207.4 17.9Z" fill="#D7272A"/>
<path d="M194.5 30.6H198.1V6.59998H194.5V30.6Z" fill="#45AC43"/>
<path fill-rule="evenodd" clip-rule="evenodd" d="M305.9 5.29999H319.1V18.5H305.9V5.29999ZM314 17H310.9V13.5H307.4V10.4H310.9V6.89998H314V10.4H317.5V13.5H314V17Z" fill="#E53212"/>
<path fill-rule="evenodd" clip-rule="evenodd" d="M298.5 9.09999V17H295.4V9.09999H291.7V6.99998H302.2V9.09999H298.5ZM290.3 5.29999H303.5V18.5H290.3V5.29999Z" fill="#1D1D1B"/>
<path fill-rule="evenodd" clip-rule="evenodd" d="M283 33.6H287.7C287.8 35.6 289.2 36.5 290.8 36.5C293.5 36.5 294.4 35 294.1 33.9C293.9 32.9 292.3 32.5 291.3 32.3L289.3 31.9C286.6 31.4 283.6 30.5 283.6 27.2C283.6 24 287.6 23 290.6 23C293.6 23 297.9 24.1 298 27.7H293.9C293.6 25.8 292 25.1 290.3 25.1C289.2 25.1 288 25.7 288 27.2C288 29.3 294.7 29.2 296.6 30.4C297.5 31 298.3 32.4 298.3 33.4C298.2 37.6 294.2 38.4 291.1 38.4C287.8 38.5 283 37.7 283 33.6ZM300.2 33.6H304.9C305 35.6 306.4 36.5 308 36.5C310.7 36.5 311.6 35 311.3 33.9C311.1 32.9 309.5 32.5 308.5 32.3L306.5 31.9C303.8 31.4 300.8 30.5 300.8 27.2C300.8 24 304.8 23 307.8 23C310.8 23 315.1 24.1 315.2 27.7H311.1C310.8 25.8 309.2 25.1 307.5 25.1C306.4 25.1 305.2 25.7 305.2 27.2C305.2 29.3 311.9 29.2 313.8 30.4C314.7 31 315.5 32.4 315.5 33.4C315.4 37.6 311.4 38.4 308.3 38.4C305 38.5 300.2 37.7 300.2 33.6ZM280.9 23.4V38.3H276.3V23.4H280.9ZM268 26.3V38.2H263.9V26.3H257.6V23.4H274.5V26.3H268ZM345.3 26.3V38.2H341.2V26.3H334.9V23.4H351.8V26.3H345.3ZM326.3 22.8C331.1 22.8 335.1 26.4 335.1 30.8C335.1 35.2 331.2 38.8 326.3 38.8C321.5 38.8 317.5 35.2 317.5 30.8C317.5 26.4 321.4 22.8 326.3 22.8ZM326.3 25.3C328.5 25.3 330.3 27.8 330.3 30.8C330.3 33.8 328.5 36.3 326.3 36.3C324.1 36.3 322.3 33.8 322.3 30.8C322.3 27.8 324.1 25.3 326.3 25.3Z" fill="#1D1D1B"/>
</svg>
