<?xml version="1.0" standalone="no"?>
<!DOCTYPE svg PUBLIC "-//W3C//DTD SVG 20010904//EN"
 "http://www.w3.org/TR/2001/REC-SVG-20010904/DTD/svg10.dtd">
<svg version="1.0" xmlns="http://www.w3.org/2000/svg"
 width="1080.000000pt" height="1080.000000pt" viewBox="0 0 1080.000000 1080.000000"
 preserveAspectRatio="xMidYMid meet">

<g transform="translate(0.000000,1080.000000) scale(0.100000,-0.100000)"
fill="#000000" stroke="none">
<path d="M0 5400 l0 -5400 5400 0 5400 0 0 5400 0 5400 -5400 0 -5400 0 0
-5400z m7988 945 c65 -60 88 -101 78 -140 -9 -34 -116 -142 -150 -151 -40 -10
-81 13 -141 78 -79 85 -77 108 14 199 91 91 114 93 199 14z m-1588 -230 l5
-110 94 -3 c52 -1 101 -8 108 -14 9 -7 13 -42 13 -118 0 -76 -4 -111 -13 -118
-7 -6 -56 -13 -108 -14 l-94 -3 0 -182 c0 -176 1 -183 23 -205 19 -19 36 -24
105 -28 l82 -5 3 -108 3 -107 -28 -11 c-15 -7 -71 -12 -123 -12 -116 0 -181
24 -238 88 -59 67 -74 120 -80 272 -4 121 -2 136 17 177 24 48 82 86 133 86
26 0 53 22 41 33 -3 4 -73 7 -154 7 -81 0 -154 3 -163 6 -13 5 -16 25 -16 118
0 122 5 136 53 136 66 0 97 48 97 153 0 35 3 67 7 71 4 3 57 5 117 4 l111 -3
5 -110z m2877 95 c55 -25 83 -70 83 -135 0 -138 -161 -200 -257 -99 -58 62
-53 159 12 211 58 46 99 52 162 23z m-7172 -220 c63 -24 114 -89 141 -181 16
-55 40 -65 49 -21 18 84 30 110 74 153 51 52 100 70 188 70 156 0 251 -71 282
-213 14 -62 18 -695 5 -708 -7 -7 -54 -10 -125 -8 l-114 3 -5 295 c-5 310 -6
314 -55 360 -24 22 -35 25 -105 25 -74 0 -81 -2 -110 -30 -18 -16 -37 -39 -43
-50 -8 -13 -14 -116 -17 -310 l-5 -290 -120 0 -120 0 -5 290 c-6 320 -8 331
-69 372 -25 17 -48 23 -90 23 -69 0 -118 -24 -146 -71 -18 -31 -20 -57 -25
-324 l-5 -290 -120 0 -120 0 0 455 0 455 110 0 110 0 2 -95 c2 -52 5 -105 8
-117 7 -31 33 -29 40 2 3 14 8 37 11 53 17 85 98 157 191 171 54 7 143 -1 188
-19z m1476 16 c224 -48 360 -225 359 -469 -2 -246 -137 -419 -367 -471 -212
-47 -427 25 -533 179 -60 87 -75 146 -75 295 0 134 0 135 36 211 44 92 86 141
162 190 112 73 268 97 418 65z m2186 -28 c50 -25 93 -70 122 -126 37 -73 42
-134 39 -457 l-3 -310 -120 0 -120 0 -5 290 c-5 267 -7 293 -25 323 -51 87
-212 99 -299 23 -48 -42 -51 -60 -56 -356 l-5 -280 -120 0 -120 0 -3 444 c-1
319 1 448 9 457 15 18 199 20 217 2 8 -8 12 -49 12 -120 0 -97 2 -108 18 -108
14 0 21 13 30 59 15 72 58 133 112 161 83 42 230 41 317 -2z m1544 22 c118
-36 183 -91 231 -196 21 -45 23 -68 28 -274 l5 -225 40 -5 40 -5 3 -102 3
-102 -28 -8 c-15 -5 -60 -7 -100 -7 -120 2 -176 54 -188 174 -9 90 -11 93 -35
80 -11 -6 -20 -19 -20 -30 0 -36 -40 -126 -68 -152 -56 -53 -89 -63 -207 -63
-100 0 -115 2 -161 27 -63 33 -107 85 -136 158 -18 45 -22 82 -26 206 -5 168
8 241 54 319 31 53 121 138 178 167 111 57 274 73 387 38z m1549 -6 c70 -21
146 -97 175 -175 19 -50 20 -79 20 -394 l0 -340 -120 0 -120 0 -5 290 c-5 267
-7 293 -25 323 -28 47 -81 72 -153 72 -76 0 -123 -20 -159 -67 l-28 -36 -5
-281 c-3 -155 -9 -287 -13 -293 -6 -9 -42 -13 -122 -13 -94 0 -114 3 -119 16
-3 9 -6 210 -6 448 0 323 3 435 12 444 8 8 47 12 108 12 61 0 100 -4 108 -12
8 -8 12 -49 12 -120 0 -97 2 -108 18 -108 14 0 21 13 30 59 19 93 74 155 162
182 45 13 175 10 230 -7z m-4572 -6 c9 -9 12 -89 12 -300 0 -267 2 -292 20
-327 27 -53 74 -74 156 -69 97 6 150 54 165 150 5 29 9 162 8 295 0 134 3 247
6 253 10 16 220 13 234 -4 8 -9 10 -138 9 -457 l-3 -444 -115 0 -115 0 -5 100
c-4 78 -8 100 -20 103 -11 2 -20 -16 -33 -60 -40 -134 -164 -193 -327 -155
-108 26 -179 95 -217 212 -21 66 -33 676 -13 700 16 19 219 22 238 3z m3720 4
c10 -7 12 -105 10 -458 l-3 -449 -120 0 -120 0 -3 449 c-2 353 0 451 10 458 7
4 58 8 113 8 55 0 106 -4 113 -8z m-3862 -1223 c78 -20 142 -119 76 -119 -21
0 -32 7 -40 26 -28 60 -140 68 -195 13 -28 -28 -29 -32 -25 -109 4 -102 20
-122 107 -128 56 -4 62 -2 91 26 16 17 30 40 30 51 0 19 -6 21 -60 21 -57 0
-60 1 -60 25 0 25 1 25 90 25 l90 0 0 -100 c0 -92 -2 -100 -19 -100 -11 0 -22
9 -26 20 -6 19 -6 19 -38 0 -42 -26 -138 -27 -187 -2 -71 35 -103 126 -80 223
27 110 121 159 246 128z m906 0 c49 -13 86 -46 97 -86 9 -32 9 -33 -23 -33
-26 0 -34 5 -43 29 -21 57 -143 63 -193 9 -24 -26 -34 -75 -27 -136 4 -36 12
-53 37 -75 30 -27 38 -29 93 -25 66 5 97 29 97 74 0 23 -3 24 -60 24 -58 0
-60 1 -60 25 l0 26 93 -3 92 -3 0 -95 c0 -91 -1 -95 -22 -98 -18 -3 -23 2 -23
17 0 26 -8 26 -33 4 -29 -27 -151 -30 -197 -5 -74 39 -104 173 -61 269 34 75
134 110 233 82z m1185 -8 c44 -20 67 -48 78 -93 7 -26 5 -28 -23 -28 -24 0
-32 6 -41 30 -21 62 -123 75 -175 23 -50 -50 -44 -180 11 -223 53 -41 158 -16
170 40 5 25 10 30 36 30 28 0 29 -2 23 -32 -15 -75 -65 -108 -163 -108 -76 0
-121 24 -150 80 -40 76 -24 214 30 259 25 20 87 40 127 40 19 0 54 -8 77 -18z
m-4543 -6 c30 -20 50 -67 41 -96 -4 -12 -18 -32 -31 -44 l-24 -22 25 -13 c52
-28 56 -106 9 -151 -24 -22 -35 -24 -150 -28 l-124 -3 0 186 0 186 115 0 c88
0 121 -4 139 -15z m395 -9 c46 -42 45 -137 -3 -173 l-24 -18 34 -67 c19 -37
34 -72 34 -78 0 -5 -13 -10 -28 -10 -25 0 -32 8 -62 70 l-34 70 -63 0 -63 0
-2 -52 c0 -29 -1 -60 -2 -68 -1 -10 -11 -15 -31 -15 l-30 0 -3 170 c-1 93 0
175 3 183 4 11 31 13 129 10 105 -2 127 -6 145 -22z m324 -43 c27 -70 99 -255
112 -285 6 -15 2 -18 -24 -18 -28 0 -34 5 -51 45 l-19 45 -85 0 -85 0 -20 -45
c-16 -37 -25 -45 -47 -45 -34 0 -34 0 47 207 l64 163 41 0 42 0 25 -67z m319
-64 l93 -130 3 130 3 131 24 0 24 0 3 -176 c2 -97 0 -180 -3 -186 -4 -5 -17
-8 -30 -6 -17 2 -48 38 -114 130 -49 70 -92 127 -95 127 -3 1 -6 -56 -7 -127
l-2 -127 -26 -3 -25 -3 0 185 0 186 29 0 c26 0 40 -15 123 -131z m478 109 c59
-31 80 -73 80 -161 0 -140 -61 -186 -242 -187 l-78 0 0 185 0 185 98 0 c82 0
105 -4 142 -22z m215 -163 l0 -180 -27 0 c-16 0 -28 3 -28 8 0 4 0 86 0 183
l0 175 28 -3 27 -3 0 -180z m240 58 l90 -125 3 126 3 126 29 0 30 0 0 -185 0
-185 -27 0 c-24 0 -41 18 -123 132 l-95 131 -3 -132 -3 -131 -29 0 -30 0 0
185 0 185 33 0 c29 -1 39 -11 122 -127z m1034 -53 c39 -99 71 -182 71 -185 0
-3 -14 -5 -30 -5 -27 0 -33 6 -50 45 l-19 45 -85 0 -84 0 -18 -45 c-14 -39
-21 -45 -45 -45 -16 0 -29 4 -29 9 0 8 25 73 131 339 7 17 16 22 47 22 l39 0
72 -180z m831 155 l0 -25 -115 0 -115 0 0 -50 0 -50 100 0 c100 0 100 0 100
-25 0 -24 -1 -24 -97 -27 l-98 -3 0 -55 0 -55 113 -3 c112 -3 112 -3 112 -27
l0 -25 -145 0 -145 0 0 185 0 185 145 0 145 0 0 -25z m225 -102 l90 -125 3
126 3 126 29 0 30 0 0 -185 0 -185 -28 0 c-25 0 -40 16 -123 131 l-94 131 -3
-131 -3 -131 -29 0 -30 0 0 185 0 185 33 0 c29 -1 39 -11 122 -127z m710 47
c28 -43 52 -79 55 -79 3 0 27 35 54 79 45 74 51 80 82 80 l33 0 -69 -108 -70
-109 0 -76 0 -77 -30 0 -30 0 0 75 0 76 -70 104 c-38 57 -70 107 -70 110 0 3
15 5 33 5 29 0 36 -7 82 -80z"/>
<path d="M9153 6180 c-61 -37 -79 -108 -43 -168 54 -88 189 -72 218 26 33 110
-79 201 -175 142z m115 -42 c17 -17 15 -38 -4 -59 -15 -17 -15 -20 6 -46 20
-25 20 -28 5 -32 -11 -2 -28 10 -42 28 -31 39 -43 39 -43 1 0 -23 -4 -30 -20
-30 -18 0 -20 7 -20 75 l0 75 53 0 c29 0 58 -5 65 -12z"/>
<path d="M9190 6104 c0 -11 8 -14 27 -12 39 4 42 28 4 28 -21 0 -31 -5 -31
-16z"/>
<path d="M3364 5754 c-83 -30 -144 -125 -144 -225 0 -53 34 -140 68 -172 115
-110 303 -78 365 62 27 62 26 173 -2 229 -53 104 -171 147 -287 106z"/>
<path d="M7104 5771 c-60 -15 -102 -49 -131 -108 -23 -48 -27 -70 -28 -142 0
-99 17 -140 76 -179 30 -21 44 -23 110 -20 64 3 81 7 112 31 60 46 71 76 72
203 0 107 -1 112 -29 148 -41 54 -118 82 -182 67z"/>
<path d="M1500 4670 l0 -50 73 0 c80 0 97 9 97 50 0 41 -17 50 -97 50 l-73 0
0 -50z"/>
<path d="M1500 4510 l0 -60 68 0 c81 0 112 17 112 60 0 43 -31 60 -112 60
l-68 0 0 -60z"/>
<path d="M1878 4710 c-1 -5 -1 -32 0 -60 l4 -50 77 0 c47 0 82 5 89 12 20 20
15 86 -7 98 -25 13 -158 13 -163 0z"/>
<path d="M2316 4645 c-15 -42 -30 -83 -33 -91 -4 -11 7 -14 61 -14 36 0 66 1
66 3 0 1 -15 42 -33 90 l-34 89 -27 -77z"/>
<path d="M3032 4588 l3 -133 62 1 c69 1 108 20 123 60 14 35 12 118 -1 148
-16 35 -67 56 -133 56 l-57 0 3 -132z"/>
<path d="M4557 4643 c-14 -37 -28 -76 -32 -85 -6 -16 0 -18 59 -18 36 0 66 2
66 4 0 10 -54 152 -60 159 -4 5 -19 -22 -33 -60z"/>
</g>
</svg>
