<svg width="211" height="73" viewBox="0 0 211 73" fill="none" xmlns="http://www.w3.org/2000/svg">
<path d="M204.8 72.1H99.4001C96.0001 72.1 93.2001 69.3 93.2001 65.9V6.39999C93.2001 2.99999 96.0001 0.199997 99.4001 0.199997H204.8C208.2 0.199997 211 2.99999 211 6.39999V65.9C211 69.3 208.2 72.1 204.8 72.1ZM99.4001 1.3C96.5001 1.3 94.2001 3.6 94.2001 6.5V66C94.2001 68.9 96.5001 71.2 99.4001 71.2H204.8C207.7 71.2 210 68.9 210 66V6.5C210 3.6 207.7 1.3 204.8 1.3H99.4001Z" fill="#DF610D"/>
<path d="M105.5 24.2H0.5V5.89999C0.5 2.79999 3.00001 0.199997 6.20001 0.199997H105.5V24.2Z" fill="#DF610D"/>
<path d="M105.5 24.2H0.5V48.1H105.5V24.2Z" fill="#F27321"/>
<path d="M105.5 72.1H6.20001C3.10001 72.1 0.5 69.6 0.5 66.4V48.1H105.5V72.1Z" fill="#F29922"/>
<path fill-rule="evenodd" clip-rule="evenodd" d="M150.9 17.9C151 18.4 151.5 19.7 151.7 20.3C151.8 20.5 151.8 20.6 151.9 20.8L152.3 21.8H149.5C149.6 21.7 149.6 21.5 149.7 21.3L150.2 19.8C150.3 19.6 150.8 18 150.9 17.9ZM146 26H148L148.8 23.7H153L153.8 26H155.8C156 26 155.9 25.9 155.9 25.8C155.8 25.7 155.8 25.6 155.8 25.4C155.7 25.2 155.6 24.9 155.5 24.7L151.9 14.9H149.9C149.9 15 149.7 15.5 149.7 15.6L145.9 25.7C145.9 25.9 145.7 26 146 26Z" fill="#00467A"/>
<path fill-rule="evenodd" clip-rule="evenodd" d="M160.8 24.2H160.5C159.6 24.2 158.7 23.3 158.7 22.4C158.7 21.7 158.7 21.1 159.3 20.5C160.1 19.7 161.3 19.7 162.1 20.5C162.9 21.3 162.9 22.9 162.1 23.7L162 23.8C161.7 24 161.3 24.2 160.8 24.2ZM158.6 18.8C158.5 18.5 158.3 18.3 158.3 18H156.7V28.8H158.7V25.3C159.7 25.9 159.9 26 161 26C162.8 26 164.5 24 164.5 22.2C164.5 21.1 164.4 20.4 163.8 19.5L163.4 19C163.3 18.9 163.3 18.9 163.2 18.8C163.1 18.7 163.1 18.7 162.9 18.6C161.8 17.8 160.7 17.7 159.4 18.2C159 18.4 159 18.5 158.6 18.8Z" fill="#00467A"/>
<path fill-rule="evenodd" clip-rule="evenodd" d="M169.7 19.8C169.9 19.8 170.2 19.9 170.4 19.9C170.5 19.9 170.6 20 170.7 20C170.9 20.1 170.8 20.1 170.9 20.2C171.2 20.4 171.5 20.9 171.5 21.3H167.7C168 20.5 168.7 19.8 169.7 19.8ZM165.7 22C165.7 22.2 165.8 22.6 165.8 22.9C165.9 23.2 165.9 23.4 166 23.6C166.5 24.9 168 26.1 169.4 26.1C170.6 26.1 171.1 26 172.1 25.3C172.4 25.1 172.6 24.9 172.8 24.6C172.9 24.4 173.2 23.9 173.3 23.6C172.7 23.6 172 23.6 171.4 23.6C171 23.6 171.3 23.7 170.8 24C170.2 24.4 169.1 24.3 168.5 23.8C168.3 23.7 168.3 23.6 168.2 23.4C168.1 23.2 168 23.1 168 22.8H173.6V21.7C173.6 20.4 172.9 19.4 172.1 18.7C171 17.8 169.4 17.6 168.1 18.3C167.4 18.6 166.9 19.1 166.4 19.7C166 20.3 165.7 21.1 165.7 22Z" fill="#00467A"/>
<path fill-rule="evenodd" clip-rule="evenodd" d="M192 18.7C191.9 18.5 191.8 18.2 191.7 18H190.2V26.1H192.1C192.3 26.1 192.2 25.7 192.2 25.3V22.3C192.2 21.3 192.1 20.7 192.8 20.2C193.5 19.7 194.5 19.8 195.1 20.5C195.5 20.9 195.4 21.4 195.4 22.2V25.7C195.4 26.2 195.2 26.1 197.4 26.1V21.2C197.4 20.5 197.2 19.9 196.9 19.3C195.9 17.6 193.6 17.5 192.1 18.6C192.1 18.7 192.2 18.7 192 18.7Z" fill="#00467A"/>
<path fill-rule="evenodd" clip-rule="evenodd" d="M178.7 20.2C178.7 20.9 178.7 21.3 179.2 21.8C180.5 23.1 182.7 22.7 182.7 23.6C182.7 24 182.4 24.3 182 24.4C181.7 24.5 181.4 24.5 181.1 24.4C180.4 24.2 180.5 23.5 180.2 23.5H178.4C178.5 25.1 179.8 26.1 181.4 26.1C182.1 26.1 182.4 26.1 183.1 25.9C184.4 25.4 185.1 24.2 184.6 22.9C184.5 22.6 184.2 22.3 184 22.1C183.1 21.5 182.9 21.4 181.8 21.1C181.2 20.9 180.6 20.8 180.6 20.3C180.6 19.3 182.4 19.3 182.6 20.3H184.5C184.5 19.9 184.3 19.5 184.2 19.3C183.9 18.7 183.3 18.2 182.6 18C181.5 17.7 180.3 17.8 179.4 18.5C179.2 18.7 178.9 18.9 178.8 19.2C178.9 19.4 178.7 19.8 178.7 20.2Z" fill="#00467A"/>
<path fill-rule="evenodd" clip-rule="evenodd" d="M175 25.9C175 26 175 26 175.1 26H177V15H175V25.9Z" fill="#00467A"/>
<path fill-rule="evenodd" clip-rule="evenodd" d="M186.3 26H188.2C188.3 26 188.3 26 188.3 25.9V18H186.3V26Z" fill="#00467A"/>
<path fill-rule="evenodd" clip-rule="evenodd" d="M186.2 15.8C186.2 16.6 187.2 17.4 188.1 16.7C188.8 16.1 188.6 14.7 187.3 14.7C186.9 14.7 186.8 14.9 186.6 15.1C186.5 15.2 186.4 15.2 186.4 15.4C186.3 15.5 186.2 15.6 186.2 15.8Z" fill="#00467A"/>
<path d="M140.1 15.6V27.9C140.1 30.1 138.3 32 136 32H123.7C121.5 32 119.6 30.2 119.6 27.9V15.6C119.6 13.4 121.4 11.5 123.7 11.5H136C138.3 11.5 140.1 13.3 140.1 15.6Z" fill="url(#paint0_linear_137_11)"/>
<path d="M136.8 26.2C137.628 26.2 138.3 25.5284 138.3 24.7C138.3 23.8716 137.628 23.2 136.8 23.2C135.972 23.2 135.3 23.8716 135.3 24.7C135.3 25.5284 135.972 26.2 136.8 26.2Z" fill="white"/>
<path d="M121.8 27.9C122.187 27.9 122.5 27.5866 122.5 27.2C122.5 26.8134 122.187 26.5 121.8 26.5C121.413 26.5 121.1 26.8134 121.1 27.2C121.1 27.5866 121.413 27.9 121.8 27.9Z" fill="#D64412"/>
<path d="M123.8 28.5C124.187 28.5 124.5 28.1866 124.5 27.8C124.5 27.4134 124.187 27.1 123.8 27.1C123.413 27.1 123.1 27.4134 123.1 27.8C123.1 28.1866 123.413 28.5 123.8 28.5Z" fill="#D64412"/>
<path d="M122.3 29.7C122.687 29.7 123 29.3866 123 29C123 28.6134 122.687 28.3 122.3 28.3C121.913 28.3 121.6 28.6134 121.6 29C121.6 29.3866 121.913 29.7 122.3 29.7Z" fill="#D64412"/>
<path d="M124 30.4C124.387 30.4 124.7 30.0866 124.7 29.7C124.7 29.3134 124.387 29 124 29C123.613 29 123.3 29.3134 123.3 29.7C123.3 30.0866 123.613 30.4 124 30.4Z" fill="#D64412"/>
<path fill-rule="evenodd" clip-rule="evenodd" d="M138.3 17.5C137.7 17.3 137.1 17.1 136.4 17.1H123.6L133.3 12.4C134.4 11.9 135.7 12.3 136.2 13.4L138.3 17.5Z" fill="#8AC43E"/>
<path fill-rule="evenodd" clip-rule="evenodd" d="M138.7 17.7C138.6 17.6 138.4 17.6 138.3 17.5C137.7 17.3 137.1 17.1 136.4 17.1H123.6L135.5 14.1C136.7 13.8 137.9 14.5 138.2 15.7L138.7 17.7Z" fill="#209245"/>
<path d="M140.1 18.7V20.9C139.7 19.2 138.2 18 136.5 18H123C122.7 18 122.5 17.8 122.5 17.5C122.5 17.2 122.7 17 123 17H136.5C137.9 17 139.2 17.7 140.1 18.7Z" fill="white"/>
<path d="M148.2 45.5C148.1 45.6 147.4 45.9 147.1 46.1C146.7 46.2 146 46.4 145.4 46.5C144.5 46.7 143.9 46.7 142.5 46.7C141.1 46.7 140.2 46.8 140.1 46.9C140.1 46.9 139.9 46.9 139.7 47C139.5 47 139.3 47.1 139.1 47.1C138.7 47.2 138 47.5 137.7 47.6C137 48 136.4 48.5 136 49.1C135.9 49.3 135.8 49.4 135.8 49.4C135.7 49.5 135.1 50.8 135 51.3C134.9 51.8 134.7 52.7 134.6 53.3C134.6 53.4 134.6 53.4 134.6 53.5C134.6 53.6 134.6 53.8 134.5 54.1C134.5 54.4 134.5 54.6 134.4 54.6C134.4 54.6 134.4 54.5 134.4 54.3C134.4 53.9 134.2 52.9 134.1 52.6C134.1 52.5 134 52.4 134 52.4C133.8 51.8 133.5 51 133.2 50.5C132.6 49.4 131.6 48.5 130.6 48C130.4 47.9 130.3 47.9 130.2 47.8H130.1C130.1 47.8 130.1 47.8 130 47.8C129.9 47.7 129.3 47.6 129 47.6C128.5 47.5 127.3 47.5 126.7 47.6C126.3 47.7 125.6 47.8 125.4 47.9C125.4 47.9 125.2 48 125 48.1C124.1 48.4 123.2 49.2 122.6 50L122.4 50.3V52.6C122.4 54.9 122.4 54.9 122.6 54.8C122.7 54.7 123.4 54.3 123.8 54.2C124.1 54.1 124.7 53.9 124.9 53.9C124.9 53.9 125 53.9 125.1 53.8C125.7 53.7 126.9 53.6 127.8 53.6C130 53.6 131.8 54.1 132.9 54.9C133.1 55.1 133.6 55.5 133.7 55.7C133.8 55.8 133.8 55.9 133.8 55.9C133.8 55.9 133.9 56.1 134 56.3C134.1 56.5 134.2 56.7 134.2 56.7C134.2 56.7 134.2 56.7 134.3 56.6C134.3 56.5 134.4 56.3 134.6 56.1C135.4 54.7 136.9 53.8 139 53.4C139.1 53.4 139.2 53.4 139.2 53.4C139.5 53.3 140.3 53.3 141.3 53.2C143.4 53.1 144 53 145.2 52.5C145.5 52.4 145.5 52.4 145.9 52.1C146.4 51.8 147 51.2 147.3 50.7C148 49.6 148.2 48.4 148.2 46.5C148.3 45.6 148.3 45.4 148.2 45.5C148.2 45.4 148.2 45.4 148.2 45.5Z" fill="#E94F11"/>
<path d="M122.5 60.9V63.8H134.4H146.3V61C146.3 59.5 146.3 58.2 146.3 58.1C146.3 58 145.2 58 134.4 58H122.5V60.9Z" fill="#E94F11"/>
<path d="M152.2 55.1H153.5V53.3H154.5L155.8 55.1H157.3L155.9 53C156.6 52.7 157.1 52.1 157.1 51.2C157.1 50.6 156.9 50.2 156.6 49.9C156.2 49.5 155.7 49.3 154.9 49.3H152.3V55.1H152.2ZM153.5 52.1V50.4H154.8C155.4 50.4 155.8 50.7 155.8 51.2C155.8 51.7 155.4 52 154.8 52H153.5V52.1Z" fill="#1D1D1B"/>
<path d="M158 55.1H162.4V54H159.3V52.8H162V51.7H159.3V50.5H162.4V49.4H158V55.1Z" fill="#1D1D1B"/>
<path d="M166.3 55.2C167.4 55.2 168.2 54.8 168.8 54.3V51.8H166.3V52.9H167.6V53.7C167.3 53.9 166.9 54 166.4 54C165.4 54 164.7 53.2 164.7 52.2C164.7 51.2 165.4 50.4 166.4 50.4C167.1 50.4 167.5 50.6 167.9 51L168.7 50C168.1 49.5 167.5 49.2 166.4 49.2C164.7 49.2 163.4 50.5 163.4 52.2C163.2 53.9 164.5 55.2 166.3 55.2Z" fill="#1D1D1B"/>
<path d="M169.8 55.1H171.1V49.3H169.8V55.1Z" fill="#1D1D1B"/>
<path d="M174.5 55.2C175.7 55.2 176.6 54.6 176.6 53.4C176.6 52.4 175.9 52 174.8 51.7C173.8 51.4 173.6 51.3 173.6 50.9C173.6 50.6 173.9 50.4 174.3 50.4C174.8 50.4 175.3 50.6 175.8 51L176.5 50C175.9 49.5 175.2 49.3 174.4 49.3C173.2 49.3 172.4 50 172.4 51C172.4 52.2 173.1 52.5 174.3 52.8C175.3 53 175.5 53.2 175.5 53.5C175.5 53.9 175.2 54.1 174.7 54.1C174 54.1 173.5 53.8 173 53.4L172.3 54.3C172.7 54.9 173.6 55.2 174.5 55.2Z" fill="#1D1D1B"/>
<path d="M178.9 55.1H180.2V50.5H182V49.3H177.2V50.5H179V55.1H178.9Z" fill="#1D1D1B"/>
<path d="M185.5 55.2C187.3 55.2 188.6 53.9 188.6 52.2C188.6 50.5 187.3 49.2 185.5 49.2C183.7 49.2 182.4 50.5 182.4 52.2C182.5 53.9 183.8 55.2 185.5 55.2ZM185.6 54C184.6 54 183.9 53.2 183.9 52.2C183.9 51.2 184.6 50.4 185.6 50.4C186.6 50.4 187.3 51.2 187.3 52.2C187.3 53.2 186.6 54 185.6 54Z" fill="#1D1D1B"/>
<path d="M189.6 55.1H190.9V51.4L193.7 55.1H194.8V49.3H193.5V52.8L190.8 49.3H189.6V55.1Z" fill="#1D1D1B"/>
<path d="M153.2 60.4C154.1 60.4 154.8 59.7 154.8 58.9C154.8 58 154.1 57.4 153.2 57.4C152.3 57.4 151.6 58.1 151.6 58.9C151.6 59.7 152.3 60.4 153.2 60.4ZM153.2 59.8C152.7 59.8 152.3 59.4 152.3 58.9C152.3 58.4 152.7 58 153.2 58C153.7 58 154.1 58.4 154.1 58.9C154.1 59.4 153.8 59.8 153.2 59.8Z" fill="#1D1D1B"/>
<path d="M155.3 58.7H156V58H155.7C155.7 57.8 155.8 57.6 156.1 57.6L156 57.3C155.5 57.3 155.2 57.5 155.2 58.1V58.7H155.3Z" fill="#1D1D1B"/>
<path d="M159.3 60.4L159.7 59.9L159.4 59.6C159.6 59.4 159.7 59.1 159.7 58.7C159.7 57.8 159 57.2 158.1 57.2C157.2 57.2 156.5 57.9 156.5 58.7C156.5 59.6 157.2 60.2 158.1 60.2C158.4 60.2 158.7 60.1 159 59.9L159.3 60.4ZM158.1 59.8C157.6 59.8 157.2 59.4 157.2 58.9C157.2 58.4 157.6 58 158.1 58C158.6 58 159 58.4 159 58.9C159 59.1 159 59.2 158.9 59.3L158.4 58.9L158 59.4L158.5 59.8C158.3 59.8 158.2 59.8 158.1 59.8Z" fill="#1D1D1B"/>
<path d="M161.5 60.4C162.3 60.4 162.8 60 162.8 59.1V57.4H162.1V59.1C162.1 59.6 161.9 59.8 161.5 59.8C161.1 59.8 160.9 59.5 160.9 59.1V57.4H160.2V59.1C160.2 60 160.7 60.4 161.5 60.4Z" fill="#1D1D1B"/>
<path d="M164.4 60.4H165L166.2 57.4H165.5L164.7 59.5L163.9 57.4H163.2L164.4 60.4Z" fill="#1D1D1B"/>
<path d="M167.9 60.4H168.5V58.5L169.3 59.8L170.1 58.5V60.4H170.8V57.4H170.1L169.3 58.7L168.5 57.4H167.8V60.4H167.9Z" fill="#1D1D1B"/>
<path d="M171.4 60.4H172.1L172.4 59.7H173.7L174 60.4H174.7L173.4 57.4H172.8L171.4 60.4ZM172.6 59.1L173 58.1L173.4 59.1H172.6Z" fill="#1D1D1B"/>
<path d="M175 60.4H175.7V59.4H176.2L176.8 60.4H177.6L176.9 59.3C177.3 59.2 177.5 58.9 177.5 58.4C177.5 58.1 177.4 57.9 177.2 57.7C177 57.5 176.7 57.4 176.3 57.4H175V60.4ZM175.7 58.8V58H176.4C176.7 58 176.9 58.1 176.9 58.4C176.9 58.7 176.7 58.8 176.4 58.8H175.7Z" fill="#1D1D1B"/>
<path d="M178.1 60.4H178.8V59.5L179.1 59.1L180 60.4H180.8L179.5 58.7L180.7 57.4H180L178.8 58.7V57.4H178.1V60.4Z" fill="#1D1D1B"/>
<path d="M180.9 60.4H181.6L181.9 59.7H183.2L183.5 60.4H184.2L182.9 57.4H182.3L180.9 60.4ZM182 59.1L182.4 58.1L182.8 59.1H182Z" fill="#1D1D1B"/>
<path d="M184.4 60.4H186.9V59.8H185.3L186.9 57.9V57.4H184.5V58H186.1L184.5 59.9V60.4H184.4Z" fill="#1D1D1B"/>
<path d="M187.5 60.4H188.2V57.4H187.5V60.4Z" fill="#1D1D1B"/>
<defs>
<linearGradient id="paint0_linear_137_11" x1="120.873" y1="30.7246" x2="138.91" y2="12.6878" gradientUnits="userSpaceOnUse">
<stop stop-color="#E63C06"/>
<stop offset="1" stop-color="#F7BE4C"/>
</linearGradient>
</defs>
</svg>
