<svg width="211" height="73" viewBox="0 0 211 73" fill="none" xmlns="http://www.w3.org/2000/svg">
<path d="M204.3 72.3H99C95.6 72.3 92.8 69.5 92.8 66.1V6.59998C92.8 3.19998 95.6 0.400024 99 0.400024H204.4C207.8 0.400024 210.6 3.19998 210.6 6.59998V66.1C210.5 69.5 207.8 72.3 204.3 72.3ZM99 1.5C96.1 1.5 93.8 3.80001 93.8 6.70001V66.2C93.8 69.1 96.1 71.4 99 71.4H204.4C207.3 71.4 209.6 69.1 209.6 66.2V6.70001C209.6 3.80001 207.3 1.5 204.4 1.5H99Z" fill="black"/>
<path d="M140.4 66.2H140.3C139.8 66.2 139.3 66 138.9 65.7C138.3 65.3 137.8 64.6 137.7 63.9C137.6 63.5 137.6 63.1 137.6 62.7C137.8 61.6 138.5 60.7 139.5 60.3C139.7 60.2 140 60.1 140.3 60.1C140.5 60.1 140.9 60.1 141 60.1C141.3 60.1 141.6 60.2 141.9 60.4C142.2 60.6 142.5 60.7 142.7 61C142.9 61.2 143.1 61.4 143.3 61.8V61.9L143.2 62C143 62.1 142.6 62.4 142.5 62.5L142.4 62.6V62.5C142.3 62.4 142.3 62.3 142.2 62.2C141.9 61.8 141.5 61.5 141 61.4C140.8 61.4 140.5 61.4 140.2 61.4C139.9 61.5 139.7 61.6 139.5 61.8C139.4 61.9 139.3 62 139.2 62.1C138.8 62.6 138.7 63.2 138.8 63.8C138.8 64 139 64.3 139.1 64.5C139.4 65 139.9 65.3 140.4 65.3C140.5 65.3 140.7 65.3 140.8 65.3C141.3 65.2 141.7 65 142 64.6C142.1 64.5 142.2 64.4 142.2 64.2C142.2 64.1 142.3 64.1 142.3 64.1C142.3 64.1 142.5 64.3 142.8 64.5L143.3 64.8V64.9C143.2 65.1 143 65.3 142.9 65.5C142.6 65.8 142.3 66 142 66.2C141.7 66.4 141.4 66.4 141 66.5C140.8 66.2 140.4 66.2 140.4 66.2ZM144.6 63.1V60H145.2H145.8V61.1V62.2H147.4H149V61.1V60H149.6H150.2V63.1V66.2H149.6H149V64.9V63.6H147.4H145.8V64.9V66.2H145.2H144.6V63.1ZM151.3 65.6C151.4 65.3 152 63.9 152.7 62.5L153.8 60H154.6H155.4L156.8 63C157.5 64.7 158.2 66 158.2 66.1H157.5H156.8L156.5 65.5L156.2 64.9H154.6H153L152.7 65.5L152.4 66.1H151.7H151L151.3 65.6ZM155.7 63.7L154.6 61.3L153.6 63.7C153.6 63.7 154 63.7 154.7 63.7C155.5 63.7 155.7 63.7 155.7 63.7ZM159.1 63.1V60H159.9H160.7L162 61.8L163.3 63.6V61.8V60H163.9H164.5V63.1V66.2H164H163.5L161.8 63.9C160.9 62.6 160.1 61.6 160.1 61.6C160.1 61.6 160.1 62.6 160.1 63.9V66.2H159.5H158.9V63.1H159.1ZM166.8 63.1V60H168.9H171V60.6V61.2H169.5H168V61.8V62.4H169.4H170.8V63V63.6H169.4H168V64.2V64.8H169.8H171.6V65.4V66H169.2H166.8V63.1ZM173.2 63.1V60H173.8H174.4V62.5V65H176.1H177.8V65.6V66.2H175.5H173.2V63.1Z" fill="black"/>
<path d="M152.6 58.4C151.3 58.3 149.9 58 148.7 57.3C147.8 56.8 147.1 56.3 146.4 55.6C145.8 55 145.4 54.5 145 53.9L144.8 53.6L145 53.5C145.4 53.3 147.4 52.3 147.4 52.3C147.4 52.3 147.5 52.4 147.6 52.5C148.6 54 150.2 55 152.1 55.3C152.4 55.3 153.4 55.3 153.8 55.3C154.2 55.2 154.7 55.1 155 55C155 55 155 54.9 154.9 54.8C154.2 54 153.6 52.9 153.3 51.9C152.7 50.1 152.6 48.1 153.2 46.2C153.5 45 154.1 43.9 154.8 43C154.9 42.9 155 42.7 155 42.7C155 42.7 154.4 42.5 154.1 42.4C153.5 42.3 152.6 42.3 152.1 42.4C151.2 42.5 150.3 42.9 149.6 43.3C148.8 43.8 148.2 44.4 147.7 45.2L147.5 45.5L147.2 45.3C147 45.2 146.4 44.9 145.9 44.6C145.3 44.3 144.9 44.1 144.9 44.1C144.9 44.1 145.2 43.5 145.4 43.3C145.8 42.7 146.6 41.8 147.2 41.4C148.7 40.2 150.4 39.5 152.3 39.3C152.7 39.3 153.5 39.3 153.9 39.3C155.1 39.4 156.1 39.7 157.2 40.2L157.7 40.5L157.9 40.4C158.2 40.2 158.7 40 159 39.9C160 39.5 161.1 39.3 162.3 39.3C163.1 39.3 163.8 39.4 164.5 39.6C166.2 40 167.6 40.8 168.8 42C169.5 42.6 170 43.3 170.4 44L170.5 44.1L169.5 44.6C168.9 44.9 168.3 45.2 168.2 45.3L167.9 45.5L167.7 45.2C166.6 43.6 164.9 42.5 162.9 42.3C162.3 42.2 161.5 42.3 161 42.4C160.7 42.5 160.3 42.6 160.3 42.6C160.3 42.6 160.4 42.7 160.5 42.8C161.6 44.2 162.3 45.8 162.5 47.6C162.6 48 162.6 49.1 162.5 49.6C162.3 51.4 161.6 53.1 160.5 54.5C160.3 54.8 160.3 54.8 160.3 54.8C160.3 54.8 160.5 54.9 160.7 54.9C161.6 55.1 162.6 55.2 163.5 55C165.2 54.7 166.7 53.7 167.6 52.3C167.7 52.2 167.8 52.1 167.8 52C167.8 52 168 52.1 168.3 52.2C168.8 52.5 170.4 53.3 170.5 53.3C170.5 53.3 170 54.1 169.7 54.5C169.4 54.9 168.6 55.7 168.2 56C166.8 57.1 165.3 57.7 163.6 58C161.7 58.3 159.6 57.9 157.9 57L157.7 56.9L157.4 57.1C156 58.1 154.3 58.5 152.6 58.4ZM158.1 53.1C158.9 52.1 159.4 50.9 159.5 49.6C159.5 49.2 159.5 48.3 159.5 48C159.3 47 158.9 46.1 158.3 45.2C158.2 45 158 44.8 157.9 44.7L157.7 44.5L157.5 44.7C157.3 44.9 157 45.4 156.8 45.6C155.9 47 155.7 48.7 156 50.3C156.2 51.3 156.8 52.4 157.5 53.2L157.7 53.4L157.8 53.3C157.8 53.4 157.9 53.2 158.1 53.1Z" fill="black"/>
<path d="M105.1 24.4H0.0999756V6.09998C0.0999756 2.99998 2.59998 0.400024 5.79998 0.400024H105.1V24.4Z" fill="black"/>
<path d="M105.1 24.4H0.0999756V48.3H105.1V24.4Z" fill="#121212"/>
<path d="M105.1 72.3H5.79998C2.69998 72.3 0.0999756 69.8 0.0999756 66.6V48.3H105.1V72.3Z" fill="#242424"/>
<path d="M36.2071 15.319C35.7931 15.319 35.4361 15.253 35.1361 15.121C34.8421 14.983 34.6171 14.785 34.4611 14.527C34.3111 14.263 34.2361 13.933 34.2361 13.537V13.267H35.0911V13.582C35.0911 13.906 35.1871 14.155 35.3791 14.329C35.5711 14.497 35.8471 14.581 36.2071 14.581C36.5731 14.581 36.8521 14.464 37.0441 14.23C37.2421 13.996 37.3411 13.648 37.3411 13.186V9.037H38.1961V13.141C38.1961 13.627 38.1181 14.032 37.9621 14.356C37.8061 14.68 37.5781 14.923 37.2781 15.085C36.9841 15.241 36.6271 15.319 36.2071 15.319ZM39.7225 15.211V9.037H40.5775V15.211H39.7225ZM42.1219 15.211V9.037H44.4259C45.0739 9.037 45.6259 9.145 46.0819 9.361C46.5379 9.577 46.8859 9.913 47.1259 10.369C47.3719 10.819 47.4949 11.404 47.4949 12.124C47.4949 12.832 47.3719 13.414 47.1259 13.87C46.8859 14.326 46.5379 14.665 46.0819 14.887C45.6259 15.103 45.0739 15.211 44.4259 15.211H42.1219ZM42.9769 14.473H44.4079C44.7499 14.473 45.0559 14.431 45.3259 14.347C45.5959 14.257 45.8269 14.122 46.0189 13.942C46.2109 13.762 46.3549 13.531 46.4509 13.249C46.5529 12.961 46.6039 12.619 46.6039 12.223V12.043C46.6039 11.635 46.5529 11.29 46.4509 11.008C46.3549 10.72 46.2109 10.486 46.0189 10.306C45.8329 10.126 45.6049 9.994 45.3349 9.91C45.0649 9.82 44.7559 9.775 44.4079 9.775H42.9769V14.473ZM48.7313 15.211V9.037H51.0353C51.6833 9.037 52.2353 9.145 52.6913 9.361C53.1473 9.577 53.4953 9.913 53.7353 10.369C53.9813 10.819 54.1043 11.404 54.1043 12.124C54.1043 12.832 53.9813 13.414 53.7353 13.87C53.4953 14.326 53.1473 14.665 52.6913 14.887C52.2353 15.103 51.6833 15.211 51.0353 15.211H48.7313ZM49.5863 14.473H51.0173C51.3593 14.473 51.6653 14.431 51.9353 14.347C52.2053 14.257 52.4363 14.122 52.6283 13.942C52.8203 13.762 52.9643 13.531 53.0603 13.249C53.1623 12.961 53.2133 12.619 53.2133 12.223V12.043C53.2133 11.635 53.1623 11.29 53.0603 11.008C52.9643 10.72 52.8203 10.486 52.6283 10.306C52.4423 10.126 52.2143 9.994 51.9443 9.91C51.6743 9.82 51.3653 9.775 51.0173 9.775H49.5863V14.473ZM55.3407 15.211V9.037H56.1957V15.211H55.3407ZM59.4861 15.211V12.646L57.0561 9.037H58.0371L59.9181 11.89H59.9631L61.8351 9.037H62.7711L60.3501 12.646V15.211H59.4861ZM63.6375 15.211V9.037H64.4925V14.464H67.5615V15.211H63.6375ZM68.4627 15.211V9.037H69.3177V15.211H68.4627ZM70.8621 15.211V9.037H71.7171V12.304L74.8581 9.037H75.9201L73.5711 11.503L76.0011 15.211H74.9841L72.9771 12.115L71.7171 13.303V15.211H70.8621Z" fill="white"/>
<path d="M25.1639 39.223V33.049H26.4869L27.8909 37.054C27.9269 37.162 27.9629 37.282 27.9989 37.414C28.0409 37.54 28.0769 37.66 28.1069 37.774C28.1429 37.888 28.1699 37.987 28.1879 38.071H28.2509C28.2689 37.981 28.2929 37.879 28.3229 37.765C28.3529 37.645 28.3859 37.522 28.4219 37.396C28.4579 37.27 28.4909 37.156 28.5209 37.054L29.9249 33.049H31.2389V39.223H30.3839V35.605C30.3839 35.419 30.3869 35.218 30.3929 35.002C30.3989 34.78 30.4049 34.579 30.4109 34.399C30.4169 34.213 30.4199 34.081 30.4199 34.003H30.3479C30.3299 34.081 30.2999 34.192 30.2579 34.336C30.2159 34.474 30.1709 34.621 30.1229 34.777C30.0809 34.927 30.0419 35.062 30.0059 35.182L28.5569 39.223H27.8189L26.3699 35.182C26.3339 35.08 26.2949 34.963 26.2529 34.831C26.2169 34.693 26.1779 34.552 26.1359 34.408C26.0999 34.264 26.0639 34.129 26.0279 34.003H25.9649C25.9709 34.135 25.9739 34.3 25.9739 34.498C25.9799 34.69 25.9829 34.885 25.9829 35.083C25.9889 35.275 25.9919 35.449 25.9919 35.605V39.223H25.1639ZM35.286 39.331C34.764 39.331 34.314 39.247 33.936 39.079C33.558 38.911 33.267 38.647 33.063 38.287C32.865 37.921 32.766 37.453 32.766 36.883V33.049H33.621V36.973C33.621 37.513 33.765 37.918 34.053 38.188C34.347 38.458 34.758 38.593 35.286 38.593C35.82 38.593 36.237 38.458 36.537 38.188C36.837 37.918 36.987 37.513 36.987 36.973V33.049H37.833V36.883C37.833 37.453 37.731 37.921 37.527 38.287C37.323 38.647 37.029 38.911 36.645 39.079C36.267 39.247 35.814 39.331 35.286 39.331ZM39.367 39.223V33.049H42.616C43.036 33.049 43.384 33.127 43.66 33.283C43.942 33.433 44.152 33.646 44.29 33.922C44.428 34.192 44.497 34.504 44.497 34.858C44.497 35.284 44.401 35.65 44.209 35.956C44.017 36.262 43.753 36.481 43.417 36.613L44.713 39.223H43.777L42.571 36.766H40.222V39.223H39.367ZM40.222 36.037H42.535C42.877 36.037 43.144 35.932 43.336 35.722C43.534 35.512 43.633 35.224 43.633 34.858C43.633 34.63 43.591 34.438 43.507 34.282C43.423 34.126 43.3 34.006 43.138 33.922C42.976 33.832 42.775 33.787 42.535 33.787H40.222V36.037ZM45.1951 39.223L47.6341 33.049H48.7591L51.2071 39.223H50.2801L49.6771 37.693H46.6711L46.0771 39.223H45.1951ZM46.9501 36.964H49.3891L48.6421 35.029C48.6241 34.975 48.5971 34.9 48.5611 34.804C48.5251 34.708 48.4861 34.603 48.4441 34.489C48.4021 34.369 48.3601 34.249 48.3181 34.129C48.2761 34.003 48.2371 33.889 48.2011 33.787H48.1471C48.1051 33.907 48.0571 34.045 48.0031 34.201C47.9491 34.357 47.8951 34.51 47.8411 34.66C47.7871 34.804 47.7421 34.927 47.7061 35.029L46.9501 36.964ZM52.0408 39.223V33.049H52.8958V36.316L56.0368 33.049H57.0988L54.7498 35.515L57.1798 39.223H56.1628L54.1558 36.127L52.8958 37.315V39.223H52.0408ZM57.9998 39.223V33.049H58.8548V36.316L61.9958 33.049H63.0578L60.7088 35.515L63.1388 39.223H62.1218L60.1148 36.127L58.8548 37.315V39.223H57.9998ZM62.7996 39.223L65.2386 33.049H66.3636L68.8116 39.223H67.8846L67.2816 37.693H64.2756L63.6816 39.223H62.7996ZM64.5546 36.964H66.9936L66.2466 35.029C66.2286 34.975 66.2016 34.9 66.1656 34.804C66.1296 34.708 66.0906 34.603 66.0486 34.489C66.0066 34.369 65.9646 34.249 65.9226 34.129C65.8806 34.003 65.8416 33.889 65.8056 33.787H65.7516C65.7096 33.907 65.6616 34.045 65.6076 34.201C65.5536 34.357 65.4996 34.51 65.4456 34.66C65.3916 34.804 65.3466 34.927 65.3106 35.029L64.5546 36.964ZM69.6453 39.223V33.049H72.8313C73.1853 33.049 73.4913 33.112 73.7493 33.238C74.0073 33.358 74.2053 33.529 74.3433 33.751C74.4873 33.973 74.5593 34.237 74.5593 34.543C74.5593 34.777 74.5173 34.993 74.4333 35.191C74.3493 35.389 74.2323 35.554 74.0823 35.686C73.9323 35.818 73.7613 35.917 73.5693 35.983V36.019C73.7853 36.067 73.9803 36.154 74.1543 36.28C74.3283 36.406 74.4663 36.574 74.5683 36.784C74.6763 36.988 74.7303 37.24 74.7303 37.54C74.7303 37.942 74.6463 38.266 74.4783 38.512C74.3103 38.758 74.0853 38.938 73.8033 39.052C73.5213 39.166 73.1973 39.223 72.8313 39.223H69.6453ZM70.5003 38.485H72.8223C73.1283 38.485 73.3773 38.407 73.5693 38.251C73.7613 38.089 73.8573 37.822 73.8573 37.45C73.8573 37.222 73.8153 37.033 73.7313 36.883C73.6473 36.727 73.5243 36.613 73.3623 36.541C73.2003 36.463 72.9963 36.424 72.7503 36.424H70.5003V38.485ZM70.5003 35.695H72.6693C72.8733 35.695 73.0503 35.656 73.2003 35.578C73.3503 35.494 73.4673 35.38 73.5513 35.236C73.6413 35.086 73.6863 34.918 73.6863 34.732C73.6863 34.408 73.5993 34.171 73.4253 34.021C73.2513 33.865 73.0203 33.787 72.7323 33.787H70.5003V35.695ZM75.9295 39.223V33.049H76.7845V38.476H79.8535V39.223H75.9295ZM80.7547 39.223V33.049H81.6097V39.223H80.7547ZM83.1541 39.223V33.049H84.0091V36.316L87.1501 33.049H88.2121L85.8631 35.515L88.2931 39.223H87.2761L85.2691 36.127L84.0091 37.315V39.223H83.1541Z" fill="white"/>
<path d="M35.703 62.9874V56.8134H36.558V59.4594H39.915V56.8134H40.779V62.9874H39.915V60.2064H36.558V62.9874H35.703ZM44.8319 63.0954C44.3099 63.0954 43.8599 63.0114 43.4819 62.8434C43.1039 62.6754 42.8129 62.4114 42.6089 62.0514C42.4109 61.6854 42.3119 61.2174 42.3119 60.6474V56.8134H43.1669V60.7374C43.1669 61.2774 43.3109 61.6824 43.5989 61.9524C43.8929 62.2224 44.3039 62.3574 44.8319 62.3574C45.3659 62.3574 45.7829 62.2224 46.0829 61.9524C46.3829 61.6824 46.5329 61.2774 46.5329 60.7374V56.8134H47.3789V60.6474C47.3789 61.2174 47.2769 61.6854 47.0729 62.0514C46.8689 62.4114 46.5749 62.6754 46.1909 62.8434C45.8129 63.0114 45.3599 63.0954 44.8319 63.0954ZM48.9129 62.9874V56.8134H52.1619C52.5819 56.8134 52.9299 56.8914 53.2059 57.0474C53.4879 57.1974 53.6979 57.4104 53.8359 57.6864C53.9739 57.9564 54.0429 58.2684 54.0429 58.6224C54.0429 59.0484 53.9469 59.4144 53.7549 59.7204C53.5629 60.0264 53.2989 60.2454 52.9629 60.3774L54.2589 62.9874H53.3229L52.1169 60.5304H49.7679V62.9874H48.9129ZM49.7679 59.8014H52.0809C52.4229 59.8014 52.6899 59.6964 52.8819 59.4864C53.0799 59.2764 53.1789 58.9884 53.1789 58.6224C53.1789 58.3944 53.1369 58.2024 53.0529 58.0464C52.9689 57.8904 52.8459 57.7704 52.6839 57.6864C52.5219 57.5964 52.3209 57.5514 52.0809 57.5514H49.7679V59.8014ZM55.452 62.9874V56.8134H56.775L58.179 60.8184C58.215 60.9264 58.251 61.0464 58.287 61.1784C58.329 61.3044 58.365 61.4244 58.395 61.5384C58.431 61.6524 58.458 61.7514 58.476 61.8354H58.539C58.557 61.7454 58.581 61.6434 58.611 61.5294C58.641 61.4094 58.674 61.2864 58.71 61.1604C58.746 61.0344 58.779 60.9204 58.809 60.8184L60.213 56.8134H61.527V62.9874H60.672V59.3694C60.672 59.1834 60.675 58.9824 60.681 58.7664C60.687 58.5444 60.693 58.3434 60.699 58.1634C60.705 57.9774 60.708 57.8454 60.708 57.7674H60.636C60.618 57.8454 60.588 57.9564 60.546 58.1004C60.504 58.2384 60.459 58.3854 60.411 58.5414C60.369 58.6914 60.33 58.8264 60.294 58.9464L58.845 62.9874H58.107L56.658 58.9464C56.622 58.8444 56.583 58.7274 56.541 58.5954C56.505 58.4574 56.466 58.3164 56.424 58.1724C56.388 58.0284 56.352 57.8934 56.316 57.7674H56.253C56.259 57.8994 56.262 58.0644 56.262 58.2624C56.268 58.4544 56.271 58.6494 56.271 58.8474C56.277 59.0394 56.28 59.2134 56.28 59.3694V62.9874H55.452ZM62.3611 62.9874L64.8001 56.8134H65.9251L68.3731 62.9874H67.4461L66.8431 61.4574H63.8371L63.2431 62.9874H62.3611ZM64.1161 60.7284H66.5551L65.8081 58.7934C65.7901 58.7394 65.7631 58.6644 65.7271 58.5684C65.6911 58.4724 65.6521 58.3674 65.6101 58.2534C65.5681 58.1334 65.5261 58.0134 65.4841 57.8934C65.4421 57.7674 65.4031 57.6534 65.3671 57.5514H65.3131C65.2711 57.6714 65.2231 57.8094 65.1691 57.9654C65.1151 58.1214 65.0611 58.2744 65.0071 58.4244C64.9531 58.5684 64.9081 58.6914 64.8721 58.7934L64.1161 60.7284ZM69.9366 62.9874V57.5604H67.8216V56.8134H72.9246V57.5604H70.7916V62.9874H69.9366Z" fill="white"/>
<path d="M132.8 28.5C130.9 28.5 129.4 27.9 128.2 26.8C127 25.7 126.4 24.1 126.4 22.3C126.4 20.5 127 19 128.2 17.8C129.4 16.7 131 16.1 132.8 16.1C134.7 16.1 136.2 16.7 137.4 17.8C138.6 18.9 139.2 20.4 139.2 22.3C139.2 24.1 138.6 25.6 137.4 26.8C136.3 27.9 134.7 28.5 132.8 28.5ZM132.8 18.5C131.8 18.5 130.9 18.8 130.2 19.5C129.5 20.2 129.2 21.1 129.2 22.2C129.2 23.3 129.5 24.3 130.2 24.9C130.9 25.6 131.7 25.9 132.8 25.9C133.8 25.9 134.7 25.6 135.4 24.9C136.1 24.2 136.4 23.3 136.4 22.2C136.4 21.1 136.1 20.1 135.4 19.5C134.7 18.8 133.9 18.5 132.8 18.5Z" fill="black"/>
<path d="M142.1 28.2V18.8H140.1V16.2H142.1V14.3C142.1 13.6 142.4 12.9 142.9 12.4C143.4 11.9 144.1 11.7 144.9 11.7H147.6V14.1H145V16.2H147.6V18.8H145V28.2H142.1Z" fill="black"/>
<path d="M154 28.2C153.1 28.2 152.3 28 151.8 27.5C151.3 27 151 26.4 151 25.6V18.8H149V16.2H151V13H153.9V16.2H156.8V18.8H153.9V25.7H156.8V28.1L154 28.2Z" fill="black"/>
<path d="M122.1 28.2C121.2 28.2 120.4 28 119.9 27.5C119.4 27 119.1 26.4 119.1 25.6V13H122V25.8H124.9V28.2H122.1Z" fill="black"/>
<path d="M164.9 28.5C163.2 28.5 161.9 28 161 27L160.8 28.3H158.2V11.7H161.1V17.6C161.3 17.4 161.4 17.3 161.6 17.1C161.8 16.9 162.2 16.7 162.8 16.5C163.4 16.3 164.1 16.1 164.9 16.1C166.6 16.1 168.1 16.7 169.2 17.8C170.3 18.9 170.9 20.4 170.9 22.3C170.9 24.2 170.3 25.7 169.2 26.8C168.1 27.9 166.6 28.5 164.9 28.5ZM164.5 18.5C163.5 18.5 162.7 18.8 162 19.5C161.3 20.2 161 21.1 161 22.2C161 23.3 161.3 24.2 162 24.9C162.7 25.6 163.5 25.9 164.5 25.9C165.5 25.9 166.3 25.6 167 24.9C167.7 24.2 168 23.3 168 22.2C168 21.1 167.7 20.2 167 19.5C166.3 18.8 165.5 18.5 164.5 18.5Z" fill="black"/>
<path d="M178.8 28.5C176.9 28.5 175.4 27.9 174.2 26.8C173 25.7 172.4 24.1 172.4 22.3C172.4 20.5 173 19 174.2 17.8C175.4 16.7 177 16.1 178.8 16.1C180.6 16.1 182 16.7 183.2 17.8C184.4 18.9 185 20.3 185 22C185 22.1 185 22.4 184.9 22.9L184.8 23.4H175.2C175.4 24.2 175.7 24.9 176.3 25.5C176.9 26.1 177.8 26.3 178.7 26.3C179.4 26.3 180 26.1 180.5 25.9C181 25.6 181.4 25.2 181.6 24.8L181.7 24.7H184.7L184.6 24.9C184.2 25.9 183.5 26.7 182.5 27.5C181.5 28.1 180.3 28.5 178.8 28.5ZM182.2 21.2C182 20.4 181.7 19.7 181.1 19.2C180.5 18.7 179.7 18.4 178.8 18.4C177.8 18.4 177 18.7 176.4 19.2C175.8 19.7 175.5 20.4 175.3 21.2H182.2Z" fill="black"/>
<path d="M195.9 28.2L192 21.1L189.3 22V28.2H186.4V20.3L183.6 12.5L186.3 11.7L189.1 19.2L197.2 16.7L198.2 19.2L194.8 20.3L199.2 28.2H195.9Z" fill="black"/>
</svg>
