<svg width="211" height="72" viewBox="0 0 211 72" fill="none" xmlns="http://www.w3.org/2000/svg">
<path d="M204.8 72H99.4001C96.0001 72 93.2001 69.2 93.2001 65.8V6.29999C93.2001 2.89999 96.0001 0.100006 99.4001 0.100006H204.8C208.2 0.100006 211 2.89999 211 6.29999V65.8C211 69.3 208.2 72 204.8 72ZM99.4001 1.20001C96.5001 1.20001 94.2001 3.49999 94.2001 6.39999V65.9C94.2001 68.8 96.5001 71.1 99.4001 71.1H204.8C207.7 71.1 210 68.8 210 65.9V6.39999C210 3.49999 207.7 1.20001 204.8 1.20001H99.4001Z" fill="#525252"/>
<path fill-rule="evenodd" clip-rule="evenodd" d="M158.6 6.70001C160.3 4.40001 162.7 4.39999 162.7 4.39999C162.7 4.39999 163.1 6.50001 161.4 8.60001C159.6 10.8 157.5 10.4 157.5 10.4C157.5 10.4 157.1 8.80001 158.6 6.70001Z" fill="#999999"/>
<path fill-rule="evenodd" clip-rule="evenodd" d="M157.7 12C158.6 12 160.2 10.8 162.4 10.8C166.1 10.8 167.5 13.4 167.5 13.4C167.5 13.4 164.7 14.8 164.7 18.3C164.7 22.3 168.2 23.6 168.2 23.6C168.2 23.6 165.7 30.5 162.4 30.5C160.9 30.5 159.7 29.5 158.1 29.5C156.5 29.5 154.8 30.6 153.8 30.6C150.8 30.6 146.9 24 146.9 18.8C146.9 13.6 150.1 10.9 153.2 10.9C155.1 10.8 156.7 12 157.7 12Z" fill="#999999"/>
<path d="M105.5 24.2H0.5V5.89999C0.5 2.79999 3.00001 0.200012 6.20001 0.200012H105.5V24.2Z" fill="#525252"/>
<path d="M105.5 24.2H0.5V48.1H105.5V24.2Z" fill="#646464"/>
<path d="M105.5 72H6.20001C3.10001 72 0.5 69.5 0.5 66.3V48H105.5V72Z" fill="#808080"/>
<path d="M29.9715 14.9909V8.81691H34.7235V9.55491H30.8265V11.4629H34.3275V12.2009H30.8265V14.2529H34.7775V14.9909H29.9715ZM36.0623 14.9909V8.81691H36.9173V14.2439H39.9863V14.9909H36.0623ZM40.8875 14.9909V8.81691H45.6395V9.55491H41.7425V11.4629H45.2435V12.2009H41.7425V14.2529H45.6935V14.9909H40.8875ZM49.7593 15.0989C48.7633 15.0989 48.0043 14.8379 47.4823 14.3159C46.9663 13.7939 46.7083 12.9899 46.7083 11.9039C46.7083 11.1959 46.8283 10.6049 47.0683 10.1309C47.3083 9.65691 47.6623 9.30291 48.1303 9.06891C48.5983 8.82891 49.1683 8.70891 49.8403 8.70891C50.2603 8.70891 50.6413 8.75391 50.9833 8.84391C51.3253 8.93391 51.6193 9.07191 51.8653 9.25791C52.1173 9.43791 52.3093 9.66591 52.4413 9.94191C52.5793 10.2179 52.6483 10.5449 52.6483 10.9229H51.7753C51.7753 10.6589 51.7273 10.4339 51.6313 10.2479C51.5353 10.0559 51.3973 9.89991 51.2173 9.77991C51.0433 9.65991 50.8393 9.57591 50.6053 9.52791C50.3713 9.47391 50.1223 9.44691 49.8583 9.44691C49.4983 9.44691 49.1773 9.49191 48.8953 9.58191C48.6133 9.67191 48.3763 9.81291 48.1843 10.0049C47.9923 10.1969 47.8453 10.4429 47.7433 10.7429C47.6413 11.0429 47.5903 11.3999 47.5903 11.8139V12.0029C47.5903 12.5609 47.6743 13.0139 47.8423 13.3619C48.0163 13.7099 48.2653 13.9649 48.5893 14.1269C48.9133 14.2829 49.3033 14.3609 49.7593 14.3609C50.2213 14.3609 50.6023 14.2979 50.9023 14.1719C51.2023 14.0399 51.4243 13.8419 51.5683 13.5779C51.7183 13.3139 51.7933 12.9809 51.7933 12.5789V12.4709H49.6153V11.7419H52.6573V14.9909H52.0093L51.9193 14.2079C51.7573 14.4179 51.5653 14.5889 51.3433 14.7209C51.1213 14.8529 50.8753 14.9489 50.6053 15.0089C50.3413 15.0689 50.0593 15.0989 49.7593 15.0989ZM53.4304 14.9909L55.8694 8.81691H56.9944L59.4424 14.9909H58.5154L57.9124 13.4609H54.9064L54.3124 14.9909H53.4304ZM55.1854 12.7319H57.6244L56.8774 10.7969C56.8594 10.7429 56.8324 10.6679 56.7964 10.5719C56.7604 10.4759 56.7214 10.3709 56.6794 10.2569C56.6374 10.1369 56.5954 10.0169 56.5534 9.89691C56.5114 9.77091 56.4724 9.65691 56.4364 9.55491H56.3824C56.3404 9.67491 56.2924 9.81291 56.2384 9.96891C56.1844 10.1249 56.1304 10.2779 56.0764 10.4279C56.0224 10.5719 55.9774 10.6949 55.9414 10.7969L55.1854 12.7319ZM60.2762 14.9909V8.81691H61.1042L64.1012 12.8849C64.1312 12.9209 64.1702 12.9749 64.2182 13.0469C64.2662 13.1189 64.3142 13.1909 64.3622 13.2629C64.4102 13.3289 64.4492 13.3889 64.4792 13.4429H64.5152C64.5152 13.3469 64.5152 13.2539 64.5152 13.1639C64.5152 13.0679 64.5152 12.9749 64.5152 12.8849V8.81691H65.3522V14.9909H64.5692L61.5362 10.8509C61.4942 10.7849 61.4312 10.6919 61.3472 10.5719C61.2692 10.4519 61.2032 10.3559 61.1492 10.2839H61.1042C61.1042 10.3799 61.1042 10.4759 61.1042 10.5719C61.1042 10.6619 61.1042 10.7549 61.1042 10.8509V14.9909H60.2762ZM68.4152 14.9909V9.56391H66.3002V8.81691H71.4032V9.56391H69.2702V14.9909H68.4152ZM72.3612 14.9909V8.81691H73.2162V14.2439H76.2852V14.9909H72.3612ZM77.1864 14.9909V8.81691H78.0414V14.9909H77.1864ZM79.5858 14.9909V8.81691H80.4408V12.0839L83.5818 8.81691H84.6438L82.2948 11.2829L84.7248 14.9909H83.7078L81.7008 11.8949L80.4408 13.0829V14.9909H79.5858Z" fill="white"/>
<path d="M34.2148 39.0029V32.8289H35.0698V35.4749H38.4268V32.8289H39.2908V39.0029H38.4268V36.2219H35.0698V39.0029H34.2148ZM43.6137 39.1109C42.9717 39.1109 42.4197 38.9939 41.9577 38.7599C41.5017 38.5259 41.1477 38.1719 40.8957 37.6979C40.6497 37.2239 40.5267 36.6299 40.5267 35.9159C40.5267 35.1959 40.6497 34.6019 40.8957 34.1339C41.1477 33.6599 41.5017 33.3059 41.9577 33.0719C42.4197 32.8379 42.9717 32.7209 43.6137 32.7209C44.2557 32.7209 44.8047 32.8379 45.2607 33.0719C45.7227 33.3059 46.0767 33.6599 46.3227 34.1339C46.5747 34.6019 46.7007 35.1959 46.7007 35.9159C46.7007 36.6299 46.5747 37.2239 46.3227 37.6979C46.0767 38.1719 45.7227 38.5259 45.2607 38.7599C44.8047 38.9939 44.2557 39.1109 43.6137 39.1109ZM43.6137 38.3729C43.9497 38.3729 44.2527 38.3279 44.5227 38.2379C44.7987 38.1479 45.0297 38.0069 45.2157 37.8149C45.4077 37.6169 45.5547 37.3709 45.6567 37.0769C45.7587 36.7769 45.8097 36.4229 45.8097 36.0149V35.8259C45.8097 35.4119 45.7587 35.0579 45.6567 34.7639C45.5547 34.4639 45.4077 34.2179 45.2157 34.0259C45.0297 33.8279 44.7987 33.6839 44.5227 33.5939C44.2527 33.5039 43.9497 33.4589 43.6137 33.4589C43.2717 33.4589 42.9657 33.5039 42.6957 33.5939C42.4257 33.6839 42.1947 33.8279 42.0027 34.0259C41.8107 34.2179 41.6637 34.4639 41.5617 34.7639C41.4657 35.0579 41.4177 35.4119 41.4177 35.8259V36.0149C41.4177 36.4229 41.4657 36.7769 41.5617 37.0769C41.6637 37.3709 41.8107 37.6169 42.0027 37.8149C42.1947 38.0069 42.4257 38.1479 42.6957 38.2379C42.9657 38.3279 43.2717 38.3729 43.6137 38.3729ZM47.9345 39.0029V32.8289H48.7895V36.0959L51.9305 32.8289H52.9925L50.6435 35.2949L53.0735 39.0029H52.0565L50.0495 35.9069L48.7895 37.0949V39.0029H47.9345ZM53.8935 39.0029V32.8289H54.7485V39.0029H53.8935ZM56.2929 39.0029V32.8289H57.6159L59.0199 36.8339C59.0559 36.9419 59.0919 37.0619 59.1279 37.1939C59.1699 37.3199 59.2059 37.4399 59.2359 37.5539C59.2719 37.6679 59.2989 37.7669 59.3169 37.8509H59.3799C59.3979 37.7609 59.4219 37.6589 59.4519 37.5449C59.4819 37.4249 59.5149 37.3019 59.5509 37.1759C59.5869 37.0499 59.6199 36.9359 59.6499 36.8339L61.0539 32.8289H62.3679V39.0029H61.5129V35.3849C61.5129 35.1989 61.5159 34.9979 61.5219 34.7819C61.5279 34.5599 61.5339 34.3589 61.5399 34.1789C61.5459 33.9929 61.5489 33.8609 61.5489 33.7829H61.4769C61.4589 33.8609 61.4289 33.9719 61.3869 34.1159C61.3449 34.2539 61.2999 34.4009 61.2519 34.5569C61.2099 34.7069 61.1709 34.8419 61.1349 34.9619L59.6859 39.0029H58.9479L57.4989 34.9619C57.4629 34.8599 57.4239 34.7429 57.3819 34.6109C57.3459 34.4729 57.3069 34.3319 57.2649 34.1879C57.2289 34.0439 57.1929 33.9089 57.1569 33.7829H57.0939C57.0999 33.9149 57.1029 34.0799 57.1029 34.2779C57.1089 34.4699 57.1119 34.6649 57.1119 34.8629C57.1179 35.0549 57.1209 35.2289 57.1209 35.3849V39.0029H56.2929ZM63.913 39.0029V32.8289H64.768V38.2559H67.837V39.0029H63.913ZM68.7382 39.0029V32.8289H69.5932V39.0029H68.7382ZM71.1376 39.0029V32.8289H71.9926V36.0959L75.1336 32.8289H76.1956L73.8466 35.2949L76.2766 39.0029H75.2596L73.2526 35.9069L71.9926 37.0949V39.0029H71.1376Z" fill="white"/>
<path d="M36.6495 62.8755C36.2355 62.8755 35.8785 62.8095 35.5785 62.6775C35.2845 62.5395 35.0595 62.3415 34.9035 62.0835C34.7535 61.8195 34.6785 61.4895 34.6785 61.0935V60.8235H35.5335V61.1385C35.5335 61.4625 35.6295 61.7115 35.8215 61.8855C36.0135 62.0535 36.2895 62.1375 36.6495 62.1375C37.0155 62.1375 37.2945 62.0205 37.4865 61.7865C37.6845 61.5525 37.7835 61.2045 37.7835 60.7425V56.5935H38.6385V60.6975C38.6385 61.1835 38.5605 61.5885 38.4045 61.9125C38.2485 62.2365 38.0205 62.4795 37.7205 62.6415C37.4265 62.7975 37.0695 62.8755 36.6495 62.8755ZM40.1649 62.7675V56.5935H41.0199V62.7675H40.1649ZM42.5643 62.7675V56.5935H44.8683C45.5163 56.5935 46.0683 56.7015 46.5243 56.9175C46.9803 57.1335 47.3283 57.4695 47.5683 57.9255C47.8143 58.3755 47.9373 58.9605 47.9373 59.6805C47.9373 60.3885 47.8143 60.9705 47.5683 61.4265C47.3283 61.8825 46.9803 62.2215 46.5243 62.4435C46.0683 62.6595 45.5163 62.7675 44.8683 62.7675H42.5643ZM43.4193 62.0295H44.8503C45.1923 62.0295 45.4983 61.9875 45.7683 61.9035C46.0383 61.8135 46.2693 61.6785 46.4613 61.4985C46.6533 61.3185 46.7973 61.0875 46.8933 60.8055C46.9953 60.5175 47.0463 60.1755 47.0463 59.7795V59.5995C47.0463 59.1915 46.9953 58.8465 46.8933 58.5645C46.7973 58.2765 46.6533 58.0425 46.4613 57.8625C46.2753 57.6825 46.0473 57.5505 45.7773 57.4665C45.5073 57.3765 45.1983 57.3315 44.8503 57.3315H43.4193V62.0295ZM49.1737 62.7675V56.5935H51.4777C52.1257 56.5935 52.6777 56.7015 53.1337 56.9175C53.5897 57.1335 53.9377 57.4695 54.1777 57.9255C54.4237 58.3755 54.5467 58.9605 54.5467 59.6805C54.5467 60.3885 54.4237 60.9705 54.1777 61.4265C53.9377 61.8825 53.5897 62.2215 53.1337 62.4435C52.6777 62.6595 52.1257 62.7675 51.4777 62.7675H49.1737ZM50.0287 62.0295H51.4597C51.8017 62.0295 52.1077 61.9875 52.3777 61.9035C52.6477 61.8135 52.8787 61.6785 53.0707 61.4985C53.2627 61.3185 53.4067 61.0875 53.5027 60.8055C53.6047 60.5175 53.6557 60.1755 53.6557 59.7795V59.5995C53.6557 59.1915 53.6047 58.8465 53.5027 58.5645C53.4067 58.2765 53.2627 58.0425 53.0707 57.8625C52.8847 57.6825 52.6567 57.5505 52.3867 57.4665C52.1167 57.3765 51.8077 57.3315 51.4597 57.3315H50.0287V62.0295ZM55.783 62.7675V56.5935H56.638V62.7675H55.783ZM59.9284 62.7675V60.2025L57.4984 56.5935H58.4794L60.3604 59.4465H60.4054L62.2774 56.5935H63.2134L60.7924 60.2025V62.7675H59.9284ZM64.0799 62.7675V56.5935H64.9349V62.0205H68.0039V62.7675H64.0799ZM68.9051 62.7675V56.5935H69.7601V62.7675H68.9051ZM71.3045 62.7675V56.5935H72.1595V59.8605L75.3005 56.5935H76.3625L74.0135 59.0595L76.4435 62.7675H75.4265L73.4195 59.6715L72.1595 60.8595V62.7675H71.3045Z" fill="white"/>
</svg>
