<svg width="211" height="72" viewBox="0 0 211 72" fill="none" xmlns="http://www.w3.org/2000/svg">
<path d="M204.3 72H99C95.6 72 92.8 69.2 92.8 65.8V6.29999C92.8 2.89999 95.6 0.100006 99 0.100006H204.4C207.8 0.100006 210.6 2.89999 210.6 6.29999V65.8C210.5 69.2 207.8 72 204.3 72ZM99 1.20001C96.1 1.20001 93.8 3.49999 93.8 6.39999V65.9C93.8 68.8 96.1 71.1 99 71.1H204.4C207.3 71.1 209.6 68.8 209.6 65.9V6.39999C209.6 3.49999 207.3 1.20001 204.4 1.20001H99Z" fill="#C80000"/>
<path d="M162.4 28.3C160.1 28.9 158.5 29.5 157.5 30.1C154.3 28.7 150.8 27.9 147.5 27.9C143.4 27.9 139.7 29 136.5 30.5L132.1 8.70001H162.4M141.2 14.1H138.5V22.1H143.9V20.2H141.2V14.1ZM148.6 20.8C147.4 20.8 147.1 20.3 147.1 18.8H152.6C152.6 15.3 151.8 13.8 148.6 13.8C145.2 13.8 144.3 15 144.3 18.1C144.3 21.1 145.6 22.5 148.5 22.5C151.4 22.5 152.4 21.4 152.5 19.8H150C149.9 20.5 149.6 20.8 148.6 20.8ZM147.1 17.2C147.1 16 147.3 15.3 148.5 15.3C149.6 15.3 149.9 15.8 149.9 17.2H147.1ZM155.6 14.1H152.7L155.7 22.1H159L162.1 14.1H159.2L157.3 19.3L155.6 14.1Z" fill="#A50716"/>
<path d="M162.4 8.60001H182.8L178 30.4C174.8 28.6 172 27.8 167.8 27.8C165.5 27.8 164 28 162.4 28.3M162.9 14V22H165.5V14H162.9ZM167.5 14.5L167.4 15.3C168.2 14.8 168.6 14.3 168.6 13.7C168.6 13 168.1 12.7 167.5 12.7C166.8 12.7 166.4 13.1 166.4 13.6C166.4 14.4 166.9 14.5 167.5 14.5ZM171.3 19.5H168.5C168.5 21.4 169.6 22.2 172.6 22.2C175.5 22.2 176.6 21.6 176.6 19.6C176.6 16.4 171.3 18 171.3 16.1C171.3 15.6 171.8 15.3 172.5 15.3C173.2 15.3 173.5 15.6 173.7 16.3H176.4C176.4 14.6 175.4 13.8 172.7 13.8C169.9 13.8 168.6 14.6 168.6 16.3C168.6 19.8 173.9 17.9 173.9 19.9C173.9 20.5 173.6 20.8 172.8 20.8C171.9 20.8 171.3 20.4 171.3 19.5ZM173.4 30.3C174.2 30.3 174.9 31 174.9 31.8C174.9 32.6 174.2 33.3 173.4 33.3C172.6 33.3 171.9 32.6 171.9 31.8C171.9 31 172.6 30.3 173.4 30.3ZM174.7 31.9C174.7 31.2 174.1 30.6 173.4 30.6C172.7 30.6 172.1 31.2 172.1 31.9C172.1 32.6 172.7 33.2 173.4 33.2C174.2 33.2 174.7 32.6 174.7 31.9ZM172.9 32.6V31.1H173.3C173.7 31.1 174 31.2 174 31.6C174 31.8 173.9 31.9 173.6 32.1L173.9 32.7H173.6L173.4 32.2H173.2V32.7H172.9V32.6ZM173.7 31.6C173.7 31.5 173.6 31.4 173.2 31.4V31.8C173.5 31.8 173.7 31.8 173.7 31.6Z" fill="#A50716"/>
<path d="M127.2 51.3C129.1 47.8 132.3 44.1 136.1 42.8C136.9 42.6 137.9 42.4 138.6 42.9C139.2 43.4 139.3 44.1 139.2 44.8C139 45.6 138.4 46.7 137.5 46.8C137.3 46.8 137.2 46.7 137.1 46.6C136.9 46.4 136.9 46 136.9 45.7C137.1 45 137.7 44.3 138.4 44.2C138.5 44.1 138.5 44 138.4 43.9C138.3 43.8 138.2 43.6 138 43.6C137.2 43.5 136.7 44 136.1 44.4C133.9 46.2 132.3 48.5 130.9 50.8C129.8 52.9 128.8 55 128.6 57.4C128.5 59.1 129 60.9 130.6 61.7C132.3 62.6 134.5 62 136.1 61.5L137.6 61L140.6 60.1C143.4 59.3 147 59.1 149.7 60.2C151.4 60.9 153.1 61.8 154.2 63.5C154.2 63.5 154.2 63.6 154.1 63.6C151.7 63 148.7 62.3 146.3 63.4H146.2C145.5 62.3 144.3 61.6 143.1 61.4C139.1 61 135.9 62.9 132.1 63.4C130.2 63.6 128.2 63.5 126.9 62.1C124.8 60 125.1 56.4 126.1 53.8C126.3 53 126.7 52.2 127.2 51.3Z" fill="#EC1A3B"/>
<path d="M132.7 52.5C133.7 50.7 135.2 48.5 137.3 47.8C137.9 47.7 138.5 47.7 138.9 48.1C139.8 49 139.5 50.5 139.1 51.6C139.1 51.7 139.2 51.7 139.2 51.7C140 51.7 140.6 51.3 141.2 50.8C142.4 49.4 143.8 47.6 145.8 47.8C146.2 47.9 146.5 48.1 146.7 48.4C147.2 49.4 146.7 50.5 146 51.3C145.7 51.6 145.4 51.8 145 51.6C144.8 51.5 144.7 51.4 144.7 51.2C144.6 50.5 145 49.8 145.5 49.4C145.7 49.2 146.2 49.4 146 49C145.9 48.9 145.7 48.8 145.6 48.8C144.6 49.2 144 50.2 143.4 51.1C142.7 52.2 142.1 53.4 141.7 54.7C141.6 55.2 141.5 55.7 141.7 56.2C141.9 56.5 142.2 56.6 142.6 56.5C143.6 56.1 144.4 55.3 145.2 54.5C146.9 52.5 147.8 49.9 150.1 48.3C150.8 47.8 151.8 47.4 152.7 47.9C152.8 48 152.9 48.1 153.1 48.1C153.2 48 153.3 47.7 153.6 47.7C154.2 47.7 154.9 47.7 155.6 47.7V47.8L155.4 48.2L151.9 55.4C151.9 55.5 151.9 55.6 151.9 55.7C152 55.8 152.1 55.8 152.2 55.8C152.7 55.5 153.1 55 153.5 54.5C153.8 54.1 154.1 53.6 154.3 53.2C154.4 53.1 154.5 52.9 154.7 52.9C154.9 52.9 155.1 52.8 155.3 53C155.1 53.6 154.7 54.1 154.4 54.7C153.4 56.2 152.2 57.9 150.4 58.3C150.1 58.3 149.7 58.4 149.5 58.1C149.2 57.8 149.1 57.4 149 57.1C149 57.1 148.9 57 148.9 57.1C148.1 57.8 147.4 58.5 146.3 58.3C146 58.2 145.7 58 145.5 57.7C145.2 57.2 145.4 56.5 145.3 55.9C145.3 55.8 145.2 55.9 145.2 55.9C144.1 57 142.8 58 141.3 58.3C140.6 58.4 140 58.2 139.5 57.7C138.4 56.2 139.3 54.3 139.9 52.8C139.9 52.7 139.9 52.6 139.8 52.6C139.4 52.6 139 52.7 138.6 52.8L138.5 53C137.6 54.7 136.6 56.5 134.9 57.8C134.2 58.3 133.2 58.6 132.4 58.2C131.6 57.6 131.5 56.6 131.6 55.6C131.8 54.5 132.2 53.5 132.7 52.5ZM135.3 52.5C134.8 53.5 134.3 54.5 134.3 55.6C134.4 55.8 134.5 56.1 134.7 56.1C135 56.2 135.2 56 135.4 55.9C136.3 55.1 137 54 137.5 53C137.5 52.9 137.6 52.8 137.6 52.7C137 52.5 136.5 52.1 136 51.6H135.9C135.8 51.6 135.8 51.7 135.7 51.8L135.3 52.5ZM136.8 50.5C136.8 51 137.3 51.5 137.8 51.6C137.9 51.6 138.1 51.7 138.2 51.6C138.4 51.3 138.5 50.9 138.6 50.6C138.7 50.1 138.8 49.5 138.3 49.2C138.1 49.1 137.9 49.1 137.7 49.2C137.1 49.4 136.8 49.9 136.8 50.5ZM148.4 54.5C148.3 54.9 148.1 55.4 148.2 55.9C148.2 56 148.3 56.1 148.4 56.1C148.8 56.1 149 55.8 149.3 55.5C150.4 53.9 151.3 52.2 152.1 50.5C152.2 50.1 152.4 49.8 152.4 49.4C152.4 49.3 152.3 49.3 152.2 49.2C152 49.1 151.9 49.2 151.7 49.3C150.2 50.5 149.4 52.2 148.6 53.8L148.4 54.5Z" fill="#EC1A3B"/>
<path d="M155.8 50.1C156.1 49.4 156.4 48.7 156.8 48.1C157 47.9 157.2 47.9 157.5 47.9H159.2L159.3 48C159 48.7 158.7 49.3 158.3 50C158.2 50.2 158 50.3 157.8 50.4C157.1 50.4 156.4 50.5 155.7 50.4C155.7 50.2 155.7 50.1 155.8 50.1Z" fill="#EC1A3B"/>
<path d="M157.5 53.5C158.7 51.1 160.1 48.7 162.1 46.6C164 44.7 166.2 43.1 168.7 42.6C169.4 42.5 170.2 42.6 170.7 43C170.8 43.1 170.9 43.2 171.1 43.1C172.9 42.4 175.5 42.1 177.3 43C178.4 43.5 179.4 44.2 180.4 44.8C180.5 44.9 180.5 45 180.4 45.1C179.8 45.8 179.3 46.4 178.8 47.1C178.7 47.2 178.6 47.1 178.6 47.1L175.9 45.2C174.6 44.3 173.2 43.7 171.5 44C171.3 44.1 171.4 44.3 171.4 44.5C171.4 46.2 170.8 47.7 170 49C169.4 49.9 168.6 50.9 167.5 51.2C167 51.3 166.6 51.2 166.3 50.8C165.5 49.6 166.2 48.1 166.8 47C167.5 45.8 168.5 44.7 169.6 43.8C169.6 43.8 169.7 43.7 169.6 43.7C169.5 43.6 169.3 43.7 169.2 43.7C167.4 44.3 165.9 45.9 164.5 47.5C162.1 50.5 160.2 53.7 159.2 57.2C158.9 58.5 158.4 60.6 159.8 61.5C161 62.1 162.1 61.3 163 60.5C164.4 59.1 165.3 57.5 165.7 55.7C165.8 55.2 165.9 54.4 165.4 54C165 53.8 164.6 54.2 164.3 54.5C163.6 55.3 163.3 56.3 163.2 57.4C162.9 57.7 162.5 57.8 162.2 58.1C161.6 58.5 161 59.1 160.5 59.7C160.4 59.7 160.4 59.6 160.4 59.6C160.3 57.6 161 55.9 162.1 54.4C163 53.4 164.1 52.5 165.4 52.8C166 53 166.4 53.6 166.5 54.1C166.7 56 165.9 57.6 165.1 59.1C163.7 61.2 161.6 63.4 158.8 63.2C157.8 63.1 156.8 62.4 156.3 61.4C155.3 59.3 156 56.7 156.7 54.7L157.5 53.5ZM166.8 50C166.8 50.2 166.9 50.5 167.2 50.6C167.7 50.7 168 50.4 168.4 50.1C169.6 48.8 170.4 47.3 170.6 45.5C170.6 45.2 170.7 44.9 170.5 44.7C170.4 44.7 170.3 44.7 170.2 44.8C169.4 45.4 168.6 46.2 168 47C167.3 47.9 166.8 48.8 166.8 50Z" fill="#EC1A3B"/>
<path d="M168.5 55.8C169.5 54.5 170.8 53.1 172.5 53C172.9 53 173.3 53.2 173.5 53.5C174.2 54.6 173.6 55.9 173.4 57C173.4 57.1 173.4 57.2 173.5 57.2C173.8 57.3 174.2 57.2 174.5 57L174.6 56.8C175.8 53.4 177.6 50.2 179.7 47.2C181 45.5 182.7 43.6 184.7 42.8C185.2 42.6 185.8 42.4 186.3 42.8C186.8 43.2 186.7 43.9 186.5 44.5C186.4 45 185.9 45 185.6 45.1C185.6 45.1 185.6 45.1 185.5 45.1C185.5 44.8 185.7 44.5 185.7 44.2C185.7 44 185.7 43.9 185.7 43.7C185.6 43.5 185.4 43.6 185.3 43.6C184.6 43.9 184.1 44.5 183.6 45.1C181.7 47.3 180.3 49.7 179.1 52.2C178.7 53.1 178.3 53.9 177.9 54.8C177.9 54.9 177.9 54.9 178 54.9C178.3 54.9 178.5 54.6 178.7 54.4C180.4 52.9 181.7 51.1 183 49.4C183.3 49.3 183.6 49.3 183.9 49.2H184C184 49.4 183.8 49.6 183.7 49.8C182.3 51.8 180.7 53.7 178.8 55.5L177.4 56.6C177.1 56.9 177.1 57.3 176.9 57.6C176.6 58.5 176.4 59.4 176.3 60.4C176.3 60.6 176.4 60.7 176.5 60.8C176.9 61 177.2 60.6 177.4 60.4C179.3 58.2 180.1 55.5 182.4 53.6C183.2 53 184.2 52.5 185.1 52.9C185.3 53 185.4 53.2 185.6 53.1C185.7 53 185.8 52.8 186 52.8C186.7 52.8 187.4 52.8 188.1 52.8C188.2 52.9 188.1 52.9 188.1 53L187.6 53.9L184.7 59.7C184.6 60 184.4 60.2 184.4 60.6C184.4 60.7 184.6 60.7 184.7 60.7C185.2 60.4 185.6 59.9 186 59.4C186.4 58.9 186.6 58.4 187 57.9C187.2 57.8 187.4 57.9 187.6 57.9C187.7 58 187.6 58.2 187.5 58.3C186.7 60.1 185.5 62 183.6 63C183.2 63.2 182.6 63.4 182.1 63.1C181.7 62.8 181.8 62.4 181.6 62C181.6 61.9 181.5 62 181.4 62C180.6 62.7 179.8 63.5 178.7 63.2C178 62.9 178 62.1 177.9 61.5C177.9 61.5 177.9 61.4 177.8 61.4H177.7C176.9 62.3 176 63.4 174.7 63.3C174.2 63.3 173.8 62.8 173.7 62.4C173.3 61 173.7 59.5 174 58.1C174 58 173.9 57.9 173.8 57.9H172.7L172.5 58.1C171.7 59.6 170.9 61.1 169.5 62.4C168.8 63 167.9 63.5 167 63.3C166.2 63 166 62.1 166 61.3C166.4 59.2 167.4 57.5 168.5 55.8ZM168.8 60.5C168.8 60.8 169 61.1 169.3 61.2C169.5 61.3 169.7 61.2 169.9 61.1C170.9 60.4 171.5 59.2 172 58.2C172.1 58.1 172.1 57.9 172 57.9C171.5 57.6 171 57.2 170.6 56.8C170.5 56.7 170.5 56.7 170.4 56.8C170 57.3 169.8 57.8 169.5 58.4C169.1 58.9 168.8 59.6 168.8 60.5ZM171.3 55.6C171.3 56.1 171.8 56.6 172.2 56.8C172.3 56.8 172.5 56.9 172.5 56.8C172.8 56.1 173.1 55.4 172.9 54.6C172.8 54.4 172.7 54.2 172.5 54.2C172.3 54.1 172.1 54.2 171.9 54.3C171.5 54.5 171.3 55.1 171.3 55.6ZM180.7 60.2C180.7 60.4 180.6 60.8 180.8 60.9C180.9 61 181.1 61 181.2 61C181.7 60.7 182 60.2 182.3 59.7C183.3 58.1 184.1 56.4 184.8 54.6C184.8 54.4 184.9 54.2 184.7 54.1C184.3 53.9 184 54.4 183.6 54.6C182.2 56 181.5 57.6 180.8 59.3L180.7 60.2Z" fill="#EC1A3B"/>
<path d="M182.8 47.4L183.7 46.2L183.8 46.1C186.4 46 188.5 44.5 190.4 42.6C190.4 42.8 190.3 43.1 190.2 43.3C189 46.2 186 48.7 182.8 48.7H182C181.9 48.7 182 48.5 182 48.5L182.8 47.4Z" fill="#EC1A3B"/>
<path d="M186.1 62.6C186.1 62.2 186.4 62 186.7 62C187 62 187.3 62.3 187.3 62.6C187.3 63 187 63.2 186.7 63.2C186.4 63.2 186.1 62.9 186.1 62.6ZM186.7 63.3C187.1 63.3 187.5 63 187.5 62.5C187.5 62.1 187.1 61.7 186.7 61.7C186.3 61.7 185.9 62 185.9 62.5C185.9 63 186.3 63.3 186.7 63.3ZM186.5 62.6H186.7L186.9 63H187L186.8 62.6C186.9 62.6 187 62.5 187 62.4C187 62.2 186.9 62.2 186.7 62.2H186.4V63.1H186.5V62.6ZM186.5 62.5V62.2H186.7C186.8 62.2 186.9 62.2 186.9 62.3C186.9 62.4 186.8 62.4 186.7 62.4H186.5V62.5Z" fill="#EC1A3B"/>
<path d="M105.1 24.1H0.100098V5.79999C0.100098 2.69999 2.6001 0.100006 5.8001 0.100006H105.1V24.1Z" fill="#C80000"/>
<path d="M105.1 24.1H0.100098V48H105.1V24.1Z" fill="#FF0000"/>
<path d="M105.1 72H5.8001C2.7001 72 0.100098 69.5 0.100098 66.3V48H105.1V72Z" fill="#FF3737"/>
<path d="M33.5975 14.9464V8.77241H38.3495V9.51041H34.4525V11.4184H37.9535V12.1564H34.4525V14.2084H38.4035V14.9464H33.5975ZM39.6883 14.9464V8.77241H40.5163L43.5133 12.8404C43.5433 12.8764 43.5823 12.9304 43.6303 13.0024C43.6783 13.0744 43.7263 13.1464 43.7743 13.2184C43.8223 13.2844 43.8613 13.3444 43.8913 13.3984H43.9273C43.9273 13.3024 43.9273 13.2094 43.9273 13.1194C43.9273 13.0234 43.9273 12.9304 43.9273 12.8404V8.77241H44.7643V14.9464H43.9813L40.9483 10.8064C40.9063 10.7404 40.8433 10.6474 40.7593 10.5274C40.6813 10.4074 40.6153 10.3114 40.5613 10.2394H40.5163C40.5163 10.3354 40.5163 10.4314 40.5163 10.5274C40.5163 10.6174 40.5163 10.7104 40.5163 10.8064V14.9464H39.6883ZM46.3153 14.9464V8.77241H51.0673V9.51041H47.1703V11.4184H50.6713V12.1564H47.1703V14.2084H51.1213V14.9464H46.3153ZM52.4061 14.9464V8.77241H55.6551C56.0751 8.77241 56.4231 8.85041 56.6991 9.00641C56.9811 9.15641 57.1911 9.36941 57.3291 9.64541C57.4671 9.91541 57.5361 10.2274 57.5361 10.5814C57.5361 11.0074 57.4401 11.3734 57.2481 11.6794C57.0561 11.9854 56.7921 12.2044 56.4561 12.3364L57.7521 14.9464H56.8161L55.6101 12.4894H53.2611V14.9464H52.4061ZM53.2611 11.7604H55.5741C55.9161 11.7604 56.1831 11.6554 56.3751 11.4454C56.5731 11.2354 56.6721 10.9474 56.6721 10.5814C56.6721 10.3534 56.6301 10.1614 56.5461 10.0054C56.4621 9.84941 56.3391 9.72941 56.1771 9.64541C56.0151 9.55541 55.8141 9.51041 55.5741 9.51041H53.2611V11.7604ZM61.6031 15.0544C60.6071 15.0544 59.8481 14.7934 59.3261 14.2714C58.8101 13.7494 58.5521 12.9454 58.5521 11.8594C58.5521 11.1514 58.6721 10.5604 58.9121 10.0864C59.1521 9.61241 59.5061 9.25841 59.9741 9.02441C60.4421 8.78441 61.0121 8.66441 61.6841 8.66441C62.1041 8.66441 62.4851 8.70941 62.8271 8.79941C63.1691 8.88941 63.4631 9.02741 63.7091 9.21341C63.9611 9.39341 64.1531 9.62141 64.2851 9.89741C64.4231 10.1734 64.4921 10.5004 64.4921 10.8784H63.6191C63.6191 10.6144 63.5711 10.3894 63.4751 10.2034C63.3791 10.0114 63.2411 9.85541 63.0611 9.73541C62.8871 9.61541 62.6831 9.53141 62.4491 9.48341C62.2151 9.42941 61.9661 9.40241 61.7021 9.40241C61.3421 9.40241 61.0211 9.44741 60.7391 9.53741C60.4571 9.62741 60.2201 9.76841 60.0281 9.96041C59.8361 10.1524 59.6891 10.3984 59.5871 10.6984C59.4851 10.9984 59.4341 11.3554 59.4341 11.7694V11.9584C59.4341 12.5164 59.5181 12.9694 59.6861 13.3174C59.8601 13.6654 60.1091 13.9204 60.4331 14.0824C60.7571 14.2384 61.1471 14.3164 61.6031 14.3164C62.0651 14.3164 62.4461 14.2534 62.7461 14.1274C63.0461 13.9954 63.2681 13.7974 63.4121 13.5334C63.5621 13.2694 63.6371 12.9364 63.6371 12.5344V12.4264H61.4591V11.6974H64.5011V14.9464H63.8531L63.7631 14.1634C63.6011 14.3734 63.4091 14.5444 63.1871 14.6764C62.9651 14.8084 62.7191 14.9044 62.4491 14.9644C62.1851 15.0244 61.9031 15.0544 61.6031 15.0544ZM65.9852 14.9464V8.77241H66.8402V14.9464H65.9852ZM70.1306 14.9464V12.3814L67.7006 8.77241H68.6816L70.5626 11.6254H70.6076L72.4796 8.77241H73.4156L70.9946 12.3814V14.9464H70.1306ZM72.8943 14.9464L75.3333 8.77241H76.4583L78.9063 14.9464H77.9793L77.3763 13.4164H74.3703L73.7763 14.9464H72.8943ZM74.6493 12.6874H77.0883L76.3413 10.7524C76.3233 10.6984 76.2963 10.6234 76.2603 10.5274C76.2243 10.4314 76.1853 10.3264 76.1433 10.2124C76.1013 10.0924 76.0593 9.97241 76.0173 9.85241C75.9753 9.72641 75.9363 9.61241 75.9003 9.51041H75.8463C75.8043 9.63041 75.7563 9.76841 75.7023 9.92441C75.6483 10.0804 75.5943 10.2334 75.5403 10.3834C75.4863 10.5274 75.4413 10.6504 75.4053 10.7524L74.6493 12.6874Z" fill="white"/>
<path d="M28.1883 38.9584V32.7844H31.3743C31.7283 32.7844 32.0343 32.8474 32.2923 32.9734C32.5503 33.0934 32.7483 33.2644 32.8863 33.4864C33.0303 33.7084 33.1023 33.9724 33.1023 34.2784C33.1023 34.5124 33.0603 34.7284 32.9763 34.9264C32.8923 35.1244 32.7753 35.2894 32.6253 35.4214C32.4753 35.5534 32.3043 35.6524 32.1123 35.7184V35.7544C32.3283 35.8024 32.5233 35.8894 32.6973 36.0154C32.8713 36.1414 33.0093 36.3094 33.1113 36.5194C33.2193 36.7234 33.2733 36.9754 33.2733 37.2754C33.2733 37.6774 33.1893 38.0014 33.0213 38.2474C32.8533 38.4934 32.6283 38.6734 32.3463 38.7874C32.0643 38.9014 31.7403 38.9584 31.3743 38.9584H28.1883ZM29.0433 38.2204H31.3653C31.6713 38.2204 31.9203 38.1424 32.1123 37.9864C32.3043 37.8244 32.4003 37.5574 32.4003 37.1854C32.4003 36.9574 32.3583 36.7684 32.2743 36.6184C32.1903 36.4624 32.0673 36.3484 31.9053 36.2764C31.7433 36.1984 31.5393 36.1594 31.2933 36.1594H29.0433V38.2204ZM29.0433 35.4304H31.2123C31.4163 35.4304 31.5933 35.3914 31.7433 35.3134C31.8933 35.2294 32.0103 35.1154 32.0943 34.9714C32.1843 34.8214 32.2293 34.6534 32.2293 34.4674C32.2293 34.1434 32.1423 33.9064 31.9683 33.7564C31.7943 33.6004 31.5633 33.5224 31.2753 33.5224H29.0433V35.4304ZM37.2445 39.0664C36.6025 39.0664 36.0505 38.9494 35.5885 38.7154C35.1325 38.4814 34.7785 38.1274 34.5265 37.6534C34.2805 37.1794 34.1575 36.5854 34.1575 35.8714C34.1575 35.1514 34.2805 34.5574 34.5265 34.0894C34.7785 33.6154 35.1325 33.2614 35.5885 33.0274C36.0505 32.7934 36.6025 32.6764 37.2445 32.6764C37.8865 32.6764 38.4355 32.7934 38.8915 33.0274C39.3535 33.2614 39.7075 33.6154 39.9535 34.0894C40.2055 34.5574 40.3315 35.1514 40.3315 35.8714C40.3315 36.5854 40.2055 37.1794 39.9535 37.6534C39.7075 38.1274 39.3535 38.4814 38.8915 38.7154C38.4355 38.9494 37.8865 39.0664 37.2445 39.0664ZM37.2445 38.3284C37.5805 38.3284 37.8835 38.2834 38.1535 38.1934C38.4295 38.1034 38.6605 37.9624 38.8465 37.7704C39.0385 37.5724 39.1855 37.3264 39.2875 37.0324C39.3895 36.7324 39.4405 36.3784 39.4405 35.9704V35.7814C39.4405 35.3674 39.3895 35.0134 39.2875 34.7194C39.1855 34.4194 39.0385 34.1734 38.8465 33.9814C38.6605 33.7834 38.4295 33.6394 38.1535 33.5494C37.8835 33.4594 37.5805 33.4144 37.2445 33.4144C36.9025 33.4144 36.5965 33.4594 36.3265 33.5494C36.0565 33.6394 35.8255 33.7834 35.6335 33.9814C35.4415 34.1734 35.2945 34.4194 35.1925 34.7194C35.0965 35.0134 35.0485 35.3674 35.0485 35.7814V35.9704C35.0485 36.3784 35.0965 36.7324 35.1925 37.0324C35.2945 37.3264 35.4415 37.5724 35.6335 37.7704C35.8255 37.9624 36.0565 38.1034 36.3265 38.1934C36.5965 38.2834 36.9025 38.3284 37.2445 38.3284ZM43.8333 39.0664C43.4973 39.0664 43.1733 39.0334 42.8613 38.9674C42.5553 38.9014 42.2823 38.7964 42.0423 38.6524C41.8023 38.5024 41.6103 38.3104 41.4663 38.0764C41.3283 37.8424 41.2593 37.5544 41.2593 37.2124C41.2593 37.1824 41.2593 37.1524 41.2593 37.1224C41.2653 37.0924 41.2683 37.0624 41.2683 37.0324H42.1323C42.1323 37.0504 42.1293 37.0804 42.1233 37.1224C42.1233 37.1584 42.1233 37.1914 42.1233 37.2214C42.1233 37.4614 42.1953 37.6654 42.3393 37.8334C42.4833 38.0014 42.6813 38.1274 42.9333 38.2114C43.1913 38.2894 43.4823 38.3284 43.8063 38.3284C43.9503 38.3284 44.1003 38.3194 44.2563 38.3014C44.4183 38.2834 44.5713 38.2534 44.7153 38.2114C44.8653 38.1634 44.9973 38.1034 45.1113 38.0314C45.2313 37.9534 45.3243 37.8604 45.3903 37.7524C45.4623 37.6384 45.4983 37.5004 45.4983 37.3384C45.4983 37.1344 45.4383 36.9664 45.3183 36.8344C45.2043 36.6964 45.0513 36.5854 44.8593 36.5014C44.6673 36.4114 44.4483 36.3334 44.2023 36.2674C43.9623 36.1954 43.7133 36.1264 43.4553 36.0604C43.1973 35.9944 42.9453 35.9194 42.6993 35.8354C42.4593 35.7454 42.2433 35.6374 42.0513 35.5114C41.8593 35.3794 41.7033 35.2174 41.5833 35.0254C41.4693 34.8334 41.4123 34.5994 41.4123 34.3234C41.4123 34.0654 41.4633 33.8344 41.5653 33.6304C41.6733 33.4264 41.8293 33.2554 42.0333 33.1174C42.2433 32.9734 42.5013 32.8654 42.8073 32.7934C43.1133 32.7154 43.4643 32.6764 43.8603 32.6764C44.1843 32.6764 44.4843 32.7124 44.7603 32.7844C45.0423 32.8504 45.2883 32.9554 45.4983 33.0994C45.7143 33.2374 45.8823 33.4144 46.0023 33.6304C46.1223 33.8464 46.1823 34.1074 46.1823 34.4134V34.5214H45.3363V34.3864C45.3363 34.1824 45.2733 34.0084 45.1473 33.8644C45.0213 33.7204 44.8473 33.6094 44.6253 33.5314C44.4093 33.4534 44.1633 33.4144 43.8873 33.4144C43.5273 33.4144 43.2273 33.4504 42.9873 33.5224C42.7473 33.5884 42.5673 33.6874 42.4473 33.8194C42.3333 33.9454 42.2763 34.0894 42.2763 34.2514C42.2763 34.4374 42.3333 34.5934 42.4473 34.7194C42.5673 34.8454 42.7233 34.9504 42.9153 35.0344C43.1073 35.1124 43.3263 35.1844 43.5723 35.2504C43.8183 35.3164 44.0673 35.3854 44.3193 35.4574C44.5773 35.5234 44.8263 35.6014 45.0663 35.6914C45.3123 35.7754 45.5313 35.8834 45.7233 36.0154C45.9213 36.1414 46.0773 36.3034 46.1913 36.5014C46.3053 36.6934 46.3623 36.9304 46.3623 37.2124C46.3623 37.6504 46.2543 38.0074 46.0383 38.2834C45.8223 38.5534 45.5253 38.7514 45.1473 38.8774C44.7693 39.0034 44.3313 39.0664 43.8333 39.0664ZM47.6209 38.9584V32.7844H48.4759V35.4304H51.8329V32.7844H52.6969V38.9584H51.8329V36.1774H48.4759V38.9584H47.6209ZM58.5949 40.1284L57.4879 39.0394C57.4099 39.0514 57.3319 39.0574 57.2539 39.0574C57.1759 39.0634 57.0979 39.0664 57.0199 39.0664C56.3779 39.0664 55.8259 38.9494 55.3639 38.7154C54.9079 38.4814 54.5539 38.1274 54.3019 37.6534C54.0559 37.1794 53.9329 36.5854 53.9329 35.8714C53.9329 35.1514 54.0559 34.5574 54.3019 34.0894C54.5539 33.6154 54.9079 33.2614 55.3639 33.0274C55.8259 32.7934 56.3779 32.6764 57.0199 32.6764C57.6619 32.6764 58.2109 32.7934 58.6669 33.0274C59.1289 33.2614 59.4829 33.6154 59.7289 34.0894C59.9809 34.5574 60.1069 35.1514 60.1069 35.8714C60.1069 36.6514 59.9569 37.2874 59.6569 37.7794C59.3569 38.2714 58.9369 38.6254 58.3969 38.8414L59.7199 40.1284H58.5949ZM57.0199 38.3284C57.3559 38.3284 57.6589 38.2834 57.9289 38.1934C58.2049 38.1034 58.4359 37.9624 58.6219 37.7704C58.8139 37.5724 58.9609 37.3264 59.0629 37.0324C59.1649 36.7324 59.2159 36.3784 59.2159 35.9704V35.7814C59.2159 35.3674 59.1649 35.0134 59.0629 34.7194C58.9609 34.4194 58.8139 34.1734 58.6219 33.9814C58.4359 33.7834 58.2049 33.6394 57.9289 33.5494C57.6589 33.4594 57.3559 33.4144 57.0199 33.4144C56.6779 33.4144 56.3719 33.4594 56.1019 33.5494C55.8319 33.6394 55.6009 33.7834 55.4089 33.9814C55.2169 34.1734 55.0699 34.4194 54.9679 34.7194C54.8719 35.0134 54.8239 35.3674 54.8239 35.7814V35.9704C54.8239 36.3784 54.8719 36.7324 54.9679 37.0324C55.0699 37.3264 55.2169 37.5724 55.4089 37.7704C55.6009 37.9624 55.8319 38.1034 56.1019 38.1934C56.3719 38.2834 56.6779 38.3284 57.0199 38.3284ZM60.5154 38.9584L62.9544 32.7844H64.0794L66.5274 38.9584H65.6004L64.9974 37.4284H61.9914L61.3974 38.9584H60.5154ZM62.2704 36.6994H64.7094L63.9624 34.7644C63.9444 34.7104 63.9174 34.6354 63.8814 34.5394C63.8454 34.4434 63.8064 34.3384 63.7644 34.2244C63.7224 34.1044 63.6804 33.9844 63.6384 33.8644C63.5964 33.7384 63.5574 33.6244 63.5214 33.5224H63.4674C63.4254 33.6424 63.3774 33.7804 63.3234 33.9364C63.2694 34.0924 63.2154 34.2454 63.1614 34.3954C63.1074 34.5394 63.0624 34.6624 63.0264 34.7644L62.2704 36.6994ZM67.3612 38.9584V32.7844H70.6102C71.0302 32.7844 71.3782 32.8624 71.6542 33.0184C71.9362 33.1684 72.1462 33.3814 72.2842 33.6574C72.4222 33.9274 72.4912 34.2394 72.4912 34.5934C72.4912 35.0194 72.3952 35.3854 72.2032 35.6914C72.0112 35.9974 71.7472 36.2164 71.4112 36.3484L72.7072 38.9584H71.7712L70.5652 36.5014H68.2162V38.9584H67.3612ZM68.2162 35.7724H70.5292C70.8712 35.7724 71.1382 35.6674 71.3302 35.4574C71.5282 35.2474 71.6272 34.9594 71.6272 34.5934C71.6272 34.3654 71.5852 34.1734 71.5012 34.0174C71.4172 33.8614 71.2942 33.7414 71.1322 33.6574C70.9702 33.5674 70.7692 33.5224 70.5292 33.5224H68.2162V35.7724ZM76.2528 39.0664C75.7308 39.0664 75.2808 38.9824 74.9028 38.8144C74.5248 38.6464 74.2338 38.3824 74.0298 38.0224C73.8318 37.6564 73.7328 37.1884 73.7328 36.6184V32.7844H74.5878V36.7084C74.5878 37.2484 74.7318 37.6534 75.0198 37.9234C75.3138 38.1934 75.7248 38.3284 76.2528 38.3284C76.7868 38.3284 77.2038 38.1934 77.5038 37.9234C77.8038 37.6534 77.9538 37.2484 77.9538 36.7084V32.7844H78.7998V36.6184C78.7998 37.1884 78.6978 37.6564 78.4938 38.0224C78.2898 38.3824 77.9958 38.6464 77.6118 38.8144C77.2338 38.9824 76.7808 39.0664 76.2528 39.0664ZM81.9538 38.9584L79.6498 32.7844H80.5768L82.1608 37.1584C82.1968 37.2424 82.2328 37.3384 82.2688 37.4464C82.3048 37.5544 82.3408 37.6594 82.3768 37.7614C82.4128 37.8634 82.4458 37.9534 82.4758 38.0314H82.5298C82.5538 37.9594 82.5838 37.8724 82.6198 37.7704C82.6558 37.6684 82.6918 37.5664 82.7278 37.4644C82.7638 37.3564 82.7998 37.2544 82.8358 37.1584L84.4018 32.7844H85.3018L82.9888 38.9584H81.9538Z" fill="white"/>
<path d="M31.2889 62.723V56.549H32.1439V59.816L35.2849 56.549H36.3469L33.9979 59.015L36.4279 62.723H35.4109L33.4039 59.627L32.1439 60.815V62.723H31.2889ZM37.2479 62.723V56.549H40.4969C40.9169 56.549 41.2649 56.627 41.5409 56.783C41.8229 56.933 42.0329 57.146 42.1709 57.422C42.3089 57.692 42.3779 58.004 42.3779 58.358C42.3779 58.784 42.2819 59.15 42.0899 59.456C41.8979 59.762 41.6339 59.981 41.2979 60.113L42.5939 62.723H41.6579L40.4519 60.266H38.1029V62.723H37.2479ZM38.1029 59.537H40.4159C40.7579 59.537 41.0249 59.432 41.2169 59.222C41.4149 59.012 41.5139 58.724 41.5139 58.358C41.5139 58.13 41.4719 57.938 41.3879 57.782C41.3039 57.626 41.1809 57.506 41.0189 57.422C40.8569 57.332 40.6559 57.287 40.4159 57.287H38.1029V59.537ZM43.7869 62.723V56.549H48.5389V57.287H44.6419V59.195H48.1429V59.933H44.6419V61.985H48.5929V62.723H43.7869ZM49.1668 62.723L51.6058 56.549H52.7308L55.1788 62.723H54.2518L53.6488 61.193H50.6428L50.0488 62.723H49.1668ZM50.9218 60.464H53.3608L52.6138 58.529C52.5958 58.475 52.5688 58.4 52.5328 58.304C52.4968 58.208 52.4578 58.103 52.4158 57.989C52.3738 57.869 52.3318 57.749 52.2898 57.629C52.2478 57.503 52.2088 57.389 52.1728 57.287H52.1188C52.0768 57.407 52.0288 57.545 51.9748 57.701C51.9208 57.857 51.8668 58.01 51.8128 58.16C51.7588 58.304 51.7138 58.427 51.6778 58.529L50.9218 60.464ZM56.7423 62.723V57.296H54.6273V56.549H59.7303V57.296H57.5973V62.723H56.7423ZM60.6883 62.723V56.549H61.5433V62.723H60.6883ZM64.7077 62.723L62.4037 56.549H63.3307L64.9147 60.923C64.9507 61.007 64.9867 61.103 65.0227 61.211C65.0587 61.319 65.0947 61.424 65.1307 61.526C65.1667 61.628 65.1997 61.718 65.2297 61.796H65.2837C65.3077 61.724 65.3377 61.637 65.3737 61.535C65.4097 61.433 65.4457 61.331 65.4817 61.229C65.5177 61.121 65.5537 61.019 65.5897 60.923L67.1557 56.549H68.0557L65.7427 62.723H64.7077ZM68.9237 62.723V56.549H69.7787V61.976H72.8477V62.723H68.9237ZM73.7489 62.723V56.549H74.6039V62.723H73.7489ZM76.1483 62.723V56.549H77.0033V59.816L80.1443 56.549H81.2063L78.8573 59.015L81.2873 62.723H80.2703L78.2633 59.627L77.0033 60.815V62.723H76.1483Z" fill="white"/>
</svg>
